<?xml version="1.0" encoding="utf-8"?>
<!-- Generator: Adobe Illustrator 16.0.0, SVG Export Plug-In . SVG Version: 6.00 Build 0)  -->
<!DOCTYPE svg PUBLIC "-//W3C//DTD SVG 1.1//EN" "http://www.w3.org/Graphics/SVG/1.1/DTD/svg11.dtd">
<svg version="1.1" id="Capa_1" xmlns="http://www.w3.org/2000/svg" xmlns:xlink="http://www.w3.org/1999/xlink" x="0px" y="0px"
	 width="200px" height="200px" viewBox="0 0 200 200" enable-background="new 0 0 200 200" xml:space="preserve">
<g>
	<g>
		<g>
			<path fill="#D9D9D9" d="M100,8c50.729,0,92,41.271,92,92c0,50.729-41.271,92-92,92c-50.729,0-92-41.271-92-92
				C8,49.271,49.271,8,100,8 M100,0C44.771,0,0,44.771,0,100s44.771,100,100,100s100-44.771,100-100S155.229,0,100,0L100,0z"/>
		</g>
	</g>
	<g>
		<path fill="#068C69" d="M115.984,54.791h-13.701v13.7h13.701V54.791z M111.418,63.924h-4.567v-4.566h4.567V63.924z"/>
		<path fill="#068C69" d="M97.717,54.791H84.016v13.7h13.701V54.791z M93.149,63.924h-4.566v-4.566h4.566V63.924z"/>
		<path fill="#068C69" d="M166.337,131.209l1.016-8.124c0.763-6.115,1.151-12.332,1.151-18.481c0-6.371-2.629-12.136-6.851-16.279
			V71.315l-36.745-16.092V31.272l-50.025,7.585v16.3l-3.996,1.748v0.03l-5.139,2.25v4.952l9.135-3.997v30.761h4.566V51.767
			l41.103-6.166v45.301h4.566V60.141l31.968,13.987v10.729c-1.434-0.833-2.957-1.529-4.566-2.037V77.2h-4.566v4.685
			c-0.752-0.076-1.512-0.116-2.283-0.116c-0.773,0-1.533,0.04-2.284,0.116v-9.251h-4.567V82.82
			c-1.609,0.508-3.133,1.204-4.566,2.037v-16.79h-4.566v20.257c-4.223,4.146-6.851,9.908-6.851,16.279
			c0,6.149,0.388,12.366,1.151,18.479l1.016,8.124c-0.836,0.887-1.558,1.848-2.167,2.873c-0.69-1.16-1.512-2.252-2.491-3.229
			c-2.087-2.091-4.707-3.571-7.572-4.286l-4.037-1.01l-0.749-2.99c2.542-1.832,4.425-4.509,5.247-7.62l1.16-1.106
			c2.341-2.228,4.119-5.028,5.141-8.091c0.676-2.026,1.019-4.14,1.019-6.279v-1.717c0-4.342-1.747-8.281-4.567-11.163V72.634
			h-13.701v9.135h-4.566v-9.135H84.016v13.955c-2.82,2.884-4.566,6.823-4.566,11.163v1.717c0,2.14,0.343,4.253,1.018,6.273
			c1.021,3.066,2.801,5.867,5.139,8.093l1.162,1.107c0.822,3.11,2.706,5.786,5.247,7.619l-0.749,2.992l-4.037,1.01
			c-2.867,0.715-5.484,2.197-7.572,4.286c-0.979,0.979-1.801,2.067-2.49,3.228c-0.689-1.16-1.512-2.251-2.492-3.228
			c-2.086-2.091-4.706-3.571-7.571-4.286l-4.036-1.01l-0.75-2.992c2.541-1.831,4.426-4.507,5.247-7.619l1.16-1.105
			c2.341-2.228,4.119-5.028,5.14-8.092c0.676-2.023,1.02-4.137,1.02-6.276c0-4.548-1.738-8.686-4.567-11.825V68.067h-4.567v1.523
			V83.99c-1.414-0.785-2.95-1.374-4.566-1.749v-9.607h-4.567v9.135h-4.567V77.2H47.48v4.568h-2.949
			c-0.553,0-1.086,0.082-1.617,0.164v-7.805l18.248-7.983v-4.95l-22.815,9.992v12.566c-2.754,1.947-4.566,5.142-4.566,8.767
			c0,1.979,0.541,3.857,1.505,5.482c-0.979,1.606-1.505,3.46-1.505,5.367c0,4.417,2.794,8.319,6.962,9.758
			c0.475,3.88,2.576,7.255,5.602,9.435l-0.749,2.992l-4.038,1.01c-2.867,0.715-5.484,2.197-7.571,4.286
			c-3.077,3.079-4.772,7.174-4.772,11.526v7.896H157.36v-4.567h-7.023l10.328-13.275c0.761,0.472,1.479,1.014,2.118,1.652
			c2.217,2.215,3.438,5.16,3.438,8.294v3.329h-4.273v4.567h8.84v-7.896C170.787,138.186,169.203,134.243,166.337,131.209z
			 M120.552,40.983l-41.103,6.166v-4.518l41.103-6.165V40.983z M64.873,130.717l-3.116,4.008l-3.476-2.607l3.324-2.219
			L64.873,130.717z M54.331,129.26l-4.245-2.829l0.455-1.822c1.205,0.349,2.475,0.545,3.79,0.545s2.585-0.196,3.79-0.545
			l0.455,1.822L54.331,129.26z M40.63,107.168v0.792c-1.411-1.066-2.283-2.748-2.283-4.591c0-0.639,0.118-1.262,0.322-1.855
			c0.34,0.222,0.685,0.436,1.053,0.62l1.726,0.863C40.936,104.303,40.63,105.701,40.63,107.168z M43.957,99.146l-2.191-1.096
			c-2.11-1.053-3.419-3.173-3.419-5.53c0-3.41,2.774-6.185,6.185-6.185h12.65c7.242,0,13.134,5.895,13.134,13.134
			c0,1.646-0.263,3.273-0.783,4.831c-0.372,1.116-0.884,2.184-1.501,3.181v-0.594c0-3.777-3.073-6.851-6.85-6.851h-6.851
			c-1.261,0-2.284-1.025-2.284-2.284c0-1.258,1.023-2.282,2.284-2.282h2.283v-4.568h-2.283c-3.407,0-6.241,2.502-6.764,5.762
			C46.188,97.251,44.98,98.111,43.957,99.146z M45.197,111.453v-4.285c0-2.438,1.285-4.634,3.283-5.853
			c1.206,1.971,3.377,3.288,5.851,3.288h6.851c1.26,0,2.283,1.024,2.283,2.283v4.566c0,5.038-4.097,9.134-9.134,9.134
			S45.197,116.491,45.197,111.453z M47.057,129.898l3.324,2.216l-3.479,2.607l-3.116-4.008L47.057,129.898z M33.78,145.705v-3.329
			c0-3.136,1.22-6.08,3.437-8.296c0.639-0.639,1.358-1.181,2.119-1.653l10.328,13.278H33.78z M54.331,144.271l-4.624-5.943
			l4.624-3.469l4.624,3.469L54.331,144.271z M74.883,145.705H58.998l10.328-13.275c0.761,0.472,1.48,1.014,2.119,1.652
			c2.218,2.215,3.438,5.16,3.438,8.294V145.705z M110.545,130.714l-3.117,4.008l-3.475-2.607l3.324-2.217L110.545,130.714z
			 M100,129.26l-4.244-2.829l0.453-1.822c1.206,0.349,2.476,0.545,3.791,0.545s2.585-0.196,3.791-0.545l0.454,1.822L100,129.26z
			 M106.851,77.2h4.567v6.132c-1.421-0.679-2.955-1.148-4.567-1.382V77.2z M88.583,77.2h4.566v4.75
			c-1.611,0.233-3.146,0.703-4.566,1.382V77.2z M86.299,107.168v0.313c-0.616-1-1.127-2.064-1.5-3.181
			c-0.521-1.558-0.783-3.182-0.783-4.831v-1.717c0-6.295,5.121-11.417,11.418-11.417h9.133c6.297,0,11.418,5.122,11.418,11.417
			v1.717c0,1.646-0.263,3.273-0.783,4.831c-0.372,1.116-0.884,2.184-1.5,3.181v-0.594c0-3.777-3.074-6.851-6.851-6.851H100
			c-1.26,0-2.283-1.025-2.283-2.284c0-1.258,1.023-2.282,2.283-2.282h2.283v-4.568H100c-3.407,0-6.24,2.502-6.764,5.762
			C89.078,98.436,86.299,102.534,86.299,107.168z M90.866,111.453v-4.285c0-2.438,1.286-4.634,3.284-5.853
			c1.205,1.971,3.377,3.288,5.85,3.288h6.851c1.261,0,2.284,1.024,2.284,2.283v4.566c0,5.038-4.098,9.134-9.135,9.134
			S90.866,116.491,90.866,111.453z M92.725,129.898l3.325,2.216l-3.476,2.607l-3.117-4.008L92.725,129.898z M79.449,145.705v-3.329
			c0-3.136,1.219-6.08,3.436-8.296c0.641-0.639,1.359-1.181,2.12-1.653l10.328,13.278H79.449z M100,144.271l-4.624-5.943
			l4.624-3.469l4.625,3.469L100,144.271z M120.552,145.705h-15.884l10.328-13.275c0.76,0.472,1.479,1.014,2.119,1.652
			c2.217,2.215,3.437,5.16,3.437,8.294V145.705z M125.118,145.705v-3.329c0-3.136,1.22-6.08,3.437-8.296
			c0.639-0.639,1.359-1.181,2.119-1.653l10.328,13.278H125.118z M145.67,144.271l-4.214-5.416h8.427L145.67,144.271z
			 M153.436,134.288h-15.53l-2.778-3.574l0.26-0.065c3.076-0.769,5.487-3.065,6.455-6.052c1.215,0.356,2.496,0.557,3.828,0.557
			c1.33,0,2.613-0.2,3.83-0.554c0.967,2.985,3.378,5.28,6.451,6.05l0.264,0.067L153.436,134.288z M136.535,111.453v-4.285
			c0-3.148,2.135-5.883,5.191-6.646l0.187-0.047c1.5,1.465,3.457,2.478,5.646,2.79l5.282,0.757c1.118,0.157,1.961,1.13,1.961,2.257
			v5.175c0,5.038-4.096,9.134-9.133,9.134C140.632,120.587,136.535,116.491,136.535,111.453z M162.822,122.517l-0.688,5.492
			c-1.167-0.621-2.398-1.122-3.691-1.445l-1.382-0.346c-1.64-0.41-2.911-1.682-3.32-3.322l-0.085-0.334
			c3.453-2.488,5.713-6.534,5.713-11.108v-5.175c0-3.386-2.527-6.302-5.879-6.779l-5.281-0.756c-2.752-0.393-4.823-2.78-4.823-5.558
			v-2.284h-4.567v2.284c0,1.144,0.194,2.253,0.553,3.293c-4.416,1.653-7.402,5.88-7.402,10.689v4.285
			c0,4.574,2.26,8.62,5.715,11.112l-0.082,0.332c-0.41,1.64-1.683,2.912-3.324,3.322l-1.379,0.346
			c-1.295,0.323-2.528,0.824-3.695,1.445l-0.688-5.492c-0.74-5.928-1.114-11.956-1.114-17.915c0-10.073,8.196-18.269,18.269-18.269
			s18.268,8.195,18.268,18.269C163.938,110.563,163.563,116.591,162.822,122.517z"/>
	</g>
</g>
</svg>
