<?xml version="1.0" encoding="utf-8"?>
<!-- Generator: Adobe Illustrator 16.0.0, SVG Export Plug-In . SVG Version: 6.00 Build 0)  -->
<!DOCTYPE svg PUBLIC "-//W3C//DTD SVG 1.1//EN" "http://www.w3.org/Graphics/SVG/1.1/DTD/svg11.dtd">
<svg version="1.1" id="Capa_1" xmlns="http://www.w3.org/2000/svg" xmlns:xlink="http://www.w3.org/1999/xlink" x="0px" y="0px"
	 width="28px" height="28px" viewBox="0 0 28 28" enable-background="new 0 0 28 28" xml:space="preserve">
<g>
	<polygon fill="#D4D4D4" points="21,17.114 21,11.384 21,11.383 16.242,14.238 	"/>
	<polygon fill="#D4D4D4" points="7,11.383 7,17.113 7,17.114 11.758,14.238 	"/>
	<path fill="#D4D4D4" d="M14,15.583l-1.272-0.763L7.035,18.26C7.152,18.697,7.548,19,8,19h12c0.453,0,0.848-0.303,0.967-0.739
		l-5.695-3.44L14,15.583z"/>
	<path fill="#D4D4D4" d="M20,9H8c-0.552,0-1,0.448-1,1v0.217l7,4.2l7-4.2V10C21,9.448,20.553,9,20,9z"/>
	<path fill="#D4D4D4" d="M14,1C6.82,1,1,6.819,1,14c0,7.182,5.82,13,13,13c7.182,0,13-5.818,13-13C27,6.819,21.182,1,14,1z M22,18
		c0,1.104-0.895,2-2,2H8c-1.104,0-2-0.896-2-2v-8c0-1.104,0.896-2,2-2h12c1.105,0,2,0.896,2,2V18z"/>
</g>
</svg>
