<svg xmlns="http://www.w3.org/2000/svg" viewBox="0 0 19.17 15.58"><defs><style>.cls-1{fill:#fff;}</style></defs><g id="Layer_2" data-name="Layer 2"><g id="Pages"><polygon class="cls-1" points="2.4 0 5.77 0 5.5 2.17 1.85 2.17 2.4 0"/><polygon class="cls-1" points="6.21 0 9.36 0 9.36 2.17 5.94 2.17 6.21 0"/><polygon class="cls-1" points="13.23 2.17 9.81 2.17 9.81 0 12.96 0 13.23 2.17"/><polygon class="cls-1" points="1.74 2.62 5.44 2.62 5.2 4.57 1.25 4.57 1.74 2.62"/><polygon class="cls-1" points="5.89 2.62 9.36 2.62 9.36 4.57 5.64 4.57 5.89 2.62"/><polygon class="cls-1" points="13.53 4.57 9.81 4.57 9.81 2.62 13.28 2.62 13.53 4.57"/><polygon class="cls-1" points="17.32 2.17 13.68 2.17 13.4 0 16.77 0 17.32 2.17"/><polygon class="cls-1" points="17.92 4.57 13.97 4.57 13.73 2.62 17.43 2.62 17.92 4.57"/><polygon class="cls-1" points="1.14 5.01 5.14 5.01 4.9 6.97 0.66 6.97 1.14 5.01"/><polygon class="cls-1" points="5.59 5.01 9.36 5.01 9.36 6.97 5.34 6.97 5.59 5.01"/><polygon class="cls-1" points="13.83 6.97 9.81 6.97 9.81 5.01 13.58 5.01 13.83 6.97"/><polygon class="cls-1" points="18.52 6.97 14.28 6.97 14.03 5.01 18.03 5.01 18.52 6.97"/><polygon class="cls-1" points="0.54 7.41 4.84 7.41 4.57 9.59 0 9.59 0.54 7.41"/><polygon class="cls-1" points="5.29 7.41 9.36 7.41 9.36 9.59 5.02 9.59 5.29 7.41"/><polygon class="cls-1" points="13.88 7.41 14.15 9.59 9.81 9.59 9.81 7.41 13.88 7.41"/><polygon class="cls-1" points="19.17 9.59 14.6 9.59 14.33 7.41 18.63 7.41 19.17 9.59"/><rect class="cls-1" y="10.78" width="19.17" height="1.2"/><rect class="cls-1" x="7.19" y="14.38" width="4.79" height="1.2"/><rect class="cls-1" x="8.39" y="12.58" width="2.4" height="1.2" transform="translate(22.77 3.59) rotate(90)"/></g></g></svg>