<svg xmlns="http://www.w3.org/2000/svg" viewBox="0 0 16.69 22.77"><defs><style>.cls-1{fill:#fff;}</style></defs><g id="Layer_2" data-name="Layer 2"><g id="Pages"><path class="cls-1" d="M9.54,22.77H7.15l.52-11.5a1.7,1.7,0,0,0,1.35,0Z"/><path class="cls-1" d="M9.54,4.79A15.3,15.3,0,0,1,9.24,8,1.86,1.86,0,0,0,7.45,8a15.3,15.3,0,0,1-.3-3.21C7.15,2.15,7.68,0,8.34,0S9.54,2.15,9.54,4.79Z"/><path class="cls-1" d="M7.42,11.15A15.38,15.38,0,0,1,4.79,13C2.5,14.34.37,15,0,14.38s1.26-2.11,3.55-3.44A15.43,15.43,0,0,1,6.53,9.61,1.79,1.79,0,0,0,7.42,11.15Z"/><path class="cls-1" d="M9.54,9.59a1.22,1.22,0,0,1-.55,1l-.17.09a1.28,1.28,0,0,1-.48.09,1.27,1.27,0,0,1-.47-.09L7.7,10.6a1.22,1.22,0,0,1-.55-1,.76.76,0,0,1,0-.15,1.14,1.14,0,0,1,.47-.81,1.19,1.19,0,0,1,1.43,0,1.14,1.14,0,0,1,.47.81A.76.76,0,0,1,9.54,9.59Z"/><path class="cls-1" d="M16.65,14.38c-.33.57-2.46,0-4.75-1.36a15.38,15.38,0,0,1-2.63-1.87,1.79,1.79,0,0,0,.89-1.54,15.43,15.43,0,0,1,2.94,1.33C15.39,12.27,17,13.81,16.65,14.38Z"/></g></g></svg>