<svg xmlns="http://www.w3.org/2000/svg" viewBox="0 0 96.05 97.38"><defs><style>.cls-1{fill:none;stroke:#ccc;stroke-width:0.25px;}.cls-2{fill:#00f8ef;}</style></defs><g id="Layer_2" data-name="Layer 2"><g id="Pages"><g id="viz"><g id="links"><path class="cls-1" d="M47.75,49.26c0,23.57,2.9-23.39,5.8-46.78"/><path class="cls-1" d="M47.75,49.26c0,23.57,9.06-21.76,18.12-43.52"/><path class="cls-1" d="M47.75,49.26c0,23.57,14.35-18.69,28.7-37.39"/><path class="cls-1" d="M47.75,49.26C47.75,72.83,66.36,34.8,85,20.33"/><path class="cls-1" d="M47.75,49.26c0,23.57,21.63-9.35,43.27-18.7"/><path class="cls-1" d="M47.75,49.26c0,23.57,23.28-3.66,46.56-7.33"/><path class="cls-1" d="M47.75,49.26c0,23.57,23.46,2.22,46.93,4.44"/><path class="cls-1" d="M47.75,49.26c0,23.57,22.19,7.94,44.39,15.87"/><path class="cls-1" d="M47.75,49.26c0,23.57,19.56,13.14,39.13,26.28"/><path class="cls-1" d="M47.75,49.26c0,23.57,15.75,17.53,31.51,35.06"/><path class="cls-1" d="M47.75,49.26c0,23.57,11,20.85,22,41.7"/><path class="cls-1" d="M47.75,49.26c0,23.57,5.57,22.91,11.14,45.81"/><path class="cls-1" d="M47.75,49.26c0,23.57-.09,23.57-.18,47.14"/><path class="cls-1" d="M47.75,49.26c0,23.57-5.66,22.89-11.31,45.77"/><path class="cls-1" d="M47.75,49.26c0,23.57-10.88,20.91-21.76,41.82"/><path class="cls-1" d="M47.75,49.26c0,23.57-15.48,17.78-31,35.56"/><path class="cls-1" d="M47.75,49.26c0,23.57-19.21,13.66-38.42,27.32"/><path class="cls-1" d="M47.75,49.26c0,23.57-21.88,8.79-43.75,17.57"/><path class="cls-1" d="M47.75,49.26c0,23.57-23.32,3.44-46.64,6.88"/><path class="cls-1" d="M47.75,49.26c0,23.57-23.48-2.06-47-4.13"/><path class="cls-1" d="M47.75,49.26c0,23.57-22.38-7.41-44.76-14.82"/><path class="cls-1" d="M47.75,49.26c0,23.57-20.1-12.32-40.19-24.64"/><path class="cls-1" d="M47.75,49.26c0,23.57-16.76-16.57-33.52-33.15"/><path class="cls-1" d="M47.75,49.26c0,23.57-12.59-19.93-25.17-39.86"/><path class="cls-1" d="M47.75,49.26c0,23.57-7.88-22.21-15.75-44.43"/><path class="cls-1" d="M47.75,49.26c0,23.57-2.91-23.39-5.81-46.78"/></g><circle class="cls-2" cx="47.75" cy="49.26" r="1.24"/><circle class="cls-2" cx="53.55" cy="2.48" r="2.48"/><circle class="cls-2" cx="65.87" cy="5.74" r="1.87"/><circle class="cls-2" cx="76.45" cy="11.87" r="1.67"/><circle class="cls-2" cx="84.97" cy="20.33" r="1.5"/><circle class="cls-2" cx="91.02" cy="30.56" r="1.48"/><circle class="cls-2" cx="94.31" cy="41.93" r="1.44"/><circle class="cls-2" cx="94.68" cy="53.7" r="1.37"/><circle class="cls-2" cx="92.14" cy="65.13" r="1.33"/><circle class="cls-2" cx="86.88" cy="75.54" r="1.3"/><circle class="cls-2" cx="79.26" cy="84.32" r="1.28"/><circle class="cls-2" cx="69.73" cy="90.96" r="1.28"/><circle class="cls-2" cx="58.89" cy="95.07" r="1.24"/><circle class="cls-2" cx="47.57" cy="96.4" r="0.97"/><circle class="cls-2" cx="36.44" cy="95.03" r="0.96"/><circle class="cls-2" cx="25.99" cy="91.08" r="0.9"/><circle class="cls-2" cx="16.79" cy="84.82" r="0.89"/><circle class="cls-2" cx="9.33" cy="76.58" r="0.88"/><circle class="cls-2" cx="4" cy="66.83" r="0.88"/><circle class="cls-2" cx="1.11" cy="56.14" r="0.82"/><circle class="cls-2" cx="0.79" cy="45.13" r="0.79"/><circle class="cls-2" cx="2.99" cy="34.44" r="0.66"/><circle class="cls-2" cx="7.56" cy="24.62" r="0.65"/><circle class="cls-2" cx="14.23" cy="16.11" r="0.63"/><circle class="cls-2" cx="22.58" cy="9.4" r="0.49"/><circle class="cls-2" cx="32" cy="4.83" r="0.25"/><circle class="cls-2" cx="41.94" cy="2.48" r="0.08"/></g></g></g></svg>