<svg xmlns="http://www.w3.org/2000/svg" viewBox="0 0 47.38 62.33"><defs><style>.cls-1{fill:#00f8ef;}</style></defs><g id="Layer_2" data-name="Layer 2"><g id="Layer_7" data-name="Layer 7"><path class="cls-1" d="M47.35,50a9.39,9.39,0,0,0-3.69-7.49,10.32,10.32,0,0,0-6.09-2.11A7.81,7.81,0,0,1,31,36.51a20.59,20.59,0,0,1-1.15-2.94.8.8,0,0,1,.3-.88,19.3,19.3,0,0,0,2.1-1.85c2.38-2.68,3.47-5.93,4.2-9.34a2.83,2.83,0,0,1,.21-.9,11.16,11.16,0,0,0,1.33-4.66,14.47,14.47,0,0,0-1.48-8.45A13.11,13.11,0,0,0,32,2.3,12.14,12.14,0,0,0,20.12,1,4.22,4.22,0,0,1,19,1.36a9.66,9.66,0,0,0-5.7,2.71c-4.28,4.1-5,11-2.7,16.24A6,6,0,0,1,11,21.68c.81,4.34,2.58,8.15,6.13,11a.89.89,0,0,1,.33,1,8,8,0,0,1-7.93,6.78A9.64,9.64,0,0,0,0,50.28Q0,55.35,0,60.4c0,1.48.44,1.92,2,1.92H45.57c1.28,0,1.8-.51,1.8-1.79C47.37,57,47.4,53.5,47.35,50ZM12.56,17.05c-.24-.05-.18-.32-.21-.49a12,12,0,0,1,.39-6.72C14,6.7,16.12,4.36,19.81,4.08a1.85,1.85,0,0,0,.69-.21c5.67-2.87,11.9.36,14,6.11a11.85,11.85,0,0,1,.73,4.73,11.59,11.59,0,0,0-1.72-1.14A6.55,6.55,0,0,0,30.76,13c-3,0-6,0-9,0a2.87,2.87,0,0,1-2.95-1.75,1.59,1.59,0,0,0-1.77-1,1.69,1.69,0,0,0-1.47,1.39,12.9,12.9,0,0,1-2.64,5C12.86,16.84,12.77,17.08,12.56,17.05ZM17,28.69a17.18,17.18,0,0,1-3.36-7.78,1.38,1.38,0,0,1,.48-1.44,14.11,14.11,0,0,0,3.27-4.6c.19-.43.35-.39.68-.14a5.4,5.4,0,0,0,3.37,1.07c3.08,0,6.17,0,9.25,0a3.29,3.29,0,0,1,2.15.7c.78.63,1.28,1.38,1,2.17-.33,4.15-1.39,7.74-4.12,10.61C25.91,33.34,20.57,33,17,28.69Zm.33,11.16A10.77,10.77,0,0,0,20.07,35c.14-.54.14-.53.43-.52a19.88,19.88,0,0,0,2,.46,9.38,9.38,0,0,0,4-.36c.47-.13.67-.1.79.43a10.53,10.53,0,0,0,3.42,5.56c.37.32.41.55.12,1q-3.39,4.8-6.75,9.63c-.34.48-.54.4-.84,0q-3-4.32-6.05-8.62C16.2,41.06,16.19,41.07,17.37,39.85ZM43.74,59.47c-6.71,0-13.42,0-20.13,0h0c-6.64,0-13.28,0-19.93,0-.63,0-.86-.12-.85-.82,0-2.82,0-5.63,0-8.45a6.77,6.77,0,0,1,6.78-7,9.72,9.72,0,0,0,3.26-.57,1,1,0,0,1,1.34.44c2.23,3.25,4.51,6.48,6.78,9.7,1.49,2.11,3.88,2.09,5.37,0C28.67,49.52,31,46.26,33.25,43c.27-.4.49-.54,1-.36a12.08,12.08,0,0,0,3.68.66A6.73,6.73,0,0,1,44.5,50c0,2.91,0,5.83,0,8.74C44.52,59.33,44.33,59.47,43.74,59.47Z"/><circle class="cls-1" cx="19.48" cy="20.33" r="1.75"/><circle class="cls-1" cx="28.12" cy="20.33" r="1.75"/><path class="cls-1" d="M27.77,25.89a4.41,4.41,0,0,1-4,2.92,4.31,4.31,0,0,1-3.94-2.92Z"/></g></g></svg>