<?xml version="1.0" encoding="utf-8"?>
<!-- Generator: Adobe Illustrator 16.0.0, SVG Export Plug-In . SVG Version: 6.00 Build 0)  -->
<!DOCTYPE svg PUBLIC "-//W3C//DTD SVG 1.1//EN" "http://www.w3.org/Graphics/SVG/1.1/DTD/svg11.dtd">
<svg version="1.1" id="Capa_1" xmlns="http://www.w3.org/2000/svg" xmlns:xlink="http://www.w3.org/1999/xlink" x="0px" y="0px"
	 width="225px" height="225px" viewBox="0 0 225 225" enable-background="new 0 0 225 225" xml:space="preserve">
<g>
	<path d="M196.264,178.764h-4.815c-3.338-7.936-3.342-15.678-0.003-23.574h4.818c5.369,0,9.736-4.367,9.736-9.736
		s-4.367-9.738-9.736-9.738h-19.373c2.466-2.816,3.967-6.497,3.967-10.528V94.679c0-8.828-7.181-16.006-16.007-16.006h-7.877
		c0.67-1.333,1.047-2.833,1.047-4.425c0-5.466-4.44-9.913-9.9-9.913h-2.712c-2.42-5.976-2.42-11.818-0.003-17.758h2.715
		c5.46,0,9.9-4.445,9.9-9.913c0-5.459-4.44-9.901-9.9-9.901H55.714c-15.826,0-28.7,12.87-28.7,28.689
		c0,7.65,2.989,14.85,8.417,20.28c1.08,1.079,2.231,2.057,3.44,2.941H36.75c-5.369,0-9.736,4.368-9.736,9.737
		c0,5.369,4.367,9.736,9.736,9.736h4.818c3.336,7.894,3.336,15.637-0.005,23.573H36.75c-5.369,0-9.736,4.367-9.736,9.738
		c0,2.054,0.641,3.957,1.73,5.531C23.021,139.43,19,145.115,19,151.723v30.506c0,8.828,7.177,16.01,15.995,16.01h161.266
		c5.372,0,9.739-4.371,9.739-9.738C206,183.129,201.633,178.764,196.264,178.764L196.264,178.764z M196.264,141.193
		c2.347,0,4.258,1.91,4.258,4.26c0,2.348-1.911,4.258-4.258,4.258h-49.438c-1.513,0-2.739,1.227-2.739,2.738
		c0,1.514,1.227,2.74,2.739,2.74h38.742c-1.068,3.006-1.726,6.025-1.973,9.047c0,0-1.092,5.424,1.979,14.527H39.268
		c-0.43,0-0.793-0.365-0.793-0.795v-21.984c0-0.432,0.363-0.795,0.793-0.795h27.137l0.001,8.996c-0.172,2.693,1.144,3.754,1.95,4.15
		c0.818,0.4,2.498,0.787,4.568-1.105c0.015-0.01,0.03-0.025,0.044-0.037l7.656-7.303l7.657,7.303
		c0.013,0.014,0.027,0.027,0.04,0.037c1.214,1.107,2.292,1.436,3.143,1.436c0.608,0,1.101-0.168,1.441-0.336
		c0.81-0.396,2.123-1.465,1.936-4.15l0.005-8.99h38.494c1.513,0,2.736-1.227,2.736-2.74c0-1.512-1.224-2.738-2.736-2.738H94.849
		l0.003-8.518H196.264L196.264,141.193z M49.418,107.194c-0.248-3.022-0.916-6.04-1.984-9.049H160.59
		c0.432,0,0.794,0.365,0.794,0.794v21.988c0,0.43-0.362,0.791-0.794,0.791h-65.73l0.003-9.046h19.172
		c1.513,0,2.739-1.228,2.739-2.739c0-1.513-1.227-2.739-2.739-2.739H49.418L49.418,107.194z M66.396,121.719h-18.97
		c1.068-3.011,1.738-6.029,1.988-9.046h16.979L66.396,121.719z M89.385,112.673l-0.02,47.983l-6.852-6.535
		c-1.059-1.012-2.723-1.012-3.781,0l-6.85,6.535l-0.01-47.983H89.385L89.385,112.673z M32.492,55.451
		c0-12.8,10.415-23.21,23.222-23.21h92.406c2.438,0,4.422,1.983,4.422,4.422c0,2.447-1.984,4.438-4.422,4.438H97.621
		c-1.513,0-2.738,1.225-2.738,2.738c0,1.514,1.226,2.739,2.738,2.739h41.946c-1.933,5.892-1.93,11.839,0.006,17.756H55.714
		c-2.357,0-4.589-0.928-6.271-2.603c-1.685-1.693-2.613-3.924-2.613-6.28c0-4.894,3.984-8.874,8.885-8.874h28.419
		c1.515,0,2.741-1.225,2.741-2.739c0-1.513-1.227-2.738-2.741-2.738H55.714c-7.92,0-14.361,6.437-14.361,14.351
		c0,3.815,1.492,7.416,4.215,10.153c2.729,2.713,6.331,4.208,10.146,4.208h92.406c2.438,0,4.422,1.991,4.422,4.435
		c0,2.441-1.984,4.425-4.422,4.425H55.714c-6.189,0-12.015-2.421-16.408-6.814C34.912,67.463,32.492,61.636,32.492,55.451
		L32.492,55.451z M36.75,92.67c-2.348,0-4.258-1.911-4.258-4.261c0-2.348,1.91-4.258,4.258-4.258h128.101
		c5.804,0,10.528,4.724,10.528,10.528v30.508c0,5.806-4.725,10.53-10.528,10.53H94.853l0.005-8.52h65.732
		c3.457,0,6.27-2.813,6.27-6.27V98.94c0-3.459-2.813-6.27-6.27-6.27H36.75L36.75,92.67z M36.75,127.197h29.648l0.003,8.518H36.75
		c-2.347,0-4.258-1.91-4.258-4.258S34.402,127.197,36.75,127.197z M196.264,192.756H34.995c-5.799,0-10.517-4.721-10.517-10.527
		v-30.506c0-5.805,4.718-10.529,10.517-10.529h31.406l0.001,8.518H39.268c-3.458,0-6.271,2.813-6.271,6.273v21.982
		c0,3.461,2.813,6.273,6.271,6.273h156.996c2.347,0,4.258,1.912,4.258,4.26C200.521,190.846,198.61,192.756,196.264,192.756
		L196.264,192.756z"/>
</g>
</svg>
