<?xml version="1.0" encoding="utf-8"?>
<!-- Generator: Adobe Illustrator 16.0.0, SVG Export Plug-In . SVG Version: 6.00 Build 0)  -->
<!DOCTYPE svg PUBLIC "-//W3C//DTD SVG 1.1//EN" "http://www.w3.org/Graphics/SVG/1.1/DTD/svg11.dtd">
<svg version="1.1" id="Capa_1" xmlns="http://www.w3.org/2000/svg" xmlns:xlink="http://www.w3.org/1999/xlink" x="0px" y="0px"
	 width="225px" height="225px" viewBox="0 0 225 225" enable-background="new 0 0 225 225" xml:space="preserve">
<g>
	<path d="M196.957,79.328h-27.154V19H91.392v24.133H55.197v36.195H28.036c-4.976,0-9.036,4.052-9.036,9.04v48.267
		c0,3.917,2.524,7.236,6.033,8.482v51.844c0,4.976,4.063,9.039,9.043,9.039h156.845c4.983,0,9.046-4.063,9.046-9.039v-51.844
		c3.506-1.246,6.033-4.565,6.033-8.482V88.368C206,83.38,201.937,79.328,196.957,79.328z M55.197,121.54h-6.033v-18.078h6.033
		V121.54z M163.767,121.54l-30.161-40.199V71.285l30.161-40.218V121.54z M133.605,61.229V43.133h-16.723l-15.826-18.099h59.706
		L133.605,61.229z M124.565,49.166L97.007,85.914L64.86,49.166H124.565z M94.189,91.85c2.083,2.375,3.231,5.423,3.231,8.584
		c0,3.165-1.148,6.213-3.231,8.587l-10.96,12.52H61.23V54.168L94.189,91.85z M97.007,114.962l4.94,6.578H91.238L97.007,114.962z
		 M109.477,121.54l-8.629-11.501c1.686-2.909,2.609-6.209,2.609-9.605c0-3.387-0.923-6.688-2.612-9.589l26.731-35.647v66.343
		H109.477z M133.605,91.396l22.621,30.145h-22.621V91.396z M169.803,103.462h6.029v18.078h-6.029V103.462z M97.421,30.053
		l11.45,13.08h-11.45V30.053z M175.832,199.967H49.165v-36.193h126.667V199.967z M190.921,199.967h-9.053V157.74H43.131v42.227
		h-9.056c-1.663,0-3.01-1.356-3.01-3.006v-51.286h162.869v51.286C193.935,198.61,192.581,199.967,190.921,199.967z M199.967,136.635
		c0,1.667-1.363,3.007-3.01,3.007H28.036c-1.644,0-3.003-1.34-3.003-3.007V88.368c0-1.663,1.36-3.007,3.003-3.007h27.161v12.064
		H43.131v30.15h138.737v-30.15h-12.065V85.361h27.154c1.646,0,3.01,1.344,3.01,3.007V136.635z"/>
</g>
</svg>
