<?xml version="1.0" encoding="utf-8"?>
<!-- Generator: Adobe Illustrator 16.0.0, SVG Export Plug-In . SVG Version: 6.00 Build 0)  -->
<!DOCTYPE svg PUBLIC "-//W3C//DTD SVG 1.1//EN" "http://www.w3.org/Graphics/SVG/1.1/DTD/svg11.dtd">
<svg version="1.1" id="Capa_1" xmlns="http://www.w3.org/2000/svg" xmlns:xlink="http://www.w3.org/1999/xlink" x="0px" y="0px"
	 width="225px" height="225px" viewBox="0 0 225 225" enable-background="new 0 0 225 225" xml:space="preserve">
<g>
	<g>
		<g>
			<path d="M190.418,47.05H187.3V28.351c-0.003-5.161-4.187-9.345-9.35-9.351h-43.634c-5.162,0.006-9.342,4.189-9.35,9.351v3.116
				h-24.936v-3.116c-0.003-5.161-4.188-9.345-9.35-9.351H47.05c-5.16,0.006-9.343,4.189-9.35,9.351V47.05h-3.115
				C25.982,47.062,19.01,54.031,19,62.634v102.851c0.01,8.604,6.982,15.574,15.585,15.584H84.45v6.231H62.636
				c-1.724,0-3.118,1.396-3.118,3.117v12.467c0,1.722,1.395,3.116,3.118,3.116h99.732c1.72,0,3.116-1.395,3.116-3.116v-12.467
				c0-1.722-1.396-3.117-3.116-3.117H140.55v-6.231h49.868c8.604-0.01,15.572-6.98,15.582-15.584V62.634
				C205.99,54.031,199.021,47.062,190.418,47.05z M131.2,28.351c0.003-1.72,1.397-3.115,3.116-3.117h43.634
				c1.72,0.002,3.114,1.396,3.116,3.117v56.1c-0.002,1.721-1.396,3.115-3.116,3.118H168.6l-0.039,0.007
				c-0.393,0.005-0.779,0.083-1.146,0.231c-0.336,0.214-0.671,0.435-1,0.66c-0.292,0.289-0.526,0.631-0.688,1.009l-9.604,22.645
				l-9.337-22.068v-8.719h22.22c3.218-0.003,5.827-2.61,5.831-5.827v-2.712c-0.004-6.069-2.869-11.781-7.732-15.41
				c5.515-6.158,5.246-15.558-0.614-21.391c-5.86-5.831-15.261-6.057-21.394-0.512c-1.742-2.51-4.604-4.011-7.66-4.014H131.2V28.351
				z M149.318,61.337c3.955,1.739,8.461,1.729,12.408-0.024c4.229,2.268,6.873,6.68,6.873,11.481v2.307h-21.814V63.132
				C147.557,62.438,148.406,61.836,149.318,61.337z M146.785,50.385v-6.686c1.465-3.814,5.242-6.232,9.324-5.964
				c4.076,0.268,7.507,3.157,8.463,7.133c0.953,3.975-0.787,8.106-4.301,10.2l0,0c-0.068,0.035-0.14,0.073-0.209,0.116
				c-2.824,1.583-6.271,1.589-9.104,0.015c-0.1-0.064-0.206-0.123-0.313-0.176C148.884,53.942,147.529,52.313,146.785,50.385z
				 M137.436,37.7c1.721,0.003,3.114,1.396,3.114,3.117v68.566c0,1.721-1.396,3.114-3.114,3.116h-12.457
				c-0.412,0-0.82,0.082-1.203,0.24c-0.334,0.215-0.666,0.437-0.996,0.661c-0.291,0.287-0.523,0.63-0.684,1.008l-9.609,22.645
				l-9.579-22.645c-0.163-0.378-0.395-0.721-0.691-1.01c-0.329-0.227-0.661-0.444-0.996-0.659c-0.378-0.158-0.787-0.24-1.198-0.24
				H87.568c-1.72-0.002-3.115-1.396-3.118-3.116V40.817c0.003-1.721,1.397-3.114,3.118-3.117H137.436z M43.936,28.351
				c0-1.72,1.395-3.115,3.114-3.117h43.636c1.72,0.002,3.114,1.397,3.114,3.117v3.117h-6.232c-3.058,0.003-5.917,1.504-7.66,4.014
				c-6.132-5.542-15.532-5.315-21.389,0.516c-5.86,5.83-6.129,15.228-0.618,21.387c-4.864,3.628-7.73,9.34-7.733,15.41v2.712
				c0.003,3.217,2.609,5.824,5.827,5.827h22.223v8.717l-9.363,22.07l-9.583-22.646c-0.159-0.378-0.392-0.721-0.687-1.008
				c-0.149-0.121-0.309-0.229-0.475-0.32c-0.163-0.131-0.338-0.244-0.521-0.339c-0.382-0.159-0.787-0.239-1.199-0.239h-9.34
				c-1.72-0.004-3.114-1.397-3.114-3.118V28.351z M74.323,55.047c-0.086,0.041-0.166,0.088-0.246,0.138
				c-2.825,1.581-6.269,1.588-9.101,0.017c-0.086-0.054-0.176-0.104-0.266-0.149c-3.513-2.097-5.25-6.235-4.287-10.21
				c0.959-3.974,4.396-6.86,8.477-7.122c4.081-0.263,7.856,2.161,9.317,5.979v6.686C77.471,52.327,76.1,53.964,74.323,55.047z
				 M78.218,63.132v11.969H56.4v-2.307c0.003-4.802,2.643-9.214,6.873-11.482c3.951,1.754,8.454,1.764,12.412,0.024
				C76.594,61.836,77.444,62.438,78.218,63.132z M159.25,193.533v6.234h-93.5v-6.234H159.25z M90.686,187.3v-6.231h43.632v6.231
				H90.686z M199.768,165.482c-0.007,5.162-4.189,9.346-9.35,9.352H34.585c-5.163-0.006-9.347-4.189-9.35-9.352v-9.35h174.533
				V165.482L199.768,165.482z M199.768,149.898H25.235V62.634c0.003-5.162,4.187-9.344,9.35-9.351H37.7V84.45
				c0.006,5.161,4.19,9.345,9.35,9.35h7.285l8.878,20.984c0.863,2.372,3.118,3.952,5.641,3.958c2.523,0.005,4.785-1.567,5.658-3.936
				l3.706-8.761v3.337c0.007,5.161,4.187,9.346,9.35,9.35H97.97l8.878,20.984c0.863,2.372,3.115,3.953,5.642,3.958
				c2.523,0.003,4.781-1.569,5.654-3.937l8.889-21.006h10.402c5.16-0.006,9.344-4.188,9.35-9.351v-3.337l3.695,8.737
				c0.863,2.372,3.117,3.95,5.642,3.958c2.522,0.005,4.785-1.567,5.658-3.938l8.885-21.006h7.285
				c5.163-0.006,9.347-4.188,9.35-9.351V53.283h3.118c5.159,0.007,9.344,4.188,9.35,9.351V149.898z"/>
			<path d="M96.918,103.15h31.164c3.443-0.004,6.232-2.792,6.234-6.232V93.8c0.008-6.958-3.33-13.499-8.967-17.578
				c5.563-5.263,7.356-13.386,4.524-20.501c-2.832-7.115-9.714-11.786-17.374-11.786c-7.657,0-14.543,4.671-17.375,11.786
				c-2.833,7.115-1.036,15.238,4.525,20.5c-5.638,4.08-8.975,10.621-8.965,17.579v3.117
				C90.689,100.358,93.478,103.146,96.918,103.15z M100.381,59.71c1.352-5.599,6.362-9.542,12.119-9.543
				c5.761,0.001,10.771,3.946,12.119,9.546c1.352,5.599-1.309,11.394-6.436,14.02c-3.578,1.793-7.792,1.79-11.369-0.004
				C101.689,71.103,99.033,65.308,100.381,59.71z M96.918,93.8c-0.014-5.87,3.304-11.241,8.556-13.862
				c4.499,1.861,9.555,1.862,14.055,0c5.253,2.622,8.566,7.992,8.553,13.863v3.117H96.918V93.8z"/>
			<path d="M68.868,121.85c-6.886,0-12.468,5.582-12.468,12.469c0.01,6.882,5.585,12.457,12.468,12.466
				c6.883,0,12.464-5.581,12.464-12.466C81.332,127.432,75.754,121.85,68.868,121.85z M68.868,140.55
				c-3.443,0-6.235-2.791-6.235-6.231c0.003-3.441,2.792-6.229,6.235-6.233c3.443,0,6.232,2.79,6.232,6.233
				C75.1,137.759,72.311,140.55,68.868,140.55z"/>
			<path d="M156.136,121.85c-6.887,0-12.468,5.582-12.468,12.469c0.007,6.882,5.585,12.457,12.468,12.466
				c6.884,0,12.464-5.581,12.464-12.466C168.6,127.432,163.02,121.85,156.136,121.85z M156.136,140.55
				c-3.442,0-6.235-2.791-6.235-6.231c0.004-3.441,2.793-6.229,6.235-6.233c3.439,0,6.232,2.79,6.232,6.233
				C162.368,137.759,159.575,140.55,156.136,140.55z"/>
		</g>
	</g>
</g>
</svg>
