<?xml version="1.0" encoding="utf-8"?>
<!-- Generator: Adobe Illustrator 16.0.0, SVG Export Plug-In . SVG Version: 6.00 Build 0)  -->
<!DOCTYPE svg PUBLIC "-//W3C//DTD SVG 1.1//EN" "http://www.w3.org/Graphics/SVG/1.1/DTD/svg11.dtd">
<svg version="1.1" id="Capa_1" xmlns="http://www.w3.org/2000/svg" xmlns:xlink="http://www.w3.org/1999/xlink" x="0px" y="0px"
	 width="225px" height="225px" viewBox="0 0 225 225" enable-background="new 0 0 225 225" xml:space="preserve">
<g>
	<g>
		<path d="M195.493,18.998H29.506c-5.793,0-10.505,4.713-10.505,10.506v47.448c0,5.799,4.712,10.517,10.505,10.517h7.926
			l0.101,15.308c0.009,1.371,0.785,2.621,2.01,3.238c0.52,0.261,1.082,0.389,1.642,0.389c0.762,0,1.52-0.237,2.158-0.704
			L68.26,87.468h29.31l11.915,17.352c0.682,0.991,1.808,1.584,3.011,1.584s2.331-0.593,3.012-1.584l11.913-17.352h29.32
			l24.908,18.231c1.105,0.811,2.573,0.93,3.799,0.315c1.225-0.615,2.002-1.865,2.012-3.237l0.108-15.31h7.927
			c5.794,0,10.506-4.717,10.506-10.516V29.504C206,23.711,201.285,18.998,195.493,18.998z M198.695,76.952
			c0,1.771-1.438,3.212-3.202,3.212h-11.554c-2.007,0-3.639,1.619-3.652,3.626l-0.083,11.799L160.089,80.87
			c-0.624-0.458-1.379-0.706-2.154-0.706h-32.437c-1.202,0-2.33,0.593-3.012,1.586l-9.991,14.55l-9.993-14.55
			c-0.681-0.993-1.807-1.586-3.011-1.586H67.066c-0.775,0-1.531,0.246-2.156,0.704L44.79,95.589l-0.077-11.797
			c-0.013-2.007-1.645-3.628-3.652-3.628H29.506c-1.765,0-3.201-1.44-3.201-3.212V29.504c0-1.765,1.436-3.201,3.201-3.201h165.987
			c1.765,0,3.202,1.437,3.202,3.201V76.952z"/>
		<path d="M193.319,170.858c1.818-3.011,2.865-6.537,2.865-10.305c0-11.04-8.977-20.02-20.01-20.02
			c-11.039,0-20.021,8.979-20.021,20.02c0,3.768,1.05,7.294,2.866,10.305c-2.653,1.223-5.015,2.967-6.957,5.091
			c-2.82-8.187-9.19-14.874-17.347-18.017c3.071-4.393,4.879-9.732,4.879-15.486c0-14.945-12.157-27.103-27.101-27.103
			c-14.944,0-27.103,12.157-27.103,27.103c0,5.756,1.81,11.095,4.881,15.489c-8.157,3.142-14.527,9.829-17.349,18.014
			c-1.942-2.124-4.301-3.868-6.955-5.089c1.817-3.012,2.865-6.539,2.865-10.307c0-11.038-8.977-20.02-20.01-20.02
			c-11.039,0-20.02,8.981-20.02,20.02c0,3.768,1.048,7.294,2.866,10.307C24.162,174.315,19,181.954,19,190.516v11.834
			c0,2.017,1.635,3.652,3.652,3.652h73.442c2.017,0,3.652-1.636,3.652-3.652c0-2.018-1.635-3.652-3.652-3.652H78.639v-8.182v-5.123
			c0-10.304,7.313-19.3,17.248-21.552c4.591,3.571,10.353,5.708,16.608,5.708c6.254,0,12.017-2.137,16.608-5.709
			c9.935,2.249,17.246,11.247,17.246,21.553v5.123v8.182h-17.457c-2.017,0-3.652,1.635-3.652,3.652c0,2.017,1.636,3.652,3.652,3.652
			h73.453c2.018,0,3.652-1.636,3.652-3.652v-11.834C206,181.952,200.833,174.313,193.319,170.858z M48.825,147.839
			c7.005,0,12.706,5.704,12.706,12.715c0,7.006-5.7,12.706-12.706,12.706c-7.012,0-12.715-5.7-12.715-12.706
			C36.11,153.543,41.813,147.839,48.825,147.839z M26.306,198.697v-8.182c0-6.505,4.5-12.202,10.685-13.835
			c3.318,2.439,7.409,3.884,11.834,3.884c4.422,0,8.511-1.444,11.826-3.884c6.185,1.633,10.683,7.332,10.683,13.835v8.182H26.306z
			 M92.698,142.446c0-10.916,8.881-19.798,19.797-19.798s19.796,8.881,19.796,19.798c0,10.916-8.88,19.798-19.796,19.798
			S92.698,153.362,92.698,142.446z M176.175,147.839c7.006,0,12.705,5.704,12.705,12.715c0,7.006-5.699,12.706-12.705,12.706
			c-7.011,0-12.716-5.7-12.716-12.706C163.459,153.543,169.164,147.839,176.175,147.839z M153.654,190.516
			c0-6.505,4.501-12.204,10.685-13.835c3.319,2.439,7.411,3.884,11.836,3.884c4.421,0,8.512-1.444,11.827-3.884
			c6.189,1.633,10.691,7.33,10.691,13.835v8.182h-45.039V190.516z"/>
		<path d="M183.297,39.384h-95.11c-2.017,0-3.652,1.635-3.652,3.652c0,2.017,1.635,3.652,3.652,3.652h95.112
			c2.016,0,3.652-1.636,3.652-3.652C186.951,41.019,185.314,39.384,183.297,39.384z"/>
		<path d="M41.691,46.688h27.156c2.017,0,3.652-1.636,3.652-3.652c0-2.018-1.635-3.652-3.652-3.652H41.691
			c-2.017,0-3.652,1.635-3.652,3.652C38.039,45.053,39.674,46.688,41.691,46.688z"/>
		<path d="M183.297,59.769h-27.144c-2.018,0-3.652,1.636-3.652,3.652c0,2.018,1.635,3.653,3.652,3.653h27.144
			c2.018,0,3.652-1.636,3.652-3.653C186.949,61.404,185.314,59.769,183.297,59.769z"/>
		<path d="M136.804,59.769H41.691c-2.017,0-3.652,1.636-3.652,3.652c0,2.018,1.635,3.653,3.652,3.653h95.112
			c2.016,0,3.652-1.636,3.652-3.653C140.456,61.404,138.819,59.769,136.804,59.769z"/>
		<path d="M112.495,198.697c-2.017,0-3.652,1.635-3.652,3.652c0,2.017,1.635,3.652,3.652,3.652h0.02c2.02,0,3.643-1.636,3.643-3.652
			C116.157,200.332,114.512,198.697,112.495,198.697L112.495,198.697z"/>
	</g>
</g>
</svg>
