<?xml version="1.0" encoding="utf-8"?>
<!-- Generator: Adobe Illustrator 16.0.0, SVG Export Plug-In . SVG Version: 6.00 Build 0)  -->
<!DOCTYPE svg PUBLIC "-//W3C//DTD SVG 1.1//EN" "http://www.w3.org/Graphics/SVG/1.1/DTD/svg11.dtd">
<svg version="1.1" id="Capa_1" xmlns="http://www.w3.org/2000/svg" xmlns:xlink="http://www.w3.org/1999/xlink" x="0px" y="0px"
	 width="225px" height="225px" viewBox="0 0 225 225" enable-background="new 0 0 225 225" xml:space="preserve">
<g>
	<g>
		<g>
			<path d="M196.652,199.814V84.498c0-1.721-1.398-3.116-3.119-3.116h-31.166c-1.721,0-3.117,1.395-3.117,3.116v115.316h-6.234
				v-71.684c0-1.721-1.395-3.115-3.115-3.115h-31.168c-1.721,0-3.114,1.396-3.114,3.115v71.684h-6.233V96.966
				c0-1.721-1.396-3.116-3.117-3.116H75.101c-1.722,0-3.117,1.395-3.117,3.116v102.851H65.75V140.6c0-1.721-1.395-3.117-3.116-3.117
				H31.467c-1.722,0-3.117,1.396-3.117,3.117v59.217H19v6.232h187v-6.232h-9.348V199.814z M59.517,199.814H34.584v-56.1h24.933
				V199.814z M103.15,199.814H78.217v-99.732h24.934L103.15,199.814L103.15,199.814z M146.783,199.814H121.85V131.25h24.935
				L146.783,199.814L146.783,199.814z M190.416,199.814h-24.932V87.616h24.932V199.814z"/>
			<path d="M38.456,103.731c2.55,1.686,5.538,2.584,8.594,2.584c8.606,0,15.583-6.978,15.583-15.584
				c0-3.055-0.899-6.044-2.583-8.592l22.059-22.062c2.529,1.691,5.5,2.598,8.543,2.604c0.917,0,1.833-0.08,2.736-0.239
				c2.966-0.52,5.714-1.894,7.911-3.954l18.492,14.215c-3.088,8.034,0.926,17.05,8.957,20.137c8.035,3.086,17.049-0.925,20.135-8.96
				c1.811-4.71,1.227-10.007-1.566-14.211l22.056-22.054c7.199,4.764,16.896,2.791,21.66-4.407
				c4.764-7.199,2.789-16.897-4.408-21.661c-7.197-4.764-16.896-2.791-21.66,4.407c-3.463,5.23-3.463,12.024,0,17.254L142.91,65.264
				c-6.178-4.083-14.375-3.256-19.609,1.978c-0.061,0.06-0.094,0.128-0.15,0.185L104.927,53.42c3.5-7.863-0.036-17.075-7.898-20.575
				c-7.863-3.5-17.074,0.037-20.574,7.898c-2.165,4.863-1.698,10.496,1.239,14.936L55.643,77.733
				c-7.179-4.747-16.847-2.774-21.593,4.407C29.304,89.318,31.276,98.986,38.456,103.731z M177.951,25.283
				c5.162,0,9.35,4.186,9.35,9.35s-4.188,9.35-9.35,9.35c-5.166,0-9.352-4.186-9.352-9.35
				C168.6,29.468,172.785,25.283,177.951,25.283z M127.703,71.657c1.754-1.755,4.131-2.741,6.613-2.741
				c5.166-0.001,9.352,4.184,9.352,9.349c0,2.481-0.986,4.862-2.74,6.616c-3.701,3.526-9.52,3.526-13.223,0
				C124.055,81.229,124.051,75.31,127.703,71.657z M83.025,41.737C83.025,41.737,83.025,41.736,83.025,41.737
				c1.418-2.038,3.59-3.421,6.035-3.847c0.542-0.093,1.092-0.139,1.643-0.141c1.913,0.002,3.779,0.593,5.345,1.693
				c4.229,2.963,5.258,8.793,2.295,13.022c-2.963,4.229-8.792,5.257-13.022,2.295C81.09,51.796,80.063,45.966,83.025,41.737z
				 M40.436,84.123c0.001-0.002,0.002-0.002,0.004-0.003c3.653-3.651,9.574-3.651,13.224,0.003c3.651,3.652,3.65,9.572-0.002,13.223
				c-3.702,3.528-9.52,3.528-13.221,0C36.788,93.695,36.786,87.775,40.436,84.123z"/>
		</g>
	</g>
</g>
</svg>
