<?xml version="1.0" encoding="utf-8"?>
<!-- Generator: Adobe Illustrator 16.0.0, SVG Export Plug-In . SVG Version: 6.00 Build 0)  -->
<!DOCTYPE svg PUBLIC "-//W3C//DTD SVG 1.1//EN" "http://www.w3.org/Graphics/SVG/1.1/DTD/svg11.dtd">
<svg version="1.1" id="Capa_1" xmlns="http://www.w3.org/2000/svg" xmlns:xlink="http://www.w3.org/1999/xlink" x="0px" y="0px"
	 width="225px" height="225px" viewBox="0 0 225 225" enable-background="new 0 0 225 225" xml:space="preserve">
<g>
	<path d="M172.109,199.767h-6.623v6.231h9.255c1.517,0,2.815-1.095,3.069-2.594l23.367-137.131l-6.146-1.045L172.109,199.767z"/>
	<path d="M203.423,34.633l-37.396-6.597l-1.084,6.139l34.347,6.059l-3.194,18.759l6.143,1.048l3.718-21.817
		C206.243,36.535,205.114,34.931,203.423,34.633"/>
	<path d="M156.133,19.002H22.118c-1.723,0-3.118,1.395-3.118,3.114V132.92h6.235V25.233h127.782v174.533H25.235v-43.634H19v46.749
		c0,1.724,1.395,3.116,3.118,3.116h134.015c1.72,0,3.116-1.393,3.116-3.116V22.116C159.249,20.396,157.853,19.002,156.133,19.002"/>
	<path d="M49.254,122.762l-4.409,4.407l9.351,9.354c0.585,0.583,1.378,0.912,2.206,0.912c0.038,0,0.076,0,0.118-0.004
		c0.867-0.033,1.685-0.428,2.249-1.084l18.699-21.817l-4.733-4.056l-16.51,19.26L49.254,122.762z"/>
	<path d="M34.585,135.875c0.006,6.023,4.885,10.902,10.908,10.908h15.583c6.02-0.006,10.901-4.885,10.908-10.908v-1.559h-6.232
		v1.559c-0.003,2.581-2.096,4.674-4.676,4.674H45.493c-2.582,0-4.673-2.093-4.675-4.674v-15.583
		c0.001-2.582,2.093-4.673,4.675-4.675h14.024v-6.235H45.493c-6.023,0.007-10.902,4.887-10.908,10.91V135.875z"/>
	<path d="M49.254,169.513l-4.409,4.407l9.351,9.35c0.585,0.584,1.378,0.912,2.206,0.912h0.118c0.867-0.035,1.685-0.428,2.249-1.088
		l18.699-21.816l-4.733-4.057l-16.51,19.26L49.254,169.513z"/>
	<path d="M34.585,182.624c0.006,6.021,4.885,10.904,10.908,10.91h15.583c6.02-0.006,10.901-4.889,10.908-10.91v-1.557h-6.232v1.557
		c-0.003,2.582-2.096,4.672-4.676,4.675H45.493c-2.582-0.003-4.673-2.093-4.675-4.675v-15.583c0.001-2.58,2.093-4.673,4.675-4.676
		h14.024v-6.232H45.493c-6.023,0.007-10.902,4.888-10.908,10.908V182.624z"/>
	<rect x="84.45" y="156.133" width="46.75" height="6.232"/>
	<rect x="84.45" y="171.716" width="15.585" height="6.234"/>
	<rect x="106.267" y="171.716" width="24.936" height="6.234"/>
	<rect x="84.45" y="109.382" width="46.75" height="6.235"/>
	<rect x="84.45" y="124.967" width="15.585" height="6.232"/>
	<rect x="106.267" y="124.967" width="24.936" height="6.232"/>
	<path d="M119.923,44.228L91.916,31.737c-0.808-0.361-1.729-0.361-2.541,0L61.363,44.228c-1.285,0.574-2.024,1.94-1.806,3.333
		l2.335,14.822c0,0.023,0.003,0.05,0.01,0.073c2.367,12.845,9.568,24.297,20.125,31.992l6.794,5.005
		c1.093,0.802,2.582,0.809,3.681,0.01l6.473-4.706c10.697-7.691,18.004-19.223,20.388-32.178c0.004-0.026,0.009-0.05,0.012-0.073
		l2.356-14.944C121.956,46.168,121.211,44.802,119.923,44.228 M113.225,61.498c-2.106,11.364-8.525,21.475-17.913,28.217
		l-4.628,3.367l-4.958-3.653c-9.263-6.745-15.591-16.784-17.681-28.05l-1.958-12.427l24.559-10.955l24.56,10.951L113.225,61.498z"/>
	<path d="M80.347,60.453l-4.409,4.408l9.351,9.35c1.217,1.217,3.19,1.217,4.408,0l18.701-18.699l-4.41-4.409L87.493,67.6
		L80.347,60.453z"/>
	<rect x="34.585" y="31.467" width="18.7" height="6.233"/>
	<rect x="34.585" y="43.934" width="12.465" height="6.232"/>
	<rect x="128.085" y="31.467" width="6.231" height="6.233"/>
	<rect x="140.549" y="31.467" width="6.234" height="6.233"/>
</g>
</svg>
