<?xml version="1.0" encoding="utf-8"?>
<!-- Generator: Adobe Illustrator 16.0.0, SVG Export Plug-In . SVG Version: 6.00 Build 0)  -->
<!DOCTYPE svg PUBLIC "-//W3C//DTD SVG 1.1//EN" "http://www.w3.org/Graphics/SVG/1.1/DTD/svg11.dtd">
<svg version="1.1" id="Capa_1" xmlns="http://www.w3.org/2000/svg" xmlns:xlink="http://www.w3.org/1999/xlink" x="0px" y="0px"
	 width="225px" height="225px" viewBox="0 0 225 225" enable-background="new 0 0 225 225" xml:space="preserve">
<g>
	<g>
		<g>
			<g>
				<path d="M170.894,182.031l-7-20.997c-2.445-7.332-8.686-12.743-16.292-14.128L127.4,143.23v-1.565
					c3.515-2.042,6.574-4.771,9.012-8.001h6.103c5.002,0,9.069-4.071,9.069-9.071V88.316c0-21.67-17.631-39.301-39.3-39.301
					c-21.668,0-39.301,17.631-39.301,39.301v21.162c0,5.828,4.146,10.703,9.642,11.841c1.694,8.687,7.125,16.039,14.544,20.346
					v1.565l-20.207,3.676c-7.603,1.385-13.846,6.796-16.289,14.128l-1.208,3.632l-10.298-10.298c-1.177-1.181-1.177-3.098,0-4.278
					l11.942-11.938l-22.413-22.414l-13.495,13.496c-3.997,3.994-6.198,9.309-6.198,14.965c0,5.652,2.201,10.964,6.198,14.96
					l40.857,40.858c3.996,3.996,9.311,6.199,14.963,6.199c5.653,0,10.966-2.203,14.869-6.11l14.726-13.49l-4.592-4.585H170.894z
					 M145.539,124.593c0,1.669-1.357,3.024-3.024,3.024h-2.543c0.879-1.998,1.544-4.107,1.973-6.298
					c1.295-0.271,2.484-0.782,3.595-1.431V124.593z M142.515,114.683v-10.41c1.799,1.048,3.024,2.978,3.024,5.206
					C145.539,111.704,144.313,113.633,142.515,114.683z M82.053,114.683c-1.8-1.05-3.022-2.979-3.022-5.204
					c0-2.229,1.223-4.158,3.022-5.206V114.683z M82.053,94.361v3.454c-1.076,0.28-2.086,0.705-3.022,1.25V88.316
					c0-18.336,14.92-33.256,33.254-33.256c18.335,0,33.255,14.92,33.255,33.256v10.749c-0.938-0.546-1.949-0.973-3.024-1.25v-3.454
					h-3.023c-8.938,0-17.344-3.48-23.668-9.801l-3.539-3.541l-3.541,3.541c-6.322,6.321-14.729,9.801-23.667,9.801H82.053z
					 M88.1,115.521v-15.227c9.078-0.685,17.541-4.431,24.185-10.746c6.642,6.314,15.107,10.064,24.183,10.746v15.227
					c0,4.41-1.2,8.533-3.271,12.096h-20.912v6.047h15.944c-4.263,3.749-9.835,6.046-15.944,6.046
					C98.949,139.71,88.1,128.859,88.1,115.521z M121.354,144.362v0.142l-9.07,9.068l-9.069-9.068v-0.142
					c2.865,0.898,5.909,1.393,9.069,1.393C115.443,145.755,118.486,145.261,121.354,144.362z M66.406,162.945
					c1.742-5.236,6.202-9.104,11.635-10.097l21.132-3.837l13.111,13.109l13.107-13.106l21.13,3.839
					c5.432,0.991,9.892,4.855,11.636,10.093l4.35,13.04H99.979L88.203,164.21l-13.084,11.836c-1.142,1.146-3.133,1.146-4.277,0
					l-6.602-6.602L66.406,162.945z M38.694,124.287l13.862,13.865l-3.282,3.283l-13.865-13.864L38.694,124.287z M91.702,195.748
					c-2.853,2.847-6.65,4.422-10.687,4.422s-7.834-1.575-10.689-4.429L29.47,154.887c-2.855-2.853-4.427-6.65-4.427-10.687
					c0-4.037,1.571-7.835,4.427-10.689l1.662-1.662l13.863,13.863l-0.107,0.11c-3.534,3.537-3.534,9.289,0,12.824l21.678,21.681
					c1.714,1.71,3.99,2.657,6.415,2.657s4.701-0.942,6.303-2.552l0.228-0.203l13.927,13.928L91.702,195.748z M97.901,190.065
					l-13.899-13.899l3.997-3.608l13.871,13.873L97.901,190.065z"/>
			</g>
		</g>
		<g>
			<g>
				<path d="M196.932,18.783h-42.324c-5.001,0-9.068,4.07-9.068,9.07v24.185c0,5,4.067,9.068,9.068,9.068h8.075l-3.126,18.235
					l29.172-18.235h8.203c5,0,9.068-4.068,9.068-9.068V27.853C206,22.853,201.932,18.783,196.932,18.783z M199.953,52.038
					c0,1.664-1.357,3.022-3.021,3.022h-9.938l-19.2,12.001l2.059-12.001h-15.245c-1.667,0-3.023-1.358-3.023-3.022V27.853
					c0-1.666,1.356-3.023,3.023-3.023h42.324c1.664,0,3.021,1.358,3.021,3.023V52.038z"/>
			</g>
		</g>
		<g>
			<g>
				<rect x="157.632" y="30.877" width="36.275" height="6.043"/>
			</g>
		</g>
		<g>
			<g>
				<rect x="157.632" y="42.969" width="24.183" height="6.046"/>
			</g>
		</g>
		<g>
			<g>
				<rect x="187.862" y="42.969" width="6.045" height="6.046"/>
			</g>
		</g>
		<g>
			<g>
				<path d="M112.284,27.853c-39.5,0-73.525,27.324-82.371,65.434l-5.728-9.548L19,86.849l10.628,17.708l17.706-10.628l-3.111-5.183
					l-8.194,4.917c8.569-34.866,39.922-59.762,76.256-59.762c7.941,0,15.776,1.18,23.289,3.506l1.791-5.773
					C129.271,29.122,120.832,27.853,112.284,27.853z"/>
			</g>
		</g>
		<g>
			<g>
				<path d="M204.532,85.723l-17.707-10.628l-10.624,17.71l5.185,3.11l5.29-8.819c2.785,8.148,4.208,16.67,4.208,25.404
					c0,17.979-6.227,35.555-17.53,49.488l4.696,3.81c12.175-15.008,18.882-33.938,18.882-53.298c0-9.247-1.49-18.276-4.396-26.923
					l8.885,5.33L204.532,85.723z"/>
			</g>
		</g>
	</g>
</g>
</svg>
