<svg xmlns="http://www.w3.org/2000/svg" viewBox="0 0 13.89 11.81"><defs><style>.cls-1{fill:#fff;}</style></defs><g id="Layer_2" data-name="Layer 2"><g id="Pages"><path class="cls-1" d="M13.19,1H5.06A1.74,1.74,0,0,0,1.88,1H.69a.72.72,0,0,0-.49.2.73.73,0,0,0-.2.5.69.69,0,0,0,.69.69H1.88a1.74,1.74,0,0,0,3.18,0h8.13a.73.73,0,0,0,.5-.2.72.72,0,0,0,.2-.49A.7.7,0,0,0,13.19,1ZM3.47,2.43a.7.7,0,1,1,.7-.69A.69.69,0,0,1,3.47,2.43Z"/><path class="cls-1" d="M13.19,5.21H11.66a1.74,1.74,0,0,0-3.18,0H.69a.72.72,0,0,0-.49.2A.72.72,0,0,0,0,5.9a.69.69,0,0,0,.69.7H8.48a1.74,1.74,0,0,0,3.18,0h1.53a.69.69,0,0,0,.5-.21.7.7,0,0,0,.2-.49A.69.69,0,0,0,13.19,5.21ZM10.07,6.6a.7.7,0,1,1,0-1.39.7.7,0,0,1,0,1.39Z"/><path class="cls-1" d="M13.19,9.37H5.06a1.74,1.74,0,0,0-3.18,0H.69a.69.69,0,0,0-.49.21.7.7,0,0,0-.2.49.69.69,0,0,0,.69.69H1.88a1.73,1.73,0,0,0,3.18,0h8.13a.69.69,0,0,0,.5-.2.72.72,0,0,0,.2-.49A.7.7,0,0,0,13.19,9.37ZM3.47,10.76a.69.69,0,0,1-.69-.69.7.7,0,1,1,.69.69Z"/></g></g></svg>