<?xml version="1.0" encoding="utf-8"?>
<!-- Generator: Adobe Illustrator 16.0.0, SVG Export Plug-In . SVG Version: 6.00 Build 0)  -->
<!DOCTYPE svg PUBLIC "-//W3C//DTD SVG 1.1//EN" "http://www.w3.org/Graphics/SVG/1.1/DTD/svg11.dtd">
<svg version="1.1" id="Capa_1" xmlns="http://www.w3.org/2000/svg" xmlns:xlink="http://www.w3.org/1999/xlink" x="0px" y="0px"
	 width="850px" height="1000px" viewBox="0 0 850 1000" enable-background="new 0 0 850 1000" xml:space="preserve">
<g>
	<g>
		<g>
			<path d="M377.076,75c-9.169,0-16.602,7.433-16.602,16.602v102.377c0,9.167,7.433,16.602,16.602,16.602
				s16.602-7.433,16.602-16.602V91.602C393.678,82.433,386.245,75,377.076,75z"/>
		</g>
	</g>
	<g>
		<g>
			<path d="M594.953,292.922H492.576c-9.169,0-16.602,7.433-16.602,16.602c0,9.169,7.433,16.602,16.602,16.602h102.377
				c9.17,0,16.602-7.432,16.602-16.602C611.555,300.354,604.123,292.922,594.953,292.922z"/>
		</g>
	</g>
	<g>
		<g>
			<path d="M261.529,292.877H159.154c-9.169,0-16.602,7.432-16.602,16.602c0,9.169,7.433,16.602,16.602,16.602h102.377
				c9.167,0,16.6-7.433,16.6-16.602C278.131,300.31,270.698,292.877,261.529,292.877z"/>
		</g>
	</g>
	<g>
		<g>
			<path d="M294.947,203.883l-48.335-48.335c-6.483-6.483-16.995-6.483-23.479,0c-6.483,6.483-6.483,16.995,0,23.479l48.337,48.335
				c3.242,3.243,7.491,4.863,11.739,4.863c4.249,0,8.499-1.62,11.739-4.863C301.43,220.879,301.43,210.368,294.947,203.883z"/>
		</g>
	</g>
	<g>
		<g>
			<path d="M531.006,155.579c-6.482-6.483-16.995-6.483-23.479,0l-48.335,48.335c-6.483,6.483-6.483,16.995,0,23.479
				c3.242,3.242,7.492,4.863,11.74,4.863s8.498-1.621,11.739-4.863l48.335-48.335C537.489,172.576,537.489,162.063,531.006,155.579z
				"/>
		</g>
	</g>
	<g>
		<g>
			<path d="M646.021,453.027c-11.208,0-21.713,3.031-30.77,8.296c-7.547-25.38-31.079-43.949-58.879-43.949
				c-17.669,0-33.606,7.509-44.824,19.49c-11.216-11.981-27.156-19.49-44.824-19.49c-10.172,0-19.764,2.5-28.223,6.895V309.5
				c0-33.871-27.555-61.426-61.426-61.426c-33.87,0-61.426,27.555-61.426,61.426v87.535c0,9.169,7.433,16.602,16.602,16.602
				s16.602-7.433,16.602-16.602V309.5c0-15.563,12.66-28.223,28.223-28.223s28.223,12.66,28.223,28.223v277.923
				c0,9.169,7.433,16.602,16.602,16.602s16.602-7.433,16.602-16.602V478.8c0-15.563,12.66-28.223,28.223-28.223
				s28.223,12.66,28.223,28.223v16.022v92.602c0,9.169,7.433,16.602,16.602,16.602s16.602-7.433,16.602-16.602v-92.602V478.8
				c0-15.563,12.66-28.223,28.223-28.223s28.223,12.66,28.223,28.223v35.652v28.712v44.262c0,9.169,7.433,16.602,16.602,16.602
				s16.602-7.433,16.602-16.602v-44.262v-28.713c0-15.562,12.66-28.223,28.223-28.223s28.223,12.661,28.223,28.223v173.609
				c0,12.367-1.114,24.748-3.313,36.801c-1.646,9.021,4.333,17.666,13.353,19.312c1.008,0.183,2.009,0.271,2.998,0.271
				c7.866,0,14.852-5.612,16.314-13.626c2.555-14.014,3.852-28.398,3.852-42.76V514.451
				C707.447,480.583,679.893,453.027,646.021,453.027z"/>
		</g>
	</g>
	<g>
		<g>
			<path d="M632.918,837.88c-6.254-6.704-16.761-7.067-23.463-0.813c-37.832,35.293-87.178,54.73-138.948,54.73
				c-77.671,0-149.684-45.192-183.461-115.135l-76.472-158.343c-6.898-14.28-1.541-31.679,12.194-39.609
				c14.201-8.196,32.69-3.477,41.223,10.521l54.086,88.744c3.874,6.354,11.5,9.354,18.664,7.345
				c7.163-2.011,12.114-8.544,12.114-15.984V506.641c0-9.169-7.433-16.602-16.602-16.602s-16.602,7.433-16.602,16.602v103.556
				l-23.309-38.243c-18.139-29.764-55.994-39.426-86.177-21.997c-28.712,16.576-39.91,52.948-25.49,82.804l76.472,158.342
				c19.4,40.171,49.627,73.938,87.412,97.65C382.346,912.466,425.898,925,470.508,925c60.208,0,117.596-22.606,161.597-63.655
				C638.809,855.089,639.174,844.585,632.918,837.88z"/>
		</g>
	</g>
	<g>
		<g>
			<path d="M675.869,781.563c-3.088-3.088-7.371-4.864-11.737-4.864s-8.649,1.776-11.737,4.864s-4.864,7.371-4.864,11.737
				c0,4.383,1.776,8.649,4.864,11.737s7.371,4.864,11.737,4.864s8.649-1.776,11.737-4.864s4.864-7.354,4.864-11.737
				C680.733,788.934,678.957,784.65,675.869,781.563z"/>
		</g>
	</g>
	<g>
		<g>
			<path d="M343.987,441.778c-3.088-3.088-7.371-4.864-11.737-4.864s-8.649,1.776-11.737,4.864s-4.864,7.371-4.864,11.737
				s1.776,8.649,4.864,11.737s7.371,4.864,11.737,4.864s8.649-1.776,11.737-4.864s4.864-7.371,4.864-11.737
				S347.075,444.866,343.987,441.778z"/>
		</g>
	</g>
</g>
</svg>
