<?xml version="1.0" encoding="utf-8"?>
<!-- Generator: Adobe Illustrator 16.0.0, SVG Export Plug-In . SVG Version: 6.00 Build 0)  -->
<!DOCTYPE svg PUBLIC "-//W3C//DTD SVG 1.1//EN" "http://www.w3.org/Graphics/SVG/1.1/DTD/svg11.dtd">
<svg version="1.1" id="Capa_1" xmlns="http://www.w3.org/2000/svg" xmlns:xlink="http://www.w3.org/1999/xlink" x="0px" y="0px"
	 width="28px" height="28px" viewBox="0 0 28 28" enable-background="new 0 0 28 28" xml:space="preserve">
<g>
	<path fill="#D4D4D4" d="M20.729,11.375l-5.015,0.45c-0.199,0.018-0.397,0.027-0.598,0.027h-2.232c-0.199,0-0.398-0.009-0.598-0.027
		l-5.016-0.45c-0.265-0.019-0.493,0.18-0.512,0.444s0.18,0.493,0.443,0.512l4.062,0.366c0.74,0.063,1.308,0.685,1.305,1.427v1.098
		c0.001,0.359-0.066,0.713-0.196,1.047l-2.308,5.877c-0.084,0.154-0.076,0.344,0.021,0.49c0.098,0.148,0.268,0.229,0.443,0.214
		c0.176-0.017,0.328-0.128,0.396-0.291l2.201-5.343c0.146-0.354,0.491-0.586,0.875-0.586s0.729,0.231,0.876,0.586l2.207,5.357
		c0.112,0.238,0.397,0.341,0.636,0.229c0.239-0.113,0.341-0.397,0.229-0.637l-2.315-5.895c-0.131-0.334-0.198-0.689-0.198-1.048
		v-1.099c-0.003-0.742,0.564-1.362,1.304-1.426l4.055-0.368c0.128-0.008,0.247-0.067,0.331-0.165
		c0.084-0.097,0.126-0.223,0.115-0.351c-0.009-0.126-0.068-0.244-0.164-0.327C20.98,11.406,20.855,11.365,20.729,11.375z"/>
	<circle fill="#D4D4D4" cx="14.002" cy="7.075" r="1.911"/>
	<path fill="#D4D4D4" d="M14,1C6.82,1,1,6.819,1,14c0,7.182,5.82,13,13,13c7.182,0,13-5.818,13-13C27,6.819,21.182,1,14,1z
		 M14.002,4.209c1.583,0,2.867,1.283,2.867,2.866c0,1.583-1.284,2.867-2.867,2.867c-1.582-0.001-2.865-1.284-2.866-2.867
		C11.136,5.492,12.419,4.209,14.002,4.209z M20.874,13.282l-4.049,0.367c-0.245,0.022-0.435,0.229-0.435,0.476v1.098
		c0,0.239,0.045,0.476,0.132,0.697l2.308,5.877c0.298,0.72-0.034,1.546-0.747,1.859c-0.713,0.314-1.546,0.002-1.876-0.705
		l-2.211-5.371l-2.191,5.357c-0.32,0.724-1.168,1.051-1.892,0.73s-1.051-1.167-0.73-1.891l2.299-5.855
		c0.087-0.223,0.132-0.459,0.132-0.698v-1.099c0-0.247-0.188-0.453-0.435-0.476l-4.055-0.368c-0.79-0.062-1.379-0.752-1.316-1.542
		c0.062-0.789,0.751-1.378,1.541-1.316l5.024,0.451c0.172,0.016,0.342,0.023,0.513,0.023h2.232c0.172,0,0.343-0.008,0.514-0.023
		l5.017-0.45h0.008v0c0.789-0.06,1.478,0.531,1.538,1.32C22.254,12.533,21.663,13.222,20.874,13.282z"/>
</g>
</svg>
