<?xml version="1.0" encoding="utf-8"?>
<!-- Generator: Adobe Illustrator 16.0.0, SVG Export Plug-In . SVG Version: 6.00 Build 0)  -->
<!DOCTYPE svg PUBLIC "-//W3C//DTD SVG 1.1//EN" "http://www.w3.org/Graphics/SVG/1.1/DTD/svg11.dtd">
<svg version="1.1" id="Capa_1" xmlns="http://www.w3.org/2000/svg" xmlns:xlink="http://www.w3.org/1999/xlink" x="0px" y="0px"
	 width="200px" height="200px" viewBox="0 0 200 200" enable-background="new 0 0 200 200" xml:space="preserve">
<g>
	<circle fill="#3366C7" stroke="#FFFFFF" stroke-width="4" cx="100" cy="100" r="93.54"/>
	<g>
		<g>
			<g>
				<path fill="#FFFFFF" d="M119.372,84.482c-0.267,1.5-1.022,4.688-2.815,6.524c-0.785,0.804-0.957,2.019-0.423,3.015
					c0.459,0.852,1.334,1.37,2.275,1.37c0.156,0,0.316-0.018,0.475-0.045c8.361-1.55,11.923-4.962,13.438-7.694
					c14.291-0.228,25.848-11.928,25.848-26.269c0-14.46-11.763-26.247-26.223-26.273c0,0-0.032,0-0.05,0
					c-2.88,0-5.712,0.466-8.424,1.383c-0.917,0.311-1.408,1.309-1.098,2.227c0.31,0.918,1.309,1.409,2.226,1.099
					c2.347-0.795,4.802-1.199,7.296-1.199h0.042c12.528,0.022,22.718,10.232,22.718,22.763c0,12.551-10.214,22.762-22.766,22.762
					c-1.066,0-2.026,0.596-2.507,1.557c-1.556,3.108-5.496,4.775-8.722,5.645c1.416-2.404,2.016-5.179,2.266-6.858
					c0.175-1.174-0.416-2.331-1.469-2.873c-7.603-3.928-12.325-11.683-12.325-20.233c0-7.07,3.216-13.625,8.82-17.982
					c0.767-0.596,0.903-1.699,0.31-2.463c-0.594-0.766-1.699-0.902-2.462-0.308c-6.47,5.028-10.178,12.589-10.178,20.753
					C105.625,71.073,110.877,79.872,119.372,84.482L119.372,84.482z"/>
				<path fill="#FFFFFF" d="M70.892,81.628c-0.969,0-1.754,0.783-1.754,1.754v2.96c0,0.97,0.785,1.758,1.754,1.758
					s1.754-0.788,1.754-1.758v-2.96C72.646,82.411,71.86,81.628,70.892,81.628z"/>
				<path fill="#FFFFFF" d="M84.401,81.628c-0.967,0-1.754,0.783-1.754,1.754v2.96c0,0.97,0.787,1.758,1.754,1.758
					c0.972,0,1.762-0.788,1.762-1.758v-2.96C86.158,82.411,85.373,81.628,84.401,81.628z"/>
				<path fill="#FFFFFF" d="M78.689,94.716c-0.265,0.283-0.618,0.436-1.001,0.436c-0.399,0-0.777-0.171-1.037-0.473
					c-0.635-0.73-1.747-0.808-2.478-0.173c-0.731,0.635-0.81,1.745-0.173,2.476c0.926,1.069,2.271,1.681,3.688,1.681
					c1.345,0,2.646-0.564,3.564-1.546c0.66-0.711,0.626-1.823-0.084-2.483C80.463,93.974,79.353,94.01,78.689,94.716z"/>
				<path fill="#FFFFFF" d="M158.764,142.801h-48.67v-37.795c0-1.676-1.368-3.041-3.044-3.041h-3.61V88.483
					c0.607-0.875,0.963-1.932,0.963-3.074v-0.045c0-1.142-0.355-2.201-0.963-3.076V72.271c0-14.223-11.569-25.794-25.793-25.794
					c-14.22,0-25.791,11.571-25.791,25.794V82.29c-0.604,0.873-0.962,1.932-0.962,3.074v0.045c0,1.142,0.358,2.199,0.962,3.074
					v13.481H48.25c-1.682,0-3.048,1.365-3.048,3.043v11.5c0,0.969,0.788,1.754,1.757,1.754s1.757-0.785,1.757-1.754v-11.031h57.865
					v37.324H48.713v-18.348c0-0.971-0.785-1.758-1.754-1.758s-1.757,0.787-1.757,1.758v18.348h-0.594
					c-1.678,0-3.041,1.363-3.041,3.043v6.035c0,1.678,1.363,3.045,3.041,3.045h114.155c1.679,0,3.043-1.367,3.043-3.045v-6.035
					C161.807,144.164,160.442,142.801,158.764,142.801L158.764,142.801z M55.367,72.271c0-12.286,9.995-22.279,22.279-22.279
					c12.289,0,22.285,9.993,22.285,22.279v7.765c-0.306-0.052-0.618-0.082-0.939-0.082h-0.65V77.57c0-0.999-0.868-1.812-1.86-1.754
					c-11.127,0.655-17.272-5.881-17.538-6.166c-0.376-0.411-1-0.642-1.554-0.574c-0.551,0.069-0.98,0.53-1.354,0.893
					c-0.212,0.206-0.437,0.406-0.662,0.6c-1.725,1.474-3.719,2.643-5.814,3.505c-3.39,1.4-7.087,1.955-10.745,1.741
					c-0.505-0.03-1.007,0.169-1.358,0.53c-0.398,0.406-0.5,1.014-0.5,1.562v2.046h-0.651c-0.319,0-0.635,0.03-0.937,0.082V72.271
					L55.367,72.271z M54.404,85.409v-0.045c0-1.048,0.852-1.9,1.899-1.9h0.651v3.844h-0.651
					C55.256,87.308,54.404,86.458,54.404,85.409z M55.367,101.965V90.737c0.302,0.053,0.617,0.08,0.937,0.08h0.795
					c0.488,4.235,2.256,8.083,4.909,11.148H55.367z M88.223,101.965H67.081c-4.018-3.141-6.607-8.026-6.614-13.507v-6.75v-0.003
					v-2.336c8.852-0.027,14.723-4.047,17.18-6.134c2.457,2.09,8.329,6.106,17.186,6.134v2.339v6.725
					C94.832,93.921,92.242,98.817,88.223,101.965L88.223,101.965z M99.932,101.965H93.29c2.654-3.065,4.421-6.913,4.908-11.148
					h0.794c0.321,0,0.634-0.03,0.939-0.08V101.965L99.932,101.965z M100.89,85.409c0,1.048-0.848,1.898-1.897,1.898h-0.65v-3.844
					h0.65c1.05,0,1.897,0.852,1.897,1.9V85.409z M158.297,151.41H45.077v-5.1h113.22V151.41z"/>
				<path fill="#FFFFFF" d="M83.376,124.137c0-3.871-3.151-7.025-7.021-7.025c-3.878,0-7.026,3.154-7.026,7.025
					c0,3.875,3.148,7.023,7.026,7.023C80.225,131.16,83.376,128.012,83.376,124.137z M72.838,124.137
					c0-1.936,1.578-3.516,3.517-3.516c1.937,0,3.512,1.58,3.512,3.516c0,1.938-1.575,3.516-3.512,3.516
					C74.416,127.652,72.838,126.074,72.838,124.137z"/>
				<path fill="#FFFFFF" d="M120.203,54.477h23.386c0.969,0,1.755-0.785,1.755-1.756s-0.786-1.756-1.755-1.756h-23.386
					c-0.97,0-1.756,0.786-1.756,1.756S119.233,54.477,120.203,54.477z"/>
				<path fill="#FFFFFF" d="M145.344,60.125c0-0.97-0.786-1.758-1.755-1.758h-23.386c-0.97,0-1.756,0.788-1.756,1.758
					c0,0.968,0.786,1.754,1.756,1.754h23.386C144.558,61.878,145.344,61.093,145.344,60.125z"/>
				<path fill="#FFFFFF" d="M120.203,65.77c-0.97,0-1.756,0.786-1.756,1.756s0.786,1.756,1.756,1.756h14.032
					c0.969,0,1.752-0.785,1.752-1.756s-0.783-1.756-1.752-1.756H120.203z"/>
			</g>
		</g>
	</g>
</g>
</svg>
