<?xml version="1.0" encoding="utf-8"?>
<!-- Generator: Adobe Illustrator 16.0.0, SVG Export Plug-In . SVG Version: 6.00 Build 0)  -->
<!DOCTYPE svg PUBLIC "-//W3C//DTD SVG 1.1//EN" "http://www.w3.org/Graphics/SVG/1.1/DTD/svg11.dtd">
<svg version="1.1" id="Capa_1" xmlns="http://www.w3.org/2000/svg" xmlns:xlink="http://www.w3.org/1999/xlink" x="0px" y="0px"
	 width="200px" height="200px" viewBox="0 0 200 200" enable-background="new 0 0 200 200" xml:space="preserve">
<g>
	<g>
		<g>
			<path fill="#D9D9D9" d="M100,8c50.729,0,92,41.271,92,92c0,50.729-41.271,92-92,92c-50.729,0-92-41.271-92-92
				C8,49.271,49.271,8,100,8 M100,0C44.771,0,0,44.771,0,100s44.771,100,100,100s100-44.771,100-100S155.229,0,100,0L100,0z"/>
		</g>
	</g>
	<g>
		<g>
			<g>
				<path fill="#068C69" d="M115.688,126.182h-7.457c-1.101,0-1.993,0.893-1.993,1.992c0,1.102,0.893,1.993,1.993,1.993h7.457
					c1.101,0,1.993-0.892,1.993-1.993C117.682,127.074,116.789,126.182,115.688,126.182z"/>
			</g>
		</g>
		<g>
			<g>
				<path fill="#068C69" d="M159.583,104.848l-10.853-4.186l-5.531-5.532c-0.355-0.355-0.813-0.548-1.281-0.578v-4.402
					c2.607-2.78,4.463-6.301,5.213-10.268c0.465,0.021,0.934-0.016,1.398-0.11c2.651-0.544,4.575-3.004,4.575-5.85v-1.453
					c0-1.646-0.668-3.158-1.754-4.238c1.76-9.57,0.309-17.37-4.212-22.591c-4.372-5.049-11.417-7.462-20.371-6.978
					c-8.273,0.447-13.613,4.253-15.307,5.646c-0.926,0.11-2.503,0.437-4.1,1.394c-2.213,1.328-4.852,4.117-4.852,9.866
					c0,5.014,0.801,9.2,1.382,11.575c-1.945,0.948-3.247,3.001-3.247,5.348v1.432c0,2.846,1.926,5.306,4.576,5.85
					c0.463,0.095,0.934,0.131,1.398,0.11c0.748,3.967,2.605,7.487,5.212,10.268v4.402c-0.468,0.03-0.925,0.223-1.28,0.578
					l-5.533,5.532l-10.852,4.186c-0.938,0.362-1.835,0.832-2.664,1.396c-0.91,0.618-1.146,1.857-0.529,2.768
					c0.386,0.567,1.013,0.873,1.65,0.873c0.386,0,0.775-0.111,1.118-0.345c0.578-0.393,1.204-0.72,1.859-0.973l10.071-3.885
					l7.7,11.55c0.954,1.432,2.483,2.351,4.196,2.52c0.191,0.02,0.381,0.029,0.57,0.029c0.991,0,1.953-0.261,2.805-0.743
					l-1.652,37.482c-0.049,1.1,0.803,2.029,1.902,2.078c0.03,0.002,0.061,0.002,0.09,0.002c1.061,0,1.942-0.836,1.989-1.904
					l1.534-34.792h4.137l1.533,34.792c0.047,1.068,0.93,1.904,1.99,1.904c0.029,0,0.059,0,0.088-0.002
					c1.1-0.049,1.952-0.979,1.904-2.078l-1.652-37.482c0.852,0.482,1.813,0.743,2.805,0.743c0.188,0,0.379-0.01,0.569-0.029
					c1.713-0.169,3.242-1.088,4.196-2.52l7.701-11.55l10.071,3.885c1.412,0.544,2.627,1.413,3.584,2.497l-6.891,6.891
					c-2.49,2.489-3.859,5.799-3.859,9.318v28.335c0,1.101,0.891,1.992,1.992,1.992s1.992-0.892,1.992-1.992v-28.335
					c0-2.455,0.957-4.765,2.693-6.501l6.047-6.046c0.242,0.891,0.355,1.827,0.318,2.784l-1.545,38.018
					c-0.043,1.1,0.813,2.026,1.912,2.071c0.027,0.001,0.055,0.002,0.082,0.002c1.063,0,1.945-0.841,1.988-1.912l1.545-38.018
					C168.235,112.032,164.849,106.879,159.583,104.848z M110.52,79.061c-0.352-1.914-2.123-3.305-4.035-3.163
					c-0.151,0.012-0.307,0.001-0.464-0.031c-0.792-0.162-1.39-0.998-1.39-1.944V72.49c0-0.924,0.617-1.757,1.406-1.895
					c0.665-0.117,1.303,0.127,1.705,0.652c0.365,0.478,0.854,0.818,1.411,0.986c0.816,0.246,1.716,0.102,2.408-0.387
					c1.246-0.879,2.346-1.954,3.269-3.195c0.656-0.883,0.473-2.131-0.41-2.787c-0.884-0.657-2.133-0.474-2.789,0.41
					c-0.459,0.618-0.979,1.18-1.552,1.677c-0.632-0.541-1.37-0.932-2.161-1.154c-0.512-1.961-1.423-6.163-1.423-11.231
					c0-3.052,0.94-5.196,2.796-6.373c1.448-0.919,2.98-0.956,2.98-0.956c0.508,0,1.004-0.201,1.374-0.551
					c0.049-0.046,4.947-4.592,13.337-5.045c7.68-0.415,13.607,1.523,17.145,5.607c3.563,4.115,4.75,10.435,3.461,18.343
					c-0.531-0.02-1.117,0.021-1.697,0.118l-1.873-4.496c-0.383-0.917-1.383-1.413-2.344-1.162
					c-0.186,0.049-18.588,4.714-26.305-4.893c-0.689-0.858-1.943-0.995-2.801-0.306c-0.859,0.688-0.996,1.942-0.307,2.801
					c7.88,9.811,23.516,7.677,28.72,6.636l1.447,3.477c0.622,1.495,2.216,2.311,3.786,1.941c0.645-0.152,1.26-0.156,1.49-0.11
					c0.807,0.16,1.414,0.965,1.414,1.87v1.454c0,0.946-0.598,1.782-1.391,1.943c-0.156,0.033-0.313,0.044-0.463,0.032
					c-1.912-0.139-3.684,1.249-4.036,3.163c-1.449,7.893-8.327,13.621-16.354,13.621S111.969,86.953,110.52,79.061z
					 M119.359,114.286c-0.506,0.505-1.092,0.53-1.398,0.499c-0.305-0.029-0.877-0.17-1.273-0.764l-7.756-11.636l3.119-3.119
					l11.908,10.42L119.359,114.286z M124.982,116.918l0.12-2.738l1.772-1.772l1.771,1.772l0.121,2.738H124.982z M126.875,106.941
					l-11.059-9.676v-3.814c3.215,2.045,7.02,3.216,11.059,3.216s7.843-1.171,11.058-3.216v3.814L126.875,106.941z M137.063,114.021
					c-0.397,0.595-0.969,0.734-1.273,0.764c-0.307,0.031-0.894,0.006-1.399-0.499l-4.601-4.6l11.91-10.421l3.119,3.12
					L137.063,114.021z"/>
			</g>
		</g>
		<g>
			<g>
				<path fill="#068C69" d="M95.176,115.291l-9.73-4.247l-5.318-5.319c-0.356-0.356-0.814-0.547-1.281-0.577v-3.135
					c4.546-2.987,7.873-7.738,8.941-13.399c0.523,0.023,1.052-0.027,1.572-0.15c2.551-0.604,4.401-3.047,4.401-5.811v-1.453
					c0-2.019-1.002-3.834-2.554-4.899c0.456-1.809,0.689-3.659,0.689-5.521c0-8.257-4.463-15.528-11.189-19.703
					c-0.072-6.891-5.953-12.476-13.176-12.476s-13.104,5.585-13.176,12.476c-6.727,4.175-11.189,11.447-11.189,19.703
					c0,1.856,0.231,3.701,0.686,5.504c-1.552,1.061-2.55,2.885-2.55,4.938v1.431c0,2.764,1.851,5.207,4.401,5.811
					c0.52,0.123,1.049,0.174,1.572,0.15c1.068,5.661,4.396,10.412,8.941,13.399v3.135c-0.467,0.03-0.924,0.221-1.281,0.577
					l-5.318,5.319l-9.73,4.247c-4.951,2.162-8.123,7.239-7.895,12.637l1.177,27.764c0.046,1.071,0.928,1.909,1.989,1.909
					c0.029,0,0.058-0.001,0.086-0.002c1.1-0.047,1.953-0.976,1.906-2.075l-1.176-27.765c-0.076-1.789,0.389-3.524,1.263-5.019
					l5.229,6.276c1.654,1.983,2.564,4.497,2.564,7.079v19.512c0,1.101,0.891,1.993,1.992,1.993c1.101,0,1.992-0.893,1.992-1.993
					v-19.512c0-3.513-1.238-6.932-3.486-9.631l-5.561-6.672c0.473-0.326,0.975-0.615,1.512-0.849l8.48-3.702l5.993,9.728
					c0.591,0.96,1.569,1.611,2.685,1.787c0.199,0.031,0.4,0.047,0.602,0.047c0.91,0,1.798-0.323,2.501-0.924l3.798-3.24v32.968
					c0,1.101,0.893,1.992,1.992,1.992c1.102,0,1.994-0.892,1.994-1.992v-32.967l3.797,3.24c0.703,0.601,1.59,0.923,2.502,0.923
					c0.199,0,0.4-0.016,0.602-0.047c1.113-0.175,2.092-0.826,2.684-1.787l5.992-9.728l8.48,3.702
					c0.537,0.234,1.039,0.522,1.512,0.849l-5.56,6.673c-2.249,2.698-3.487,6.117-3.487,9.63v19.513c0,1.1,0.893,1.992,1.993,1.992
					s1.993-0.893,1.993-1.992v-19.513c0-2.581,0.91-5.096,2.563-7.079l5.23-6.276c0.874,1.494,1.339,3.23,1.264,5.019l-1.178,27.765
					c-0.047,1.1,0.808,2.028,1.907,2.075c0.028,0.001,0.058,0.002,0.086,0.002c1.062,0,1.944-0.838,1.989-1.909l1.177-27.764
					C103.301,122.531,100.127,117.453,95.176,115.291z M67.531,42.586c4.24,0,7.816,2.704,8.875,6.369
					c-2.752-1.039-5.745-1.609-8.875-1.609c-3.129,0-6.123,0.57-8.874,1.609C59.715,45.29,63.291,42.586,67.531,42.586z
					 M51.176,87.791c-0.351-1.913-2.125-3.304-4.035-3.162c-0.169,0.012-0.344-0.002-0.52-0.045c-0.76-0.18-1.334-1.01-1.334-1.932
					v-1.431c0-0.925,0.618-1.757,1.406-1.896c0.666-0.117,1.303,0.127,1.705,0.652c0.366,0.478,0.854,0.818,1.412,0.987
					c0.816,0.246,1.716,0.102,2.408-0.387c1.227-0.866,2.312-1.923,3.225-3.139c0.661-0.88,0.482-2.129-0.396-2.789
					c-0.881-0.661-2.13-0.483-2.791,0.396c-0.451,0.602-0.96,1.149-1.52,1.635c-0.854-0.729-1.898-1.186-3.008-1.324
					c-0.382-1.501-0.576-3.036-0.576-4.579c0-10.724,9.142-19.447,20.379-19.447c11.238,0,20.38,8.724,20.38,19.447
					c0,1.541-0.194,3.072-0.575,4.571c-0.523,0.041-1.057,0.127-1.551,0.255l-1.498-1.231c-0.752-0.619-1.699-0.929-2.658-0.872
					c-2.93,0.173-17.931,0.569-25.627-8.642c-0.705-0.845-1.962-0.957-2.807-0.251c-0.845,0.705-0.957,1.962-0.252,2.807
					c3.797,4.542,9.363,7.614,16.547,9.13c5.5,1.161,10.391,1.048,12.306,0.938l2.337,1.922c0.644,0.529,1.545,0.604,2.266,0.185
					c0.338-0.185,1.47-0.36,1.964-0.262c0.806,0.161,1.413,0.964,1.413,1.87v1.453c0,0.922-0.572,1.752-1.332,1.932
					c-0.177,0.043-0.352,0.058-0.521,0.045c-1.908-0.139-3.684,1.249-4.035,3.162c-1.449,7.893-8.328,13.622-16.355,13.622
					S52.626,95.684,51.176,87.791z M59.268,122.752l-5.992-9.729l3.07-3.07l8.252,8.252L59.268,122.752z M67.531,115.502
					l-7.328-7.329v-4.123c2.287,0.871,4.76,1.348,7.328,1.348c2.569,0,5.041-0.477,7.329-1.347v4.122L67.531,115.502z
					 M75.795,122.752l-5.33-4.548l8.253-8.252l3.07,3.07L75.795,122.752z"/>
			</g>
		</g>
	</g>
</g>
</svg>
