<?xml version="1.0" encoding="utf-8"?>
<!-- Generator: Adobe Illustrator 16.0.0, SVG Export Plug-In . SVG Version: 6.00 Build 0)  -->
<!DOCTYPE svg PUBLIC "-//W3C//DTD SVG 1.1//EN" "http://www.w3.org/Graphics/SVG/1.1/DTD/svg11.dtd">
<svg version="1.1" id="Capa_1" xmlns="http://www.w3.org/2000/svg" xmlns:xlink="http://www.w3.org/1999/xlink" x="0px" y="0px"
	 width="28px" height="28px" viewBox="0 0 28 28" enable-background="new 0 0 28 28" xml:space="preserve">
<path fill="#D4D4D4" d="M14,1C6.82,1,1,6.819,1,14c0,7.182,5.82,13,13,13c7.183,0,13-5.818,13-13C27,6.819,21.182,1,14,1z
	 M21.523,19.771c0,1.246-1.012,2.257-2.257,2.257h-1.505c-1.246,0-2.256-1.011-2.256-2.257v-1.505c0-1.246,1.01-2.256,2.256-2.256
	h0.052c-0.029-0.081-0.052-0.166-0.052-0.258V15h-7.522v0.752c0,0.092-0.022,0.177-0.052,0.258h0.052
	c1.246,0,2.257,1.01,2.257,2.256v1.505c0,1.246-1.011,2.257-2.257,2.257H8.734c-1.246,0-2.257-1.011-2.257-2.257v-1.505
	c0-1.246,1.011-2.256,2.257-2.256h0.052c-0.03-0.081-0.052-0.166-0.052-0.258v-1.504c0-0.416,0.336-0.752,0.752-0.752h3.761v-1.505
	c-1.246,0-2.257-1.011-2.257-2.257V8.229c0-1.247,1.011-2.257,2.257-2.257h1.505c1.246,0,2.256,1.01,2.256,2.257v1.505
	c0,1.246-1.01,2.257-2.256,2.257v1.505h3.762c0.414,0,0.752,0.336,0.752,0.752v1.504c0,0.092-0.022,0.177-0.053,0.258h0.053
	c1.246,0,2.257,1.01,2.257,2.256L21.523,19.771L21.523,19.771z"/>
</svg>
