<?xml version="1.0" standalone="no"?>
<!DOCTYPE svg PUBLIC "-//W3C//DTD SVG 20010904//EN"
 "http://www.w3.org/TR/2001/REC-SVG-20010904/DTD/svg10.dtd">
<svg version="1.0" xmlns="http://www.w3.org/2000/svg"
 width="1280.000000pt" height="710.000000pt" viewBox="0 0 1280.000000 710.000000"
 preserveAspectRatio="xMidYMid meet">
<g transform="translate(0.000000,710.000000) scale(0.100000,-0.100000)"
fill="#000000" stroke="none">
<path d="M5335 7085 c-19 -7 -1811 -463 -1955 -498 -157 -38 -462 -146 -509
-181 -17 -11 -99 -73 -183 -137 -185 -139 -437 -322 -466 -338 -15 -8 -307
-11 -1051 -11 l-1029 0 -17 -72 c-42 -187 -78 -528 -95 -903 -6 -132 -15 -328
-20 -435 -13 -248 -13 -591 0 -790 5 -85 14 -276 20 -425 16 -404 68 -1019 88
-1036 4 -4 241 -4 527 0 l520 6 -3 530 c-7 935 37 1970 91 2156 10 33 18 44
40 50 49 13 513 29 1325 44 437 9 800 19 805 22 6 4 161 116 344 250 183 134
350 254 371 267 34 22 486 142 1712 455 427 109 556 123 649 74 59 -32 251
-190 251 -207 0 -6 -218 -132 -484 -279 l-485 -268 -5 -62 c-4 -34 -12 -173
-20 -308 -7 -136 -17 -252 -20 -258 -4 -7 -141 -111 -304 -233 -306 -228 -548
-417 -616 -481 l-38 -36 30 -38 c34 -43 295 -300 453 -445 l106 -98 400 0 400
0 264 202 c582 443 644 501 664 611 9 46 40 72 96 81 79 13 177 73 497 304 63
45 120 82 128 82 19 0 536 -505 1250 -1222 l582 -583 -5 -505 -6 -505 66 60
66 60 0 481 1 481 -718 714 c-840 836 -1200 1179 -1236 1179 -21 0 -131 -70
-307 -197 -184 -132 -313 -213 -340 -213 -34 0 -53 89 -68 317 -6 84 -15 161
-21 173 -16 30 -54 26 -69 -7 -14 -31 -28 -235 -37 -536 l-6 -199 -434 -325
-433 -325 -318 4 c-342 4 -383 10 -398 58 -14 45 23 81 285 280 222 168 273
216 268 251 -10 72 -143 5 -537 -269 -91 -63 -171 -116 -178 -119 -15 -6 -253
223 -253 242 0 8 829 634 922 696 5 3 17 142 27 308 14 224 22 306 32 316 17
15 1563 865 1599 878 20 7 252 -48 1109 -263 1562 -392 1733 -438 1908 -520
114 -53 151 -80 380 -277 l202 -173 300 0 301 0 -6 78 c-9 133 -55 584 -65
652 -14 87 -34 120 -94 150 l-50 25 -721 5 -721 5 -45 37 c-24 20 -143 120
-264 223 -120 103 -228 191 -239 196 -11 5 -308 79 -660 165 -1003 244 -2353
585 -2415 608 -9 4 -151 -68 -338 -169 -178 -96 -325 -175 -327 -175 -2 0
-101 79 -221 175 -119 96 -222 175 -228 174 -6 0 -15 -2 -21 -4z"/>
<path d="M11777 4913 c-4 -6 -2 -122 3 -259 19 -502 9 -1161 -26 -1674 -22
-334 -63 -723 -77 -736 -9 -8 -151 -9 -517 -4 -278 5 -634 10 -791 11 l-287 4
-48 -45 c-27 -24 -93 -85 -147 -136 l-97 -91 2 -484 3 -484 299 -3 300 -2 323
322 323 323 833 8 c457 5 833 10 835 12 16 15 49 399 61 695 6 140 16 377 22
525 20 458 2 1052 -46 1585 -28 307 -39 378 -59 398 -8 8 -34 18 -58 23 -69
13 -844 24 -851 12z"/>
<path d="M7679 3844 c-8 -10 -15 -48 -17 -90 -8 -143 -70 -70 1145 -1336 l93
-96 0 -366 0 -367 78 3 77 3 2 380 3 380 -226 235 c-871 906 -995 1048 -1024
1173 -18 79 -33 97 -79 97 -24 0 -44 -6 -52 -16z"/>
<path d="M7091 3008 c-5 -13 -16 -58 -26 -100 -17 -77 -17 -78 4 -122 37 -74
190 -231 916 -934 l230 -223 5 -140 5 -139 58 36 57 36 0 143 0 143 -397 380
c-592 565 -724 705 -739 790 -11 63 -47 122 -86 143 -14 8 -20 5 -27 -13z"/>
<path d="M5084 2578 c-201 -206 -593 -668 -1173 -1382 l-112 -139 20 -20 20
-21 148 144 c81 80 321 314 533 521 398 388 583 565 611 579 11 7 77 -31 245
-141 126 -82 234 -148 241 -147 13 3 183 233 183 248 0 54 -523 470 -591 470
-8 0 -65 -51 -125 -112z"/>
<path d="M1203 2242 c-18 -12 6 -321 43 -539 l5 -33 166 0 166 0 -21 23 c-12
13 -22 27 -22 32 0 5 89 97 199 204 205 202 263 273 243 293 -18 18 -753 37
-779 20z"/>
<path d="M6230 2144 c-40 -27 -100 -87 -100 -100 0 -7 28 -34 63 -60 113 -87
227 -184 237 -205 9 -15 5 -30 -17 -70 -15 -28 -33 -53 -39 -56 -7 -2 -26 3
-43 11 -51 27 -75 21 -121 -31 -24 -27 -54 -65 -68 -85 -30 -45 -38 -47 -47
-10 -3 16 -30 53 -60 82 -30 30 -55 62 -55 72 0 10 14 38 32 63 27 38 30 49
22 72 -5 16 -22 34 -37 41 -35 17 -34 31 4 68 17 16 44 45 60 66 l29 36 -47
31 c-25 17 -54 31 -62 31 -15 0 -184 -199 -196 -231 -4 -10 6 -22 29 -34 l34
-18 43 31 c40 30 69 40 69 26 0 -4 -16 -27 -36 -50 -24 -30 -43 -44 -60 -44
-17 0 -33 -12 -54 -42 -41 -57 -39 -83 13 -132 49 -48 176 -133 219 -148 21
-8 27 -15 22 -27 -17 -42 -15 -49 35 -91 28 -24 51 -50 51 -58 0 -17 -30 -66
-214 -357 -210 -333 -285 -433 -346 -463 -37 -18 -45 -18 -117 -7 -101 17
-232 47 -412 96 -79 22 -148 36 -152 32 -4 -4 -64 -73 -133 -153 l-126 -145 2
-85 3 -85 168 -12 c92 -6 196 -19 231 -27 73 -19 145 -20 201 -5 30 8 60 32
120 94 44 46 91 88 105 93 14 5 56 13 95 17 86 9 126 29 190 94 66 68 112 84
363 126 309 53 357 70 634 232 190 110 310 165 371 171 33 2 86 20 146 48 106
50 321 173 321 184 0 4 -9 14 -19 21 -10 8 -137 111 -282 229 -252 206 -633
507 -804 637 -199 150 -217 159 -265 127z m101 -1030 c4 -38 7 -151 8 -250 1
-142 -2 -184 -13 -193 -18 -15 -94 -28 -238 -41 -119 -10 -148 -8 -148 15 0
16 318 547 334 557 6 4 20 1 31 -6 16 -10 21 -29 26 -82z m-1351 -679 c85 -20
215 -63 262 -86 41 -21 54 -48 39 -78 -19 -35 -68 -44 -278 -49 l-202 -4 -7
27 c-4 15 -4 57 -1 94 10 108 49 128 187 96z"/>
<path d="M5018 1918 c-332 -311 -712 -676 -892 -856 l-189 -190 69 -21 c153
-45 513 -132 570 -138 60 -6 62 -5 104 33 70 64 202 226 403 495 l27 36 -63
50 c-84 69 -175 160 -182 184 -10 30 34 96 123 182 90 87 116 95 157 51 46
-49 44 -66 -21 -151 -19 -25 -34 -50 -34 -56 0 -11 110 -117 122 -117 7 0 287
375 294 394 5 13 -7 22 -208 160 l-128 87 -152 -143z"/>
<path d="M5583 1885 c-18 -24 -33 -48 -33 -53 0 -7 33 -36 96 -84 8 -6 26 9
53 43 23 28 41 55 41 60 0 10 -101 79 -115 79 -5 -1 -25 -21 -42 -45z"/>
<path d="M9490 1702 c-63 -60 -125 -114 -137 -120 -13 -7 -71 -12 -149 -12
l-127 0 6 -427 c3 -236 9 -440 13 -456 l6 -28 84 46 c130 70 415 246 419 259
8 25 15 846 8 846 -4 0 -60 -49 -123 -108z"/>
<path d="M5589 1618 c-39 -51 -116 -153 -172 -225 -55 -73 -104 -133 -108
-133 -5 0 -9 10 -9 23 0 14 -16 39 -40 62 -31 31 -42 36 -53 26 -19 -15 -71
-90 -66 -94 58 -45 119 -62 134 -37 9 15 28 12 22 -3 -3 -8 -75 -108 -159
-223 -197 -266 -270 -373 -263 -385 19 -29 53 4 232 219 210 252 487 595 577
715 64 84 64 86 5 128 l-28 20 -72 -93z"/>
<path d="M1745 1544 c175 -171 376 -353 424 -385 39 -25 53 -29 105 -27 83 4
124 -18 386 -209 118 -86 255 -182 304 -215 82 -54 92 -58 147 -58 32 0 59 3
58 8 0 4 -30 33 -67 65 -37 31 -112 99 -167 151 l-100 93 50 47 c73 69 306
270 335 289 13 9 30 17 37 17 14 0 94 -67 296 -250 71 -63 132 -115 137 -115
10 0 80 90 79 102 0 4 -140 137 -310 296 l-310 287 -342 0 c-188 0 -529 3
-757 6 l-415 5 110 -107z"/>
<path d="M8477 1492 l-118 -77 3 -470 c3 -418 6 -474 21 -509 16 -36 19 -38
49 -32 18 4 125 69 238 145 l205 138 3 442 2 441 -142 -1 -143 -1 -118 -76z"/>
<path d="M8095 1249 c-119 -70 -154 -83 -203 -75 -109 20 -120 19 -189 -13
l-66 -32 36 -37 c47 -48 47 -76 2 -170 -19 -40 -39 -101 -45 -134 -13 -87 -26
-753 -13 -761 9 -6 543 309 570 336 11 10 13 105 11 479 l-3 467 -100 -60z"/>
<path d="M3730 897 c0 -8 -44 -54 -97 -102 -54 -49 -98 -93 -98 -98 0 -5 24
-30 52 -54 l53 -45 70 68 71 68 77 -12 c42 -7 103 -18 135 -26 32 -8 57 -11
55 -7 -2 4 -37 37 -78 72 -42 37 -75 74 -75 84 0 14 -17 24 -75 42 -88 27 -90
27 -90 10z"/>
<path d="M3350 710 c-19 -16 -54 -37 -77 -46 -24 -9 -43 -20 -43 -25 0 -4 20
-24 45 -45 54 -44 57 -43 151 40 l67 60 -29 23 c-39 31 -72 29 -114 -7z"/>
<path d="M3850 646 c51 -56 240 -218 251 -214 7 2 -46 54 -117 114 -135 116
-176 146 -134 100z"/>
<path d="M4200 590 c48 -43 59 -47 78 -28 19 19 15 25 -30 42 -91 32 -97 30
-48 -14z"/>
<path d="M3618 545 c-10 -13 -18 -31 -18 -39 0 -18 166 -153 368 -300 172
-124 206 -146 236 -146 32 0 206 88 206 104 0 12 -115 120 -147 140 -7 4 -42
-13 -83 -40 -70 -47 -71 -47 -103 -32 -46 22 -174 119 -311 236 -66 56 -122
102 -125 102 -4 0 -14 -11 -23 -25z"/>
<path d="M4469 488 c-35 -24 -64 -48 -66 -54 -3 -10 87 -88 165 -143 28 -19
35 -21 49 -10 13 11 15 30 11 106 -8 155 -45 178 -159 101z"/>
<path d="M4205 480 c-28 -22 -50 -43 -50 -48 0 -5 22 -28 48 -50 l49 -42 26
20 c66 49 86 70 77 78 -6 5 -30 25 -55 45 l-46 36 -49 -39z"/>
</g>
</svg>
