<?xml version="1.0" encoding="utf-8"?>
<!-- Generator: Adobe Illustrator 16.0.0, SVG Export Plug-In . SVG Version: 6.00 Build 0)  -->
<!DOCTYPE svg PUBLIC "-//W3C//DTD SVG 1.1//EN" "http://www.w3.org/Graphics/SVG/1.1/DTD/svg11.dtd">
<svg version="1.1" id="Capa_1" xmlns="http://www.w3.org/2000/svg" xmlns:xlink="http://www.w3.org/1999/xlink" x="0px" y="0px"
	 width="500px" height="500px" viewBox="0 0 500 500" enable-background="new 0 0 500 500" xml:space="preserve">
<g>
	<path d="M379.608,132.998c0-67.831-55.186-123.014-123.017-123.014c-67.828,0-123.011,55.183-123.011,123.014
		c0,41.525,20.686,78.307,52.291,100.593c-1.383,0.657-2.747,1.368-4.059,2.161l-66.669,40.21
		c-4.828-4.061-11.048-6.517-17.835-6.517H56.443c-15.301,0-27.748,12.453-27.748,27.753v165.036
		c0,15.301,12.447,27.753,27.748,27.753h40.865c7.085,0,13.553-2.67,18.462-7.057c8.157,4.632,17.329,7.052,26.864,7.052h156.247
		c18.464,0,33.495-15.025,33.495-33.495c0-4.204-0.774-8.311-2.303-12.213c-1.57-4.005-3.848-7.612-6.777-10.721
		c11.001-5.492,18.577-16.875,18.577-29.989c0-8.611-3.22-16.718-9.079-22.938c11.005-5.503,18.576-16.88,18.576-30
		c0-13.125-7.581-24.508-18.597-30c5.646-5.992,9.1-14.063,9.1-22.928c0-8.947-3.485-17.354-9.813-23.683
		c-6.333-6.328-14.745-9.808-23.682-9.808h-15.652v-13.614C342.975,235.122,379.608,188.259,379.608,132.998L379.608,132.998z
		 M147.644,132.998c0-60.076,48.875-108.951,108.948-108.951c60.076,0,108.954,48.875,108.954,108.951
		c0,60.077-48.878,108.949-108.954,108.949C196.518,241.946,147.644,193.071,147.644,132.998L147.644,132.998z M202.76,264.207
		c-3.883,0-7.031,3.148-7.031,7.031c0,3.888,3.148,7.031,7.031,7.031h105.619c5.187,0,10.067,2.022,13.746,5.691
		c3.669,3.668,5.687,8.549,5.687,13.736c0,10.715-8.713,19.433-19.433,19.433c-3.883,0-7.031,3.148-7.031,7.031
		c0,3.882,3.148,7.031,7.031,7.031h9.497c10.72,0,19.433,8.718,19.433,19.433c0,10.72-8.713,19.443-19.433,19.443h-9.497
		c-3.883,0-7.031,3.148-7.031,7.031c0,3.882,3.148,7.031,7.031,7.031c5.197,0,10.078,2.018,13.746,5.696
		c3.669,3.658,5.687,8.539,5.687,13.736c0,10.715-8.713,19.433-19.433,19.433h-9.497c-3.883,0-7.031,3.148-7.031,7.031
		s3.148,7.031,7.031,7.031c5.187,0,10.067,2.022,13.751,5.696c1.9,1.9,3.368,4.132,4.347,6.644c0.887,2.263,1.335,4.647,1.335,7.088
		c0,10.715-8.713,19.433-19.433,19.433H142.637c-6.743,0-13.232-1.636-19.061-4.754c0.958-2.802,1.482-5.809,1.482-8.932v-37.923
		c0-3.883-3.146-7.031-7.031-7.031c-3.882,0-7.031,3.148-7.031,7.031v37.923c0,7.546-6.139,13.69-13.685,13.69H56.443
		c-7.546,0-13.686-6.145-13.686-13.69V297.197c0-7.551,6.14-13.69,13.686-13.69h40.868c7.546,0,13.685,6.14,13.685,13.69v98.988
		c0,3.883,3.149,7.031,7.031,7.031c3.885,0,7.031-3.148,7.031-7.031v-98.988c0-3.424-0.629-6.705-1.763-9.731l65.783-39.675
		c3.997-2.41,8.506-3.941,13.133-4.476c5.623,2.782,11.482,5.154,17.548,7.059v13.838h-17V264.207z M278.664,264.207h-44.845V253.89
		c7.383,1.386,14.998,2.119,22.772,2.119c7.531,0,14.908-0.683,22.072-1.987V264.207z"/>
	<path d="M75.599,60.649l22.699,11.11c3.177,1.554,6.56,2.292,9.9,2.292c7.874,0,15.52-4.102,19.685-11.316l1.164-2.018l0,0
		c5.934-10.277,2.866-23.511-6.978-30.132l-20.972-14.104c-5.189-3.49-11.66-4.682-17.756-3.273
		c-6.094,1.412-11.382,5.327-14.511,10.746l-2.894,5.011c-3.128,5.418-3.875,11.958-2.051,17.94
		C65.709,52.89,69.981,57.901,75.599,60.649L75.599,60.649z M78.113,36l2.894-5.014c1.205-2.086,3.159-3.533,5.505-4.076
		c0.655-0.153,1.314-0.227,1.969-0.227c1.682,0,3.327,0.5,4.769,1.467l20.971,14.104c3.735,2.514,4.896,7.533,2.647,11.433
		l-1.165,2.018c-2.252,3.897-7.182,5.4-11.225,3.424l-22.699-11.11c-2.165-1.057-3.742-2.91-4.445-5.215
		C76.633,40.501,76.908,38.086,78.113,36z"/>
	<path d="M437.591,205.343l-22.704-11.107c-10.653-5.215-23.651-1.253-29.582,9.021l-1.162,2.018v0.002
		c-5.931,10.274-2.868,23.509,6.98,30.132l20.962,14.104c3.765,2.529,8.203,3.852,12.677,3.852c1.701,0,3.403-0.19,5.084-0.578
		c6.094-1.411,11.383-5.327,14.512-10.746l2.894-5.014c3.128-5.416,3.878-11.956,2.054-17.937
		C447.476,213.103,443.205,208.095,437.591,205.343L437.591,205.343z M435.074,229.993l-2.895,5.014
		c-1.202,2.086-3.159,3.533-5.503,4.076c-2.349,0.545-4.743,0.104-6.74-1.241l-20.967-14.106c-3.739-2.509-4.901-7.53-2.649-11.428
		l1.162-2.02c2.252-3.898,7.184-5.401,11.229-3.424l22.693,11.109c2.171,1.058,3.745,2.91,4.448,5.212
		C436.551,225.492,436.276,227.909,435.074,229.993z"/>
	<path d="M46.029,152.453c4.198,3.918,9.767,6.097,15.481,6.097c0.509,0,1.024-0.018,1.536-0.051l25.21-1.729
		c11.838-0.813,21.109-10.743,21.109-22.607v-2.331c0-11.864-9.271-21.794-21.109-22.604l-25.21-1.73
		c-6.242-0.428-12.445,1.776-17.018,6.043c-4.57,4.272-7.194,10.307-7.194,16.564v5.788
		C38.835,142.148,41.459,148.184,46.029,152.453z M52.897,130.104c0-2.41,0.97-4.639,2.73-6.285c1.61-1.503,3.669-2.313,5.85-2.313
		c0.201,0,0.402,0.007,0.606,0.02l25.213,1.73c4.491,0.308,8.007,4.079,8.007,8.575v2.331c0,4.501-3.516,8.267-8.007,8.575
		l-25.213,1.73c-2.405,0.163-4.698-0.649-6.456-2.293c-1.76-1.643-2.73-3.875-2.73-6.282V130.104z"/>
	<path d="M467.163,113.54c-4.576-4.267-10.776-6.471-17.019-6.043l-25.215,1.73c-11.836,0.813-21.109,10.74-21.109,22.604v2.331
		c0,11.864,9.273,21.794,21.109,22.607l25.215,1.729c0.51,0.036,1.02,0.051,1.534,0.051c5.712,0,11.286-2.178,15.484-6.099
		c4.564-4.27,7.194-10.305,7.194-16.562v-5.786C474.357,123.847,471.728,117.812,467.163,113.54z M460.295,135.892
		c0,2.407-0.974,4.639-2.731,6.282c-1.763,1.646-4.065,2.458-6.461,2.293l-25.21-1.73c-4.494-0.308-8.01-4.073-8.01-8.575v-2.331
		c0-4.502,3.516-8.27,8.01-8.575l25.21-1.73c0.204-0.013,0.408-0.02,0.612-0.02c2.18,0,4.238,0.81,5.849,2.313
		c1.758,1.646,2.726,3.875,2.726,6.285v5.788H460.295z"/>
	<path d="M98.297,194.236l-22.699,11.107c-5.62,2.749-9.887,7.76-11.714,13.741c-1.827,5.984-1.078,12.524,2.051,17.94l2.894,5.014
		c3.128,5.418,8.417,9.334,14.511,10.745c1.679,0.391,3.386,0.581,5.087,0.581c4.477,0,8.909-1.324,12.669-3.854l20.972-14.103
		c9.846-6.621,12.911-19.858,6.978-30.132l-1.164-2.018l0,0C121.951,192.982,108.954,189.021,98.297,194.236L98.297,194.236z
		 M114.222,223.739L93.25,237.842c-2,1.345-4.392,1.786-6.738,1.241c-2.346-0.54-4.303-1.99-5.505-4.076l-2.894-5.011
		c-1.205-2.086-1.48-4.501-0.779-6.807c0.703-2.303,2.283-4.155,4.445-5.215l22.699-11.107c1.205-0.591,2.489-0.872,3.758-0.872
		c2.985,0,5.885,1.559,7.467,4.295l0,0l1.164,2.018C119.118,216.206,117.957,221.227,114.222,223.739z"/>
	<path d="M385.305,62.736c4.168,7.214,11.811,11.316,19.688,11.316c3.343,0,6.726-0.739,9.895-2.292l22.704-11.107
		c5.614-2.751,9.885-7.76,11.708-13.744c1.83-5.984,1.08-12.521-2.048-17.938l-2.894-5.016c-3.129-5.418-8.418-9.334-14.512-10.746
		c-6.094-1.409-12.564-0.216-17.756,3.273l-20.967,14.104c-9.849,6.624-12.911,19.858-6.98,30.135L385.305,62.736z M398.97,42.254
		l20.972-14.104c1.437-0.968,3.082-1.467,4.769-1.467c0.652,0,1.31,0.074,1.967,0.227c2.344,0.543,4.301,1.99,5.503,4.076
		L435.074,36c1.202,2.086,1.482,4.501,0.779,6.805c-0.703,2.305-2.277,4.158-4.448,5.217l-22.693,11.107
		c-4.046,1.977-8.978,0.474-11.229-3.424v-0.003l-1.162-2.015C394.068,49.79,395.23,44.768,398.97,42.254L398.97,42.254z"/>
	<path d="M276.213,202.164l32.09-64.736c1.727-3.478,0.3-7.696-3.175-9.423c-3.485-1.722-7.704-0.3-9.426,3.179l-32.094,64.741
		c-0.852,1.732-2.594,2.856-4.53,2.932l-25.707,1.014c-1.944,0.071-3.75-0.912-4.749-2.583l-36.262-60.655
		c-1.5-2.509-0.678-5.77,1.827-7.268l18.292-10.934c2.509-1.498,5.771-0.678,7.271,1.829l18.401,30.78
		c1.322,2.208,3.745,3.523,6.313,3.416c2.571-0.099,4.884-1.597,6.025-3.903l37.785-76.246c0.632-1.269,1.717-2.216,3.057-2.67
		c1.346-0.454,2.782-0.354,4.057,0.278l19.086,9.459c1.273,0.629,2.222,1.714,2.675,3.057c0.453,1.34,0.352,2.777-0.28,4.05
		l-8.672,17.502c-1.723,3.48-0.296,7.699,3.18,9.423c3.484,1.725,7.703,0.301,9.426-3.179l8.672-17.499
		c2.293-4.634,2.649-9.887,0.998-14.789c-1.65-4.901-5.11-8.865-9.752-11.166l-19.086-9.459c-4.637-2.3-9.885-2.657-14.786-1.003
		c-4.901,1.651-8.865,5.113-11.168,9.75l-32.069,64.703l-11.793-19.721c-5.477-9.164-17.387-12.162-26.553-6.685l-18.294,10.937
		c-9.158,5.482-12.157,17.392-6.68,26.551l36.262,60.657c3.508,5.87,9.818,9.434,16.605,9.434c0.255,0,0.512-0.005,0.769-0.015
		l25.708-1.012C266.721,212.629,273.08,208.507,276.213,202.164L276.213,202.164z"/>
</g>
</svg>
