<svg xmlns="http://www.w3.org/2000/svg" viewBox="0 0 352.94 500"><defs><style>.cls-1{fill:#fff;}.cls-2{fill:#8661e1;}</style></defs><g id="Layer_2" data-name="Layer 2"><g id="Layer_1-2" data-name="Layer 1"><circle class="cls-1" cx="176.47" cy="176.47" r="117.65"/><path class="cls-2" d="M215.8,156.8a39.12,39.12,0,0,1-7.86,23.6v0c-.24.47-7.86,15.84-7.86,23.58h-47.2c0-7.86-7.87-23.59-7.87-23.59h0A39.33,39.33,0,1,1,215.8,156.8Z"/><rect class="cls-2" x="152.87" y="211.87" width="47.2" height="7.87" rx="3.38"/><rect class="cls-2" x="160.74" y="227.61" width="31.47" height="7.87" rx="2.76"/><path class="cls-2" d="M176.47,0A176.46,176.46,0,0,0,0,176.47C0,352.94,176.47,500,176.47,500S352.94,352.94,352.94,176.47A176.46,176.46,0,0,0,176.47,0Zm0,294.12A117.65,117.65,0,1,1,294.12,176.47,117.66,117.66,0,0,1,176.47,294.12Z"/></g></g></svg>