<svg xmlns="http://www.w3.org/2000/svg" viewBox="0 0 352.94 500"><defs><style>.cls-1{fill:#fff;}.cls-2{fill:#00b3d8;}</style></defs><g id="Layer_2" data-name="Layer 2"><g id="Layer_1-2" data-name="Layer 1"><circle class="cls-1" cx="176.47" cy="176.47" r="117.65"/><path class="cls-2" d="M184.34,251.21H168.6L172,175.76a11.87,11.87,0,0,0,8.87,0Z"/><path class="cls-2" d="M184.34,133.2a100,100,0,0,1-2,21.06,11.88,11.88,0,0,0-11.7,0,100,100,0,0,1-2-21.06c0-17.37,3.52-31.46,7.87-31.46S184.34,115.83,184.34,133.2Z"/><path class="cls-2" d="M170.38,174.94a100.49,100.49,0,0,1-17.23,12.28c-15.05,8.68-29,12.68-31.18,8.92s8.27-13.86,23.31-22.55a99.28,99.28,0,0,1,19.25-8.77A11.92,11.92,0,0,0,170.38,174.94Z"/><path class="cls-2" d="M184.34,164.67a7.95,7.95,0,0,1-4.78,7.24,7.89,7.89,0,0,1-6.18,0,8.32,8.32,0,0,1-1.14-.61,7.84,7.84,0,0,1-3.64-6.63,7.3,7.3,0,0,1,.06-.94,7.87,7.87,0,0,1,15.62,0A7.3,7.3,0,0,1,184.34,164.67Z"/><path class="cls-2" d="M231,196.14c-2.17,3.76-16.13-.24-31.18-8.92a100,100,0,0,1-17.22-12.28,11.93,11.93,0,0,0,5.84-10.12,99.28,99.28,0,0,1,19.25,8.77C222.7,182.28,233.15,192.37,231,196.14Z"/><path class="cls-2" d="M176.47,0A176.46,176.46,0,0,0,0,176.47C0,352.94,176.47,500,176.47,500S352.94,352.94,352.94,176.47A176.46,176.46,0,0,0,176.47,0Zm0,294.12A117.65,117.65,0,1,1,294.12,176.47,117.66,117.66,0,0,1,176.47,294.12Z"/></g></g></svg>