<svg xmlns="http://www.w3.org/2000/svg" viewBox="0 0 352.94 500"><defs><style>.cls-1{fill:#fff;}.cls-2{fill:#ff9e3a;}</style></defs><g id="Layer_2" data-name="Layer 2"><g id="Layer_1-2" data-name="Layer 1"><circle class="cls-1" cx="176.47" cy="176.47" r="117.65"/><polygon class="cls-2" points="129.27 125.34 151.4 125.34 149.61 139.61 125.7 139.61 129.27 125.34"/><polygon class="cls-2" points="154.33 125.34 175.01 125.34 175.01 139.61 152.55 139.61 154.33 125.34"/><polygon class="cls-2" points="200.39 139.61 177.93 139.61 177.93 125.34 198.6 125.34 200.39 139.61"/><polygon class="cls-2" points="124.97 142.53 149.25 142.53 147.65 155.35 121.77 155.35 124.97 142.53"/><polygon class="cls-2" points="152.19 142.53 175.01 142.53 175.01 155.35 150.59 155.35 152.19 142.53"/><polygon class="cls-2" points="202.35 155.35 177.93 155.35 177.93 142.53 200.75 142.53 202.35 155.35"/><polygon class="cls-2" points="227.24 139.61 203.33 139.61 201.54 125.34 223.67 125.34 227.24 139.61"/><polygon class="cls-2" points="231.18 155.35 205.29 155.35 203.69 142.53 227.97 142.53 231.18 155.35"/><polygon class="cls-2" points="121.04 158.26 147.28 158.26 145.68 171.08 117.84 171.08 121.04 158.26"/><polygon class="cls-2" points="150.22 158.26 175.01 158.26 175.01 171.08 148.62 171.08 150.22 158.26"/><polygon class="cls-2" points="204.32 171.08 177.93 171.08 177.93 158.26 202.72 158.26 204.32 171.08"/><polygon class="cls-2" points="235.11 171.08 207.26 171.08 205.65 158.26 231.91 158.26 235.11 171.08"/><polygon class="cls-2" points="117.11 173.99 145.32 173.99 143.53 188.27 113.54 188.27 117.11 173.99"/><polygon class="cls-2" points="148.25 173.99 175.01 173.99 175.01 188.27 146.47 188.27 148.25 173.99"/><polygon class="cls-2" points="204.69 173.99 206.47 188.27 177.93 188.27 177.93 173.99 204.69 173.99"/><polygon class="cls-2" points="239.41 188.27 209.41 188.27 207.62 173.99 235.84 173.99 239.41 188.27"/><rect class="cls-2" x="113.54" y="196.14" width="125.87" height="7.87"/><rect class="cls-2" x="160.74" y="219.74" width="31.47" height="7.87"/><rect class="cls-2" x="172.54" y="204" width="7.87" height="15.73"/><path class="cls-2" d="M176.47,0A176.46,176.46,0,0,0,0,176.47C0,352.94,176.47,500,176.47,500S352.94,352.94,352.94,176.47A176.46,176.46,0,0,0,176.47,0Zm0,294.12A117.65,117.65,0,1,1,294.12,176.47,117.66,117.66,0,0,1,176.47,294.12Z"/></g></g></svg>