<?xml version="1.0" encoding="utf-8"?>
<!-- Generator: Adobe Illustrator 16.0.0, SVG Export Plug-In . SVG Version: 6.00 Build 0)  -->
<!DOCTYPE svg PUBLIC "-//W3C//DTD SVG 1.1//EN" "http://www.w3.org/Graphics/SVG/1.1/DTD/svg11.dtd">
<svg version="1.1" id="Capa_1" xmlns="http://www.w3.org/2000/svg" xmlns:xlink="http://www.w3.org/1999/xlink" x="0px" y="0px"
	 width="500px" height="500px" viewBox="0 0 500 500" enable-background="new 0 0 500 500" xml:space="preserve">
<g>
	<path d="M180.571,206.57h59.856c3.881,0,7.028-3.146,7.028-7.03c0-3.883-3.146-7.032-7.028-7.032h-59.856
		c-3.881,0-7.03,3.146-7.03,7.032C173.542,203.424,176.69,206.57,180.571,206.57z"/>
	<path d="M482.967,450.754h-43.935v-25.15h38.016c3.603,0,6.95-1.624,9.188-4.446c2.24-2.828,3.042-6.458,2.213-9.965
		l-19.346-81.924c-1.259-5.317-5.947-9.025-11.401-9.025H375.45c-4.478,0-8.437,2.499-10.407,6.33V291.38
		c0-3.881-3.146-7.032-7.031-7.032c-3.877,0-7.032,3.147-7.032,7.032v93.202l-6.285,26.61c-1.313,5.563,1.564,10.945,6.285,13.239
		v26.322h-98.515v-0.762c0-9.102-3.379-17.431-8.937-23.814c1.204,0.42,2.49,0.657,3.835,0.657h20.127
		c6.462,0,11.716-5.254,11.716-11.716v-20.131c0-6.462-5.254-11.715-11.716-11.715h-20.127c-6.462,0-11.72,5.253-11.72,11.715
		v20.131c0,1.801,0.419,3.498,1.149,5.021c-5.199-3.603-11.375-5.883-18.048-6.357V260.725c0-0.515,0.299-0.989,0.767-1.203
		l131.468-61.04v60.085c0,3.887,3.155,7.033,7.032,7.033c3.885,0,7.031-3.146,7.031-7.033v-62.911c0-4.207-2.116-8.069-5.654-10.332
		c-3.549-2.264-7.94-2.561-11.757-0.792l-68.625,31.859V159.03c0-6.979-5.683-12.658-12.66-12.658H154.65
		c-6.978,0-12.656,5.678-12.656,12.658v46.181c-1.854-0.661-3.846-0.939-5.855-0.787l-12.867,1.01
		c-0.985-1.765-2.175-3.393-3.534-4.855l7.709-11.216c2.252-3.279,3.026-7.384,2.118-11.265l-12.771-54.267
		c-1.706-7.223-8.077-12.267-15.497-12.267c-7.417,0-13.791,5.046-15.496,12.274l-12.769,54.265
		c-0.912,3.895-0.135,8.008,2.118,11.257l7.705,11.223c-1.359,1.471-2.542,3.099-3.521,4.85l-12.906-1.012
		c-3.954-0.301-7.88,1.087-10.792,3.812L15.042,246.41c-5.42,5.083-6.608,13.13-2.892,19.569c2.91,5.029,8.184,7.962,13.764,7.962
		c1.532,0,3.084-0.224,4.619-0.68l48.952-14.748l-8.619,162.383h-7.139c-5.924,0-10.745,4.816-10.745,10.74v19.117H17.048
		c-3.883,0-7.032,3.147-7.032,7.028c0,3.885,3.149,7.031,7.032,7.031h465.919c3.886,0,7.033-3.146,7.033-7.031
		C490,453.901,486.853,450.754,482.967,450.754L482.967,450.754z M249.71,397.333h15.442v15.441H249.71V397.333z M425.022,334.304
		l1.286,16.371h-19.464l1.285-16.371H425.022z M427.417,364.735l1.29,16.367h-24.261l1.285-16.367H427.417z M466.896,381.103
		h-24.088l-1.285-16.367h21.507L466.896,381.103z M431.102,411.538h-29.055l1.295-16.371h26.47L431.102,411.538z M390.345,381.103
		h-24.088l3.866-16.367h21.508L390.345,381.103z M359.069,411.538l3.867-16.371h26.295l-1.285,16.371H359.069z M408.176,425.604
		h16.792v25.15h-16.792V425.604z M445.206,411.538l-1.285-16.371h26.296l3.866,16.371H445.206z M459.709,350.675h-19.291
		l-1.29-16.371h16.719L459.709,350.675z M377.307,334.304h16.719l-1.291,16.371h-19.29L377.307,334.304z M365.043,425.604h29.077
		v25.15h-29.077V425.604z M238.4,449.992v0.762H114.792v-0.762c0-9.221,5.796-17.594,14.427-20.841
		c3.963-1.491,6.948-4.788,7.981-8.829c2.727-10.649,12.324-18.087,23.333-18.087c10.635,0,19.884,6.822,23.014,16.975
		c1.571,5.098,6.195,8.527,11.504,8.527h21.092C228.416,427.737,238.4,437.72,238.4,449.992L238.4,449.992z M176.686,273.941
		c5.573,0,10.854-2.928,13.761-7.962c2.51-4.352,2.775-9.428,1.019-13.83h15.845c-1.673,2.492-2.629,5.466-2.629,8.575v22.931
		h-24.113c-3.883,0-7.03,3.146-7.03,7.032s3.146,7.032,7.03,7.032h24.113v31.517h-24.113c-3.883,0-7.03,3.146-7.03,7.032
		c0,3.881,3.146,7.027,7.03,7.027h24.113v31.514h-24.113c-3.883,0-7.03,3.146-7.03,7.032c0,3.881,3.146,7.032,7.03,7.032h24.113
		v24.804h-8.159c-5.358-15.314-19.642-25.507-35.991-25.507c-1.512,0-3.005,0.096-4.479,0.27V268.441
		C171.483,272.884,172.723,273.941,176.686,273.941z M264.942,160.437v62.487l-32.66,15.164h-51.711
		c-0.57,0-1.122,0.073-1.653,0.203l-22.864-21.496v-56.358H264.942z M137.213,218.446c0.048-0.005,0.084,0.013,0.107,0.032
		l40.615,38.189c0.629,0.592,0.769,1.527,0.333,2.279c-0.424,0.739-1.336,1.096-2.148,0.849l-53.371-16.076
		c-0.041-0.014-0.068-0.055-0.068-0.055l-3.819-8.008c4.633-4.54,7.155-10.375,7.531-16.363L137.213,218.446z M90.284,218.958
		c-0.716-6.07,3.644-11.595,9.716-12.311c6.069-0.704,11.595,3.644,12.308,9.714c0.719,6.088-3.628,11.593-9.713,12.311
		C96.511,229.393,91.002,225.044,90.284,218.958z M99.489,127.063c0.199-0.844,0.944-1.437,1.808-1.437
		c0.869,0,1.612,0.593,1.811,1.433l12.749,54.342l-8.202,11.935c-4.036-1.063-8.364-1.136-12.71-0.005l-8.222-12.01L99.489,127.063z
		 M26.493,259.791c-0.841,0.255-1.73-0.097-2.164-0.845c-0.433-0.752-0.296-1.688,0.34-2.285l40.59-38.172
		c0.034-0.03,0.053-0.039,0.094-0.046l10.849,0.851c0.406,6.162,3.005,11.958,7.518,16.354l-3.873,8.072L26.493,259.791z
		 M94.211,246.335l1.94-4.063c3.427,0.713,6.76,0.736,10.291,0.007l1.942,4.077l3.248,61.12c0.198,3.753,3.301,6.662,7.014,6.662
		c0.125,0,0.253-0.004,0.378-0.013c3.878-0.206,6.854-3.517,6.649-7.394l-2.558-48.213l18.88,5.683v128.778
		c-4.32,2.398-8.149,5.617-11.25,9.494l-3.336-62.948c-0.206-3.881-3.514-6.863-7.395-6.648c-3.876,0.205-6.854,3.516-6.649,7.393
		l4.193,79.087c-0.762,0.487-1.499,0.999-2.214,1.541H84.949L94.211,246.335z M67.044,434.952h36.985
		c-2.125,4.643-3.3,9.76-3.3,15.04v0.762H67.044V434.952z"/>
	<path d="M279.212,279.665c0-6.463-5.259-11.716-11.717-11.716h-20.131c-6.462,0-11.718,5.253-11.718,11.716v20.13
		c0,6.462,5.256,11.72,11.718,11.72h20.131c6.458,0,11.717-5.258,11.717-11.72V279.665z M265.152,297.455H249.71v-15.446h15.442
		V297.455z"/>
	<path d="M334.078,279.665c0-6.463-5.253-11.716-11.721-11.716h-20.125c-6.462,0-11.715,5.253-11.715,11.716v20.13
		c0,6.462,5.253,11.72,11.715,11.72h20.125c6.468,0,11.721-5.258,11.721-11.72V279.665z M320.019,297.455h-15.441v-15.446h15.441
		V297.455z"/>
	<path d="M267.495,325.61h-20.131c-6.462,0-11.718,5.255-11.718,11.721v20.125c0,6.463,5.256,11.721,11.718,11.721h20.131
		c6.458,0,11.717-5.258,11.717-11.721v-20.125C279.212,330.865,273.953,325.61,267.495,325.61z M265.152,355.113H249.71v-15.442
		h15.442V355.113z"/>
	<path d="M334.078,337.327c0-6.462-5.253-11.717-11.721-11.717h-20.125c-6.462,0-11.715,5.255-11.715,11.717v20.129
		c0,6.463,5.253,11.717,11.715,11.717h20.125c6.468,0,11.721-5.254,11.721-11.717V337.327z M320.019,355.113h-15.441v-15.442h15.441
		V355.113z"/>
	<path d="M322.362,383.273h-20.125c-6.467,0-11.72,5.253-11.72,11.715v20.131c0,6.462,5.253,11.716,11.72,11.716h20.125
		c6.463,0,11.716-5.254,11.716-11.716v-20.131C334.078,388.526,328.825,383.273,322.362,383.273z M320.019,412.774h-15.441v-15.441
		h15.441V412.774z"/>
	<path d="M388.073,150.376c6.357,3.671,13.418,5.548,20.568,5.548c14.128,0,28.064-7.251,35.808-20.652
		c11.375-19.706,4.598-44.994-15.108-56.372c-19.705-11.381-44.998-4.602-56.371,15.104c-5.51,9.545-6.979,20.668-4.123,31.314
		C371.702,135.965,378.524,144.865,388.073,150.376z M385.146,101.035c7.501-12.993,24.106-17.496,37.167-9.958
		c12.988,7.5,17.457,24.173,9.956,37.164c-7.521,13.02-24.14,17.48-37.164,9.96c-6.293-3.635-10.798-9.5-12.678-16.521
		C380.549,114.659,381.516,107.328,385.146,101.035z"/>
	<path d="M342.47,84.517c5.299,2.812,6.621,4.477,9.631,4.477c2.427,0,4.788-1.261,6.094-3.514c1.941-3.366,0.793-7.666-2.572-9.606
		l-6.121-3.534c-3.36-1.94-7.661-0.789-9.604,2.574C337.959,78.276,339.112,82.576,342.47,84.517L342.47,84.517z"/>
	<path d="M349.501,156.939l6.121-3.532c3.365-1.942,4.514-6.241,2.572-9.604c-1.943-3.365-6.239-4.515-9.604-2.574l-6.12,3.532
		c-3.357,1.94-4.516,6.241-2.573,9.604C341.85,157.744,346.154,158.87,349.501,156.939z"/>
	<path d="M401.673,179.997v7.062c0,3.884,3.15,7.033,7.032,7.033c3.886,0,7.032-3.147,7.032-7.033v-7.062
		c0-3.885-3.146-7.032-7.032-7.032C404.823,172.964,401.673,176.111,401.673,179.997z"/>
	<path d="M461.789,153.405l6.12,3.532c3.347,1.932,7.652,0.805,9.604-2.574c1.943-3.361,0.793-7.662-2.571-9.604l-6.121-3.53
		c-3.36-1.942-7.661-0.791-9.604,2.572C457.274,147.164,458.433,151.464,461.789,153.405z"/>
	<path d="M468.82,88.049l6.121-3.532c3.364-1.94,4.515-6.241,2.571-9.604c-1.942-3.363-6.243-4.513-9.604-2.574l-6.12,3.532
		c-3.356,1.942-4.515,6.243-2.573,9.608C461.168,88.856,465.474,89.982,468.82,88.049z"/>
	<path d="M408.705,56.313c3.886,0,7.032-3.147,7.032-7.032v-7.064c0-3.881-3.146-7.03-7.032-7.03c-3.882,0-7.032,3.147-7.032,7.03
		v7.064C401.673,53.166,404.823,56.313,408.705,56.313z"/>
</g>
</svg>
