<?xml version="1.0" encoding="utf-8"?>
<!-- Generator: Adobe Illustrator 16.0.0, SVG Export Plug-In . SVG Version: 6.00 Build 0)  -->
<!DOCTYPE svg PUBLIC "-//W3C//DTD SVG 1.1//EN" "http://www.w3.org/Graphics/SVG/1.1/DTD/svg11.dtd">
<svg version="1.1" id="Capa_1" xmlns="http://www.w3.org/2000/svg" xmlns:xlink="http://www.w3.org/1999/xlink" x="0px" y="0px"
	 width="225px" height="225px" viewBox="0 0 225 225" enable-background="new 0 0 225 225" xml:space="preserve">
<g>
	<path d="M189.27,168.9l-7.549-2.62c4.226-3.348,6.943-8.519,6.943-14.315v-5.532c0-10.065-8.191-18.257-18.257-18.257
		c-10.067,0-18.258,8.191-18.258,18.257v5.532c0,5.797,2.72,10.968,6.944,14.315l-7.549,2.62c-4.844,1.683-8.914,4.768-11.828,8.701
		h-20.395v-8.049c0-10.593-6.723-20.046-16.729-23.52l-7.55-2.621c4.225-3.347,6.944-8.517,6.944-14.313v-5.533
		c0-10.068-8.191-18.257-18.257-18.257c-10.068,0-18.258,8.189-18.258,18.257v5.533c0,5.797,2.718,10.967,6.945,14.313l-7.55,2.621
		c-10.006,3.474-16.73,12.927-16.73,23.52v8.049H21.767c-1.528,0-2.767,1.237-2.767,2.765v22.867c0,1.528,1.238,2.767,2.767,2.767
		h115.077c0.124,0,0.248-0.012,0.367-0.027c0.122,0.016,0.245,0.027,0.37,0.027h65.652c1.528,0,2.767-1.238,2.767-2.767v-10.814
		C206,181.827,199.277,172.377,189.27,168.9z M157.682,146.433c0-7.016,5.708-12.725,12.726-12.725
		c7.016,0,12.725,5.709,12.725,12.725v5.532c0,7.018-5.709,12.727-12.725,12.727c-7.018,0-12.726-5.709-12.726-12.727V146.433z
		 M71.006,123.565c0-7.016,5.708-12.724,12.726-12.724c7.016,0,12.725,5.708,12.725,12.724v5.533
		c0,7.017-5.709,12.724-12.725,12.724c-7.018,0-12.726-5.707-12.726-12.724V123.565z M89.535,147.356l2.688,0.933l-8.491,14.733
		l-8.492-14.733l2.688-0.933H89.535z M53.67,169.553c0-8.238,5.23-15.591,13.014-18.293l3.235-1.122l11.415,19.808
		c0.493,0.856,1.409,1.385,2.397,1.385c0.989,0,1.902-0.528,2.396-1.385l11.415-19.808l3.234,1.122
		c7.784,2.702,13.013,10.055,13.013,18.293v8.049H53.67V169.553z M24.533,183.133h112.083c-1.167,2.896-1.802,6.037-1.802,9.286
		v8.048H24.533V183.133z M200.468,200.467h-60.12v-8.048c0-8.237,5.229-15.59,13.013-18.292l11.242-3.903h11.608l11.244,3.903
		c7.784,2.702,13.013,10.055,13.013,18.292V200.467z"/>
	<path d="M188.479,38.917h-28.101c-1.526,0-2.767,1.24-2.767,2.768c0,1.526,1.24,2.765,2.767,2.765h28.101
		c6.609,0,11.988,5.376,11.988,11.988v38.359c0,6.61-5.379,11.986-11.988,11.986H150.49c-1.528,0-2.767,1.238-2.767,2.767v11.765
		l-13.719-13.721c-0.521-0.519-1.224-0.811-1.956-0.811H109.55c-6.609,0-11.988-5.376-11.988-11.986V56.438
		c0-6.612,5.377-11.988,11.988-11.988h37.897c1.528,0,2.767-1.238,2.767-2.765c0-1.528-1.238-2.768-2.767-2.768h-14.477v-2.396
		c0-9.66-7.859-17.521-17.521-17.521H36.52C26.86,19,19,26.861,19,36.521v6.116c0,1.528,1.238,2.766,2.767,2.766
		c1.528,0,2.766-1.238,2.766-2.766v-6.116c0-6.61,5.377-11.988,11.987-11.988h78.931c6.611,0,11.986,5.378,11.986,11.988v2.396
		H109.55c-9.659,0-17.519,7.859-17.519,17.521v30.427H63.076c-1.528,0-2.765,1.239-2.765,2.768v11.763L46.592,87.677
		c-0.521-0.521-1.224-0.812-1.957-0.812H36.52c-6.61,0-11.987-5.377-11.987-11.987V55.499c0-1.528-1.238-2.766-2.766-2.766
		c-1.528,0-2.767,1.238-2.767,2.766v19.379c0,9.663,7.86,17.519,17.52,17.519h6.967l17.634,17.634
		c0.528,0.528,1.237,0.811,1.955,0.809c0.357,0,0.716-0.069,1.06-0.209c1.032-0.429,1.708-1.438,1.708-2.556V92.397h26.188v2.399
		c0,9.66,7.859,17.518,17.519,17.518h21.354l17.631,17.634c0.529,0.528,1.236,0.811,1.956,0.811c0.356,0,0.717-0.068,1.059-0.211
		c1.033-0.429,1.706-1.438,1.706-2.556v-15.678h35.225c9.659,0,17.521-7.857,17.521-17.518V56.438
		C206,46.776,198.139,38.917,188.479,38.917z"/>
</g>
</svg>
