<?xml version="1.0" encoding="utf-8"?>
<!-- Generator: Adobe Illustrator 16.0.0, SVG Export Plug-In . SVG Version: 6.00 Build 0)  -->
<!DOCTYPE svg PUBLIC "-//W3C//DTD SVG 1.1//EN" "http://www.w3.org/Graphics/SVG/1.1/DTD/svg11.dtd">
<svg version="1.1" id="Capa_1" xmlns="http://www.w3.org/2000/svg" xmlns:xlink="http://www.w3.org/1999/xlink" x="0px" y="0px"
	 width="225px" height="225px" viewBox="0 0 225 225" enable-background="new 0 0 225 225" xml:space="preserve">
<path d="M164.497,19H60.507c-5.683,0-10.308,4.621-10.308,10.302v49.354c0,1.539,1.248,2.787,2.788,2.787s2.788-1.246,2.788-2.787
	V29.302c0-2.604,2.123-4.725,4.732-4.725h103.991c2.606,0,4.727,2.121,4.727,4.725v67.076c0,2.606-2.12,4.728-4.727,4.728H130.47
	c-1.972,0-3.834,0.771-5.242,2.173l-11.002,11.003c-0.716,0.717-1.883,0.717-2.601-0.001l-4.354-4.351l-0.624-23.224
	c-0.014-0.538-0.08-1.064-0.188-1.57c1.342-0.416,2.572-1.156,3.594-2.178l27.791-27.788c3.423-3.425,3.423-9,0-12.427
	c-3.427-3.424-9.001-3.424-12.426,0l-5.728,5.728c-1.09,1.089-1.09,2.854,0,3.942c1.089,1.09,2.853,1.09,3.943,0l5.727-5.726
	c1.253-1.252,3.288-1.252,4.539-0.003c1.252,1.253,1.252,3.29,0,4.542l-27.788,27.787c-0.605,0.606-1.411,0.942-2.271,0.942
	c-0.414,0-0.815-0.08-1.189-0.229c-0.222-0.137-0.45-0.265-0.684-0.381c-0.14-0.101-0.273-0.209-0.396-0.333L88.843,66.287
	c-0.606-0.608-0.939-1.413-0.939-2.271s0.333-1.663,0.939-2.271c1.251-1.251,3.288-1.251,4.541,0l8.488,8.489
	c0.522,0.521,1.231,0.816,1.97,0.816c0.74,0,1.449-0.294,1.972-0.816l9.611-9.611c1.089-1.089,1.089-2.854,0-3.942
	c-1.089-1.089-2.854-1.089-3.942,0l-7.642,7.641l-6.518-6.518c-3.425-3.426-9-3.426-12.425,0c-1.659,1.658-2.572,3.867-2.572,6.211
	c0,2.348,0.913,4.553,2.572,6.212l9.262,9.262c-2.643,1.434-4.44,4.232-4.44,7.444v14.171H60.507c-2.608,0-4.731-2.121-4.731-4.728
	v-5.271c0-1.54-1.248-2.788-2.788-2.788s-2.788,1.248-2.788,2.788v5.271c0,5.681,4.624,10.304,10.308,10.304H89.72v20.831
	l-2.871,2.944c-3.889,3.987-6.029,9.252-6.029,14.821v12.175c0,1.54,1.248,2.788,2.788,2.788c1.539,0,2.786-1.248,2.786-2.788
	v-12.175c0-3.534,1.172-6.899,3.326-9.644v14.59c0,1.539,1.248,2.787,2.788,2.787s2.789-1.248,2.789-2.787v-46.306
	c0-0.011,0.001-0.018,0.001-0.027c0-0.009-0.001-0.015-0.001-0.023V86.935c0-1.594,1.296-2.89,2.889-2.89
	c0.388,0,0.757,0.075,1.094,0.212c0.195,0.118,0.394,0.227,0.596,0.33c0.708,0.507,1.174,1.325,1.199,2.27l1.345,49.998
	c0.042,1.538,1.326,2.762,2.861,2.712c1.54-0.042,2.754-1.323,2.712-2.862l-0.003-0.1c0.002-0.025,0.005-0.049,0.005-0.074v-12.572
	c0-1.966,1.597-3.562,3.562-3.562c1.963,0,3.561,1.596,3.561,3.562v21.783c0,1.54,1.248,2.788,2.787,2.788
	c1.538,0,2.789-1.248,2.789-2.788v-12.572c0-1.964,1.596-3.562,3.561-3.562c1.963,0,3.561,1.598,3.561,3.562v23.528
	c0,1.539,1.249,2.787,2.79,2.787c1.538,0,2.786-1.248,2.786-2.787v-12.575c0-1.962,1.599-3.559,3.561-3.559
	c1.964,0,3.563,1.597,3.563,3.559v34.272c0,2.735-0.922,5.434-2.594,7.598c-2.422,3.132-3.755,7.042-3.755,11.002v6.219
	c0,1.539,1.246,2.787,2.786,2.787c1.539,0,2.787-1.247,2.787-2.787v-6.219c0-2.732,0.923-5.432,2.593-7.595
	c2.424-3.136,3.757-7.043,3.757-11.005v-34.272c0-5.036-4.099-9.136-9.137-9.136c-1.264,0-2.466,0.259-3.561,0.724v-2.541
	c0-5.038-4.099-9.137-9.137-9.137c-1.264,0-2.467,0.257-3.561,0.722v-0.796c0-2.297-0.853-4.396-2.257-6.003l10.729-10.731
	c0.354-0.351,0.816-0.544,1.305-0.544h34.029c5.679,0,10.302-4.621,10.302-10.304V29.302C174.801,23.621,170.178,19,164.497,19z"/>
</svg>
