<?xml version="1.0" encoding="utf-8"?>
<!-- Generator: Adobe Illustrator 16.0.0, SVG Export Plug-In . SVG Version: 6.00 Build 0)  -->
<!DOCTYPE svg PUBLIC "-//W3C//DTD SVG 1.1//EN" "http://www.w3.org/Graphics/SVG/1.1/DTD/svg11.dtd">
<svg version="1.1" id="Capa_1" xmlns="http://www.w3.org/2000/svg" xmlns:xlink="http://www.w3.org/1999/xlink" x="0px" y="0px"
	 width="225px" height="225px" viewBox="0 0 225 225" enable-background="new 0 0 225 225" xml:space="preserve">
<g>
	<path d="M106.267,90.683c0-15.49-12.559-28.049-28.049-28.049c-15.492,0-28.051,12.559-28.051,28.049
		c0,15.492,12.559,28.049,28.051,28.049C93.7,118.715,106.25,106.167,106.267,90.683z M56.4,90.683
		c0-12.049,9.767-21.816,21.817-21.816c12.049,0,21.815,9.768,21.815,21.816c0,12.048-9.765,21.817-21.814,21.817
		C66.174,112.484,56.416,102.726,56.4,90.683z"/>
	<path d="M78.218,75.1c-8.604,0.01-15.573,6.981-15.584,15.583h6.234c0-5.163,4.186-9.351,9.35-9.351V75.1z"/>
	<path d="M75.101,149.9h6.233v6.23h-6.233V149.9z"/>
	<path d="M75.101,162.366h6.233v18.698h-6.233V162.366z"/>
	<path d="M68.868,37.7H149.9v6.233H68.868V37.7z"/>
	<path d="M106.267,50.167h43.635V56.4h-43.635V50.167z"/>
	<path d="M118.734,62.633H149.9v6.233h-31.166V62.633z"/>
	<path d="M106.267,124.968h31.168v6.231h-31.168V124.968z"/>
	<path d="M100.033,137.434h18.701v6.233h-18.701V137.434z"/>
	<path d="M100.033,149.9h18.701v6.23h-18.701V149.9z"/>
	<path d="M100.033,162.366h18.701v6.233h-18.701V162.366z"/>
	<path d="M100.033,174.833h18.701v6.231h-18.701V174.833z"/>
	<path d="M100.033,187.301h18.701v6.231h-18.701V187.301z"/>
	<path d="M184.184,137.434h-2.273c4.566-4.012,7.516-9.552,8.288-15.584h0.221c5.158-0.014,9.333-4.19,9.351-9.35
		c-0.004-2.958-1.416-5.736-3.803-7.479c0.43-0.529,0.672-1.188,0.686-1.871v-3.117c-0.008-16.001-12.129-29.4-28.051-31.009V28.351
		c-0.017-5.158-4.19-9.334-9.35-9.351H53.283c-0.825,0.006-1.618,0.331-2.213,0.904L19.903,51.071
		c-0.574,0.594-0.896,1.387-0.903,2.213V196.65c0.016,5.156,4.192,9.334,9.35,9.35h174.532c1.722,0,3.118-1.396,3.118-3.118V159.25
		C205.986,147.206,196.227,137.445,184.184,137.434z M184.184,118.732c0,10.328-8.371,18.699-18.699,18.699
		c-10.326,0-18.699-8.371-18.699-18.699v-13.558l24.467-10.878l12.932,10.348V118.732L184.184,118.732z M177.95,143.667v10.969
		l-3.117-1.247v-9.722H177.95z M166.637,150.119c-0.742-0.281-1.563-0.281-2.308,0l-1.964,0.777v-7.229h6.234v7.229L166.637,150.119
		z M168.602,157.629v25.275l-3.117,3.119l-3.118-3.119v-25.275l3.118-1.247L168.602,157.629z M156.134,143.667v9.722l-3.118,1.247
		v-10.969H156.134z M193.532,112.5c0,1.723-1.396,3.117-3.114,3.117v-6.234C192.137,109.383,193.532,110.779,193.532,112.5z
		 M190.418,100.032h-2.025l-14.742-11.78c-0.907-0.731-2.151-0.889-3.213-0.404l-27.424,12.185h-2.465
		c0-13.77,11.166-24.933,24.936-24.933C179.253,75.1,190.418,86.263,190.418,100.032z M50.167,29.628V47.05
		c0,1.722-1.396,3.118-3.116,3.118H29.629L50.167,29.628z M124.967,159.25v40.518H28.35c-1.72,0-3.115-1.396-3.115-3.117V56.4
		h21.816c5.156-0.016,9.333-4.193,9.35-9.351V25.233h102.851c1.723,0,3.114,1.396,3.114,3.118v40.672
		c-5.618,0.574-10.976,2.675-15.49,6.077h-21.908v6.232h15.646c-1.475,1.922-2.711,4.016-3.676,6.234h-11.971V93.8h9.975
		c-0.414,2.051-0.621,4.141-0.625,6.231h-9.35v6.235h8.665c-1.56,1.701-2.426,3.925-2.433,6.232h-12.465v6.232h14.896
		c1.76,1.976,4.273,3.107,6.917,3.117h0.22c0.773,6.031,3.719,11.571,8.289,15.582h-2.272
		C134.74,137.445,124.98,147.206,124.967,159.25z M140.549,109.383v6.234c-1.719,0-3.113-1.396-3.113-3.117
		C137.436,110.779,138.83,109.383,140.549,109.383z M199.768,199.768h-6.234v-34.283h-6.231v34.283h-43.635v-34.283h-6.231v34.283
		h-6.234V159.25c0-8.605,6.979-15.583,15.585-15.583v15.583c-0.004,1.721,1.394,3.117,3.114,3.119c0.393,0,0.785-0.074,1.154-0.221
		l5.08-2.025v24.061c0.008,0.826,0.328,1.619,0.904,2.213l6.232,6.233c1.229,1.204,3.194,1.204,4.426,0l6.23-6.233
		c0.576-0.594,0.898-1.387,0.905-2.213v-24.061l5.08,2.025c0.364,0.148,0.759,0.225,1.155,0.218c1.722,0,3.113-1.396,3.113-3.116
		v-15.583c8.607,0,15.586,6.978,15.586,15.583V199.768L199.768,199.768z"/>
	<path d="M90.684,137.434h-3.118v-7.365c21.775-5.164,35.239-27,30.075-48.772c-5.165-21.772-27-35.236-48.771-30.072
		c-21.774,5.163-35.238,27-30.074,48.772c3.535,14.904,15.17,26.538,30.074,30.072v7.365H65.75c-1.722,0-3.116,1.395-3.116,3.115
		v37.402c0,8.604,6.977,15.581,15.584,15.581c8.605,0,15.582-6.978,15.582-15.581v-37.402
		C93.8,138.827,92.405,137.434,90.684,137.434z M43.934,90.683c0-18.934,15.35-34.282,34.284-34.282
		c18.934,0,34.282,15.349,34.282,34.282c0,18.935-15.349,34.285-34.282,34.285C59.291,124.943,43.955,109.608,43.934,90.683z
		 M75.101,131.04c1.03,0.081,2.063,0.159,3.117,0.159c1.053,0,2.084-0.078,3.116-0.159v6.394h-6.233V131.04z M87.565,177.951
		c0,5.16-4.185,9.35-9.348,9.35c-5.164,0-9.35-4.188-9.35-9.35v-34.284h18.697L87.565,177.951L87.565,177.951z"/>
	<path d="M37.699,137.434H56.4v6.233H37.699V137.434z"/>
	<path d="M37.699,149.9H56.4v6.23H37.699V149.9z"/>
	<path d="M37.699,162.366H56.4v6.233H37.699V162.366z"/>
	<path d="M37.699,174.833H56.4v6.231H37.699V174.833z"/>
	<path d="M37.699,187.301H56.4v6.231H37.699V187.301z"/>
</g>
</svg>
