<?xml version="1.0" encoding="utf-8"?>
<!-- Generator: Adobe Illustrator 16.0.0, SVG Export Plug-In . SVG Version: 6.00 Build 0)  -->
<!DOCTYPE svg PUBLIC "-//W3C//DTD SVG 1.1//EN" "http://www.w3.org/Graphics/SVG/1.1/DTD/svg11.dtd">
<svg version="1.1" id="Capa_1" xmlns="http://www.w3.org/2000/svg" xmlns:xlink="http://www.w3.org/1999/xlink" x="0px" y="0px"
	 width="500px" height="500px" viewBox="0 0 500 500" enable-background="new 0 0 500 500" xml:space="preserve">
<g>
	<path d="M489.507,123.935c-1.647-6.145-5.683-11.384-11.198-14.56c-5.52-3.187-12.082-4.054-18.237-2.401
		c-6.146,1.656-11.386,5.682-14.566,11.198l-3.995,6.963c-3.803-2.184-8.656-0.9-10.882,2.883l-20.318,34.635l-6.962-4
		c-1.844-1.065-4.039-1.356-6.094-0.8c-2.059,0.559-3.811,1.91-4.867,3.761c-2.168,3.824-0.845,8.687,2.962,10.882l6.961,4
		l-67.999,117.838l-16.806,44.883l-7.999,14.956c-4.684,8.148-4.18,18.276,1.283,25.926l-18.001,22.075l-5.038-12.639
		c-2.273-5.634-7.535-9.489-13.589-9.962c-6.055-0.478-11.854,2.515-14.974,7.719l-2.883,4.88l-2.717-31.997
		c-0.624-7.57-6.488-13.66-14.027-14.571c-7.542-0.911-14.682,3.61-17.092,10.813l-19.681,59.041
		c-1.376,4.175,0.874,8.674,5.04,10.08c0.78,0.363,1.621,0.582,2.479,0.64c3.437,0.009,6.501-2.182,7.601-5.441l19.598-59.036
		l2.802,32.479c0.578,6.926,5.56,12.687,12.332,14.255c6.775,1.573,13.784-1.41,17.351-7.377l2.961-4.885l4.96,12.564
		c2.103,5.292,6.869,9.072,12.503,9.909c5.634,0.842,11.294-1.38,14.855-5.831l18.641-23.595c2.059,0.534,4.188,0.806,6.316,0.797
		c8.578,0.07,16.538-4.45,20.88-11.837l7.999-13.366l30.482-37.04l68.718-119.28l6.966,4c1.854,1.063,3.207,2.817,3.759,4.883
		c0.552,2.048,0.263,4.238-0.797,6.078L436.23,278.9c-1.204,1.814-1.616,4.048-1.135,6.187c0.486,2.129,1.818,3.964,3.693,5.086
		c1.845,1.073,4.039,1.362,6.094,0.806c2.06-0.557,3.812-1.91,4.867-3.763l32.002-55.44c3.189-5.518,4.053-12.083,2.396-18.24
		c-1.656-6.148-5.682-11.386-11.201-14.562l-6.957-4l19.998-34.642c2.187-3.801,0.898-8.65-2.878-10.878l4-6.961
		C490.387,136.886,491.254,130.192,489.507,123.935z M459.349,126.173c1.061-1.851,2.813-3.209,4.88-3.759
		c2.06-0.506,4.228-0.221,6.081,0.802c1.857,1.058,3.207,2.815,3.759,4.878c0.508,2.055,0.228,4.226-0.797,6.079l-4.005,6.961
		l-13.922-8L459.349,126.173z M350.309,349.538l-4.004-2.322l-11.837-6.882l11.364-30.399l25.198,14.563L350.309,349.538z
		 M326.311,372.651c-3.382-2.353-4.42-6.878-2.4-10.479l3.999-6.957l13.919,8l-4,6.878c-1.122,1.949-3.006,3.329-5.196,3.82
		C330.441,374.395,328.15,373.943,326.311,372.651z M380.151,311.376l-27.683-15.999l64-110.882l27.678,15.999L380.151,311.376z
		 M452.146,186.653l-27.679-15.999l15.999-27.681l27.679,16.001L452.146,186.653z"/>
	<path d="M136.545,368.656l-28.316,28.238l-16.96-16.958c-3.121-3.098-8.162-3.098-11.283,0c-1.516,1.503-2.366,3.544-2.366,5.678
		s0.85,4.184,2.366,5.682l16.962,16.958c2.999,2.984,7.051,4.648,11.281,4.645c4.25,0.021,8.339-1.647,11.36-4.645l28.239-28.317
		c2.718-3.176,2.535-7.907-0.418-10.86C144.452,366.119,139.721,365.936,136.545,368.656z"/>
	<path d="M42.306,390.175c0,37.557,30.447,67.999,68.002,67.999c37.555,0,68-30.442,68-67.999c0-4.421-3.582-8-8-8
		s-8.001,3.579-8.001,8c0,28.721-23.28,52.001-51.999,52.001s-52-23.28-52-52.001s23.282-52.001,52-52.001
		c11.257-0.03,22.213,3.618,31.199,10.4c3.535,2.654,8.551,1.936,11.2-1.6c2.652-3.535,1.938-8.547-1.597-11.201
		c-20.607-15.451-48.176-17.936-71.211-6.423C56.857,340.872,42.306,364.424,42.306,390.175z"/>
	<path d="M298.309,74.172c4.415,0,7.999-3.575,7.999-7.999c0-4.418-3.584-8.002-7.999-8.002H90.307c-4.418,0-8,3.583-8,8.002v32
		c0,4.422,3.581,7.999,8,7.999h208.001c4.415,0,7.999-3.577,7.999-7.999c0-4.418-3.584-8-7.999-8H98.307V74.172H298.309z"/>
	<path d="M114.308,122.173c-4.418,0-8.002,3.581-8.002,8c0,4.422,3.584,8,8.002,8H274.31c4.416,0,8-3.577,8-8c0-4.418-3.584-8-8-8
		H114.308z"/>
	<path d="M322.307,178.172H146.308c-4.418,0-8,3.583-8,8.001c0,4.424,3.582,8,8,8h175.999c4.42,0,7.999-3.575,7.999-8
		C330.306,181.755,326.727,178.172,322.307,178.172z"/>
	<path d="M242.308,234.172c0-4.416-3.582-7.999-8-7.999h-160c-4.42,0-8.001,3.583-8.001,7.999c0,4.423,3.581,8.002,8.001,8.002h160
		C238.726,242.174,242.308,238.595,242.308,234.172z"/>
	<path d="M322.307,226.173h-55.996c-4.421,0-8,3.583-8,7.999c0,4.423,3.579,8.002,8,8.002h55.996c4.42,0,7.999-3.579,7.999-8.002
		C330.306,229.756,326.727,226.173,322.307,226.173z"/>
	<path d="M154.307,282.178c4.418,0,8-3.584,8-8c0-4.424-3.582-7.999-8-7.999H74.308c-4.42,0-8.001,3.575-8.001,7.999
		c0,4.416,3.581,8,8.001,8H154.307z"/>
	<path d="M186.307,282.178h56c4.418,0,8-3.584,8-8c0-4.424-3.582-7.999-8-7.999h-56c-4.418,0-8,3.575-8,7.999
		C178.308,278.594,181.889,282.178,186.307,282.178z"/>
	<path d="M370.308,378.18c-4.42,0-7.999,3.575-7.999,8v79.994c0,4.425-3.58,7.999-8,7.999H34.307c-4.418,0-8-3.574-8-7.999V34.175
		c0-4.42,3.581-8,8-8h320.002c4.42,0,8,3.579,8,8v150.239c0,4.42,3.579,8,7.999,8s8.004-3.58,8.004-8V34.175
		c0-13.256-10.751-24.003-24.003-24.003H34.307c-13.254,0-24.001,10.747-24.001,24.003v431.999
		c0,13.257,10.747,23.998,24.001,23.998h320.002c13.252,0,24.003-10.741,24.003-23.998V386.18
		C378.312,381.755,374.728,378.18,370.308,378.18z"/>
</g>
</svg>
