<?xml version="1.0" encoding="utf-8"?>
<!-- Generator: Adobe Illustrator 16.0.0, SVG Export Plug-In . SVG Version: 6.00 Build 0)  -->
<!DOCTYPE svg PUBLIC "-//W3C//DTD SVG 1.1//EN" "http://www.w3.org/Graphics/SVG/1.1/DTD/svg11.dtd">
<svg version="1.1" id="Capa_1" xmlns="http://www.w3.org/2000/svg" xmlns:xlink="http://www.w3.org/1999/xlink" x="0px" y="0px"
	 width="225px" height="225px" viewBox="0 0 225 225" enable-background="new 0 0 225 225" xml:space="preserve">
<g>
	<g>
		<g>
			<g>
				<path d="M201.62,141.384V101.66c0-18.189-14.802-32.988-32.988-32.988h-0.616V50.775h21c1.517,0,2.74-1.224,2.74-2.738V34.159
					c0-1.517-1.224-2.741-2.74-2.741h-23.738c-1.514,0-2.737,1.224-2.737,2.741v34.513h-54.604c-11.42,0-21.948,5.041-29.096,13.879
					H49.069c-0.025,0-0.048,0.005-0.076,0.005c-0.005,0-0.014,0-0.025,0.003c-2.844,0.056-5.133,2.375-5.133,5.228v43.585
					c0,2.889,2.348,5.233,5.233,5.233h21.429v4.837c-2.286,0.419-4.018,2.418-4.018,4.823v5.518c0,2.708,2.203,4.91,4.913,4.91
					h52.432v9.059c0,2.863,2.322,5.186,5.186,5.186h1.389v17.166h-0.915c-1.514,0-2.74,1.224-2.74,2.74
					c0,1.518,1.227,2.738,2.74,2.738h27.027c1.515,0,2.738-1.221,2.738-2.738c0-1.517-1.224-2.74-2.738-2.74h-1.645v-17.166h1.389
					c2.863,0,5.186-2.322,5.186-5.186v-9.059h39.648c2.708,0,4.91-2.202,4.91-4.91v-5.518
					C206,143.737,204.076,141.646,201.62,141.384z M168.016,36.896h18.262v8.4h-18.262V36.896z M110.958,88.029l-20.754,18.825
					c-0.12,0.089-0.243,0.201-0.349,0.315l-6.039,5.478l-5.751-5.149c-0.265-0.385-0.611-0.688-1.004-0.895l-20.76-18.574H110.958z
					 M118.709,88.397v34.594l-22.346-14.331L118.709,88.397z M49.314,89.13l21.892,19.589l-21.892,14.038V89.13z M49.314,131.127
					v-1.865l26.132-16.751l6.555,5.869c0.519,0.46,1.177,0.694,1.829,0.694c0.658,0,1.319-0.237,1.837-0.708l6.493-5.892
					l26.548,17.024v1.628h-17.531c-1.514,0-2.741,1.227-2.741,2.74c0,1.515,1.227,2.738,2.741,2.738h17.776
					c2.886,0,5.233-2.345,5.233-5.233V87.784c0-2.886-2.348-5.233-5.233-5.233H86.323c5.846-5.389,13.466-8.397,21.613-8.397
					c17.618,0,31.957,14.333,31.957,31.957v35.244H75.977v-4.748h14.244c1.517,0,2.741-1.224,2.741-2.738
					c0-1.514-1.224-2.74-2.741-2.74H49.314z M149.389,188.104h-13.514v-17.166h13.514V188.104z M155.963,165.459h-26.662v-8.766
					h26.662V165.459z M200.521,151.218H71.959v-4.386h95.326c1.517,0,2.74-1.221,2.74-2.738c0-1.517-1.224-2.74-2.74-2.74h-21.914
					V106.11c0-13.514-7.199-25.377-17.958-31.957h35.127v13.695c0,1.517,1.224,2.738,2.737,2.738c1.518,0,2.738-1.221,2.738-2.738
					V74.153h0.616c15.17,0,27.507,12.334,27.507,27.507v39.693h-17.896c-1.517,0-2.74,1.224-2.74,2.74
					c0,1.518,1.224,2.738,2.74,2.738h20.637h1.643V151.218z"/>
			</g>
		</g>
		<g>
			<g>
				<path d="M29.773,107.387h-8.035c-1.514,0-2.738,1.224-2.738,2.741s1.224,2.738,2.738,2.738h8.035
					c1.517,0,2.741-1.221,2.741-2.738S31.29,107.387,29.773,107.387z"/>
			</g>
		</g>
		<g>
			<g>
				<path d="M37.811,124.918h-8.038c-1.514,0-2.738,1.224-2.738,2.74c0,1.515,1.224,2.738,2.738,2.738h8.038
					c1.514,0,2.738-1.224,2.738-2.738C40.549,126.142,39.325,124.918,37.811,124.918z"/>
			</g>
		</g>
		<g>
			<g>
				<path d="M37.811,89.855h-8.038c-1.514,0-2.738,1.224-2.738,2.741c0,1.514,1.224,2.738,2.738,2.738h8.038
					c1.514,0,2.738-1.224,2.738-2.738C40.549,91.08,39.325,89.855,37.811,89.855z"/>
			</g>
		</g>
	</g>
</g>
</svg>
