<?xml version="1.0" encoding="utf-8"?>
<!-- Generator: Adobe Illustrator 16.0.0, SVG Export Plug-In . SVG Version: 6.00 Build 0)  -->
<!DOCTYPE svg PUBLIC "-//W3C//DTD SVG 1.1//EN" "http://www.w3.org/Graphics/SVG/1.1/DTD/svg11.dtd">
<svg version="1.1" id="Capa_1" xmlns="http://www.w3.org/2000/svg" xmlns:xlink="http://www.w3.org/1999/xlink" x="0px" y="0px"
	 width="225px" height="225px" viewBox="0 0 225 225" enable-background="new 0 0 225 225" xml:space="preserve">
<g>
	<g>
		<path d="M146.366,114.431H78.634c-1.779,0-3.22,1.442-3.22,3.222c0,1.777,1.441,3.219,3.22,3.219h67.732
			c1.778,0,3.22-1.441,3.22-3.219C149.586,115.873,148.145,114.431,146.366,114.431z"/>
		<path d="M146.366,132.405H78.634c-1.779,0-3.22,1.441-3.22,3.22c0,1.779,1.441,3.221,3.22,3.221h67.732
			c1.778,0,3.22-1.441,3.22-3.221C149.586,133.847,148.145,132.405,146.366,132.405z"/>
		<path d="M146.366,150.38H78.634c-1.779,0-3.22,1.441-3.22,3.219c0,1.779,1.441,3.221,3.22,3.221h67.732
			c1.778,0,3.22-1.441,3.22-3.221C149.586,151.821,148.145,150.38,146.366,150.38z"/>
		<path d="M101.21,168.352H78.634c-1.779,0-3.22,1.443-3.22,3.222c0,1.777,1.441,3.219,3.22,3.219h22.576
			c1.78,0,3.222-1.441,3.222-3.219C104.432,169.795,102.991,168.352,101.21,168.352z"/>
		<path d="M152.428,67.394H95.896c-4.476,0-8.683,1.743-11.849,4.908L62.163,94.187c-3.165,3.165-4.908,7.373-4.908,11.848v84.647
			c0,8.446,6.871,15.317,15.317,15.317h79.855c8.447,0,15.318-6.871,15.318-15.317V82.712
			C167.745,74.267,160.874,67.394,152.428,67.394z M87.07,78.388v16.803c0,1.112-0.906,2.017-2.019,2.017H68.251L87.07,78.388z
			 M161.305,190.683c0,4.896-3.981,8.877-8.877,8.877H72.572c-4.895,0-8.876-3.981-8.876-8.877v-84.647
			c0-0.813,0.096-1.612,0.277-2.385h21.079c4.664,0,8.458-3.795,8.458-8.458V74.113c0.773-0.183,1.572-0.279,2.387-0.279h56.53
			c4.895,0,8.878,3.982,8.878,8.878V190.683L161.305,190.683z"/>
		<path d="M204.592,98.813c-0.858-0.508-1.367-1.466-1.298-2.441c0.77-10.771-4.324-21.044-13.25-26.975
			c-0.629-0.418-1.043-1.108-1.138-1.895C182.925,17.68,118.48,1.232,89.265,42.026c-24.294-4.865-48.198,11.042-52.682,35.631
			c-19.939,5.027-34.11,23.151-33.998,43.935c0.126,23.643,18.909,43.29,42.76,44.729c1.768,0.105,3.3-1.246,3.408-3.021
			c0.108-1.776-1.244-3.302-3.02-3.409c-20.476-1.234-36.6-18.072-36.708-38.335c-0.1-18.463,12.951-34.481,31.028-38.082
			c1.354-0.269,2.384-1.37,2.565-2.737c2.997-22.782,25.263-37.564,47.27-31.966c1.332,0.339,2.731-0.205,3.484-1.352
			c24.957-37.974,83.753-24.003,89.137,20.852c0.32,2.662,1.768,5.028,3.971,6.492c6.998,4.648,10.993,12.703,10.39,21.152
			c-0.241,3.385,1.5,6.698,4.437,8.439c9.095,5.394,14.577,14.911,14.668,25.46c0.141,16.592-13.777,30.149-30.37,30.149h-6.026
			c-1.778,0-3.22,1.441-3.22,3.221c0,1.778,1.441,3.22,3.22,3.22h6.026c20.287,0,36.98-16.572,36.809-36.644
			C222.306,116.935,215.643,105.368,204.592,98.813L204.592,98.813z"/>
	</g>
</g>
</svg>
