<?xml version="1.0" encoding="utf-8"?>
<!-- Generator: Adobe Illustrator 16.0.0, SVG Export Plug-In . SVG Version: 6.00 Build 0)  -->
<!DOCTYPE svg PUBLIC "-//W3C//DTD SVG 1.1//EN" "http://www.w3.org/Graphics/SVG/1.1/DTD/svg11.dtd">
<svg version="1.1" id="Capa_1" xmlns="http://www.w3.org/2000/svg" xmlns:xlink="http://www.w3.org/1999/xlink" x="0px" y="0px"
	 width="225px" height="225px" viewBox="0 0 225 225" enable-background="new 0 0 225 225" xml:space="preserve">
<g>
	<g>
		<g>
			<path d="M182.341,43.782h-15.77v-15.77c0-4.958-4.057-9.013-9.012-9.013H42.655c-4.956,0-9.011,4.055-9.011,9.013v144.192
				c0,4.957,4.055,9.014,9.013,9.014h15.77v15.771c0,4.957,4.054,9.011,9.013,9.011h76.601c4.954,0,11.964-2.78,15.572-6.173
				l25.176-23.699c3.611-3.395,6.561-10.231,6.561-15.188l0.007-108.144C191.355,47.839,187.298,43.782,182.341,43.782z
				 M58.425,52.797v121.662h-15.77c-1.221,0-2.253-1.032-2.253-2.253V28.013c0-1.22,1.032-2.253,2.253-2.253H157.56
				c1.221,0,2.253,1.033,2.253,2.253v15.773H67.438C62.479,43.786,58.425,47.839,58.425,52.797z M180.154,171.207l-25.177,23.695
				c-0.515,0.486-1.186,0.96-1.93,1.412v-20.73c0-1.549,0.628-2.939,1.657-3.976c1.038-1.03,2.432-1.656,3.979-1.656h22.54
				C180.876,170.429,180.515,170.865,180.154,171.207z M184.591,160.94c0,0.669-0.123,1.443-0.308,2.253h-25.6
				c-6.84,0.013-12.378,5.554-12.391,12.391v23.385c-0.807,0.163-1.581,0.272-2.256,0.272h-76.6l0,0
				c-1.224,0-2.252-1.032-2.252-2.252V52.797c0-1.221,1.028-2.253,2.252-2.253h114.903c1.221,0,2.253,1.032,2.253,2.253
				L184.591,160.94z"/>
		</g>
	</g>
	<g>
		<g>
			<path d="M157.56,75.326H92.224c-1.867,0-3.38,1.511-3.38,3.378c0,1.868,1.513,3.381,3.38,3.381h65.336
				c1.867,0,3.38-1.513,3.38-3.381C160.939,76.837,159.427,75.326,157.56,75.326z"/>
		</g>
	</g>
	<g>
		<g>
			<path d="M157.56,120.387H92.224c-1.867,0-3.38,1.513-3.38,3.378c0,1.868,1.513,3.381,3.38,3.381h65.336
				c1.867,0,3.38-1.513,3.38-3.381C160.939,121.897,159.427,120.387,157.56,120.387z"/>
		</g>
	</g>
	<g>
		<g>
			<path d="M128.273,142.917h-36.05c-1.867,0-3.378,1.511-3.378,3.379c0,1.867,1.511,3.379,3.378,3.379h36.05
				c1.864,0,3.376-1.512,3.376-3.379C131.649,144.428,130.138,142.917,128.273,142.917z"/>
		</g>
	</g>
	<g>
		<g>
			<path d="M157.56,97.856H92.224c-1.867,0-3.38,1.512-3.38,3.379s1.513,3.381,3.38,3.381h65.336c1.867,0,3.38-1.514,3.38-3.381
				S159.427,97.856,157.56,97.856z"/>
		</g>
	</g>
</g>
</svg>
