<?xml version="1.0" encoding="utf-8"?>
<!-- Generator: Adobe Illustrator 16.0.0, SVG Export Plug-In . SVG Version: 6.00 Build 0)  -->
<!DOCTYPE svg PUBLIC "-//W3C//DTD SVG 1.1//EN" "http://www.w3.org/Graphics/SVG/1.1/DTD/svg11.dtd">
<svg version="1.1" id="Capa_1" xmlns="http://www.w3.org/2000/svg" xmlns:xlink="http://www.w3.org/1999/xlink" x="0px" y="0px"
	 width="500px" height="500px" viewBox="0 0 500 500" enable-background="new 0 0 500 500" xml:space="preserve">
<g>
	<g>
		<path d="M451.191,322.393h-8V66.377c0-30.882-25.132-56.003-56.001-56.003c-30.879,0-56.005,25.121-56.005,56.003v368.017
			c0,22.059-17.942,40-40.006,40h-88.001c-22.057,0-40.003-17.941-40.003-40v-8h52.005c15.44,0,28-12.561,28-28.001
			c0-7.842-3.256-14.914-8.464-20c5.208-5.085,8.464-12.158,8.464-20c0-11.026-6.466-20.5-15.756-25.061
			c1.249-29.834,13.323-58.93,34.587-82.426c23.97-26.497,37.167-60.78,37.167-96.526c0-40.928-17.498-80.067-48.041-107.372
			c-30.933-27.682-70.865-40.385-112.524-35.705C73.366,18.598,20.234,71.162,12.282,136.293
			c-5.192,42.49,8.37,84.714,37.185,115.835c20.586,22.232,32.281,50.91,33.473,81.198c-9.294,4.561-15.766,14.033-15.766,25.065
			c0,7.842,3.253,14.915,8.463,20c-5.21,5.086-8.463,12.158-8.463,20c0,15.44,12.558,28.001,28,28.001h52v8
			c0,30.885,25.131,56.006,56.003,56.006h88.001c30.879,0,56.011-25.121,56.011-56.006V66.377c0-22.057,17.937-40.003,40-40.003
			c22.054,0,40.001,17.946,40.001,40.003v256.016h-8c-22.06,0-40.001,17.941-40.001,40v64.001c0,4.418,3.577,8,8,8h16v56.006h16.001
			v-56.006h32v56.006h16v-56.006h16c4.423,0,8-3.582,8-8v-64.001C491.191,340.334,473.245,322.393,451.191,322.393z M61.213,241.258
			c-25.618-27.667-37.667-65.219-33.061-103.03C35.225,80.377,82.431,33.688,140.393,27.207
			c37.081-4.112,72.577,7.136,100.083,31.73c27.142,24.272,42.704,59.058,42.704,95.443c0,31.771-11.73,62.238-33.032,85.79
			c-23.241,25.682-36.831,57.458-38.737,90.223h-48.235v-56.006v-24.026c0.762,0.018,1.457,0.033,2.306,0.033
			c16.665,0,48.859-2.983,69.802-23.921c28.655-28.665,23.672-78.444,23.447-80.546c-0.397-3.745-3.353-6.698-7.104-7.098
			c-2.071-0.224-51.873-5.208-80.545,23.45c-3.519,3.521-6.53,7.368-9.104,11.409c-2.186-16.522-8.01-36.724-22.698-51.412
			c-28.658-28.655-78.452-23.671-80.548-23.447c-3.746,0.397-6.706,3.351-7.104,7.096c-0.224,2.104-5.208,51.891,23.45,80.549
			c20.938,20.935,53.137,23.918,69.802,23.918c0.849,0,1.544-0.023,2.306-0.031v21.616c0,0.609-0.01,1.226,0,1.793v8.617v32v56.006
			h-48.22C97.134,297.148,83.893,265.755,61.213,241.258z M227.182,358.393c0,6.614-5.386,12-12,12H95.175c-6.619,0-12-5.386-12-12
			c0-6.619,5.381-12,12-12h120.006C221.795,346.393,227.182,351.773,227.182,358.393z M201.522,184.727l-37.978,37.978
			c1.088-14.872,5.21-35.465,18.849-49.114c17.72-17.705,47.491-19.361,60.778-19.177c0.234,13.282-1.417,42.968-19.19,60.754
			c-13.603,13.603-34.202,17.769-49.117,18.849l37.978-37.977L201.522,184.727z M135.486,194.009
			c-14.879-1.09-35.455-5.192-49.106-18.844c-17.712-17.712-19.391-47.473-19.175-60.77c13.279-0.191,42.961,1.409,60.763,19.192
			c13.577,13.577,17.712,34.187,18.815,49.076l-37.944-37.947l-11.315,11.314L135.486,194.009z M95.175,410.394
			c-6.619,0-12-5.381-12-12.001c0-6.619,5.381-12,12-12h120.006c6.614,0,12,5.381,12,12c0,6.62-5.386,12.001-12,12.001H95.175z
			 M475.191,386.393h-64v16.001h64v16H395.19v-56.001c0-13.233,10.763-24,24.001-24h32c13.229,0,24,10.767,24,24V386.393z"/>
	</g>
</g>
</svg>
