<?xml version="1.0" encoding="utf-8"?>
<!-- Generator: Adobe Illustrator 16.0.0, SVG Export Plug-In . SVG Version: 6.00 Build 0)  -->
<!DOCTYPE svg PUBLIC "-//W3C//DTD SVG 1.1//EN" "http://www.w3.org/Graphics/SVG/1.1/DTD/svg11.dtd">
<svg version="1.1" id="Capa_1" xmlns="http://www.w3.org/2000/svg" xmlns:xlink="http://www.w3.org/1999/xlink" x="0px" y="0px"
	 width="225px" height="225px" viewBox="0 0 225 225" enable-background="new 0 0 225 225" xml:space="preserve">
<g>
	<g>
		<g>
			<path d="M152.688,20.303H42.171c-11.86,0.015-21.475,9.628-21.488,21.49v110.26c0.014,11.861,9.628,21.475,21.488,21.49h33.77
				v-6.141h-33.77c-8.475-0.01-15.339-6.877-15.351-15.351V100.12h19.716c1.82-0.134,3.187-1.716,3.055-3.536
				c-0.027-0.351-0.109-0.695-0.243-1.02c-2.729-6.209,0.094-13.454,6.302-16.183s13.454,0.093,16.182,6.302
				c1.384,3.148,1.384,6.733,0,9.881c-0.759,1.586-0.085,3.486,1.5,4.245c0.412,0.196,0.858,0.302,1.312,0.311h19.714v18.418
				c-1.015-0.172-2.04-0.258-3.068-0.254c-10.173-0.004-18.422,8.239-18.428,18.411c-0.002,7.33,4.342,13.962,11.059,16.892
				l2.457-5.624c-6.22-2.704-9.069-9.938-6.362-16.158c1.951-4.486,6.379-7.386,11.274-7.381c1.69-0.001,3.364,0.354,4.91,1.037
				c1.557,0.678,3.366-0.031,4.043-1.585c0.168-0.387,0.254-0.805,0.254-1.228v-22.529h15.61c-0.174,1.014-0.262,2.041-0.26,3.07
				c0.018,8.747,6.17,16.282,14.737,18.05l1.228-6.015c-5.713-1.182-9.812-6.205-9.824-12.037c0-1.692,0.353-3.366,1.037-4.912
				c0.68-1.554-0.031-3.363-1.586-4.041c-0.385-0.169-0.806-0.256-1.229-0.256h-19.715V78.37c1.015,0.174,2.044,0.262,3.07,0.261
				c10.173,0,18.42-8.246,18.42-18.418c0-10.174-8.247-18.419-18.42-18.419c-1.026-0.001-2.055,0.086-3.07,0.261V26.442h52.189
				c8.474,0.01,15.34,6.877,15.35,15.35V93.98H148.32c-1.694,0.001-3.067,1.376-3.067,3.07c0,0.423,0.088,0.841,0.256,1.227
				c0.687,1.546,1.039,3.22,1.037,4.912h6.142c0-1.029-0.086-2.056-0.262-3.07h18.68c1.696,0,3.068-1.375,3.068-3.071V41.792
				C174.161,29.931,164.549,20.318,152.688,20.303z M103.567,47.932c6.783,0,12.281,5.498,12.281,12.28
				c0,6.781-5.498,12.279-12.281,12.279c-1.69,0.001-3.363-0.353-4.908-1.038c-1.556-0.677-3.367,0.033-4.044,1.586
				c-0.167,0.387-0.256,0.805-0.256,1.227v19.46h-15.59c0.158-0.931,0.235-1.872,0.243-2.815c0-0.056,0-0.104,0-0.16
				s0-0.065,0-0.095c0-10.173-8.248-18.419-18.419-18.419c-10.173,0-18.42,8.247-18.42,18.419c0,0.03,0,0.063,0,0.095
				s0,0.104,0,0.16c0.006,0.943,0.085,1.885,0.241,2.815H26.82V41.792c0.012-8.473,6.876-15.34,15.351-15.35h52.187v19.715
				c0,1.695,1.378,3.07,3.072,3.069c0.421-0.001,0.838-0.088,1.229-0.256C100.204,48.285,101.877,47.931,103.567,47.932z"/>
		</g>
	</g>
	<g>
		<g>
			<path d="M198.309,152.252L172.5,134.48l-9.912-26.483c-0.594-1.59-2.359-2.397-3.947-1.806c-0.058,0.021-0.113,0.044-0.17,0.069
				l-19.953,8.825c-1.496,0.661-2.211,2.378-1.629,3.905c0.332,0.859,0.646,1.511,0.971,2.186c0.328,0.676,0.632,1.309,1.005,2.307
				c2.383,6.367-0.826,13.463-7.181,15.881c-6.354,2.375-13.428-0.848-15.807-7.2c-0.593-1.593-0.854-3.292-0.756-4.99
				c0.089-1.692-1.213-3.139-2.906-3.228c-0.423-0.022-0.848,0.044-1.246,0.193l-21.327,8.033c-1.587,0.598-2.387,2.363-1.795,3.948
				l7.658,20.454c-1.017,0.186-2.013,0.461-2.979,0.822c-9.554,3.561-14.41,14.19-10.853,23.744
				c3.562,9.553,14.191,14.41,23.746,10.852c0.984-0.367,1.933-0.816,2.839-1.346l5.49,14.662c0.597,1.588,2.361,2.393,3.955,1.799
				c0-0.002,0.002-0.002,0.004-0.004l30.415-11.459c1.912,4.106,5.427,7.246,9.724,8.682l1.938-5.832
				c-2.528-0.854-4.632-2.65-5.868-5.018l9.255-3.482c3.041,8.551,11.14,14.258,20.215,14.246v-6.139
				c-8.454-0.054-15.297-6.896-15.35-15.351c0-0.813-0.321-1.597-0.897-2.171l-10.69-10.688c-1.583-1.601-1.765-4.117-0.421-5.923
				c0.781-1.057,1.988-1.714,3.3-1.799c1.313-0.11,2.606,0.372,3.526,1.315l21.434,21.435l4.339-4.341l-6.34-6.344
				c1.562-4.672,1.465-9.739-0.272-14.352l-5.755-15.363l18.552,12.773c2.459,1.727,3.924,4.541,3.927,7.545v39.653h6.14V164.84
				C204.869,159.825,202.418,155.127,198.309,152.252z M176.262,162.039c0.848,2.255,1.154,4.676,0.896,7.07l-9.964-9.961
				c-4.113-4.219-10.864-4.306-15.086-0.191c-4.219,4.113-4.301,10.867-0.188,15.085c0.063,0.065,0.125,0.128,0.188,0.19
				l9.711,9.709l-43.387,16.343l-5.849-15.636c-0.363-0.972-1.194-1.693-2.207-1.918c-0.219-0.049-0.442-0.074-0.668-0.074
				c-0.801,0-1.574,0.314-2.146,0.875c-4.932,4.656-12.704,4.437-17.362-0.494c-4.656-4.928-4.437-12.701,0.493-17.357
				c1.161-1.096,2.523-1.955,4.01-2.529c0.979-0.361,1.999-0.594,3.037-0.688c0.639-0.077,1.281-0.1,1.925-0.064
				c1.692,0.09,3.137-1.211,3.226-2.903c0.021-0.421-0.041-0.843-0.19-1.236l-8.02-21.409l14.62-5.504
				c1.919,9.989,11.571,16.533,21.563,14.614c1.021-0.196,2.022-0.478,2.997-0.843c9.519-3.612,14.328-14.236,10.767-23.773
				c-0.285-0.756-0.539-1.354-0.786-1.889l14.122-6.254L176.262,162.039z"/>
		</g>
	</g>
</g>
</svg>
