<?xml version="1.0" encoding="utf-8"?>
<!-- Generator: Adobe Illustrator 16.0.0, SVG Export Plug-In . SVG Version: 6.00 Build 0)  -->
<!DOCTYPE svg PUBLIC "-//W3C//DTD SVG 1.1//EN" "http://www.w3.org/Graphics/SVG/1.1/DTD/svg11.dtd">
<svg version="1.1" id="Capa_1" xmlns="http://www.w3.org/2000/svg" xmlns:xlink="http://www.w3.org/1999/xlink" x="0px" y="0px"
	 width="225px" height="225px" viewBox="0 0 225 225" enable-background="new 0 0 225 225" xml:space="preserve">
<g>
	<g>
		<g>
			<path fill="#D9D9D9" d="M202.941,186.424h-2.484v-48.49c0-1.621-1.314-2.936-2.938-2.936c-1.621,0-2.936,1.314-2.936,2.936
				v48.492h-62.292v-79.825h59.892c1.325,0,2.402,1.077,2.402,2.399V124.1c0,1.621,1.313,2.938,2.934,2.938
				c1.623,0,2.938-1.316,2.938-2.938V109c0-4.562-3.71-8.272-8.273-8.272h-59.892V47.366c0-4.273-3.324-7.881-7.577-8.242v-5.891
				c0-4.289-3.352-7.912-7.628-8.248l-76.049-5.96c-4.802-0.379-8.919,3.429-8.919,8.248v4.702
				c-4.354,0.373-7.576,4.015-7.576,8.242v146.206h-2.484c-5.397,0-9.789,4.392-9.789,9.789c0,5.396,4.392,9.787,9.789,9.787
				h180.883c5.399,0,9.789-4.391,9.789-9.787C212.73,190.815,208.341,186.424,202.941,186.424z M37.993,27.274
				c0-1.407,1.194-2.503,2.586-2.393l76.051,5.96c1.24,0.097,2.212,1.148,2.212,2.392v5.428l-80.849-6.337V27.274L37.993,27.274z
				 M30.416,40.218c0-1.418,1.213-2.505,2.589-2.393l91.2,7.147c1.242,0.098,2.213,1.148,2.213,2.393v139.058h-8.204v-42.041
				c0-2.672-2.175-4.847-4.848-4.847H86.085c-2.673,0-4.847,2.175-4.847,4.847v19.049c0,1.621,1.314,2.937,2.936,2.937
				c1.623,0,2.938-1.315,2.938-2.937v-18.023h25.229v41.016H87.111v-9.264c0-1.622-1.314-2.938-2.938-2.938
				c-1.621,0-2.936,1.315-2.936,2.938v9.264H30.416V40.218z M202.941,200.128H22.059c-2.161,0-3.915-1.757-3.915-3.915
				c0-2.159,1.754-3.916,3.915-3.916h180.883c2.159,0,3.915,1.757,3.915,3.916C206.856,198.371,205.101,200.128,202.941,200.128z"/>
			<path fill="#D9D9D9" d="M41.988,76.067h11.886c2.795,0,5.067-2.273,5.067-5.067v-9.145c0-2.794-2.272-5.067-5.067-5.067H41.988
				c-2.793,0-5.067,2.273-5.067,5.067V71C36.921,73.793,39.195,76.067,41.988,76.067z M42.795,62.66H53.07v7.534H42.795V62.66z"/>
			<path fill="#D9D9D9" d="M71.624,76.067h11.887c2.794,0,5.066-2.273,5.066-5.067v-9.145c0-2.794-2.272-5.067-5.066-5.067H71.624
				c-2.792,0-5.066,2.273-5.066,5.067V71C66.558,73.793,68.83,76.067,71.624,76.067z M72.429,62.66h10.277v7.534H72.429V62.66z"/>
			<path fill="#D9D9D9" d="M101.261,76.067h11.886c2.793,0,5.067-2.273,5.067-5.067v-9.145c0-2.794-2.274-5.067-5.067-5.067h-11.886
				c-2.795,0-5.067,2.273-5.067,5.067V71C96.193,73.793,98.466,76.067,101.261,76.067z M102.065,62.66h10.274v7.534h-10.274V62.66z"
				/>
			<path fill="#D9D9D9" d="M41.988,102.47h11.886c2.795,0,5.067-2.273,5.067-5.067v-9.145c0-2.795-2.272-5.067-5.067-5.067H41.988
				c-2.793,0-5.067,2.272-5.067,5.067v9.145C36.921,100.197,39.195,102.47,41.988,102.47z M42.795,89.063H53.07v7.533H42.795V89.063
				z"/>
			<path fill="#D9D9D9" d="M71.624,102.47h11.887c2.794,0,5.066-2.273,5.066-5.067v-9.145c0-2.795-2.272-5.067-5.066-5.067H71.624
				c-2.792,0-5.066,2.272-5.066,5.067v9.145C66.558,100.197,68.83,102.47,71.624,102.47z M72.429,89.063h10.277v7.533H72.429V89.063
				z"/>
			<path fill="#D9D9D9" d="M101.261,102.47h11.886c2.793,0,5.067-2.273,5.067-5.067v-9.145c0-2.795-2.274-5.067-5.067-5.067h-11.886
				c-2.795,0-5.067,2.272-5.067,5.067v9.145C96.193,100.197,98.466,102.47,101.261,102.47z M102.065,89.063h10.274v7.533h-10.274
				V89.063z"/>
			<path fill="#D9D9D9" d="M41.988,128.873h11.886c2.795,0,5.067-2.273,5.067-5.068v-9.144c0-2.794-2.272-5.067-5.067-5.067H41.988
				c-2.793,0-5.067,2.273-5.067,5.067v9.144C36.921,126.6,39.195,128.873,41.988,128.873z M42.795,115.467H53.07V123H42.795V115.467
				z"/>
			<path fill="#D9D9D9" d="M68.865,139.536H42.56c-3.108,0-5.639,2.529-5.639,5.638v8.004c0,3.109,2.53,5.638,5.639,5.638h26.306
				c3.108,0,5.638-2.528,5.638-5.638v-8.004C74.503,142.065,71.974,139.536,68.865,139.536z M68.63,152.942H42.795v-7.534H68.63
				V152.942z"/>
			<path fill="#D9D9D9" d="M71.624,128.873h11.887c2.794,0,5.066-2.273,5.066-5.068v-9.144c0-2.794-2.272-5.067-5.066-5.067H71.624
				c-2.792,0-5.066,2.273-5.066,5.067v9.144C66.558,126.6,68.83,128.873,71.624,128.873z M72.429,115.467h10.277V123H72.429V115.467
				z"/>
			<path fill="#D9D9D9" d="M101.261,128.873h11.886c2.793,0,5.067-2.273,5.067-5.068v-9.144c0-2.794-2.274-5.067-5.067-5.067
				h-11.886c-2.795,0-5.067,2.273-5.067,5.067v9.144C96.193,126.6,98.466,128.873,101.261,128.873z M102.065,115.467h10.274V123
				h-10.274V115.467z"/>
			<path fill="#D9D9D9" d="M161.274,126.32c0-2.979-2.424-5.402-5.402-5.402H143.88c-2.978,0-5.4,2.424-5.4,5.402v9.512
				c0,2.978,2.421,5.401,5.4,5.401h11.992c2.979,0,5.402-2.423,5.402-5.401V126.32z M155.401,135.36h-11.051v-8.569h11.051V135.36z"
				/>
			<path fill="#D9D9D9" d="M155.872,148.019H143.88c-2.978,0-5.4,2.423-5.4,5.401v9.512c0,2.979,2.421,5.401,5.4,5.401h11.992
				c2.979,0,5.402-2.423,5.402-5.401v-9.512C161.274,150.441,158.851,148.019,155.872,148.019z M155.401,162.461h-11.051v-8.57
				h11.051V162.461z"/>
			<path fill="#D9D9D9" d="M188.587,126.32c0-2.979-2.424-5.402-5.402-5.402h-11.992c-2.979,0-5.4,2.424-5.4,5.402v9.512
				c0,2.978,2.422,5.401,5.4,5.401h11.992c2.977,0,5.402-2.423,5.402-5.401V126.32z M182.714,135.36h-11.051v-8.569h11.051V135.36z"
				/>
			<path fill="#D9D9D9" d="M183.185,148.019h-11.992c-2.979,0-5.4,2.423-5.4,5.401v9.512c0,2.979,2.422,5.401,5.4,5.401h11.992
				c2.977,0,5.402-2.423,5.402-5.401v-9.512C188.587,150.441,186.163,148.019,183.185,148.019z M182.714,162.461h-11.051v-8.57
				h11.051V162.461z"/>
		</g>
	</g>
</g>
</svg>
