<?xml version="1.0" encoding="utf-8"?>
<!-- Generator: Adobe Illustrator 16.0.0, SVG Export Plug-In . SVG Version: 6.00 Build 0)  -->
<!DOCTYPE svg PUBLIC "-//W3C//DTD SVG 1.1//EN" "http://www.w3.org/Graphics/SVG/1.1/DTD/svg11.dtd">
<svg version="1.1" id="Capa_1" xmlns="http://www.w3.org/2000/svg" xmlns:xlink="http://www.w3.org/1999/xlink" x="0px" y="0px"
	 width="500px" height="500px" viewBox="0 0 500 500" enable-background="new 0 0 500 500" xml:space="preserve">
<g>
	<g>
		<g>
			<path d="M81.181,376.754c-1.743-1.742-4.163-2.746-6.628-2.746c-2.477,0-4.886,1.004-6.629,2.746s-2.746,4.162-2.746,6.634
				c0,2.461,1.003,4.881,2.746,6.624c1.743,1.742,4.152,2.751,6.629,2.751c2.466,0,4.886-1.009,6.628-2.751
				c1.743-1.743,2.747-4.163,2.747-6.624C83.928,380.916,82.924,378.496,81.181,376.754z"/>
		</g>
	</g>
	<g>
		<g>
			<path d="M374.456,213.535c-1.743-1.745-4.158-2.739-6.624-2.739s-4.876,0.994-6.629,2.739c-1.747,1.752-2.746,4.16-2.746,6.636
				c0,2.466,0.999,4.886,2.746,6.629c1.743,1.742,4.163,2.736,6.629,2.736s4.881-0.994,6.624-2.736
				c1.753-1.753,2.751-4.163,2.751-6.629S376.209,215.287,374.456,213.535z"/>
		</g>
	</g>
	<g>
		<g>
			<path d="M282.642,59.93c-87.875,0-159.367,71.495-159.367,159.37c0,87.875,71.492,159.37,159.367,159.37
				c87.881,0,159.37-71.495,159.37-159.37C442.012,131.424,370.522,59.93,282.642,59.93z M282.642,78.68
				c43.278,0,82.042,19.654,107.858,50.498l-10.313,10.313c-3.674-1.763-7.78-2.751-12.116-2.751
				c-15.504,0-28.12,12.618-28.12,28.125c0,3.63,0.698,7.098,1.957,10.287l-54.426,48.781c-3.012-1.101-6.257-1.702-9.641-1.702
				c-6.659,0-12.778,2.328-17.598,6.206l-44.488-29.256c0.132-1.108,0.211-2.234,0.211-3.378c0-15.507-12.618-28.125-28.125-28.125
				s-28.125,12.618-28.125,28.125c0,2.553,0.349,5.021,0.988,7.373l-18.638,12.898C143.788,140.017,206.185,78.68,282.642,78.68z
				 M377.446,164.863c0,5.172-4.203,9.375-9.375,9.375c-5.171,0-9.375-4.206-9.375-9.375s4.204-9.375,9.375-9.375
				C373.243,155.488,377.446,159.694,377.446,164.863z M178.465,313.65c-18.671-20.6-31.327-46.737-35.189-75.619l28.104-19.445
				c2.155,1.559,4.535,2.823,7.085,3.724V313.65z M187.84,205.176c-5.169,0-9.375-4.206-9.375-9.375s4.206-9.375,9.375-9.375
				s9.372,4.206,9.372,9.375C197.215,200.973,193.009,205.176,187.84,205.176z M268.462,359.206
				c-26.627-2.68-51.083-12.819-71.247-28.293v-108.6c3.809-1.351,7.235-3.5,10.096-6.247l43.049,28.311
				c-0.418,1.928-0.647,3.926-0.647,5.977c0,12.218,7.842,22.643,18.75,26.51V359.206z M277.837,259.729
				c-5.171,0-9.375-4.209-9.375-9.375c0-5.172,4.204-9.373,9.375-9.373c5.167,0,9.37,4.204,9.37,9.373
				C287.212,255.521,283.009,259.729,277.837,259.729z M377.207,323.285v-64.952c0-5.174-4.198-9.372-9.375-9.372
				s-9.375,4.198-9.375,9.372v79.352c-20.686,13.293-45.076,21.313-71.245,22.153v-82.974c10.909-3.867,18.75-14.287,18.75-26.51
				c0-5.218-1.432-10.104-3.918-14.294l52.153-46.748c4.097,2.336,8.83,3.676,13.874,3.676c15.505,0,28.125-12.615,28.125-28.122
				c0-4.336-0.988-8.445-2.746-12.119l8.224-8.229c13.67,21.675,21.588,47.318,21.588,74.781
				C423.262,260.458,405.485,297.545,377.207,323.285z"/>
		</g>
	</g>
	<g>
		<g>
			<path d="M488.958,57.234c3.663-3.658,3.663-9.597,0-13.257c-3.663-3.659-9.594-3.659-13.257,0l-36.64,36.636
				c-2.767-3.116-5.625-6.167-8.59-9.138c-39.487-39.487-91.987-61.233-147.83-61.233c-55.842,0-108.337,21.746-147.824,61.233
				c-39.484,39.482-61.23,91.985-61.23,147.825c0,14.04,1.378,27.868,4.063,41.331L15.758,303.45
				c-4.26,2.945-5.322,8.784-2.377,13.038c1.819,2.635,4.743,4.046,7.719,4.046c1.839,0,3.697-0.54,5.325-1.666l56.089-38.799
				c5.964,19.733,14.85,38.463,26.434,55.664l-15.879,15.876c-3.661,3.663-3.661,9.6,0,13.263c1.832,1.824,4.231,2.741,6.628,2.741
				c2.4,0,4.8-0.917,6.629-2.741l13.912-13.915c4.552,5.6,9.413,10.995,14.585,16.167c5.171,5.172,10.567,10.027,16.164,14.582
				l-83.588,83.591c-8.361,8.36-22.059,8.264-30.538-0.215c-8.478-8.478-8.572-22.174-0.211-30.539l17.818-17.813
				c3.661-3.659,3.661-9.6,0-13.258c-3.664-3.658-9.594-3.658-13.258,0L23.393,421.29c-15.675,15.667-15.581,41.266,0.209,57.05
				c7.933,7.934,18.337,11.902,28.721,11.902c10.277,0,20.533-3.893,28.331-11.688l85.555-85.557
				c34.152,22.994,74.343,35.36,116.433,35.36c55.843,0,108.343-21.746,147.83-61.233c39.481-39.487,61.223-91.982,61.223-147.824
				c0-45.271-14.292-88.342-40.74-124.063L488.958,57.234z M472.949,219.3c0,104.934-85.368,190.308-190.308,190.308
				c-104.934,0-190.305-85.374-190.305-190.308c0-104.937,85.371-190.305,190.305-190.305
				C387.581,28.995,472.949,114.363,472.949,219.3z"/>
		</g>
	</g>
</g>
</svg>
