<?xml version="1.0" encoding="utf-8"?>
<!-- Generator: Adobe Illustrator 16.0.0, SVG Export Plug-In . SVG Version: 6.00 Build 0)  -->
<!DOCTYPE svg PUBLIC "-//W3C//DTD SVG 1.1//EN" "http://www.w3.org/Graphics/SVG/1.1/DTD/svg11.dtd">
<svg version="1.1" id="Capa_1" xmlns="http://www.w3.org/2000/svg" xmlns:xlink="http://www.w3.org/1999/xlink" x="0px" y="0px"
	 width="200px" height="200px" viewBox="0 0 200 200" enable-background="new 0 0 200 200" xml:space="preserve">
<g>
	<path d="M80.869,167.628h-1.742c0-2.445-0.428-5.75,0.684-8.035c2.947-6.065,3.602-12.956,1.841-19.406
		c-0.384-1.402-1.835-2.23-3.238-1.847c-1.403,0.383-2.234,1.831-1.851,3.237c1.425,5.216,0.892,10.793-1.496,15.712
		c-1.56,3.202-1.214,6.887-1.214,10.339H37.214V155.79c0-7.096-4.401-12.196-8.319-17.607c-4.289-5.916-6.555-12.905-6.555-20.215
		V84.4c0-5.715,7.75-5.363,8.367,0.115l3.551,31.599c0.92,8.176,7.019,14.681,14.999,16.185c0.211,0.246,6.868,6.933,6.868,6.933
		c0.515,0.515,1.192,0.773,1.867,0.773c0.674,0,1.349-0.259,1.863-0.773c1.029-1.029,1.029-2.701,0-3.73
		c0,0-6.741-6.798-6.964-7.117c-0.754-1.1-1.176-2.419-1.176-3.759v-18.188c0-3.561,5.248-4.158,5.813-0.604l1.723,10.93
		c0.432,2.727,1.694,5.197,3.644,7.146l8.073,8.073c1.029,1.029,2.701,1.029,3.73,0c1.029-1.029,1.029-2.697,0-3.727l-8.073-8.073
		c-1.16-1.16-1.908-2.627-2.164-4.244l-1.723-10.931c-0.31-1.927-1.294-3.685-2.771-4.95c-1.617-1.384-3.685-2.078-5.814-1.953
		c-4.324,0.252-7.712,3.912-7.712,8.332v18.188v0.004l0,0c0,0.399,0.02,0.796,0.058,1.188c-3.807-2.007-6.494-5.796-7.002-10.291
		l-3.535-31.465c-0.205-12.155-18.895-11.835-18.895,0.343v33.563c0,8.428,2.614,16.488,7.559,23.309
		c3.167,4.379,7.316,8.771,7.316,14.514v11.838h-1.742c-1.454,0-2.637,1.183-2.637,2.637v17.099c0,1.457,1.183,2.637,2.637,2.637
		h50.667c1.458,0,2.637-1.18,2.637-2.637v-17.099C83.505,168.811,82.323,167.628,80.869,167.628L80.869,167.628z M78.232,184.727
		H32.835v-11.825h45.396V184.727z"/>
	<path d="M180.016,77.475c-1.997-1.96-4.791-2.957-7.578-2.643V23.848c0-7.635-6.213-13.848-13.848-13.848h-37.544
		c-7.636,0-13.849,6.213-13.849,13.848v23.133c0,1.455,1.18,2.637,2.637,2.637c1.454,0,2.637-1.182,2.637-2.637V31.95h54.693v45.275
		c-1.879,1.704-3.081,4.142-3.125,6.836l-1.851,16.469c-2.992,1.383-7.159,0.79-10.349,0.79c-3.174-4.168-9.783-4.207-12.989,0
		h-11.208c-0.773-1.036-1.88-1.822-3.189-2.18l-2.902-0.792c-0.412-0.112-0.626-0.623-0.412-0.994l1.492-2.614
		c1.323-2.317,0.931-5.251-0.955-7.14l-2.583-2.58c-1.748-1.751-4.4-2.215-6.622-1.217V59.57c0-1.457-1.183-2.637-2.637-2.637
		c-1.457,0-2.637,1.18-2.637,2.637v21.708c-0.965-2.049-3.049-3.41-5.369-3.41h-3.652c-2.67,0-5.021,1.796-5.725,4.372l-0.793,2.902
		c-0.115,0.413-0.623,0.624-0.997,0.413l-2.614-1.493c-2.314-1.323-5.251-0.927-7.137,0.958l-2.583,2.583
		c-1.886,1.886-2.282,4.82-0.958,7.137l1.492,2.614c0.211,0.371,0.006,0.882-0.412,0.998l-2.902,0.792
		c-2.573,0.703-4.372,3.056-4.372,5.724v3.65c0,2.669,1.799,5.024,4.372,5.728l2.902,0.792c0.412,0.112,0.626,0.62,0.412,0.994
		l-1.492,2.614c-1.323,2.317-0.93,5.251,0.958,7.14l2.583,2.583c1.886,1.886,4.822,2.278,7.137,0.955l2.614-1.492
		c0.37-0.211,0.882,0,0.994,0.412l0.796,2.905c0.703,2.573,3.055,4.369,5.725,4.369h3.649c2.668,0,5.023-1.796,5.727-4.369
		l0.793-2.905c0.112-0.412,0.62-0.623,0.994-0.412l2.614,1.492c2.317,1.323,5.251,0.931,7.14-0.959l2.579-2.579
		c1.89-1.889,2.282-4.822,0.959-7.14l-1.492-2.614c-0.214-0.369,0-0.882,0.412-0.994l2.902-0.792
		c2.575-0.703,4.372-3.059,4.372-5.728v-1.921h8.188l-1.47,9.339c-0.824,5.184-7.597,9.47-10.962,13.068
		c-7.581,8.102-9.346,20.394-4.389,30.589c0.841,2.666,0.684,5.283,0.684,8.035h-1.741c-1.458,0-2.637,1.183-2.637,2.637v17.099
		c0,1.457,1.179,2.637,2.637,2.637h10.045c1.457,0,2.637-1.18,2.637-2.637s-1.18-2.637-2.637-2.637h-7.408v-11.825h45.393v11.825
		h-25.855c-1.457,0-2.637,1.18-2.637,2.637s1.18,2.637,2.637,2.637h28.492c1.458,0,2.637-1.18,2.637-2.637v-17.099
		c0-1.457-1.179-2.637-2.637-2.637h-1.741V155.79c0-5.721,4.151-10.142,7.318-14.514c4.944-6.82,7.556-14.881,7.556-23.309V84.4
		C182.934,81.821,181.872,79.296,180.016,77.475L180.016,77.475z M112.471,26.677v-2.829c0-4.73,3.845-8.575,8.575-8.575h37.544
		c4.729,0,8.574,3.845,8.574,8.575v2.829H112.471z M161.543,106.277l-1.039,9.247c-0.505,4.497-3.196,8.286-7.003,10.293
		c0.039-0.39,0.058-0.789,0.058-1.188l0,0l0,0v-18.035C156.145,106.594,158.999,106.833,161.543,106.277L161.543,106.277z
		 M123.552,108.518c0,0.297-0.198,0.56-0.486,0.639l-2.905,0.793c-3.688,1.007-5.497,5.376-3.602,8.696l1.492,2.614
		c0.147,0.256,0.105,0.585-0.105,0.796l-2.582,2.579c-0.211,0.211-0.537,0.256-0.796,0.108l-2.611-1.492
		c-3.295-1.883-7.699-0.051-8.699,3.602l-0.793,2.907c-0.076,0.283-0.339,0.484-0.636,0.484h-3.652
		c-0.298,0-0.561-0.201-0.637-0.484l-0.793-2.907c-1-3.656-5.382-5.493-8.695-3.602l-2.615,1.492
		c-0.259,0.147-0.584,0.103-0.795-0.105l-2.583-2.585c-0.211-0.208-0.256-0.534-0.105-0.793l1.489-2.614
		c1.883-3.295,0.058-7.696-3.602-8.696l-2.902-0.793c-0.288-0.079-0.489-0.342-0.489-0.639v-3.65c0-0.297,0.201-0.563,0.489-0.639
		l2.902-0.793c3.685-1.007,5.5-5.375,3.602-8.696l-1.493-2.614c-0.147-0.259-0.102-0.585,0.109-0.796l2.583-2.583
		c0.211-0.211,0.536-0.251,0.795-0.105l2.611,1.493c3.324,1.898,7.689,0.086,8.696-3.605l0.796-2.902
		c0.076-0.285,0.339-0.486,0.637-0.486h3.652c0.297,0,0.56,0.199,0.636,0.486l0.793,2.906c0.981,3.582,5.481,5.439,8.696,3.601
		l2.614-1.493c0.259-0.146,0.585-0.105,0.796,0.105l2.582,2.583c0.211,0.211,0.253,0.537,0.105,0.796l-1.492,2.614
		c-1.892,3.317-0.08,7.689,3.605,8.696l2.901,0.793c0.288,0.08,0.486,0.342,0.486,0.639V108.518L123.552,108.518z M177.66,117.968
		c0,7.31-2.266,14.299-6.552,20.219c-3.912,5.395-8.322,10.529-8.322,17.604v11.838h-36.637c0-3.468,0.355-7.114-1.214-10.339
		c-4.008-8.246-2.604-18.167,3.496-24.68c4.331-4.623,11.26-9.178,12.317-15.85l1.723-10.921c0.569-3.557,5.813-2.966,5.813,0.598
		v18.188c0,1.732-0.703,3.439-1.93,4.667l-6.21,6.209c-1.029,1.033-1.029,2.701,0.003,3.73c0.515,0.515,1.188,0.773,1.863,0.773
		s1.349-0.259,1.863-0.773c0,0,6.66-6.687,6.868-6.933c7.983-1.504,14.078-8.009,15.002-16.185l1.528-13.596
		c0.003-0.029,0.006-0.058,0.009-0.085l2.011-17.918c0.623-5.522,8.367-5.903,8.367-0.115V117.968L177.66,117.968z"/>
	<path d="M100,94.225c-6.875,0-12.468,5.593-12.468,12.468c0,6.875,5.593,12.468,12.468,12.468c6.878,0,12.471-5.593,12.471-12.468
		C112.471,99.818,106.878,94.225,100,94.225z M100,113.889c-3.967,0-7.194-3.229-7.194-7.196c0-3.966,3.228-7.194,7.194-7.194
		c3.97,0,7.197,3.229,7.197,7.194C107.197,110.659,103.97,113.889,100,113.889z"/>
	<path d="M120.438,53.776h10.426c1.454,0,2.637-1.183,2.637-2.637V40.714c0-1.458-1.183-2.637-2.637-2.637h-10.426
		c-1.457,0-2.637,1.179-2.637,2.637v10.425C117.802,52.593,118.981,53.776,120.438,53.776z M123.075,43.351h5.152v5.152h-5.152
		V43.351z"/>
	<path d="M117.802,72.961c0,1.458,1.18,2.637,2.637,2.637h10.426c1.454,0,2.637-1.179,2.637-2.637V62.536
		c0-1.458-1.183-2.637-2.637-2.637h-10.426c-1.457,0-2.637,1.179-2.637,2.637V72.961z M123.075,65.173h5.152v5.152h-5.152V65.173z"
		/>
	<path d="M141.069,48.56h17.594c1.454,0,2.637-1.179,2.637-2.637c0-1.454-1.183-2.637-2.637-2.637h-17.594
		c-1.458,0-2.637,1.183-2.637,2.637C138.433,47.381,139.611,48.56,141.069,48.56z"/>
	<path d="M141.069,65.173h17.594c1.454,0,2.637-1.179,2.637-2.637s-1.183-2.637-2.637-2.637h-17.594
		c-1.458,0-2.637,1.179-2.637,2.637S139.611,65.173,141.069,65.173z"/>
	<path d="M141.069,75.598h9.853c1.458,0,2.637-1.179,2.637-2.637c0-1.457-1.179-2.637-2.637-2.637h-9.853
		c-1.458,0-2.637,1.18-2.637,2.637C138.433,74.419,139.611,75.598,141.069,75.598z"/>
	<path d="M46.847,64.396h37.518c4.653,0,8.44-3.788,8.44-8.441V18.441c0-4.657-3.787-8.441-8.44-8.441H46.847
		c-4.654,0-8.438,3.784-8.438,8.441v37.515C38.41,60.609,42.193,64.396,46.847,64.396z M84.365,59.123h-4.443l7.61-8.022v4.854
		C87.532,57.704,86.113,59.123,84.365,59.123z M43.683,18.441c0-1.749,1.419-3.167,3.164-3.167h37.518
		c1.744,0,3.167,1.419,3.167,3.167V43.44L72.655,59.123H46.847c-1.745,0-3.164-1.419-3.164-3.167V18.441z"/>
	<path d="M54.258,29.449h22.698c1.454,0,2.637-1.18,2.637-2.639c0-1.452-1.183-2.636-2.637-2.636H54.258
		c-1.457,0-2.637,1.184-2.637,2.636C51.622,28.269,52.801,29.449,54.258,29.449z"/>
	<path d="M54.258,41.96h14.884c1.454,0,2.637-1.183,2.637-2.637c0-1.458-1.183-2.637-2.637-2.637H54.258
		c-1.457,0-2.637,1.179-2.637,2.637C51.622,40.778,52.801,41.96,54.258,41.96z"/>
</g>
</svg>
