<svg xmlns="http://www.w3.org/2000/svg" viewBox="0 0 403.78 572.02"><defs><style>.cls-1{fill:#fff;}.cls-2{fill:#ff585d;}</style></defs><g id="Layer_2" data-name="Layer 2"><g id="Layer_7" data-name="Layer 7"><circle class="cls-1" cx="201.89" cy="201.89" r="134.59"/><path class="cls-2" d="M201.89,0C90.38,0,0,90.38,0,201.89,0,403.78,201.89,572,201.89,572S403.78,403.78,403.78,201.89C403.78,90.38,313.4,0,201.89,0Zm0,336.48A134.59,134.59,0,1,1,336.48,201.89,134.59,134.59,0,0,1,201.89,336.48Z"/><path d="M146.26,231.79a26.38,26.38,0,0,1-13.3-3.31,22.47,22.47,0,0,1-9.06-9.78A34.94,34.94,0,0,1,120.67,203a33.11,33.11,0,0,1,3.4-15.56,23.64,23.64,0,0,1,9.74-9.94A30.37,30.37,0,0,1,148.72,174q9.53,0,15.39,3.44t9.09,10.93l-13.51,5.35a10.44,10.44,0,0,0-3.91-6.29,11.93,11.93,0,0,0-7-1.95,12.5,12.5,0,0,0-7.14,2,12.2,12.2,0,0,0-4.51,5.87,26.1,26.1,0,0,0-1.53,9.56,27.22,27.22,0,0,0,1.58,9.94,11.58,11.58,0,0,0,4.67,5.91,14.36,14.36,0,0,0,7.69,1.92,15.93,15.93,0,0,0,4.51-.6,11.21,11.21,0,0,0,3.57-1.74,8,8,0,0,0,2.38-2.89,9.41,9.41,0,0,0,.85-4.12v-.86H148v-9.77h25.25v30.26h-9.95l-1.1-13.17,2.38,2a16,16,0,0,1-6.42,8.88Q153.57,231.8,146.26,231.79Z"/><path d="M199.13,219.64h28.13v11.3H184.51v-56.1h14.62Z"/><path d="M261.43,174.84a28.19,28.19,0,0,1,11.73,2.21,16.35,16.35,0,0,1,7.4,6.38,21.34,21.34,0,0,1,0,20.23,16.39,16.39,0,0,1-7.4,6.37,28.19,28.19,0,0,1-11.73,2.21H250.3v18.7H235.68v-56.1Zm-2.29,26.44c3.06,0,5.36-.64,6.92-1.92s2.34-3.21,2.34-5.82-.78-4.55-2.34-5.82-3.86-1.91-6.92-1.91H250.3v15.47Z"/></g></g></svg>