<svg xmlns="http://www.w3.org/2000/svg" viewBox="0 0 403.78 572.02"><defs><style>.cls-1{fill:#fff;}.cls-2{fill:#ff9e3a;}</style></defs><g id="Layer_2" data-name="Layer 2"><g id="Layer_7" data-name="Layer 7"><circle class="cls-1" cx="201.89" cy="201.89" r="134.59"/><path class="cls-2" d="M201.89,0C90.38,0,0,90.38,0,201.89,0,403.78,201.89,572,201.89,572S403.78,403.78,403.78,201.89C403.78,90.38,313.4,0,201.89,0Zm0,336.48A134.59,134.59,0,1,1,336.48,201.89,134.59,134.59,0,0,1,201.89,336.48Z"/><path d="M170.27,229.08a26.39,26.39,0,0,1-13.3-3.32,22.56,22.56,0,0,1-9.06-9.77q-3.22-6.47-3.22-15.73a33.06,33.06,0,0,1,3.39-15.55,23.78,23.78,0,0,1,9.74-10,30.49,30.49,0,0,1,14.92-3.48q9.51,0,15.38,3.44t9.1,10.92L183.7,191a10.44,10.44,0,0,0-3.91-6.29,11.84,11.84,0,0,0-7-2,12.51,12.51,0,0,0-7.14,2,12.26,12.26,0,0,0-4.5,5.86,26.15,26.15,0,0,0-1.53,9.57,27.27,27.27,0,0,0,1.57,9.94,11.67,11.67,0,0,0,4.67,5.91,14.47,14.47,0,0,0,7.69,1.91,16.31,16.31,0,0,0,4.51-.59,11,11,0,0,0,3.57-1.75,7.8,7.8,0,0,0,2.38-2.89,9.24,9.24,0,0,0,.85-4.12v-.85H172.06V198H197.3v30.26h-9.94l-1.11-13.18,2.38,2a15.94,15.94,0,0,1-6.42,8.88Q177.58,229.08,170.27,229.08Z"/><path d="M259.09,172.13v56.1H242.86l-17.43-30.35-4.25-8.33h-.08l.34,10.37v28.31H208.52v-56.1h16.23l17.43,30.34,4.25,8.33h.08l-.34-10.37v-28.3Z"/></g></g></svg>