<?xml version="1.0" encoding="utf-8"?>
<!-- Generator: Adobe Illustrator 16.0.0, SVG Export Plug-In . SVG Version: 6.00 Build 0)  -->
<!DOCTYPE svg PUBLIC "-//W3C//DTD SVG 1.1//EN" "http://www.w3.org/Graphics/SVG/1.1/DTD/svg11.dtd">
<svg version="1.1" id="Capa_1" xmlns="http://www.w3.org/2000/svg" xmlns:xlink="http://www.w3.org/1999/xlink" x="0px" y="0px"
	 width="225px" height="225px" viewBox="0 0 225 225" enable-background="new 0 0 225 225" xml:space="preserve">
<g>
	<path d="M36.531,109.578V94.969c0-1.614-1.306-2.922-2.921-2.922c-1.618,0-2.922,1.308-2.922,2.922v14.609
		c0,1.615,1.305,2.922,2.922,2.922C35.225,112.5,36.531,111.193,36.531,109.578z"/>
	<path d="M194.313,182.613c-0.031,0-0.057,0.017-0.086,0.017h-5.759v-6.11c6.913-4.013,11.595-11.453,11.677-19.979
		c0-0.021,0.004-0.036,0.004-0.056c0-0.051,0.01-0.101,0.01-0.151c0-0.003,0-0.003,0-0.006v-14.578c0-0.013,0.005-0.021,0.005-0.03
		c0-5.429-3.741-9.969-8.772-11.272v-6.259c0-1.613-1.306-2.92-2.922-2.92h-14.607c-11.271,0-20.444,9.168-20.454,20.438v0.004
		v14.621v0.006c0,0.053,0.01,0.098,0.01,0.15c0,0.021,0.003,0.039,0.003,0.057c0.082,8.528,4.764,15.969,11.676,19.979v6.115h-5.759
		c-0.032,0-0.058-0.019-0.085-0.019c-6.445,0-11.688,5.239-11.688,11.683v8.778c0,1.616,1.307,2.922,2.922,2.922h52.595
		c1.614,0,2.922-1.306,2.922-2.922v-8.782C206,187.854,200.758,182.613,194.313,182.613z M173.859,127.109h11.688v5.845
		c0,1.614,1.307,2.922,2.921,2.922c3.218,0,5.832,2.608,5.849,5.817c0,0.005-0.004,0.008-0.004,0.015v13.847
		c-1.263,2.07-6.57,9.538-17.529,9.538c-10.969,0-16.244-7.401-17.532-9.532v-13.843
		C159.25,133.664,165.805,127.109,173.859,127.109z M163.129,167.282c3.467,2.069,7.952,3.655,13.653,3.655
		c5.698,0,10.184-1.586,13.649-3.655c-3.218,3.991-8.139,6.553-13.649,6.553C171.268,173.835,166.348,171.273,163.129,167.282z
		 M176.782,179.68c2.018,0,3.97-0.285,5.843-0.771v3.702h-11.688v-3.702C172.811,179.396,174.762,179.68,176.782,179.68z
		 M159.191,188.461c0.021,0,0.039,0.014,0.059,0.014h8.766c0.035,0,0.062-0.02,0.101-0.02h17.332c0.036,0,0.063,0.02,0.1,0.02h8.767
		c0.021,0,0.037-0.014,0.058-0.014c3.196,0.034,5.787,2.637,5.787,5.835v5.861h-46.752v-5.861
		C153.404,191.098,155.998,188.495,159.191,188.461z"/>
	<path d="M21.922,206h52.593c1.616,0,2.923-1.307,2.923-2.922v-8.782c0-6.44-5.243-11.683-11.689-11.683
		c-0.031,0-0.055,0.017-0.084,0.017h-5.759v-6.11c6.914-4.013,11.594-11.453,11.676-19.979c0-0.021,0.001-0.036,0.001-0.056
		c0-0.051,0.01-0.101,0.01-0.151c0-0.003,0-0.003,0-0.006v-11.699c0-12.881-10.486-23.36-23.375-23.36
		c-12.889,0-23.375,10.479-23.375,23.363v11.699v0.006c0,0.053,0.01,0.098,0.01,0.15c0,0.021,0.003,0.039,0.003,0.057
		c0.081,8.523,4.761,15.965,11.675,19.977v6.111h-5.759c-0.031,0-0.055-0.017-0.084-0.017c-6.447,0-11.688,5.241-11.688,11.683
		v8.782C19,204.693,20.306,206,21.922,206L21.922,206z M48.218,127.109c9.669,0,17.531,7.855,17.531,17.521v10.925
		c-1.261,2.07-6.571,9.538-17.531,9.538c-10.966,0-16.242-7.401-17.531-9.532V144.63C30.688,134.966,38.55,127.109,48.218,127.109z
		 M34.567,167.282c3.465,2.069,7.95,3.655,13.651,3.655c5.701,0,10.186-1.586,13.651-3.655c-3.218,3.991-8.137,6.553-13.651,6.553
		C42.704,173.835,37.784,171.273,34.567,167.282z M48.218,179.68c2.018,0,3.972-0.285,5.845-0.771v3.702H42.375v-3.702
		C44.248,179.396,46.2,179.68,48.218,179.68z M30.629,188.461c0.02,0,0.037,0.014,0.058,0.014h8.766c0.035,0,0.061-0.02,0.098-0.02
		h17.332c0.039,0,0.066,0.02,0.1,0.02h8.766c0.022,0,0.039-0.014,0.06-0.014c3.197,0.034,5.785,2.637,5.785,5.835v5.861h-46.75
		v-5.861C24.843,191.098,27.434,188.495,30.629,188.461z"/>
	<path d="M203.078,19H86.203c-1.616,0-2.922,1.306-2.922,2.921v55.513l-17.532-0.009v-3.172c6.973-4.048,11.68-11.568,11.689-20.185
		c0-0.003,0-0.003,0-0.005v-10.23c0-6.42-2.474-12.257-6.484-16.672c-0.068-0.085-0.144-0.163-0.22-0.24
		C66.196,22.059,59.757,19,52.599,19c-13.691,0-24.833,11.141-24.833,24.833v1.449c0,0.126,0.058,0.231,0.07,0.35
		c0.024,0.197,0.053,0.383,0.114,0.564c0.062,0.185,0.142,0.342,0.234,0.505c0.09,0.161,0.184,0.31,0.303,0.45
		c0.123,0.147,0.263,0.266,0.415,0.386c0.142,0.117,0.284,0.216,0.447,0.302c0.179,0.094,0.362,0.151,0.556,0.207
		c0.113,0.032,0.205,0.099,0.324,0.119c0.16,0.026,0.297,0.033,0.458,0.057v5.841v0.005c0.008,8.617,4.714,16.137,11.688,20.185
		v3.19h-8.738c-0.011,0-0.016-0.005-0.027-0.005C25.553,77.438,19,83.99,19,92.047v17.531c0,1.615,1.306,2.922,2.922,2.922
		c1.614,0,2.92-1.307,2.92-2.922V92.047c0-4.826,3.922-8.754,8.746-8.764c0.008,0,0.015,0.004,0.021,0.004h10.498l2.046,2.046
		c0.029,0.031,0.069,0.04,0.102,0.067c0.22,0.201,0.468,0.361,0.736,0.487c0.084,0.041,0.166,0.079,0.252,0.108
		c0.31,0.11,0.633,0.187,0.97,0.189h0.005h0.003c0.005,0,0.008-0.003,0.015-0.003c0.41-0.003,0.806-0.107,1.187-0.283
		c0.035-0.015,0.066-0.006,0.102-0.023l4.539-2.266l4.537,2.269c0.036,0.017,0.068,0.009,0.102,0.023
		c0.381,0.176,0.782,0.28,1.187,0.283c0.006,0,0.01,0.002,0.014,0.002h0.003h0.005c0.337-0.002,0.662-0.078,0.97-0.189
		c0.086-0.028,0.168-0.066,0.252-0.108c0.27-0.125,0.518-0.285,0.739-0.489c0.029-0.027,0.071-0.038,0.099-0.064l2.067-2.067
		l22.156,0.014c0.004-0.003,0.007,0,0.01,0s0.005-0.003,0.008-0.003l2.911,0.003h0.004c6.445,0,11.688-5.243,11.688-11.688
		c0-1.614,1.31-2.923,2.921-2.923c1.612,0,2.922,1.31,2.922,2.923c0,9.667-7.863,17.532-17.53,17.532h-14.61
		c-1.616,0-2.922,1.305-2.922,2.921v17.531c0,1.615,1.306,2.922,2.922,2.922c1.616,0,2.923-1.307,2.923-2.922v-14.61h5.843v14.609
		c0,1.615,1.306,2.922,2.922,2.922h116.875c1.615,0,2.922-1.307,2.922-2.922V21.921C206,20.306,204.693,19,203.078,19z
		 M69.165,34.568c0.967,1.727,1.678,3.614,2.068,5.618c-1.333-1.015-2.596-1.66-3.833-2.027L69.165,34.568z M52.599,24.844
		c4.795,0,9.162,1.797,12.508,4.734l-4.331,8.818c-1.156,0.339-2.354,0.792-3.628,1.294c-4.85,1.923-11.453,4.447-23.48,3.013
		C34.254,32.759,42.509,24.844,52.599,24.844z M36.531,54.048v-5.19c11.34,0.749,18.096-1.882,22.768-3.734
		c5.509-2.181,7.149-2.808,12.294,3.726v5.199c0,9.662-7.863,17.522-17.53,17.522C44.394,71.571,36.531,63.71,36.531,54.048z
		 M54.063,77.414c2.018,0,3.97-0.286,5.843-0.771v2.491L59.33,79.71l-3.959-1.98c-0.063-0.033-0.134-0.027-0.199-0.056
		c-0.182-0.076-0.373-0.114-0.57-0.155c-0.183-0.035-0.357-0.067-0.538-0.067c-0.184,0-0.354,0.034-0.538,0.067
		c-0.195,0.041-0.384,0.076-0.568,0.155c-0.064,0.028-0.136,0.022-0.199,0.056l-3.96,1.98l-0.581-0.576v-2.491
		C50.091,77.131,52.043,77.414,54.063,77.414z M200.157,106.656H89.126V94.969c12.889,0,23.373-10.486,23.373-23.375
		c0-4.833-3.933-8.765-8.765-8.765c-4.833,0-8.766,3.932-8.766,8.765c0,3.223-2.62,5.844-5.843,5.844V24.844h111.031
		L200.157,106.656L200.157,106.656z"/>
	<path d="M100.813,182.63h-5.761c-0.031,0-0.055-0.017-0.084-0.017c-6.445,0-11.688,5.24-11.688,11.683v8.782
		c0,1.615,1.306,2.922,2.922,2.922h52.594c1.616,0,2.922-1.307,2.922-2.922v-8.782c0-6.44-5.241-11.683-11.688-11.683
		c-0.031,0-0.057,0.017-0.084,0.017h-5.76v-1.997c0-0.331-0.084-0.635-0.187-0.929h14.796c1.616,0,2.922-1.308,2.922-2.922v-29.099
		c0-16.108-13.107-29.218-29.22-29.218s-29.218,13.108-29.218,29.218v29.099c0,1.614,1.306,2.922,2.922,2.922h14.796
		c-0.102,0.297-0.186,0.598-0.186,0.929v1.997H100.813z M135.874,194.296v5.861H89.126v-5.861c0-3.198,2.591-5.801,5.783-5.835
		c0.021,0,0.038,0.014,0.06,0.014h8.354l8.252,2.75c0.005,0.002,0.011,0,0.015,0.002c0.292,0.094,0.596,0.15,0.91,0.15
		c0.316,0,0.62-0.059,0.912-0.15c0.007-0.002,0.009,0,0.015-0.002l8.253-2.75h8.354c0.02,0,0.039-0.014,0.059-0.014
		C133.283,188.495,135.874,191.098,135.874,194.296z M112.499,124.311c12.89,0,23.375,10.487,23.375,23.375v26.174H89.126v-26.174
		C89.126,134.798,99.61,124.311,112.499,124.311z M118.531,179.704c-0.104,0.297-0.188,0.598-0.188,0.929v2.791l-5.845,1.95
		l-5.843-1.95v-2.791c0-0.331-0.086-0.635-0.188-0.929H118.531z"/>
	<path d="M127.104,83.279c-4.832,0-8.767,3.933-8.767,8.766c0,4.832,3.935,8.765,8.767,8.765h17.524
		c3.806,0,7.019-2.449,8.228-5.841h23.928c1.613,0,2.92-1.307,2.92-2.922V74.518h11.688c1.616,0,2.924-1.306,2.924-2.92V59.906
		c0-1.615-1.308-2.921-2.924-2.921h-29.218c-1.616,0-2.922,1.306-2.922,2.921v2.926h-7.968l-12.493-7.497V48.22h5.839
		c4.833,0,8.766-3.933,8.766-8.766s-3.933-8.767-8.766-8.767h-17.525c-4.832,0-8.766,3.934-8.766,8.767s3.934,8.766,8.766,8.766
		h5.842v7.115l-13.188,7.915c-0.88,0.528-1.418,1.478-1.418,2.503c0,1.026,0.541,1.979,1.418,2.504l13.188,7.916v7.106H127.104z
		 M127.104,36.531h17.524c1.613,0,2.923,1.309,2.923,2.923c0,1.612-1.31,2.921-2.923,2.921h-17.524
		c-1.611,0-2.922-1.309-2.922-2.921C124.182,37.84,125.491,36.531,127.104,36.531z M127.104,89.121h17.524
		c1.613,0,2.923,1.31,2.923,2.924c0,1.612-1.31,2.921-2.923,2.921h-17.524c-1.611,0-2.922-1.309-2.922-2.921
		C124.182,90.431,125.491,89.121,127.104,89.121z M165.093,62.829h23.375v5.846h-23.375V62.829z M135.866,60.394l8.929,5.359
		l-8.929,5.358l-8.931-5.358L135.866,60.394z M138.789,76.173l12.493-7.498h7.968v2.922c0,1.614,1.307,2.92,2.922,2.92h11.688
		v14.608h-21.002c-1.211-3.396-4.424-5.847-8.229-5.847h-5.839L138.789,76.173L138.789,76.173z"/>
</g>
</svg>
