<?xml version="1.0" encoding="utf-8"?>
<!-- Generator: Adobe Illustrator 16.0.0, SVG Export Plug-In . SVG Version: 6.00 Build 0)  -->
<!DOCTYPE svg PUBLIC "-//W3C//DTD SVG 1.1//EN" "http://www.w3.org/Graphics/SVG/1.1/DTD/svg11.dtd">
<svg version="1.1" id="Capa_1" xmlns="http://www.w3.org/2000/svg" xmlns:xlink="http://www.w3.org/1999/xlink" x="0px" y="0px"
	 width="225px" height="225px" viewBox="0 0 225 225" enable-background="new 0 0 225 225" xml:space="preserve">
<g>
	<path d="M140.734,85.354c6.785-7.052,10.976-16.61,10.976-27.145c0-10.743-4.261-20.772-11.997-28.229
		c-7.734-7.456-17.906-11.337-28.678-10.954c-13.452,0.491-25.253,8.032-31.938,18.917c-2.946-0.517-5.906-0.848-8.821-0.848
		c-28.274,0-51.276,23-51.276,51.275c0,24.11,16.749,44.334,39.21,49.781v9.878c-1.836,1.656-3.016,4.033-3.016,6.696v36.193
		c0,8.316,6.767,15.081,15.082,15.081c8.316,0,15.079-6.765,15.079-15.081v-36.193c0-2.663-1.177-5.037-3.017-6.696v-9.868
		c5.4-1.303,10.484-3.431,15.083-6.302V206h108.581V85.354H140.734z M111.257,25.052c9.085-0.312,17.728,2.961,24.269,9.268
		c6.548,6.313,10.151,14.793,10.151,23.888c0,18.293-14.884,33.178-33.178,33.178l-36.546,6.031h-1.414
		c-0.686,0-1.249-0.561-1.249-1.247c0-0.33,0.133-0.652,0.365-0.885l14.462-14.458l-1.658-2.105
		c-4.673-5.925-7.142-13.024-7.138-20.531C79.332,40.562,93.657,25.698,111.257,25.052L111.257,25.052z M115.516,121.548v-9.061
		c1.521-2.856,2.785-5.875,3.75-9.036h68.639v18.097H115.516z M80.124,80.286L69.39,91.018c-1.355,1.353-2.131,3.23-2.131,5.152
		c0,4.014,3.264,7.28,7.28,7.28h1.414c0.402,0,0.799-0.036,1.198-0.1l24.427-4.068c-4.575,13.122-17.08,22.265-31.303,22.265
		c-18.294,0-33.178-14.885-33.178-33.178c0-18.293,14.883-33.178,33.178-33.178c1.037,0,2.087,0.067,3.16,0.174
		c-0.068,0.934-0.145,1.867-0.145,2.817C73.289,66.164,75.64,73.751,80.124,80.286z M25.032,88.37
		c0-24.947,20.296-45.242,45.243-45.242c1.957,0,3.938,0.181,5.922,0.447c-0.771,1.878-1.373,3.835-1.846,5.836
		c-1.376-0.152-2.739-0.251-4.076-0.251c-21.621,0-39.21,17.592-39.21,39.211c0,21.619,17.59,39.209,39.21,39.209
		c17.9,0,33.502-12.252,37.927-29.405l4.551-0.757c0.62-0.003,1.223-0.072,1.831-0.106c-4.18,20.939-22.593,36.301-44.309,36.301
		C45.329,133.612,25.032,113.317,25.032,88.37z M79.322,190.919c0,4.988-4.06,9.048-9.046,9.048c-4.989,0-9.049-4.06-9.049-9.048
		v-36.193c0-1.665,1.354-3.017,3.017-3.017h12.063c1.663,0,3.017,1.352,3.017,3.017V190.919z M76.305,145.678H64.243v-6.419
		c1.979,0.231,3.988,0.386,6.033,0.386c2.042,0,4.047-0.159,6.03-0.396V145.678z M199.97,199.967h-96.517v-72.546
		c2.177-1.853,4.187-3.886,6.031-6.075v6.233h39.209v18.099h-24.129v18.096h-15.08v30.162h36.192v-30.162h-15.079v-12.064h45.242
		v12.369c-6.873,1.402-12.064,7.492-12.064,14.777c0,8.313,6.766,15.08,15.079,15.08c8.317,0,15.082-6.767,15.082-15.08
		c0-7.282-5.191-13.375-12.065-14.777v-18.4h-27.145v-18.099h39.21V97.417h-73.262c0.054-0.298,0.095-0.597,0.146-0.898
		c4.498-0.977,8.695-2.754,12.478-5.133h66.672V199.967z M139.646,169.806v18.098h-24.13v-18.098H139.646z M178.854,169.806
		c4.989,0,9.05,4.061,9.05,9.05c0,4.987-4.061,9.048-9.05,9.048c-4.987,0-9.048-4.061-9.048-9.048
		C169.807,173.866,173.867,169.806,178.854,169.806z"/>
	<path d="M43.127,85.354h6.033v6.033h-6.033V85.354z"/>
	<path d="M55.193,85.354h6.033v6.033h-6.033V85.354z"/>
	<path d="M109.431,46.487v34.252c0,1.696,1.376,3.07,3.07,3.07c1.696,0,3.068-1.375,3.068-3.07V46.487
		c0-1.694-1.372-3.068-3.068-3.068C110.807,43.418,109.431,44.793,109.431,46.487L109.431,46.487z"/>
	<path d="M112.501,31.146c-1.694,0-3.07,1.375-3.07,3.068c0,1.694,1.376,3.07,3.07,3.07s3.067-1.376,3.067-3.07
		C115.568,32.52,114.195,31.146,112.501,31.146z"/>
</g>
</svg>
