<?xml version="1.0" encoding="utf-8"?>
<!-- Generator: Adobe Illustrator 16.0.0, SVG Export Plug-In . SVG Version: 6.00 Build 0)  -->
<!DOCTYPE svg PUBLIC "-//W3C//DTD SVG 1.1//EN" "http://www.w3.org/Graphics/SVG/1.1/DTD/svg11.dtd">
<svg version="1.1" id="Capa_1" xmlns="http://www.w3.org/2000/svg" xmlns:xlink="http://www.w3.org/1999/xlink" x="0px" y="0px"
	 width="225px" height="225px" viewBox="0 0 225 225" enable-background="new 0 0 225 225" xml:space="preserve">
<g id="XMLID_10_">
	<path id="XMLID_12_" d="M144.83,59.188V19H26.531v146.813H80.17V206h118.298V59.188H144.83z M95.678,59.188l43.996-33.63v33.629
		L95.678,59.188L95.678,59.188z M31.847,160.827V25.558h96.792L86.435,57.177H53.332v11.947h26.187v18.092H53.332v11.95h26.187
		v18.094H53.332v11.947h26.187v31.62H33.314H31.847z M193.581,201.027H85.057V64.156h108.524V201.027z"/>
	<path id="XMLID_11_" d="M172.935,151.323h-7.045v-21.257h7.045v-11.019h-7.045v-7.187l-26.901-12.927l-26.901,12.927v7.187h-6.384
		v11.019h6.384v21.257h-6.384v11.019h67.231V151.323z M159.216,154.222h-16.132v-27.054h16.132V154.222z M118.458,118.721
		l20.53-9.867l20.533,9.867v0.327h-41.063V118.721z M118.762,127.165h16.132v27.06h-16.132V127.165z"/>
</g>
</svg>
