<?xml version="1.0" encoding="utf-8"?>
<!-- Generator: Adobe Illustrator 16.0.0, SVG Export Plug-In . SVG Version: 6.00 Build 0)  -->
<!DOCTYPE svg PUBLIC "-//W3C//DTD SVG 1.1//EN" "http://www.w3.org/Graphics/SVG/1.1/DTD/svg11.dtd">
<svg version="1.1" id="Capa_1" xmlns="http://www.w3.org/2000/svg" xmlns:xlink="http://www.w3.org/1999/xlink" x="0px" y="0px"
	 width="225px" height="225px" viewBox="0 0 225 225" enable-background="new 0 0 225 225" xml:space="preserve">
<g>
	<path d="M37.097,187.902h6.033v6.033h-6.033V187.902z"/>
	<path d="M49.161,187.902h6.033v6.033h-6.033V187.902z"/>
	<path d="M61.226,187.902h6.032v6.033h-6.032V187.902z"/>
	<path d="M163.773,187.902h24.129v6.033h-24.129V187.902z"/>
	<path d="M199.968,175.839V76.307c0-8.315-6.767-15.081-15.081-15.081h-9.048c0-23.284-18.94-42.226-42.225-42.226
		c-23.287,0-42.228,18.941-42.228,42.226H40.113c-8.315,0-15.081,6.766-15.081,15.081v99.532H19v15.079
		C19,199.234,25.766,206,34.081,206h156.838c8.315,0,15.081-6.766,15.081-15.082v-15.079H199.968z M184.887,67.258
		c4.989,0,9.049,4.06,9.049,9.049v99.532h-6.031V79.322c0-3.327-2.705-6.032-6.032-6.032h-7.812c0.58-1.955,1.002-3.972,1.297-6.032
		H184.887z M99.172,50.142l32.012,13.34l10.963,32.879c-2.742,0.666-5.588,1.059-8.531,1.059c-19.961,0-36.195-16.235-36.195-36.193
		C97.419,57.358,98.045,53.636,99.172,50.142z M147.877,94.479L137.063,62.04l24.16-24.16c5.344,6.307,8.584,14.45,8.584,23.346
		C169.807,76.119,160.758,88.932,147.877,94.479z M133.613,25.032c8.895,0,17.037,3.239,23.348,8.581l-24.05,24.051l-31.402-13.081
		C107.544,32.984,119.657,25.032,133.613,25.032z M31.064,76.307c0-4.989,4.061-9.049,9.049-9.049h51.758
		c0.294,2.061,0.711,4.077,1.295,6.032H43.129c-3.327,0-6.033,2.705-6.033,6.032v96.517h-6.032V76.307z M199.968,190.918
		c0,4.989-4.061,9.05-9.049,9.05H34.081c-4.987,0-9.048-4.061-9.048-9.05v-9.047h62.139c4.338,3.898,9.887,6.031,15.766,6.031h19.13
		c5.881,0,11.43-2.133,15.766-6.031h38.007v-6.032h-40.458l-0.885,0.884c-3.318,3.321-7.732,5.148-12.434,5.148h-19.13
		c-4.696,0-9.11-1.827-12.432-5.148l-0.882-0.884H43.13V79.322h52.39c6.795,14.243,21.291,24.129,38.095,24.129
		c16.802,0,31.297-9.886,38.091-24.129h10.166v102.549h18.097L199.968,190.918L199.968,190.918z"/>
	<path d="M166.79,145.677c-1.851,0-3.573,0.564-5.011,1.524l-10.521-7.891c0.267-0.854,0.45-1.744,0.45-2.685
		c0-4.985-4.059-9.047-9.048-9.047c-4.988,0-9.048,4.062-9.048,9.047c0,1.041,0.21,2.021,0.531,2.951l-16.892,13.517
		c-1.385-0.863-3.004-1.385-4.755-1.385c-2.028,0-3.885,0.695-5.396,1.826l-13.005-8.671c0.182-0.71,0.306-1.439,0.306-2.206
		c0-4.985-4.062-9.047-9.049-9.047c-4.989,0-9.049,4.062-9.049,9.047c0,0.767,0.125,1.496,0.304,2.206l-13.004,8.671
		c-1.511-1.133-3.367-1.826-5.396-1.826c-4.989,0-9.049,4.059-9.049,9.047s4.06,9.051,9.049,9.051c4.988,0,9.048-4.063,9.048-9.051
		c0-0.765-0.124-1.494-0.305-2.205l13.004-8.669c1.512,1.134,3.368,1.827,5.397,1.827s3.884-0.693,5.396-1.827l13.005,8.669
		c-0.18,0.711-0.305,1.443-0.305,2.205c0,4.988,4.061,9.051,9.048,9.051c4.989,0,9.05-4.063,9.05-9.051
		c0-1.038-0.212-2.02-0.533-2.949l16.893-13.516c1.386,0.863,3.005,1.385,4.754,1.385c1.852,0,3.574-0.563,5.01-1.523l10.523,7.891
		c-0.27,0.854-0.451,1.744-0.451,2.684c0,4.986,4.06,9.049,9.047,9.049c4.988,0,9.049-4.063,9.049-9.049
		C175.838,149.739,171.779,145.677,166.79,145.677z M58.21,163.773c-1.661,0-3.016-1.354-3.016-3.018
		c0-1.658,1.355-3.015,3.016-3.015s3.016,1.354,3.016,3.015C61.226,162.419,59.871,163.773,58.21,163.773z M85.355,145.677
		c-1.663,0-3.017-1.354-3.017-3.018c0-1.659,1.354-3.015,3.017-3.015c1.66,0,3.016,1.354,3.016,3.015
		C88.371,144.32,87.016,145.677,85.355,145.677z M112.499,163.773c-1.66,0-3.015-1.354-3.015-3.018c0-1.658,1.354-3.015,3.015-3.015
		c1.662,0,3.019,1.354,3.019,3.015C115.518,162.419,114.161,163.773,112.499,163.773z M142.661,139.645
		c-1.661,0-3.019-1.354-3.019-3.018c0-1.659,1.356-3.016,3.019-3.016s3.019,1.355,3.019,3.016
		C145.68,138.289,144.323,139.645,142.661,139.645z M166.79,157.742c-1.66,0-3.017-1.356-3.017-3.018
		c0-1.66,1.355-3.016,3.017-3.016c1.662,0,3.017,1.355,3.017,3.016C169.807,156.387,168.452,157.742,166.79,157.742z"/>
	<path d="M97.419,85.354H49.161v42.226h48.258V85.354z M91.387,121.548H55.194V91.387h36.193V121.548z"/>
	<path d="M61.226,97.419h24.129v6.032H61.226V97.419z"/>
	<path d="M61.226,109.482h24.129v6.034H61.226V109.482z"/>
	<path d="M103.451,115.516h6.033v6.032h-6.033V115.516z"/>
	<path d="M115.518,115.516h60.321v6.032h-60.321V115.516z"/>
</g>
</svg>
