<?xml version="1.0" encoding="utf-8"?>
<!-- Generator: Adobe Illustrator 16.0.0, SVG Export Plug-In . SVG Version: 6.00 Build 0)  -->
<!DOCTYPE svg PUBLIC "-//W3C//DTD SVG 1.1//EN" "http://www.w3.org/Graphics/SVG/1.1/DTD/svg11.dtd">
<svg version="1.1" id="Capa_1" xmlns="http://www.w3.org/2000/svg" xmlns:xlink="http://www.w3.org/1999/xlink" x="0px" y="0px"
	 width="500px" height="500px" viewBox="0 0 500 500" enable-background="new 0 0 500 500" xml:space="preserve">
<g>
	<path d="M66.313,452.5c0,20.676,16.819,37.5,37.5,37.5h292.495c20.677,0,37.501-16.824,37.501-37.5V220
		c0-0.204-0.103-0.382-0.117-0.586V47.49c0-20.671-16.819-37.49-37.5-37.49h-292.5c-20.676,0-37.5,16.819-37.5,37.49v247.515
		c0,0.397,0.107,0.765,0.122,1.156V452.5z M396.308,475H103.813c-12.406,0-22.5-10.099-22.5-22.5V324.908
		c4.387,3.291,9.436,5.728,15,6.848V452.5c0,4.147,3.353,7.5,7.5,7.5h292.495c4.148,0,7.5-3.353,7.5-7.5V331.715
		c5.584-1.151,10.618-3.657,15.001-7V452.5C418.809,464.901,408.715,475,396.308,475z M388.808,332.505V445H111.313V332.505H388.808
		z M103.691,25h292.5c12.406,0,22.499,10.083,22.499,22.49v247.515c0,12.407-10.093,22.5-22.499,22.5h-292.5
		c-12.014,0-21.761-9.482-22.378-21.344V220c0-0.204-0.107-0.382-0.122-0.586V47.49C81.191,35.083,91.289,25,103.691,25z"/>
	<path d="M249.941,407.393c12.366,0,22.444-10.072,22.444-22.438c0-12.371-10.078-22.444-22.444-22.444
		s-22.439,10.073-22.439,22.444C227.502,397.32,237.575,407.393,249.941,407.393z M249.941,377.511c4.101,0,7.444,3.342,7.444,7.443
		s-3.343,7.439-7.444,7.439c-4.102,0-7.439-3.338-7.439-7.439S245.839,377.511,249.941,377.511z"/>
	<path d="M103.813,160h30c4.147,0,7.5-3.363,7.5-7.5v-45c0-4.143-3.353-7.5-7.5-7.5h-30c-4.147,0-7.5,3.357-7.5,7.5v45
		C96.313,156.637,99.666,160,103.813,160z M111.313,115h15v30h-15V115z"/>
	<path d="M156.298,160h30c4.147,0,7.5-3.363,7.5-7.5v-45c0-4.143-3.353-7.5-7.5-7.5h-30c-4.147,0-7.5,3.357-7.5,7.5v45
		C148.798,156.637,152.15,160,156.298,160z M163.798,115h15v30h-15V115z"/>
	<path d="M208.798,160h30c4.147,0,7.5-3.363,7.5-7.5v-45c0-4.143-3.353-7.5-7.5-7.5h-30c-4.147,0-7.5,3.357-7.5,7.5v45
		C201.298,156.637,204.65,160,208.798,160z M216.298,115h15v30h-15V115z"/>
	<path d="M253.777,107.5v45c0,4.138,3.353,7.5,7.5,7.5h30c4.147,0,7.5-3.363,7.5-7.5v-45c0-4.143-3.353-7.5-7.5-7.5h-30
		C257.13,100,253.777,103.357,253.777,107.5z M268.777,115h15v30h-15V115z"/>
	<path d="M313.777,160h30c4.147,0,7.5-3.363,7.5-7.5v-45c0-4.143-3.353-7.5-7.5-7.5h-30c-4.147,0-7.499,3.357-7.499,7.5v45
		C306.278,156.637,309.63,160,313.777,160z M321.277,115h15v30h-15V115z"/>
	<path d="M366.267,160h30.001c4.147,0,7.5-3.363,7.5-7.5v-45c0-4.143-3.353-7.5-7.5-7.5h-30.001c-4.146,0-7.499,3.357-7.499,7.5v45
		C358.768,156.637,362.12,160,366.267,160z M373.768,115h15v30h-15V115z"/>
	<path d="M163.875,242.49h179.842c4.146,0,7.5-3.358,7.5-7.5v-45c0-4.137-3.354-7.5-7.5-7.5H163.875c-4.147,0-7.5,3.363-7.5,7.5v45
		C156.375,239.132,159.727,242.49,163.875,242.49L163.875,242.49z M216.374,227.49v-7.5h119.843v7.5H216.374z M336.217,204.99
		H216.374v-7.5h119.843V204.99z M171.374,197.49h30v30h-30V197.49z"/>
	<path d="M343.809,265.005H163.813c-4.147,0-7.5,3.353-7.5,7.5s3.353,7.5,7.5,7.5h179.996c4.147,0,7.499-3.353,7.499-7.5
		S347.956,265.005,343.809,265.005z"/>
	<path d="M298.809,287.53h-89.996c-4.147,0-7.5,3.348-7.5,7.5c0,4.147,3.353,7.501,7.5,7.501h89.996
		c4.147,0,7.499-3.354,7.499-7.501C306.308,290.878,302.956,287.53,298.809,287.53z"/>
	<path d="M249.941,77.49c12.407,0,22.5-10.094,22.5-22.5c0-12.407-10.094-22.5-22.5-22.5c-12.401,0-22.5,10.093-22.5,22.5
		C227.441,67.396,237.54,77.49,249.941,77.49z M249.941,47.49c4.143,0,7.5,3.368,7.5,7.5s-3.357,7.5-7.5,7.5
		c-4.137,0-7.5-3.368-7.5-7.5S245.804,47.49,249.941,47.49z"/>
</g>
</svg>
