<?xml version="1.0" encoding="utf-8"?>
<!-- Generator: Adobe Illustrator 16.0.0, SVG Export Plug-In . SVG Version: 6.00 Build 0)  -->
<!DOCTYPE svg PUBLIC "-//W3C//DTD SVG 1.1//EN" "http://www.w3.org/Graphics/SVG/1.1/DTD/svg11.dtd">
<svg version="1.1" id="Capa_1" xmlns="http://www.w3.org/2000/svg" xmlns:xlink="http://www.w3.org/1999/xlink" x="0px" y="0px"
	 width="225px" height="225px" viewBox="0 0 225 225" enable-background="new 0 0 225 225" xml:space="preserve">
<g>
	<g>
		<path d="M190.417,47.052h-20.569l2.967-4.256c1.609,0.745,3.362,1.133,5.138,1.139c6.884,0,12.466-5.583,12.466-12.467
			c0-6.885-5.582-12.468-12.466-12.468c-6.886,0-12.468,5.582-12.468,12.468c0.008,2.665,0.877,5.257,2.479,7.387l-5.713,8.197
			H34.583C25.98,47.061,19.011,54.031,19,62.633v102.852c0.011,8.604,6.98,15.574,15.583,15.584H84.45v6.233H62.633
			c-0.826,0-1.619,0.327-2.204,0.913c-0.583,0.583-0.913,1.376-0.913,2.204v12.466c0,0.827,0.328,1.62,0.913,2.206
			c0.583,0.583,1.378,0.909,2.204,0.909h99.735c0.825,0.004,1.618-0.326,2.204-0.909c0.584-0.586,0.91-1.379,0.91-2.206v-12.466
			c0.002-0.828-0.326-1.621-0.91-2.204c-0.586-0.583-1.379-0.913-2.204-0.913h-21.817v-6.233h49.866
			c8.603-0.01,15.573-6.979,15.583-15.584V62.633C205.99,54.031,199.02,47.061,190.417,47.052z M177.951,25.233
			c3.441,0,6.232,2.791,6.232,6.234c0,3.442-2.791,6.232-6.232,6.232c-3.443,0-6.234-2.79-6.234-6.232
			C171.721,28.026,174.509,25.237,177.951,25.233z M152.199,93.985l22.635-31.118v74.568h-43.633v-12.688
			c7.104-0.813,13.501-4.675,17.531-10.58C152.764,108.262,154.027,100.897,152.199,93.985z M159.251,193.534v6.231H65.75v-6.231
			H159.251z M90.683,187.302v-6.233h43.633v6.233H90.683z M199.77,165.484c-0.008,5.16-4.188,9.345-9.353,9.35H34.583
			c-5.16-0.005-9.346-4.188-9.351-9.35v-9.35h174.536v9.35H199.77z M199.77,149.9H25.232V62.633c0.005-5.161,4.19-9.343,9.351-9.348
			h123.323l-24.686,35.42c-4.406-2.047-9.602-1.29-13.238,1.931L99.229,76.267c0.52-1.369,0.793-2.818,0.803-4.283
			c0-6.883-5.581-12.466-12.464-12.466c-6.888,0-12.469,5.583-12.469,12.466c0.014,1.465,0.285,2.915,0.807,4.283L55.147,90.636
			c-4.817-4.17-11.987-4.103-16.728,0.161c-4.737,4.264-5.559,11.39-1.917,16.62s10.608,6.935,16.251,3.968
			c5.643-2.964,8.196-9.665,5.957-15.632l20.756-14.37c4.625,4.091,11.573,4.091,16.198,0l20.756,14.37
			c-0.52,1.367-0.793,2.816-0.806,4.281c0,6.886,5.581,12.467,12.468,12.467c6.885,0,12.468-5.581,12.468-12.467
			c-0.01-2.665-0.88-5.256-2.481-7.386l27.435-39.363h8.593l-27.773,38.183c-0.573,0.808-0.721,1.842-0.393,2.776l-0.053,0.017
			c3.145,9.655-1.998,20.056-11.58,23.419c-9.579,3.363-20.095-1.537-23.677-11.038c-0.047-0.095-0.1-0.188-0.156-0.278
			c-0.049-0.099-0.101-0.192-0.16-0.283c-0.094-0.151-0.198-0.294-0.316-0.426c-0.065-0.072-0.14-0.134-0.21-0.198
			c-0.13-0.129-0.27-0.24-0.418-0.343l-0.021-0.016L89.343,91.24c-1.069-0.741-2.482-0.741-3.552-0.002L65.658,105.17
			c-0.51,0.371-0.892,0.894-1.091,1.492l-0.054-0.021c-2.749,7.266-9.697,12.077-17.464,12.091c-0.826,0-1.621,0.328-2.204,0.914
			c-0.585,0.586-0.913,1.377-0.913,2.205v18.698c0,0.828,0.326,1.621,0.913,2.206c0.583,0.583,1.376,0.912,2.204,0.912H177.95
			c0.825,0,1.618-0.328,2.204-0.912c0.585-0.585,0.912-1.378,0.912-2.206V53.285h9.35c5.163,0.005,9.345,4.187,9.352,9.348V149.9
			H199.77z M134.316,100.034c0,3.442-2.793,6.233-6.233,6.233c-3.442,0-6.233-2.791-6.233-6.233
			c0.004-3.439,2.793-6.229,6.233-6.233C131.523,93.801,134.316,96.592,134.316,100.034z M93.801,71.983
			c0,3.444-2.792,6.234-6.233,6.234c-3.442-0.003-6.231-2.791-6.234-6.234c0-3.441,2.79-6.233,6.234-6.233
			C91.009,65.75,93.801,68.542,93.801,71.983z M53.282,100.034c0,3.442-2.789,6.233-6.232,6.233c-3.443,0-6.234-2.791-6.234-6.233
			c0-3.442,2.791-6.233,6.234-6.233C50.49,93.806,53.278,96.595,53.282,100.034z M124.968,124.725v12.711H90.683V99.752
			l14.578,10.103C108.741,117.945,116.23,123.6,124.968,124.725z M84.45,99.75v37.686H50.167v-12.711
			c8.746-1.127,16.244-6.791,19.718-14.896L84.45,99.75z"/>
	</g>
</g>
</svg>
