<svg xmlns="http://www.w3.org/2000/svg" viewBox="0 0 403.78 572.02"><defs><style>.cls-1{fill:#fff;}.cls-2{fill:#ff9e3a;}</style></defs><g id="Layer_2" data-name="Layer 2"><g id="Icons"><circle class="cls-1" cx="201.89" cy="201.89" r="134.59"/><path class="cls-2" d="M201.89,0C90.38,0,0,90.38,0,201.89,0,403.78,201.89,572,201.89,572S403.78,403.78,403.78,201.89C403.78,90.38,313.4,0,201.89,0Zm0,336.48A134.59,134.59,0,1,1,336.48,201.89,134.59,134.59,0,0,1,201.89,336.48Z"/></g><g id="Layer_7" data-name="Layer 7"><path class="cls-2" d="M134.51,140.87c.55-5.35,5.46-10.51,11.83-12.26.28-.07.71,0,.82-.42h7.48a9.37,9.37,0,0,0,3.14.57,53.07,53.07,0,0,1,20.32,7c7.46,4.49,13.86,10.22,20,16.27,3,3,3.06,6.25,0,9.27-3.53,3.52-7.07,7-10.66,10.5-.78.76-.85,1.16,0,2q9.66,9.47,19.21,19c.78.79,1.18.82,2,0q11.69-11.81,23.48-23.52c.87-.85.82-1.25,0-2.09-10.59-10.54-21.78-20.34-34.52-28.26-4-2.51-3.92-8,.13-10.12.48-.25,1-.44,1.51-.66h3.46c1.49.67,3.12.56,4.69.83,16.39,2.81,31.54,8.5,44.61,19.07.65.53,1,.63,1.62-.06a25.54,25.54,0,0,1,2.44-2.44,5.74,5.74,0,0,1,8.11,8.12,24.33,24.33,0,0,1-2.43,2.44c-.69.59-.6,1-.07,1.62q1.67,2,3.16,4.1c8.26,11.76,13.09,24.9,15.64,39,.37,2,.35,4,1.11,5.95v4.32c-.08.05-.2.09-.22.16a5.66,5.66,0,0,1-5.13,4.15c-2.72.21-4.48-1.27-5.82-3.46s-2.78-4.47-4.26-6.65a193.11,193.11,0,0,0-14.59-18.67c-2.36-2.7-2.16-6.2.31-8.34s6-1.86,8.43.85c.63.7,1.3,1.37,2,2.06,0,.14.1.27.23.16s0-.23-.1-.3a1.43,1.43,0,0,0-.07-.28A62.15,62.15,0,0,0,229,147.41a1.46,1.46,0,0,0-1.19-.12l.64.57a201.09,201.09,0,0,1,15.65,15.25c3.27,3.6,3.57,7.17-.15,10.78-8.53,8.28-16.85,16.79-25.25,25.21l-48,48.05a1.55,1.55,0,0,0-.55,1.95c2.78,7.26,1.74,14-3.39,19.81-2.19,2.52-4.12,5.41-7.46,6.68h-2.59a15.77,15.77,0,0,1-4.74-3.77q-7.08-7.23-14.19-14.4a14.62,14.62,0,0,1-3.53-4.58V250c1.45-2.81,3.78-4.9,6-7a18,18,0,0,1,20.57-3.58c.93.41,1.36.09,1.94-.49q18-18,36-36c.72-.72.71-1.06,0-1.76q-9.8-9.63-19.51-19.35c-.66-.66-1-.68-1.65,0-3.41,3.45-6.88,6.83-10.32,10.24s-6.4,3.31-9.8-.08c-1.93-1.93-3.88-3.85-5.79-5.81A59.1,59.1,0,0,1,135,153.33,62.13,62.13,0,0,1,134.51,140.87Zm11.32,5.66a39,39,0,0,0,.87,7.19,48.87,48.87,0,0,0,15,26.1c.61.58.91.55,1.47,0,2-2.09,4.12-4.16,6.25-6.16.7-.67.66-1,0-1.68-2.36-2.25-4.66-4.56-7-6.86a5.73,5.73,0,0,1-1.83-5.6c1.07-4.57,6.29-6,9.79-2.72,2.51,2.38,4.92,4.84,7.35,7.3.51.51.82.52,1.34,0q3.27-3.33,6.64-6.58c.57-.55.62-.84,0-1.42-1.84-1.77-3.76-3.42-5.73-5-8.08-6.56-17.05-10.79-27.65-11.34C147.2,139.47,145.2,141.39,145.83,146.53Zm12.32,114.71a7.15,7.15,0,0,0,0-9.87,6.89,6.89,0,0,0-9.45-.65c-.52.42-.81.67-.17,1.29C151.76,255.06,155,258.16,158.15,261.24Z"/><path class="cls-2" d="M256,275.59c-4.78-3.31-8.94-7.17-11-12.78a17.29,17.29,0,0,1,.56-13.55,1.63,1.63,0,0,0-.41-2.2q-12.47-12.27-24.84-24.6c-2.79-2.78-2.69-6.66.16-8.92a5.6,5.6,0,0,1,6.92-.11,13.66,13.66,0,0,1,1.5,1.34q12.36,12.25,24.71,24.52a1.42,1.42,0,0,0,1.83.48c7.74-3.18,14.6-1.57,20.65,4,1.26,1.17,2.42,2.45,3.66,3.65a9.72,9.72,0,0,1,1.89,3.1v2.59a15.18,15.18,0,0,1-3.67,4.64c-5.05,5-10.1,9.91-15.1,14.9a11.13,11.13,0,0,1-4.26,2.92Zm-.56-18.12a6.87,6.87,0,0,0,1.46,3.47c.4.53.68.78,1.29.16,2.93-3,5.9-5.87,8.88-8.77.51-.5.53-.78-.06-1.2a6.61,6.61,0,0,0-7.17-.75A7.08,7.08,0,0,0,255.42,257.47Z"/></g></g></svg>