<svg xmlns="http://www.w3.org/2000/svg" viewBox="0 0 403.78 572.02"><defs><style>.cls-1{fill:#fff;}.cls-2{fill:#ff9e3a;}.cls-3{fill:#646464;}</style></defs><g id="Layer_2" data-name="Layer 2"><g id="Icons"><circle class="cls-1" cx="201.89" cy="201.89" r="134.59"/><path class="cls-2" d="M201.89,0C90.38,0,0,90.38,0,201.89,0,403.78,201.89,572,201.89,572S403.78,403.78,403.78,201.89C403.78,90.38,313.4,0,201.89,0Zm0,336.48A134.59,134.59,0,1,1,336.48,201.89,134.59,134.59,0,0,1,201.89,336.48Z"/></g><g id="Layer_7" data-name="Layer 7"><path class="cls-3" d="M176.19,189.15h0Z"/><path class="cls-2" d="M148,223.75a3.36,3.36,0,0,1-.49,4.21c-6.58,8.38-7.79,17.64-3.07,27.17s12.86,14.41,23.46,14.05,18.31-5.91,22.6-15.74a2.82,2.82,0,0,1,3.09-2q8.92.14,17.86,0a2.64,2.64,0,0,1,2.92,2c4.13,10.22,14.5,16.73,25.07,15.87a25.3,25.3,0,0,0,23.12-20c1.82-8.53-.37-16.1-6.19-22.56a2.5,2.5,0,0,1-.49-3.28q11.27-23.47,22.43-47c1.1-2.32,1.09-2.33-1.5-2.34h-6.33c-2.26-.21-5.5,1.05-7.54-.49s-2.58-4.52-3.78-6.88c-.73-1.44-1.48-2.87-2.1-4.35-.5-1.18-1-1.46-2.18-.71-1.58,1-3.29,1.87-4.87,2.9a2.21,2.21,0,0,1-3-.21c-3.69-2.9-7.47-5.68-11.17-8.55a3.69,3.69,0,0,0-2.9-.85c-4,.5-8.07.87-12.1,1.39a2.5,2.5,0,0,1-2.76-1.31c-1.76-2.78-3.7-5.44-5.47-8.22-.76-1.18-1.57-1.88-3.06-1.56-.61.13-1.28,0-1.88.13-4.12,1.07-7.36-.42-10.5-3.06s-6.56-4.77-9.8-7.23a2.3,2.3,0,0,0-3-.16c-5.79,3.42-11.62,6.76-17.43,10.14-2.35,1.36-3.51,3.77-5,5.83-1.08,1.45-2,1.83-3.61.91s-3.23-1.37-4.77-2.19-1.9-.07-2.38,1.14c-2.77,7-5.68,13.86-8.35,20.86-.76,2-1.79,2.6-3.85,2.52-4.13-.16-8.26,0-12.4-.07-1.86,0-2.1.45-1.3,2.12C132.84,192,140.35,207.91,148,223.75ZM225.37,244a12.41,12.41,0,1,1,12.51,12.31A12.39,12.39,0,0,1,225.37,244Zm-70.7-.09a12.42,12.42,0,0,1,24.83,0,12.47,12.47,0,0,1-12.44,12.42A12.34,12.34,0,0,1,154.67,243.93Zm-3.91-54.78H253.1c2.35,0,2.39.06,1.4,2.15-4.09,8.6-8.2,17.19-12.26,25.8a2.18,2.18,0,0,1-2.49,1.58,25.12,25.12,0,0,0-25.45,15.86,2.53,2.53,0,0,1-2.75,1.9q-8.94-.12-17.86,0a2.91,2.91,0,0,1-3.26-2.11,25,25,0,0,0-26.21-15.54,2.23,2.23,0,0,1-2.73-1.5c-4-8.63-8.16-17.21-12.24-25.8C148.14,189.17,148.15,189.15,150.76,189.15Z"/></g></g></svg>