<?xml version="1.0" encoding="utf-8"?>
<!-- Generator: Adobe Illustrator 16.0.0, SVG Export Plug-In . SVG Version: 6.00 Build 0)  -->
<!DOCTYPE svg PUBLIC "-//W3C//DTD SVG 1.1//EN" "http://www.w3.org/Graphics/SVG/1.1/DTD/svg11.dtd">
<svg version="1.1" id="Capa_1" xmlns="http://www.w3.org/2000/svg" xmlns:xlink="http://www.w3.org/1999/xlink" x="0px" y="0px"
	 width="500px" height="500px" viewBox="0 0 500 500" enable-background="new 0 0 500 500" xml:space="preserve">
<g>
	<path d="M339.492,343.563c0-4.494-3.643-8.137-8.137-8.137h-24.406c-4.494,0-8.131,3.643-8.131,8.137s3.637,8.137,8.131,8.137
		h24.406C335.85,351.699,339.492,348.057,339.492,343.563z"/>
	<path d="M5.938,132.042v195.252c0.043,23.789,17.222,44.093,40.677,48.077v73.95c0,13.482,10.927,24.411,24.408,24.411h20.663
		c9.22,10.349,22.421,16.269,36.285,16.269s27.063-5.92,36.282-16.269h212.172c9.223,10.349,22.42,16.269,36.287,16.269
		c13.859,0,27.061-5.92,36.277-16.269h20.666c13.482,0,24.406-10.929,24.406-24.411v-62.639
		c-0.061-16.585-4.617-32.833-13.166-47.038c-0.041-0.076-0.01-0.076-0.107-0.245c-0.096-0.173-0.229-0.32-0.326-0.488
		c-1.391-2.272-2.863-4.474-4.438-6.624c-0.5-0.683-1.02-1.345-1.529-2.002c-1.385-1.773-2.791-3.521-4.299-5.197
		c-1.08-1.218-2.242-2.359-3.379-3.48c-1.125-1.126-2.221-2.287-3.408-3.353c-2.486-2.262-5.105-4.382-7.836-6.348
		c-2.732-1.927-5.574-3.705-8.5-5.33c-0.469-0.29-0.947-0.561-1.416-0.811c-6.135-3.312-12.625-5.904-19.346-7.739l-0.361-0.102
		c-7.766-2.094-15.775-3.164-23.814-3.175h-18.771l-46.457-43.152l-46.375-43.044C277,195.957,259.197,188.967,240.71,188.99
		H118.204c-17.099,0.022-32.364,10.717-38.233,26.782l-17.581,48.403l-0.886,2.445c-4.665,12.876-4.853,26.953-0.542,39.956
		l0.746,2.257l-3.174,3.185c-7.65,7.612-11.945,17.966-11.917,28.762v17.899c-14.325-3.699-24.352-16.595-24.408-31.386V132.042
		c0-17.976,14.572-32.54,32.543-32.54h16.668c4.175,41.573,39.164,73.227,80.949,73.227c41.787,0,76.775-31.653,80.951-73.227
		h32.952c0.215-0.033,0.424-0.076,0.633-0.133c3.994,28.041,27.992,48.893,56.32,48.944h105.754
		c13.482,0,24.412-10.93,24.412-24.406c0-13.481-10.93-24.405-24.412-24.405h-48.811V83.229h48.811
		c13.482,0,24.412-10.927,24.412-24.406c0-13.481-10.93-24.405-24.412-24.405H323.223c-28.328,0.046-52.326,20.897-56.32,48.938
		c-0.209-0.056-0.418-0.097-0.633-0.127h-32.937c-4.173-41.579-39.163-73.229-80.948-73.229c-41.788,0-76.775,31.65-80.949,73.229
		H54.75C27.801,83.254,5.966,105.094,5.938,132.042z M380.166,115.771h48.811c4.494,0,8.143,3.638,8.143,8.137
		c0,4.491-3.648,8.135-8.143,8.135h-48.811V115.771z M380.166,50.688h48.811c4.494,0,8.143,3.638,8.143,8.134
		c0,4.494-3.648,8.138-8.143,8.138h-48.811V50.688z M282.543,91.365c0-22.47,18.211-40.677,40.68-40.677h8.133v40.677
		c0,4.494,3.643,8.137,8.137,8.137c4.488,0,8.137-3.643,8.137-8.137V50.688h16.268v81.354h-16.268v-8.135
		c0-4.499-3.648-8.137-8.137-8.137c-4.494,0-8.137,3.638-8.137,8.137v8.135h-8.133C300.754,132.042,282.543,113.829,282.543,91.365z
		 M87.292,91.365c0-35.946,29.139-65.085,65.085-65.085c35.946,0,65.083,29.139,65.083,65.085c0,35.94-29.136,65.085-65.083,65.085
		C116.451,156.404,87.333,127.291,87.292,91.365z M95.908,283.735c1.276,0.643,2.114,1.916,2.206,3.338
		c0.086,1.427-0.586,2.792-1.768,3.592l-20.34,9.177c-0.356-1.238-0.647-2.481-0.902-3.729c-0.147-0.775-0.372-1.529-0.489-2.304
		c-0.341-2.313-0.5-4.642-0.479-6.975c0-0.326,0.082-0.652,0.082-0.979c0.056-2.013,0.252-4.021,0.576-6.007
		c0.147-0.877,0.402-1.687,0.596-2.502c0.267-1.146,0.56-2.277,0.919-3.398L95.908,283.735z M184.919,311.021h16.269v7.556
		c-0.046,32.645,10.857,64.356,30.973,90.071h-29.704c-8.239-18.72-23.211-33.653-41.945-41.841V205.261h16.271v97.628
		C176.782,307.382,180.425,311.021,184.919,311.021z M323.223,294.751H193.053v-89.49h47.657c14.381-0.02,28.229,5.419,38.75,15.22
		l43.762,40.628v1.101V294.751z M357.697,294.751h-18.205v-15.173L357.697,294.751z M372.035,370.913
		c-15.012,8.651-26.861,21.873-33.842,37.734h-84.605c-23.236-24.222-36.182-56.505-36.129-90.071v-7.556h154.576V370.913z
		 M457.627,335.426h-23.004c-3.984,0.021-7.408-2.858-8.061-6.802l-2.375-14.262l0.215,0.062c0.764,0.255,1.514,0.55,2.271,0.81
		c3.063,1.029,6.053,2.247,8.957,3.653c0.398,0.204,0.805,0.448,1.209,0.652c3.184,1.631,6.25,3.485,9.176,5.549l0.07,0.046
		c0.129,0.081,0.234,0.188,0.348,0.27c2.119,1.534,4.146,3.185,6.094,4.938c1.146,1.02,2.221,2.14,3.301,3.256
		C456.449,334.198,457.051,334.804,457.627,335.426z M477.793,393.5c-20.094-28.446-56.346-40.521-89.484-29.816v-52.663h13.818
		c1.721,0,3.412,0.274,5.115,0.392l3.311,19.887c1.938,11.79,12.133,20.432,24.07,20.4h34.545
		c5.654,10.792,8.609,22.796,8.625,34.983V393.5z M380.166,441.19c0-17.976,14.572-32.543,32.547-32.543
		c17.967,0,32.539,14.567,32.539,32.543c0,17.97-14.572,32.542-32.539,32.542C394.738,473.732,380.166,459.16,380.166,441.19z
		 M95.429,441.19c0-17.976,14.569-32.543,32.542-32.543c17.97,0,32.54,14.567,32.54,32.543c0,17.97-14.57,32.542-32.54,32.542
		C109.998,473.732,95.429,459.16,95.429,441.19z M62.886,443.626c-0.545-34.703,25.654-64.016,60.201-67.343
		c29.256-2.089,56.313,15.576,66.178,43.196c1.146,3.256,4.221,5.432,7.668,5.432h146.803c3.449,0,6.521-2.176,7.674-5.432
		c9.854-27.631,36.918-45.301,66.186-43.201c34.549,3.332,60.754,32.64,60.197,67.348v5.695c0,4.494-3.643,8.143-8.137,8.143
		h-10.984c7.234-20.248,0.377-42.84-16.885-55.644c-17.273-12.804-40.885-12.804-58.15,0
		c-17.268,12.804-24.127,35.396-16.891,55.644H173.934c7.235-20.248,0.377-42.84-16.891-55.644
		c-17.267-12.804-40.88-12.804-58.147,0c-17.27,12.804-24.123,35.396-16.891,55.644H71.023c-4.494,0-8.137-3.648-8.137-8.143
		V443.626z M62.886,340.771c0.021-6.455,2.578-12.641,7.125-17.227l5.699-5.687l27.738-12.533c0.24-0.103,0.469-0.214,0.69-0.347
		c6.512-3.709,10.442-10.71,10.239-18.2c-0.209-7.489-4.524-14.251-11.227-17.599l-21.4-10.694l13.515-37.158
		c3.523-9.635,12.682-16.045,22.938-16.065h26.036v156.344c-31.06-6.664-63.098,5.89-81.354,31.896V340.771z"/>
	<path d="M180.817,83.229h-6.346l6.183-30.917c0.67-3.379-0.856-6.823-3.819-8.583c-2.968-1.766-6.723-1.465-9.372,0.741
		l-48.812,40.68c-2.604,2.201-3.559,5.788-2.395,8.992c1.162,3.205,4.204,5.343,7.609,5.36h8.135v32.54
		c0,3.289,1.984,6.254,5.023,7.513c3.037,1.259,6.537,0.563,8.866-1.763l40.677-40.68c2.326-2.323,3.024-5.823,1.765-8.86
		C187.072,85.21,184.104,83.229,180.817,83.229z M143.246,121.472V96.317c0-3.24-1.61-6.271-4.3-8.075l27.692-25.621l-4.318,21.578
		c-0.94,4.68,1.653,9.344,6.117,11.021L143.246,121.472z"/>
</g>
</svg>
