<?xml version="1.0" encoding="utf-8"?>
<!-- Generator: Adobe Illustrator 16.0.0, SVG Export Plug-In . SVG Version: 6.00 Build 0)  -->
<!DOCTYPE svg PUBLIC "-//W3C//DTD SVG 1.1//EN" "http://www.w3.org/Graphics/SVG/1.1/DTD/svg11.dtd">
<svg version="1.1" id="Capa_1" xmlns="http://www.w3.org/2000/svg" xmlns:xlink="http://www.w3.org/1999/xlink" x="0px" y="0px"
	 width="225px" height="225px" viewBox="0 0 225 225" enable-background="new 0 0 225 225" xml:space="preserve">
<path d="M164.496,19H60.506C54.824,19,50.2,23.621,50.2,29.302v49.354c0,1.54,1.248,2.789,2.789,2.789
	c1.539,0,2.788-1.248,2.788-2.789V29.302c0-2.606,2.121-4.726,4.731-4.726h103.99c2.605,0,4.727,2.12,4.727,4.726v67.076
	c0,2.607-2.121,4.729-4.727,4.729h-34.027c-1.974,0-3.836,0.77-5.242,2.172l-11.004,11.002c-0.715,0.718-1.883,0.718-2.6-0.001
	l-4.354-4.351l-0.623-23.222c-0.017-0.538-0.082-1.065-0.189-1.572c1.342-0.416,2.573-1.154,3.594-2.177l27.791-27.789
	c3.424-3.425,3.424-9,0-12.424c-3.426-3.426-9-3.426-12.426,0l-5.728,5.727c-1.089,1.089-1.089,2.853,0,3.942s2.855,1.089,3.944,0
	l5.727-5.727c1.252-1.252,3.289-1.252,4.539-0.001c1.252,1.252,1.252,3.289,0,4.542l-27.79,27.787
	c-0.604,0.607-1.411,0.941-2.268,0.941c-0.416,0-0.817-0.08-1.192-0.23c-0.22-0.137-0.449-0.262-0.682-0.378
	c-0.14-0.101-0.274-0.21-0.396-0.333L88.843,66.287c-0.607-0.608-0.939-1.412-0.939-2.271c0-0.857,0.333-1.662,0.939-2.27
	c1.252-1.25,3.287-1.25,4.539,0l8.488,8.49c0.523,0.522,1.233,0.815,1.972,0.815c0.738,0,1.448-0.293,1.971-0.815l9.61-9.612
	c1.089-1.089,1.089-2.853,0-3.942c-1.088-1.087-2.854-1.087-3.941,0l-7.643,7.641l-6.517-6.517c-3.426-3.426-8.999-3.426-12.426,0
	c-1.656,1.658-2.571,3.866-2.571,6.21c0,2.348,0.915,4.554,2.571,6.214l9.262,9.261c-2.642,1.433-4.438,4.233-4.438,7.445v14.171
	H60.506c-2.609,0-4.73-2.121-4.73-4.729v-5.27c0-1.541-1.249-2.789-2.788-2.789c-1.541,0-2.789,1.248-2.789,2.789v5.27
	c0,5.681,4.623,10.305,10.307,10.305H89.72v20.83l-2.873,2.945c-3.887,3.988-6.028,9.253-6.028,14.821v12.175
	c0,1.539,1.247,2.788,2.787,2.788c1.541,0,2.788-1.249,2.788-2.788v-12.175c0-3.535,1.171-6.9,3.326-9.645v14.592
	c0,1.539,1.248,2.786,2.788,2.786c1.54,0,2.788-1.247,2.788-2.786v-46.307c0-0.01,0-0.018,0-0.026s0-0.016,0-0.024V86.935
	c0-1.594,1.295-2.891,2.89-2.891c0.388,0,0.756,0.077,1.092,0.212c0.196,0.119,0.395,0.227,0.597,0.331
	c0.708,0.505,1.174,1.326,1.2,2.27l1.343,49.997c0.042,1.539,1.326,2.764,2.862,2.713c1.539-0.043,2.754-1.324,2.711-2.863
	l-0.003-0.1c0-0.023,0.005-0.049,0.005-0.074v-12.573c0-1.964,1.597-3.562,3.561-3.562c1.963,0,3.559,1.598,3.559,3.562v21.785
	c0,1.541,1.25,2.788,2.789,2.788c1.541,0,2.787-1.247,2.787-2.788v-12.573c0-1.963,1.599-3.561,3.563-3.561
	c1.962,0,3.562,1.598,3.562,3.561v23.528c0,1.541,1.246,2.788,2.786,2.788s2.788-1.247,2.788-2.788v-12.573
	c0-1.963,1.598-3.561,3.561-3.561c1.965,0,3.561,1.598,3.561,3.561v34.272c0,2.734-0.918,5.432-2.592,7.595
	c-2.422,3.134-3.755,7.044-3.755,11.005v6.217c0,1.539,1.247,2.788,2.786,2.788s2.789-1.247,2.789-2.788v-6.217
	c0-2.734,0.92-5.432,2.592-7.596c2.424-3.135,3.758-7.044,3.758-11.004v-34.272c0-5.036-4.1-9.137-9.139-9.137
	c-1.262,0-2.465,0.26-3.559,0.725v-2.543c0-5.036-4.102-9.137-9.138-9.137c-1.264,0-2.468,0.259-3.56,0.724v-0.799
	c0-2.296-0.854-4.395-2.258-6.002l10.73-10.73c0.352-0.351,0.814-0.543,1.305-0.543h34.027c5.68,0,10.303-4.623,10.303-10.305
	V29.302C174.801,23.621,170.178,19,164.496,19z"/>
</svg>
