<?xml version="1.0" encoding="utf-8"?>
<!-- Generator: Adobe Illustrator 16.0.0, SVG Export Plug-In . SVG Version: 6.00 Build 0)  -->
<!DOCTYPE svg PUBLIC "-//W3C//DTD SVG 1.1//EN" "http://www.w3.org/Graphics/SVG/1.1/DTD/svg11.dtd">
<svg version="1.1" id="Capa_1" xmlns="http://www.w3.org/2000/svg" xmlns:xlink="http://www.w3.org/1999/xlink" x="0px" y="0px"
	 width="225px" height="225px" viewBox="0 0 225 225" enable-background="new 0 0 225 225" xml:space="preserve">
<g>
	<path d="M185.904,58.638V48.511c0-1.211-0.508-2.319-1.307-3.115c-0.807-0.808-1.902-1.304-3.115-1.304h-9.09
		c-1.22,0-2.317,0.496-3.125,1.304c-0.801,0.796-1.293,1.904-1.293,3.115v10.126L185.904,58.638L185.904,58.638z M71.397,107.867
		c-1.065-1.077-1.065-2.807,0-3.873c1.067-1.076,2.807-1.076,3.874,0l2.495,2.494l6.926-6.937c1.067-1.066,2.806-1.066,3.872,0
		c1.077,1.077,1.077,2.807,0,3.882l-8.861,8.862c-1.067,1.068-2.806,1.068-3.872,0L71.397,107.867z M174.193,76.258
		c0-1.511,1.225-2.744,2.744-2.744c1.515,0,2.731,1.233,2.731,2.744v57.492c0,1.508-1.218,2.744-2.731,2.744
		c-1.521,0-2.744-1.236-2.744-2.744V76.258z M131.012,168.938h16.855v-11.75h-16.855V168.938z M150.6,174.415
		c-29.774,0-59.562,0-89.336,0c-1.512,0-2.744-1.229-2.744-2.744v-17.226c0-1.514,1.232-2.734,2.744-2.734h19.599V136.1
		c0-1.512,1.222-2.731,2.733-2.731h22.342c1.512,0,2.734,1.221,2.734,2.731v4.864h19.599c1.514,0,2.744,1.231,2.744,2.744v8.003
		H150.6c1.515,0,2.744,1.223,2.744,2.732v17.228C153.344,173.186,152.113,174.415,150.6,174.415L150.6,174.415z M108.67,168.938
		h16.855v-22.485H108.67V168.938z M86.338,168.938h16.855v-25.229v-4.864H86.338V168.938z M63.996,168.938h16.865v-11.75H63.996
		V168.938z M52.441,73.514h110.045V61.37V48.511c0-2.723,1.117-5.195,2.91-6.989c1.789-1.79,4.264-2.908,6.996-2.908h9.09
		c2.725,0,5.199,1.118,6.99,2.908c1.791,1.792,2.909,4.267,2.909,6.989V61.37v12.144h11.882c1.514,0,2.735,1.233,2.735,2.744V183.65
		c0,1.512-1.222,2.732-2.735,2.732h-75.832c-1.515,0-2.734-1.222-2.734-2.732c0-1.512,1.221-2.741,2.734-2.741h73.092V78.991h-9.142
		v19.807c0,1.512-1.235,2.742-2.743,2.742c-1.512,0-2.734-1.23-2.734-2.742v-22.54V64.114h-17.93v12.144v69.635h17.93v-34.681
		c0-1.514,1.224-2.745,2.734-2.745c1.508,0,2.743,1.231,2.743,2.745v37.414c0,0.664-0.177,0.994-0.467,1.556l-11.533,22.715
		c-0.261,0.504-0.673,0.942-1.221,1.222c-1.347,0.685-2.981,0.133-3.667-1.21l-11.576-22.779c-0.268-0.548-0.432-0.857-0.432-1.502
		V78.991H52.441v20.727c0,1.511-1.222,2.744-2.734,2.744c-1.511,0-2.744-1.233-2.744-2.744v-23.46V46.305
		c-2.349-1.469-5-2.213-7.774-2.213c-4.06,0-7.734,1.646-10.406,4.306c-2.661,2.671-4.307,6.347-4.307,10.406v93.571
		c0.146-0.156,0.29-0.311,0.436-0.455c3.654-3.654,8.706-5.912,14.276-5.912c2.227,0,4.38,0.372,6.42,1.045
		c0.455,0.157,0.911,0.33,1.355,0.518v-35.438c0-1.51,1.233-2.743,2.743-2.743c1.513,0,2.734,1.233,2.734,2.743v40.142
		c0,0.567-0.187,1.15-0.56,1.646c-0.9,1.2-2.619,1.438-3.831,0.527c-1.252-0.954-2.671-1.709-4.182-2.209
		c-1.45-0.482-3.023-0.754-4.679-0.754c-4.06,0-7.734,1.646-10.406,4.309c-2.661,2.66-4.307,6.348-4.307,10.405
		c0,4.069,1.646,7.741,4.307,10.403c2.671,2.66,6.346,4.309,10.406,4.309h75.835c1.513,0,2.732,1.23,2.732,2.74
		c0,1.516-1.221,2.735-2.732,2.735H39.189c-5.57,0-10.623-2.257-14.277-5.911C21.258,176.818,19,171.775,19,166.197V58.803
		c0-5.569,2.258-10.623,5.912-14.277c3.655-3.655,8.707-5.911,14.277-5.911c4.317,0,8.561,1.407,12.03,3.975
		c0.735,0.498,1.222,1.334,1.222,2.289V73.514L52.441,73.514z M184.188,151.369h-14.506l7.256,14.277L184.188,151.369z
		 M147.577,90.11c1.512,0,2.731,1.233,2.731,2.744c0,1.513-1.221,2.732-2.731,2.732h-37.074c-1.512,0-2.733-1.22-2.733-2.732
		c0-1.511,1.221-2.744,2.733-2.744H147.577z M132.163,116.262c1.521,0,2.744,1.221,2.744,2.735c0,1.512-1.224,2.744-2.744,2.744
		h-21.66c-1.512,0-2.733-1.232-2.733-2.744c0-1.515,1.222-2.735,2.733-2.735H132.163z M147.577,103.187
		c1.512,0,2.731,1.221,2.731,2.744c0,1.511-1.221,2.733-2.731,2.733h-37.074c-1.512,0-2.733-1.223-2.733-2.733
		c0-1.523,1.221-2.744,2.733-2.744H147.577z M64.296,87.492h31.381c1.512,0,2.733,1.231,2.733,2.743v31.378
		c0,1.515-1.222,2.744-2.733,2.744H64.296c-1.522,0-2.744-1.229-2.744-2.744V90.235C61.552,88.723,62.774,87.492,64.296,87.492z
		 M92.934,92.978H67.029v25.907h25.904L92.934,92.978L92.934,92.978z"/>
</g>
</svg>
