<?xml version="1.0" encoding="utf-8"?>
<!-- Generator: Adobe Illustrator 16.0.0, SVG Export Plug-In . SVG Version: 6.00 Build 0)  -->
<!DOCTYPE svg PUBLIC "-//W3C//DTD SVG 1.1//EN" "http://www.w3.org/Graphics/SVG/1.1/DTD/svg11.dtd">
<svg version="1.1" id="Capa_1" xmlns="http://www.w3.org/2000/svg" xmlns:xlink="http://www.w3.org/1999/xlink" x="0px" y="0px"
	 width="225px" height="225px" viewBox="0 0 225 225" enable-background="new 0 0 225 225" xml:space="preserve">
<g>
	<g>
		<g>
			<g>
				<path d="M85.371,152.972c-0.264-0.076-0.534-0.116-0.806-0.133c4-4.205,6.464-9.882,6.464-16.134v-19.213
					c0-0.177-0.017-0.35-0.041-0.518c0.024-0.347,0.041-0.694,0.041-1.049v-12.159c0-2.017-1.636-3.65-3.653-3.65H62.879
					c-10.317,0-18.708,8.392-18.708,18.708v17.88c0,6.252,2.463,11.929,6.464,16.134c-0.272,0.017-0.542,0.057-0.806,0.133
					C32.571,154.535,19,169.082,19,186.741v15.606c0,2.017,1.635,3.653,3.653,3.653h89.894c2.016,0,3.653-1.637,3.653-3.653v-15.606
					C116.199,169.082,102.629,154.535,85.371,152.972z M51.474,123.457v-4.632c0-6.289,5.117-11.405,11.405-11.405h20.845v8.505
					c0,4.281-3.483,7.766-7.764,7.766H51.474V123.457z M51.474,130.994H75.96c2.837,0,5.495-0.787,7.764-2.16v7.871
					c0,8.89-7.234,16.127-16.124,16.127c-8.892,0-16.126-7.237-16.126-16.127V130.994z M75.55,160.136l-7.95,7.951l-7.951-7.951
					H75.55z M108.894,198.694L108.894,198.694H26.305v-7.304h15.157c2.017,0,3.652-1.637,3.652-3.654
					c0-2.017-1.635-3.653-3.652-3.653H26.438c1.228-12.313,10.886-22.174,23.103-23.728l15.477,15.476
					c0.685,0.685,1.613,1.069,2.583,1.069c0.968,0,1.897-0.385,2.582-1.069l15.477-15.476c13.083,1.663,23.235,12.857,23.235,26.386
					V198.694z"/>
			</g>
		</g>
		<g>
			<g>
				<path d="M175.172,71.854c-0.264-0.074-0.533-0.117-0.807-0.13c4-4.208,6.465-9.885,6.465-16.137V36.375
					c0-0.177-0.018-0.348-0.039-0.518c0.021-0.348,0.039-0.695,0.039-1.049V22.649c0-2.017-1.637-3.65-3.654-3.65H152.68
					c-10.314,0-18.711,8.393-18.711,18.708v17.88c0,6.251,2.465,11.929,6.467,16.137c-0.271,0.013-0.543,0.057-0.807,0.13
					c-17.26,1.563-30.83,16.11-30.83,33.77v15.605c0,2.017,1.637,3.65,3.653,3.65h29.389c2.016,0,3.65-1.634,3.65-3.65
					s-1.635-3.653-3.65-3.653h-25.736v-11.952c0-13.529,10.15-24.723,23.234-26.386l15.479,15.475
					c0.713,0.715,1.646,1.072,2.582,1.072c0.934,0,1.869-0.357,2.58-1.072l15.479-15.475c13.086,1.666,23.238,12.857,23.238,26.386
					v11.956h-26.908c-2.016,0-3.652,1.633-3.652,3.649s1.637,3.65,3.652,3.65h30.559c2.016,0,3.652-1.634,3.652-3.65v-15.605
					C206,87.968,192.43,73.42,175.172,71.854z M157.4,86.966l-7.949-7.945h15.9L157.4,86.966z M173.525,55.587
					c0,8.893-7.232,16.123-16.125,16.123c-8.891,0-16.123-7.23-16.123-16.123v-5.711h24.48c2.842,0,5.498-0.788,7.768-2.157V55.587z
					 M173.525,34.809c0,4.281-3.484,7.765-7.768,7.765h-24.48v-0.234v-4.632c0-6.289,5.115-11.405,11.402-11.405h20.846V34.809
					L173.525,34.809z"/>
			</g>
		</g>
		<g>
			<g>
				<path d="M159.984,118.648c-0.682-0.682-1.623-1.072-2.582-1.072c-0.965,0-1.902,0.391-2.584,1.072
					c-0.682,0.678-1.068,1.619-1.068,2.581s0.387,1.9,1.068,2.581c0.682,0.682,1.619,1.069,2.584,1.069
					c0.959,0,1.9-0.388,2.582-1.069c0.678-0.681,1.07-1.619,1.07-2.581S160.662,119.326,159.984,118.648z"/>
			</g>
		</g>
		<g>
			<g>
				<path d="M116.666,70.108l-15.275-15.275V37.26c0-10.069-8.193-18.261-18.261-18.261H37.262C27.193,18.999,19,27.191,19,37.26
					V69.4c0,10.072,8.193,18.264,18.262,18.264H83.13c7.549,0,14.134-4.532,16.897-11.324h14.055c1.477,0,2.809-0.888,3.373-2.254
					C118.021,72.723,117.709,71.149,116.666,70.108z M97.362,69.036c-1.701,0-3.179,1.176-3.56,2.835
					c-1.149,4.996-5.539,8.489-10.672,8.489H37.262c-6.042,0-10.957-4.916-10.957-10.96V37.26c0-6.041,4.915-10.957,10.957-10.957
					H83.13c6.041,0,10.956,4.916,10.956,10.957v19.083c0,0.968,0.385,1.9,1.07,2.584l10.108,10.109H97.362z"/>
			</g>
		</g>
		<g>
			<g>
				<path d="M187.736,137.333h-45.865c-7.551,0-14.137,4.531-16.898,11.324h-14.056c-1.476,0-2.809,0.892-3.373,2.254
					c-0.566,1.363-0.253,2.939,0.79,3.981l15.276,15.274v17.569c0,10.072,8.193,18.265,18.262,18.265h45.865
					c10.072,0,18.264-8.192,18.264-18.265v-32.14C206,145.528,197.809,137.333,187.736,137.333z M198.697,187.736
					c0,6.045-4.918,10.958-10.961,10.958h-45.865c-6.041,0-10.957-4.913-10.957-10.958v-19.082c0-0.968-0.385-1.896-1.07-2.581
					l-10.109-10.112h7.904c1.701,0,3.176-1.172,3.559-2.832c1.148-4.999,5.537-8.489,10.674-8.489h45.865
					c6.043,0,10.961,4.913,10.961,10.957V187.736z"/>
			</g>
		</g>
		<g>
			<g>
				<path d="M181.221,161.949c-1.426-1.43-3.736-1.43-5.164,0l-9.711,9.708l-4.514-4.516c-1.426-1.426-3.738-1.426-5.166,0
					c-1.426,1.426-1.426,3.74,0,5.166l7.098,7.097c0.715,0.715,1.648,1.072,2.582,1.072c0.936,0,1.871-0.357,2.584-1.072
					l12.291-12.289C182.646,165.689,182.646,163.375,181.221,161.949z"/>
			</g>
		</g>
		<g>
			<g>
				<path d="M76.799,43.204c-0.432-6.262-5.479-11.314-11.742-11.742c-3.551-0.247-6.937,0.952-9.53,3.373
					c-2.558,2.384-4.023,5.761-4.023,9.257c0,2.017,1.635,3.653,3.652,3.653c2.016,0,3.652-1.636,3.652-3.653
					c0-1.5,0.605-2.896,1.703-3.921c1.097-1.022,2.535-1.529,4.042-1.426c2.644,0.184,4.776,2.314,4.958,4.959
					c0.185,2.675-1.569,5.036-4.167,5.617c-2.844,0.635-4.831,3.109-4.831,6.011v1.95c0,2.017,1.636,3.654,3.651,3.654
					c2.017,0,3.654-1.637,3.654-3.654v-1.062C73.479,54.532,77.213,49.199,76.799,43.204z"/>
			</g>
		</g>
		<g>
			<g>
				<path d="M66.751,68.678c-0.679-0.681-1.622-1.072-2.582-1.072c-0.965,0-1.903,0.391-2.585,1.072
					c-0.681,0.678-1.067,1.623-1.067,2.582c0,0.962,0.386,1.904,1.067,2.582c0.682,0.681,1.62,1.072,2.585,1.072
					c0.959,0,1.903-0.391,2.582-1.072c0.679-0.678,1.069-1.62,1.069-2.582C67.82,70.301,67.43,69.356,66.751,68.678z"/>
			</g>
		</g>
		<g>
			<g>
				<path d="M58.652,185.155c-0.678-0.678-1.621-1.072-2.581-1.072c-0.961,0-1.903,0.395-2.583,1.072
					c-0.681,0.678-1.069,1.623-1.069,2.581c0,0.962,0.389,1.904,1.069,2.582c0.68,0.682,1.622,1.072,2.583,1.072
					c0.959,0,1.903-0.391,2.581-1.072c0.682-0.678,1.07-1.62,1.07-2.582C59.723,186.778,59.334,185.833,58.652,185.155z"/>
			</g>
		</g>
	</g>
</g>
</svg>
