<?xml version="1.0" encoding="utf-8"?>
<!-- Generator: Adobe Illustrator 16.0.0, SVG Export Plug-In . SVG Version: 6.00 Build 0)  -->
<!DOCTYPE svg PUBLIC "-//W3C//DTD SVG 1.1//EN" "http://www.w3.org/Graphics/SVG/1.1/DTD/svg11.dtd">
<svg version="1.1" id="_x33_0" xmlns="http://www.w3.org/2000/svg" xmlns:xlink="http://www.w3.org/1999/xlink" x="0px" y="0px"
	 width="512px" height="512px" viewBox="0 0 512 512" enable-background="new 0 0 512 512" xml:space="preserve">
<g>
	<path d="M312,200h168c13.232,0,24-10.768,24-24V64c0-13.232-10.768-24-24-24H312V24c0-8.824-7.176-16-16-16H75.312
		C71.04,8,67.024,9.664,64,12.688L12.688,64C9.664,67.024,8,71.04,8,75.312V488c0,8.824,7.176,16,16,16h272c8.824,0,16-7.176,16-16
		v-64 M64,35.312V64H35.312L64,35.312z M24,488V80h56V24h216v17.472c-9.288,3.312-16,12.112-16,22.528v112
		c0,10.416,6.712,19.216,16,22.528V488H24z M304,184c-4.408,0-8-3.592-8-8V64c0-4.408,3.592-8,8-8h176c4.408,0,8,3.592,8,8v112
		c0,4.408-3.592,8-8,8H304z"/>
	<path d="M461.384,85.92l-10.768-11.84l-82.353,74.872l-18.607-18.608l-11.313,11.313l29.393,29.392L461.384,85.92z"/>
	<path d="M160,56c-57.344,0-104,46.656-104,104s46.656,104,104,104c57.344,0,104-46.656,104-104S217.344,56,160,56z M160,248
		c-25.032,0-47.592-10.552-63.632-27.384c5.944-10.08,14.072-18.56,23.736-24.76c0,0,16.396-13.356,39.896-13.356
		s39.896,13.356,39.896,13.356c9.664,6.2,17.792,14.68,23.736,24.76C207.592,237.448,185.032,248,160,248L160,248z M128,136
		c0-17.648,14.352-32,32-32s32,14.352,32,32s-14.352,32-32,32S128,153.648,128,136z M234.2,207.112
		c-10.784-15.648-26.336-27.456-44.048-33.816C201.024,164.488,208,151.048,208,136c0-26.472-21.528-48-48-48s-48,21.528-48,48
		c0,15.048,6.976,28.488,17.848,37.296c-17.712,6.36-33.264,18.168-44.048,33.816C77.112,193.472,72,177.336,72,160
		c0-48.52,39.48-88,88-88s88,39.48,88,88C248,177.336,242.888,193.472,234.2,207.112L234.2,207.112z"/>
	<path d="M252.25,298.222H63.5c-4.143,0-7.5,3.357-7.5,7.5s3.357,7.5,7.5,7.5h188.75c4.143,0,7.5-3.357,7.5-7.5
		S256.393,298.222,252.25,298.222z"/>
	<path d="M252.25,340.083H63.5c-4.143,0-7.5,3.358-7.5,7.501c0,4.142,3.357,7.5,7.5,7.5h188.75c4.143,0,7.5-3.358,7.5-7.5
		C259.75,343.441,256.393,340.083,252.25,340.083z"/>
	<path d="M252.25,381.945H63.5c-4.143,0-7.5,3.358-7.5,7.5c0,4.143,3.357,7.5,7.5,7.5h188.75c4.143,0,7.5-3.357,7.5-7.5
		C259.75,385.304,256.393,381.945,252.25,381.945z"/>
	<path d="M147.083,423.807H63.5c-4.143,0-7.5,3.358-7.5,7.5s3.357,7.5,7.5,7.5h83.583c4.143,0,7.5-3.358,7.5-7.5
		S151.225,423.807,147.083,423.807L147.083,423.807z"/>
</g>
</svg>
