<?xml version="1.0" encoding="utf-8"?>
<!-- Generator: Adobe Illustrator 16.0.0, SVG Export Plug-In . SVG Version: 6.00 Build 0)  -->
<!DOCTYPE svg PUBLIC "-//W3C//DTD SVG 1.1//EN" "http://www.w3.org/Graphics/SVG/1.1/DTD/svg11.dtd">
<svg version="1.1" id="Capa_1" xmlns="http://www.w3.org/2000/svg" xmlns:xlink="http://www.w3.org/1999/xlink" x="0px" y="0px"
	 width="225px" height="225px" viewBox="0 0 225 225" enable-background="new 0 0 225 225" xml:space="preserve">
<g>
	<path d="M58.208,67.256c1.667,0,3.018,1.354,3.018,3.019h6.032c0-4.989-4.06-9.049-9.05-9.049v-6.032h-6.032v6.032h-9.047v9.049
		c0,4.989,4.061,9.049,9.047,9.049h6.032c1.667,0,3.018,1.351,3.018,3.016v3.016h-9.05c-1.664,0-3.016-1.351-3.016-3.016h-6.031
		c0,4.989,4.061,9.047,9.047,9.047v6.034h6.032v-6.034h9.05v-9.047c0-4.989-4.06-9.049-9.05-9.049h-6.032
		c-1.664,0-3.016-1.351-3.016-3.016v-3.019H58.208z"/>
	<path d="M52.176,163.772h6.032v6.034h-6.032V163.772z"/>
	<path d="M52.176,139.645h6.032v6.033h-6.032V139.645z"/>
	<path d="M52.176,151.709h6.032v6.033h-6.032V151.709z"/>
	<path d="M52.176,127.58h6.032v6.034h-6.032V127.58z"/>
	<path d="M52.176,115.516h6.032v6.034h-6.032V115.516z"/>
	<path d="M168.04,19H55.193v24.129H28.048c-4.988,0-9.05,4.06-9.05,9.049v48.258c0,4.989,4.062,9.049,9.05,9.049h6.032v70.237
		l13.941,22.308c1.558,2.486,4.236,3.971,7.172,3.971h150.809V56.962L168.04,19z M82.338,43.129H73.29v-6.032h90.483v24.129h24.128
		V73.29H91.386V52.178C91.386,47.188,87.326,43.129,82.338,43.129z M169.807,55.193V29.296l25.896,25.897H169.807z M61.226,25.032
		h102.548v6.032H67.258v12.064h-6.032V25.032z M25.03,100.436V52.178c0-1.665,1.353-3.017,3.018-3.017h54.29
		c1.666,0,3.017,1.352,3.017,3.017v62.333c0,0.869-1.291,1.295-1.813,0.604l-8.745-11.663H28.048
		C26.383,103.452,25.03,102.101,25.03,100.436z M70.274,109.484v66.356H40.112v-66.356H70.274z M53.132,198.828l-10.596-16.957
		h25.308l-10.596,16.957C56.357,200.252,54.028,200.252,53.132,198.828z M63.653,199.97l12.652-20.248v-64.206l2.413,3.216
		c1.32,1.767,3.426,2.818,5.632,2.818c3.877,0,7.035-3.158,7.035-7.039V79.323h102.55V61.226h6.032V199.97H63.653z"/>
	<path d="M181.871,126.332l-5.288,5.286c-4.859-2.646-10.281-4.038-15.823-4.038c-18.295,0-33.178,14.886-33.178,33.178
		c0,5.544,1.39,10.966,4.036,15.827l-5.286,5.286l13.313,13.313l5.288-5.286c4.859,2.646,10.281,4.038,15.827,4.038
		c18.291,0,33.176-14.883,33.176-33.178c0-5.544-1.392-10.967-4.038-15.823l5.286-5.29L181.871,126.332z M133.612,160.758
		c0-14.969,12.177-27.144,27.147-27.144c3.929,0,7.783,0.858,11.329,2.5l-4.636,4.635c-2.162-0.729-4.406-1.104-6.693-1.104
		c-11.641,0-21.115,9.475-21.115,21.113c0,2.293,0.376,4.535,1.104,6.695l-4.634,4.636
		C134.473,168.544,133.612,164.688,133.612,160.758z M145.85,162.353c-0.057-0.529-0.171-1.055-0.171-1.595
		c0-8.316,6.765-15.08,15.081-15.08c0.538,0,1.064,0.115,1.594,0.172L145.85,162.353z M134.862,181.871l47.009-47.009l4.784,4.782
		l-47.011,47.012L134.862,181.871z M175.841,160.758c0,8.315-6.767,15.083-15.081,15.083c-0.542,0-1.067-0.114-1.597-0.172
		l16.506-16.51C175.723,159.695,175.841,160.218,175.841,160.758z M187.901,160.758c0,14.972-12.173,27.147-27.142,27.147
		c-3.933,0-7.787-0.862-11.333-2.5l4.636-4.636c2.162,0.729,4.406,1.102,6.697,1.102c11.637,0,21.111-9.472,21.111-21.113
		c0-2.289-0.375-4.532-1.104-6.696l4.634-4.635C187.043,152.975,187.901,156.83,187.901,160.758z"/>
	<path d="M97.418,85.354h6.032v6.031h-6.032V85.354z"/>
	<path d="M109.483,85.354h84.452v6.031h-84.452V85.354z"/>
	<path d="M97.418,97.42h96.518v6.032H97.418V97.42z"/>
	<path d="M97.418,109.484h96.518v6.031H97.418V109.484z"/>
	<path d="M82.338,127.58h39.21v6.034h-39.21V127.58z"/>
	<path d="M82.338,139.645h39.21v6.033h-39.21V139.645z"/>
	<path d="M82.338,151.709h39.21v6.033h-39.21V151.709z"/>
	<path d="M82.338,163.772h39.21v6.034h-39.21V163.772z"/>
	<path d="M82.338,175.841h39.21v6.03h-39.21V175.841z"/>
	<path d="M82.338,187.905h39.21v6.03h-39.21V187.905z"/>
</g>
</svg>
