<?xml version="1.0" encoding="utf-8"?>
<!-- Generator: Adobe Illustrator 16.0.0, SVG Export Plug-In . SVG Version: 6.00 Build 0)  -->
<!DOCTYPE svg PUBLIC "-//W3C//DTD SVG 1.1//EN" "http://www.w3.org/Graphics/SVG/1.1/DTD/svg11.dtd">
<svg version="1.1" id="Capa_1" xmlns="http://www.w3.org/2000/svg" xmlns:xlink="http://www.w3.org/1999/xlink" x="0px" y="0px"
	 width="500px" height="500px" viewBox="0 0 500 500" enable-background="new 0 0 500 500" xml:space="preserve">
<g>
	<path d="M475.463,401.644h15.983c0.025-48.542-39.304-87.911-87.845-87.937c-20.584-0.011-40.517,7.204-56.326,20.385
		l-22.429-22.429c12.905-15.193,20.731-34.045,22.383-53.911h41.312c4.412,17.094,21.853,27.381,38.951,22.964
		c17.1-4.412,27.382-21.853,22.964-38.952c-4.412-17.097-21.853-27.381-38.952-22.966c-11.26,2.909-20.06,11.704-22.963,22.966
		h-41.312c-1.651-19.868-9.478-38.72-22.383-53.917l22.429-22.423c37.352,31.11,92.858,26.048,123.969-11.309
		c31.111-37.355,26.047-92.858-11.306-123.97c-37.357-31.11-92.858-26.048-123.97,11.307c-27.182,32.637-27.182,80.028,0,112.663
		l-22.429,22.426c-15.193-12.903-34.045-20.729-53.916-22.38v-41.309c17.099-4.415,27.381-21.855,22.969-38.955
		s-21.858-27.381-38.955-22.966c-17.097,4.415-27.381,21.855-22.966,38.955c2.909,11.263,11.703,20.057,22.966,22.966v41.309
		c-19.869,1.651-38.72,9.477-53.917,22.383l-22.424-22.429c31.067-37.319,25.998-92.757-11.324-123.822
		C118.657-0.774,63.22,4.296,32.153,41.615C22.859,52.776,16.48,66.066,13.576,80.297l15.667,3.18
		c7.913-38.978,45.925-64.166,84.905-56.255c38.98,7.913,64.165,45.925,56.255,84.905c-7.913,38.98-45.925,64.166-84.905,56.255
		c-33.541-6.807-57.659-36.28-57.692-70.506H11.818c-0.026,48.541,39.304,87.909,87.845,87.934
		c20.584,0.01,40.516-7.205,56.326-20.385l22.426,22.426c-12.903,15.194-20.729,34.048-22.38,53.914h-41.311
		c-4.413-17.097-21.853-27.381-38.952-22.966s-27.381,21.855-22.966,38.955c4.415,17.094,21.855,27.381,38.955,22.964
		c11.263-2.904,20.057-11.698,22.964-22.964h41.311c1.651,19.866,9.477,38.718,22.383,53.917l-22.429,22.423
		c-37.354-31.11-92.858-26.046-123.969,11.312C0.909,382.756,5.972,438.257,43.326,469.367
		c37.357,31.111,92.858,26.052,123.972-11.301c27.18-32.64,27.18-80.029,0-112.663l22.426-22.429
		c15.194,12.9,34.048,20.727,53.914,22.378v41.311c-17.097,4.413-27.381,21.858-22.966,38.958
		c4.415,17.099,21.855,27.381,38.952,22.963c17.099-4.417,27.381-21.853,22.969-38.951c-2.909-11.261-11.703-20.061-22.969-22.97
		v-41.311c19.871-1.651,38.723-9.478,53.922-22.378l22.423,22.429c-31.069,37.316-26.005,92.751,11.312,123.821
		c37.321,31.07,92.757,26.006,123.826-11.316c9.294-11.163,15.678-24.456,18.582-38.687l-15.673-3.18
		c-7.933,38.916-45.917,64.025-84.833,56.092c-11.296-2.308-21.873-7.291-30.841-14.536h45.173c13.242,0,23.983-10.74,23.983-23.978
		c0-13.247-10.741-23.987-23.983-23.987h-23.982v15.988h23.982c4.418,0,7.995,3.582,7.995,7.999c0,4.412-3.577,7.989-7.995,7.989
		h-59.791c-22.082-33.026-13.206-77.701,19.82-99.783s77.7-13.206,99.782,19.825C471.239,373.487,475.463,387.407,475.463,401.644
		L475.463,401.644z M419.504,233.772c8.829,0,15.988,7.156,15.988,15.986s-7.159,15.988-15.988,15.988
		c-8.83,0-15.989-7.158-15.989-15.988C403.525,240.933,410.679,233.782,419.504,233.772z M83.761,265.746
		c-8.83,0-15.989-7.158-15.989-15.988s7.159-15.986,15.989-15.986c8.83,0,15.988,7.156,15.988,15.986
		C99.737,258.583,92.586,265.736,83.761,265.746z M403.515,25.932c39.737,0,71.948,32.208,71.948,71.943
		s-32.211,71.943-71.948,71.943c-39.736,0-71.942-32.209-71.942-71.943C331.618,58.159,363.799,25.976,403.515,25.932z
		 M235.646,81.887c0-8.83,7.156-15.988,15.988-15.988c8.825,0,15.988,7.158,15.988,15.988c0,8.83-7.163,15.988-15.988,15.988
		C242.808,97.865,235.657,90.711,235.646,81.887z M99.75,473.586c-39.734,0-71.943-32.211-71.943-71.942
		c0-39.737,32.208-71.943,71.943-71.943s71.943,32.206,71.943,71.943C171.649,441.354,139.466,473.54,99.75,473.586z
		 M267.623,417.632c0,8.824-7.163,15.988-15.988,15.988c-8.832,0-15.988-7.164-15.988-15.988c0-8.835,7.156-15.988,15.988-15.988
		C260.46,401.653,267.613,408.807,267.623,417.632z M251.635,329.7c-44.151,0-79.942-35.793-79.942-79.942
		c0-44.149,35.791-79.939,79.942-79.939c44.145,0,79.938,35.791,79.938,79.939C331.521,293.887,295.759,329.649,251.635,329.7z"/>
	<path d="M101.602,44.794L61.633,92.757c-2.828,3.391-2.369,8.433,1.024,11.258c1.437,1.197,3.246,1.854,5.115,1.854h49.015
		l-23.687,35.534l13.301,8.871l31.974-47.963c2.448-3.674,1.458-8.639-2.216-11.087c-1.314-0.874-2.856-1.343-4.433-1.343H84.841
		l29.042-34.851L101.602,44.794z"/>
	<path d="M403.489,153.111c21.991,0,39.88-18.648,39.88-41.568c0-20.162-27.87-58.78-33.46-66.315
		c-2.629-3.546-7.638-4.29-11.184-1.661c-0.632,0.469-1.188,1.029-1.661,1.661c-5.584,7.538-33.459,46.154-33.459,66.318
		C363.605,134.463,381.499,153.111,403.489,153.111L403.489,153.111z M394.309,78.068c3.24-5.317,6.501-10.272,9.201-14.236
		c11.434,16.786,23.871,38.519,23.871,47.706c0,14.106-10.715,25.58-23.892,25.58c-13.176,0-23.896-11.474-23.896-25.58
		c0-2.8,1.437-11.67,14.715-33.467V78.068z"/>
	<path d="M427.498,353.678h-23.983v15.988h23.983c4.412,0,7.994,3.577,7.994,7.989c0,4.423-3.582,7.999-7.994,7.999h-79.942v15.989
		h79.942c13.242,0,23.978-10.741,23.978-23.988C451.476,364.418,440.74,353.678,427.498,353.678z"/>
	<path d="M435.492,417.632h15.983v15.988h-15.983V417.632z"/>
	<path d="M371.543,345.684h15.983v15.988h-15.983V345.684z"/>
	<path d="M65.419,361.672c-3.88,0-7.2,2.787-7.872,6.608l-11.275,63.949c-0.77,4.346,2.135,8.493,6.48,9.258
		c0.459,0.081,0.925,0.122,1.391,0.122h29.618v15.988H99.75v-15.988h34.331c3.88,0,7.199-2.782,7.872-6.604l11.275-63.954
		c0.77-4.346-2.135-8.488-6.483-9.263c-0.456-0.076-0.922-0.117-1.388-0.117H65.419z M133.01,393.644h-23.733l2.817-15.988h23.733
		L133.01,393.644z M72.126,377.655h23.735l-2.82,15.988H69.306L72.126,377.655z M66.489,409.633h23.733l-2.817,15.988H63.671
		L66.489,409.633z M127.373,425.621h-23.735l2.82-15.988h23.736L127.373,425.621z"/>
	<path d="M290.658,206.745c-28.196-12.705-61.35-0.146-74.052,28.051c-5.786,12.84-6.522,27.384-2.059,40.743l-8.537,8.539
		l11.306,11.302l8.537-8.54c29.322,9.813,61.045-6.012,70.853-35.332c4.469-13.367,3.735-27.926-2.059-40.773
		C293.848,208.964,292.426,207.545,290.658,206.745L290.658,206.745z M243.638,273.735c-1.483,0-2.965-0.076-4.44-0.234
		l18.087-18.09l-11.306-11.306l-18.088,18.084c-0.161-1.467-0.239-2.955-0.239-4.438c0.02-22.095,17.945-39.989,40.042-39.969
		c4.616,0.005,9.197,0.808,13.538,2.375c7.5,20.781-3.266,43.704-24.049,51.204C252.837,272.931,248.257,273.735,243.638,273.735
		L243.638,273.735z"/>
</g>
</svg>
