<?xml version="1.0" encoding="utf-8"?>
<!-- Generator: Adobe Illustrator 16.0.0, SVG Export Plug-In . SVG Version: 6.00 Build 0)  -->
<!DOCTYPE svg PUBLIC "-//W3C//DTD SVG 1.1//EN" "http://www.w3.org/Graphics/SVG/1.1/DTD/svg11.dtd">
<svg version="1.1" id="Capa_1" xmlns="http://www.w3.org/2000/svg" xmlns:xlink="http://www.w3.org/1999/xlink" x="0px" y="0px"
	 width="225px" height="225px" viewBox="0 0 225 225" enable-background="new 0 0 225 225" xml:space="preserve">
<g>
	<path d="M151.898,115.518c1.793,0,3.525,0.521,5.021,1.52l21.063,14.043c2.49,1.654,5.381,2.534,8.367,2.534H206v-6.031h-19.648
		c-1.789,0-3.526-0.524-5.021-1.522l-8.507-5.672V19H58.21v18.096H19V206h114.613v-18.096h39.21v-25.375
		c0.19-0.047,0.385-0.063,0.575-0.107l14.029-3.506c3.113-0.78,6.316-1.173,9.522-1.173H206v-6.033h-9.049
		c-3.698,0-7.395,0.456-10.984,1.351l-14.029,3.508c-7.211,1.801-14.891,1.51-21.936-0.842l-5.082-1.694
		c-4.626-1.54-9.443-2.321-14.322-2.321h-26.319c0-4.988,4.06-9.05,9.047-9.05h33.18c4.988,0,9.047-4.058,9.047-9.048
		c0-4.627-3.505-8.408-7.988-8.941l2.475-9.152h1.859V115.518z M148.091,161.448c4.626,1.546,9.446,2.325,14.323,2.325
		c1.464,0,2.922-0.127,4.376-0.27v18.366h-33.177v-9.866c1.059-1.221,1.878-2.665,2.318-4.3l2.471-9.149
		c1.555,0.317,3.095,0.694,4.606,1.201L148.091,161.448z M132.357,157.813l-2.248,8.316c-0.586,2.166-2.561,3.678-4.801,3.678
		h-0.979c-2.739,0-4.969-2.229-4.969-4.971c0-0.441,0.058-0.876,0.171-1.299l1.565-5.794h9.498
		C131.186,157.743,131.771,157.789,132.357,157.813z M114.85,157.743l-1.142,4.218c-0.251,0.936-0.38,1.9-0.38,2.875
		c0,4.078,2.257,7.604,5.561,9.504l-0.945,3.782l5.851,1.464l0.938-3.747h0.578c0.776,0,1.531-0.11,2.271-0.266v24.394H25.031
		V43.128h39.21V25.032H166.79v91.336l-6.522-4.351c-2.488-1.655-5.381-2.533-8.367-2.533h-0.232l12.553-46.446
		c0.254-0.935,0.381-1.899,0.381-2.875c0-6.067-4.938-11.002-11.004-11.002h-0.979c-4.959,0-9.326,3.344-10.621,8.134l-8.385,31.024
		V37.096H70.274v6.032h57.307v66.356h-6.24c-3.28,0-6.374,1.088-8.957,3.016H82.338v6.033h23.707l-6.032,6.031H82.338v6.033h11.646
		l-5.04,5.036c-1.778,1.777-2.76,4.144-2.76,6.661c0,5.189,4.223,9.414,9.418,9.414c0.927,0,1.823-0.18,2.692-0.438
		c-0.004,0.146-0.046,0.287-0.046,0.438c0,3.327,2.706,6.033,6.033,6.033L114.85,157.743L114.85,157.743z M138.083,136.629h-11.276
		l12.733-47.124l10.349,3.447L138.083,136.629z M114.943,118.164c1.687-1.686,4.018-2.646,6.396-2.646h4.923l-2.46,9.102
		c-3.817,0.139-7.394,1.646-10.108,4.361l-15.705,15.705c-0.63,0.631-1.502,0.991-2.392,0.991c-1.867,0-3.385-1.515-3.385-3.381
		c0-0.903,0.354-1.754,0.994-2.392L114.943,118.164z M117.959,133.246c1.141-1.141,2.591-1.918,4.139-2.325l-1.543,5.708h-5.977
		L117.959,133.246z M158.396,61.464l-3.693,13.665l-10.348-3.447l3.461-12.811c0.59-2.166,2.563-3.677,4.802-3.677h0.979
		c2.742,0,4.973,2.229,4.973,4.97C158.568,60.604,158.512,61.039,158.396,61.464z M142.781,77.516l10.346,3.447l-1.665,6.156
		l-10.346-3.448L142.781,77.516z M146.505,130.598c1.661,0,3.017,1.354,3.017,3.017c0,1.661-1.354,3.016-3.017,3.016h-2.175
		l1.632-6.03h0.543V130.598z"/>
	<path d="M109.483,49.162H31.065v30.161h78.418V49.162z M103.451,73.291H37.096V55.193h66.355V73.291z"/>
	<path d="M43.129,61.226h6.032v6.033h-6.032V61.226z"/>
	<path d="M55.193,61.226h6.033v6.033h-6.033V61.226z"/>
	<path d="M67.258,61.226h6.033v6.033h-6.033V61.226z"/>
	<path d="M79.322,61.226h6.033v6.033h-6.033V61.226z"/>
	<path d="M91.387,61.226h6.031v6.033h-6.031V61.226z"/>
	<path d="M67.258,115.518h-6.032v12.064h-24.13v-24.13h18.097v-6.033H31.065v36.194h36.193V115.518z"/>
	<path d="M77.189,86.239l-28.028,28.026l-3.899-3.897l-4.267,4.266l8.166,8.163l32.292-32.293L77.189,86.239z"/>
	<path d="M61.226,178.854h-24.13v-24.127h18.097v-6.035H31.065v36.194h36.193V166.79h-6.032V178.854z"/>
	<path d="M45.262,161.643l-4.267,4.265l8.166,8.163l32.292-32.291l-4.265-4.266L49.16,165.541L45.262,161.643z"/>
	<path d="M115.518,184.887h6.031v6.033h-6.031V184.887z"/>
	<path d="M76.307,184.887h33.177v6.033H76.307V184.887z"/>
	<path d="M82.338,100.435h39.211v6.033H82.338V100.435z"/>
</g>
</svg>
