<?xml version="1.0" encoding="utf-8"?>
<!-- Generator: Adobe Illustrator 16.0.0, SVG Export Plug-In . SVG Version: 6.00 Build 0)  -->
<!DOCTYPE svg PUBLIC "-//W3C//DTD SVG 1.1//EN" "http://www.w3.org/Graphics/SVG/1.1/DTD/svg11.dtd">
<svg version="1.1" id="Capa_1" xmlns="http://www.w3.org/2000/svg" xmlns:xlink="http://www.w3.org/1999/xlink" x="0px" y="0px"
	 width="225px" height="225px" viewBox="0 0 225 225" enable-background="new 0 0 225 225" xml:space="preserve">
<g>
	<g>
		<g>
			<path d="M193.573,56.126c-6.878,0-12.468,5.591-12.468,12.467c0,6.875,5.59,12.467,12.468,12.467
				c6.874,0,12.466-5.591,12.466-12.467C206.039,61.718,200.447,56.126,193.573,56.126z M193.573,74.826
				c-3.438,0-6.234-2.795-6.234-6.232s2.796-6.235,6.234-6.235c3.437,0,6.231,2.796,6.231,6.235
				C199.805,72.031,197.01,74.826,193.573,74.826z"/>
		</g>
	</g>
	<g>
		<g>
			<path d="M31.505,158.977c-6.875,0-12.466,5.592-12.466,12.469c0,6.875,5.591,12.466,12.466,12.466s12.466-5.591,12.466-12.466
				C43.971,164.568,38.38,158.977,31.505,158.977z M31.505,177.677c-3.438,0-6.234-2.796-6.234-6.231
				c0-3.439,2.795-6.235,6.234-6.235c3.437,0,6.232,2.796,6.232,6.235C37.737,174.881,34.942,177.677,31.505,177.677z"/>
		</g>
	</g>
	<g>
		<g>
			<path d="M187.527,60.067l-26.885-12.98c-1.556-0.752-3.414-0.098-4.162,1.451c-0.75,1.549-0.098,3.412,1.453,4.16l26.887,12.981
				c0.437,0.212,0.897,0.311,1.354,0.311c1.157,0,2.271-0.648,2.807-1.764C189.729,62.679,189.077,60.813,187.527,60.067z"/>
		</g>
	</g>
	<g>
		<g>
			<path d="M159.287,180.793c-6.873,0-12.464,5.591-12.464,12.468c0,6.874,5.591,12.466,12.464,12.466
				c6.877,0,12.468-5.592,12.468-12.466C171.755,186.386,166.164,180.793,159.287,180.793z M159.287,199.494
				c-3.438,0-6.232-2.796-6.232-6.233s2.797-6.233,6.232-6.233c3.438,0,6.234,2.796,6.234,6.233S162.727,199.494,159.287,199.494z"
				/>
		</g>
	</g>
	<g>
		<g>
			<path d="M153.244,184.734l-26.889-12.981c-1.551-0.752-3.41-0.101-4.157,1.451c-0.749,1.551-0.099,3.413,1.45,4.162
				l26.889,12.979c0.438,0.211,0.896,0.313,1.354,0.313c1.158,0,2.271-0.649,2.808-1.767
				C155.445,187.346,154.793,185.48,153.244,184.734z"/>
		</g>
	</g>
	<g>
		<g>
			<path d="M112.538,102.876c-6.875,0-12.466,5.591-12.466,12.468c0,6.873,5.591,12.467,12.466,12.467
				c6.877,0,12.467-5.594,12.467-12.467C125.005,108.468,119.415,102.876,112.538,102.876z M112.538,121.576
				c-3.437,0-6.232-2.795-6.232-6.231c0-3.438,2.796-6.234,6.232-6.234c3.438,0,6.233,2.795,6.233,6.234
				C118.771,118.781,115.977,121.576,112.538,121.576z"/>
		</g>
	</g>
	<g>
		<g>
			<path d="M107.059,107.167L86.405,91.068c-1.358-1.05-3.315-0.817-4.375,0.541c-1.058,1.361-0.817,3.317,0.542,4.377
				l20.654,16.097c0.569,0.442,1.244,0.658,1.914,0.658c0.928,0,1.845-0.412,2.462-1.199
				C108.658,110.181,108.418,108.226,107.059,107.167z"/>
		</g>
	</g>
	<g>
		<g>
			<path d="M168.639,99.76c-18.904,0-34.285,15.381-34.285,34.284c0,18.901,15.381,34.282,34.285,34.282
				c18.903,0,34.282-15.381,34.282-34.282C202.921,115.141,187.542,99.76,168.639,99.76z M168.639,162.093
				c-15.467,0-28.051-12.581-28.051-28.049c0-15.469,12.584-28.051,28.051-28.051c15.469,0,28.049,12.583,28.049,28.051
				S184.105,162.093,168.639,162.093z"/>
		</g>
	</g>
	<g>
		<g>
			<path d="M168.639,112.226c-6.875,0-12.468,5.592-12.468,12.467s5.593,12.468,12.468,12.468c6.873,0,12.465-5.593,12.465-12.468
				S175.512,112.226,168.639,112.226z M168.639,130.928c-3.438,0-6.232-2.797-6.232-6.234s2.794-6.231,6.232-6.231
				c3.438,0,6.232,2.795,6.232,6.231C174.871,128.131,172.075,130.928,168.639,130.928z"/>
		</g>
	</g>
	<g>
		<g>
			<path d="M177.682,143.393h-18.086c-5.324,0-9.658,4.219-9.658,9.396v8.216c0,1.112,0.595,2.142,1.557,2.7
				c5.223,3.021,11.15,4.621,17.146,4.621c5.991,0,11.92-1.6,17.145-4.621c0.963-0.555,1.556-1.588,1.556-2.696v-8.216
				C187.339,147.611,183.006,143.393,177.682,143.393z M181.104,159.148c-7.756,3.861-17.174,3.861-24.933,0v-6.355
				c0-1.745,1.538-3.166,3.425-3.166h18.086c1.889,0,3.422,1.421,3.422,3.166V159.148L181.104,159.148z"/>
		</g>
	</g>
	<g>
		<g>
			<path d="M93.839,137.16c-18.902,0-34.285,15.382-34.285,34.283c0,18.902,15.383,34.283,34.285,34.283
				c18.903,0,34.282-15.381,34.282-34.283C128.121,152.54,112.742,137.16,93.839,137.16z M93.839,199.494
				c-15.469,0-28.05-12.582-28.05-28.051c0-15.467,12.581-28.051,28.05-28.051c15.468,0,28.05,12.584,28.05,28.051
				C121.889,186.912,109.307,199.494,93.839,199.494z"/>
		</g>
	</g>
	<g>
		<g>
			<path d="M93.839,149.627c-6.876,0-12.468,5.591-12.468,12.466s5.592,12.468,12.468,12.468c6.875,0,12.466-5.593,12.466-12.468
				S100.714,149.627,93.839,149.627z M93.839,168.326c-3.438,0-6.234-2.795-6.234-6.233c0-3.438,2.796-6.231,6.234-6.231
				c3.437,0,6.232,2.794,6.232,6.231C100.071,165.531,97.275,168.326,93.839,168.326z"/>
		</g>
	</g>
	<g>
		<g>
			<path d="M102.88,180.793H84.798c-5.328,0-9.661,4.218-9.661,9.396v8.215c0,1.113,0.593,2.143,1.556,2.699
				c5.225,3.023,11.151,4.623,17.146,4.623c5.993,0,11.92-1.6,17.145-4.623c0.963-0.555,1.554-1.586,1.554-2.695v-8.215
				C112.538,185.011,108.205,180.793,102.88,180.793z M106.305,196.549c-7.758,3.863-17.176,3.863-24.934,0v-6.354
				c0-1.747,1.538-3.168,3.427-3.168h18.083c1.888,0,3.425,1.421,3.425,3.168L106.305,196.549L106.305,196.549z"/>
		</g>
	</g>
	<g>
		<g>
			<path d="M53.321,59.243c-18.902,0-34.282,15.381-34.282,34.283c0,18.903,15.38,34.285,34.282,34.285
				c18.904,0,34.286-15.38,34.286-34.285C87.605,74.624,72.226,59.243,53.321,59.243z M53.321,121.576
				c-15.468,0-28.048-12.581-28.048-28.05c0-15.469,12.581-28.049,28.048-28.049c15.467,0,28.05,12.581,28.05,28.049
				C81.371,108.995,68.789,121.576,53.321,121.576z"/>
		</g>
	</g>
	<g>
		<g>
			<path d="M53.321,71.71c-6.875,0-12.464,5.59-12.464,12.466c0,6.875,5.59,12.466,12.464,12.466
				c6.876,0,12.468-5.591,12.468-12.466S60.196,71.71,53.321,71.71z M53.321,90.411c-3.437,0-6.232-2.797-6.232-6.234
				s2.794-6.234,6.232-6.234s6.232,2.795,6.232,6.234C59.554,87.614,56.759,90.411,53.321,90.411z"/>
		</g>
	</g>
	<g>
		<g>
			<path d="M62.364,102.876H44.28c-5.326,0-9.659,4.217-9.659,9.397v8.217c0,1.109,0.593,2.138,1.556,2.697
				c5.223,3.022,11.151,4.621,17.145,4.621c5.994,0,11.923-1.599,17.146-4.621c0.961-0.557,1.554-1.588,1.554-2.696v-8.216
				C72.021,107.093,67.688,102.876,62.364,102.876z M65.789,118.632c-7.758,3.864-17.178,3.864-24.934,0v-6.355
				c0-1.747,1.536-3.166,3.425-3.166h18.084c1.888,0,3.423,1.419,3.423,3.166v6.355H65.789z"/>
		</g>
	</g>
	<g>
		<g>
			<path d="M128.121,18.727c-18.902,0-34.282,15.38-34.282,34.284c0,18.903,15.38,34.283,34.282,34.283s34.283-15.38,34.283-34.283
				C162.404,34.106,147.023,18.727,128.121,18.727z M128.121,81.061c-15.467,0-28.05-12.583-28.05-28.05
				c0-15.468,12.583-28.05,28.05-28.05c15.47,0,28.05,12.582,28.05,28.05C156.171,68.478,143.591,81.061,128.121,81.061z"/>
		</g>
	</g>
	<g>
		<g>
			<path d="M128.121,31.193c-6.875,0-12.467,5.592-12.467,12.465c0,6.876,5.592,12.468,12.467,12.468s12.467-5.591,12.467-12.466
				C140.588,36.786,134.996,31.193,128.121,31.193z M128.121,49.894c-3.438,0-6.232-2.795-6.232-6.235
				c0-3.437,2.795-6.232,6.232-6.232s6.234,2.795,6.234,6.232C134.354,47.099,131.561,49.894,128.121,49.894z"/>
		</g>
	</g>
	<g>
		<g>
			<path d="M137.162,62.36H119.08c-5.326,0-9.657,4.217-9.657,9.396v8.216c0,1.112,0.591,2.14,1.554,2.699
				c5.222,3.022,11.151,4.622,17.144,4.622c5.995,0,11.922-1.6,17.145-4.622c0.965-0.556,1.559-1.586,1.559-2.697V71.76
				C146.823,66.577,142.49,62.36,137.162,62.36z M140.588,78.115c-7.757,3.864-17.177,3.864-24.934,0V71.76
				c0-1.746,1.535-3.167,3.424-3.167h18.084c1.89,0,3.426,1.421,3.426,3.167V78.115L140.588,78.115z"/>
		</g>
	</g>
	<g>
		<g>
			<path d="M99.326,50.98c-1.119-1.301-3.084-1.458-4.394-0.338L73.334,69.123c-1.31,1.118-1.462,3.085-0.344,4.396
				c0.618,0.72,1.491,1.089,2.368,1.089c0.717,0,1.438-0.245,2.027-0.751l21.599-18.48C100.294,54.257,100.446,52.29,99.326,50.98z"
				/>
		</g>
	</g>
	<g>
		<g>
			<path d="M168.016,101.011l-18.701-24.933c-1.029-1.382-2.983-1.654-4.361-0.625c-1.378,1.032-1.655,2.986-0.624,4.36
				l18.698,24.933c0.613,0.816,1.55,1.247,2.496,1.247c0.648,0,1.307-0.203,1.867-0.624
				C168.77,104.338,169.048,102.383,168.016,101.011z"/>
		</g>
	</g>
	<g>
		<g>
			<path d="M142.438,144.352c-1.033-1.379-2.986-1.658-4.364-0.625l-17.408,13.057c-1.378,1.031-1.657,2.986-0.624,4.359
				c0.611,0.815,1.549,1.248,2.495,1.248c0.651,0,1.307-0.207,1.866-0.625l17.41-13.056
				C143.189,147.68,143.468,145.725,142.438,144.352z"/>
		</g>
	</g>
	<g>
		<g>
			<path d="M62.673,168.326H40.855c-1.721,0-3.118,1.394-3.118,3.117c0,1.725,1.396,3.117,3.118,3.117h21.818
				c1.718,0,3.115-1.394,3.115-3.117S64.391,168.326,62.673,168.326z"/>
		</g>
	</g>
	<g>
		<g>
			<path d="M53.321,18.727c-6.875,0-12.466,5.591-12.466,12.467c0,6.875,5.592,12.465,12.466,12.465s12.466-5.59,12.466-12.465
				C65.789,24.318,60.196,18.727,53.321,18.727z M53.321,37.427c-3.437,0-6.232-2.796-6.232-6.233c0-3.438,2.794-6.233,6.232-6.233
				s6.232,2.795,6.232,6.233C59.554,34.631,56.759,37.427,53.321,37.427z"/>
		</g>
	</g>
	<g>
		<g>
			<path d="M53.321,37.427c-1.718,0-3.116,1.393-3.116,3.117v21.815c0,1.724,1.398,3.117,3.116,3.117
				c1.72,0,3.116-1.393,3.116-3.117V40.543C56.438,38.819,55.041,37.427,53.321,37.427z"/>
		</g>
	</g>
</g>
</svg>
