<?xml version="1.0" encoding="utf-8"?>
<!-- Generator: Adobe Illustrator 16.0.0, SVG Export Plug-In . SVG Version: 6.00 Build 0)  -->
<!DOCTYPE svg PUBLIC "-//W3C//DTD SVG 1.1//EN" "http://www.w3.org/Graphics/SVG/1.1/DTD/svg11.dtd">
<svg version="1.1" id="Capa_1" xmlns="http://www.w3.org/2000/svg" xmlns:xlink="http://www.w3.org/1999/xlink" x="0px" y="0px"
	 width="225px" height="225px" viewBox="0 0 225 225" enable-background="new 0 0 225 225" xml:space="preserve">
<g>
	<path d="M116.259,157.52v30.578c0,1.512,1.226,2.738,2.739,2.738s2.738-1.227,2.738-2.738V157.52c0-1.513-1.225-2.74-2.738-2.74
		S116.259,156.007,116.259,157.52L116.259,157.52z"/>
	<path d="M118.998,143.824c-1.514,0-2.739,1.227-2.739,2.738c0,1.513,1.226,2.74,2.739,2.74c1.511,0,2.738-1.228,2.738-2.74
		C121.736,145.051,120.509,143.824,118.998,143.824z"/>
	<path d="M184.779,62.178l-13.99-13.993V27.313c0-4.584-3.729-8.313-8.313-8.313H47.627c-4.525,0-8.209,3.683-8.209,8.209v137.739
		c0,4.524,3.685,8.21,8.209,8.21h4.644v4.574c0,4.527,3.682,8.209,8.207,8.209H74.96c1.511,0,2.739-1.226,2.739-2.738
		c0-1.514-1.229-2.739-2.739-2.739H60.478c-1.506,0-2.729-1.226-2.729-2.731V67.571c0-1.513-1.225-2.738-2.739-2.738
		c-1.514,0-2.739,1.226-2.739,2.738v100.105h-4.644c-1.505,0-2.731-1.224-2.731-2.73V27.209c0-1.506,1.226-2.73,2.731-2.73h114.85
		c1.562,0,2.834,1.271,2.834,2.835v15.393L155.193,32.59c-0.512-0.515-1.209-0.804-1.938-0.804H60.478
		c-4.525,0-8.207,3.683-8.207,8.211v14.821c0,1.513,1.226,2.739,2.739,2.739c1.514,0,2.737-1.227,2.737-2.739V39.996
		c0-1.507,1.225-2.732,2.731-2.732h90.04v26.845c0,1.514,1.229,2.739,2.739,2.74l26.847,0.005v110.878
		c0,1.507-1.226,2.731-2.73,2.731h-14.346c-1.514,0-2.738,1.226-2.738,2.739c0,1.511,1.227,2.738,2.738,2.738h14.346
		c4.525,0,8.21-3.683,8.21-8.209V64.113C185.582,63.387,185.291,62.691,184.779,62.178z M155.996,61.37V41.138l20.232,20.236
		L155.996,61.37z"/>
	<path d="M86.228,84.192h65.532c1.512,0,2.736-1.227,2.736-2.739c0-1.512-1.227-2.739-2.736-2.739H86.228
		c-1.514,0-2.739,1.227-2.739,2.739C83.489,82.965,84.714,84.192,86.228,84.192z"/>
	<path d="M86.228,100.351h65.532c1.512,0,2.736-1.226,2.736-2.738c0-1.514-1.227-2.739-2.736-2.739H86.228
		c-1.514,0-2.739,1.226-2.739,2.739C83.489,99.125,84.714,100.351,86.228,100.351z"/>
	<path d="M151.76,111.354h-12.945c-1.516,0-2.739,1.227-2.739,2.74c0,1.514,1.225,2.738,2.739,2.738h12.945
		c1.512,0,2.736-1.227,2.736-2.738C154.496,112.58,153.271,111.354,151.76,111.354z"/>
	<path d="M86.228,116.832h39.691c1.515,0,2.742-1.227,2.742-2.738c0-1.514-1.229-2.74-2.742-2.74H86.228
		c-1.514,0-2.739,1.227-2.739,2.74C83.489,115.605,84.714,116.832,86.228,116.832z"/>
	<path d="M118.998,128.661c-16.229,0-30.844,10.249-36.37,25.503c-0.514,1.424,0.223,2.994,1.643,3.509
		c1.423,0.515,2.995-0.221,3.509-1.644c4.739-13.094,17.285-21.891,31.218-21.891c18.301,0,33.189,14.891,33.189,33.191
		s-14.89,33.189-33.189,33.189c-18.302,0-33.19-14.89-33.19-33.189c0-1.516-1.226-2.74-2.739-2.74c-1.511,0-2.739,1.227-2.739,2.74
		c0,21.32,17.348,38.669,38.669,38.669c21.319,0,38.669-17.349,38.669-38.669C157.667,146.008,140.318,128.661,118.998,128.661z"/>
</g>
</svg>
