<?xml version="1.0" encoding="utf-8"?>
<!-- Generator: Adobe Illustrator 16.0.0, SVG Export Plug-In . SVG Version: 6.00 Build 0)  -->
<!DOCTYPE svg PUBLIC "-//W3C//DTD SVG 1.1//EN" "http://www.w3.org/Graphics/SVG/1.1/DTD/svg11.dtd">
<svg version="1.1" id="Capa_1" xmlns="http://www.w3.org/2000/svg" xmlns:xlink="http://www.w3.org/1999/xlink" x="0px" y="0px"
	 width="225px" height="225px" viewBox="0 0 225 225" enable-background="new 0 0 225 225" xml:space="preserve">
<g>
	<g>
		<path d="M141.309,114.145H83.693c-1.514,0-2.741,1.225-2.741,2.737c0,1.514,1.228,2.74,2.741,2.74h57.615
			c1.513,0,2.74-1.227,2.74-2.74C144.049,115.369,142.821,114.145,141.309,114.145z"/>
		<path d="M141.309,129.432H83.693c-1.514,0-2.741,1.227-2.741,2.741c0,1.513,1.228,2.738,2.741,2.738h57.615
			c1.513,0,2.74-1.226,2.74-2.738C144.049,130.658,142.821,129.432,141.309,129.432z"/>
		<path d="M141.309,144.722H83.693c-1.514,0-2.741,1.227-2.741,2.739c0,1.514,1.228,2.739,2.741,2.739h57.615
			c1.513,0,2.74-1.226,2.74-2.739C144.049,145.948,142.821,144.722,141.309,144.722z"/>
		<path d="M102.896,160.012H83.693c-1.514,0-2.741,1.226-2.741,2.738s1.228,2.74,2.741,2.74h19.203c1.515,0,2.74-1.228,2.74-2.74
			S104.409,160.012,102.896,160.012z"/>
		<path d="M146.466,74.131h-48.09c-3.808,0-7.388,1.483-10.079,4.175L69.68,96.922c-2.691,2.692-4.176,6.271-4.176,10.079v72.004
			c0,7.186,5.847,13.03,13.03,13.03h67.93c7.184,0,13.03-5.845,13.03-13.03V87.161C159.494,79.976,153.647,74.131,146.466,74.131z
			 M90.866,83.485v14.292c0,0.944-0.77,1.716-1.716,1.716H74.857L90.866,83.485z M154.016,179.006c0,4.165-3.387,7.552-7.55,7.552
			H78.534c-4.162,0-7.552-3.387-7.552-7.552v-72.004c0-0.693,0.083-1.374,0.238-2.031h17.93c3.968,0,7.194-3.228,7.194-7.193V79.846
			c0.658-0.156,1.337-0.235,2.031-0.235h48.088c4.164,0,7.552,3.387,7.552,7.55V179.006L154.016,179.006z"/>
		<path d="M190.838,100.857c-0.729-0.43-1.162-1.248-1.104-2.076c0.652-9.163-3.678-17.901-11.272-22.946
			c-0.534-0.356-0.888-0.943-0.967-1.613c-5.09-42.382-59.907-56.373-84.762-21.672c-20.664-4.138-40.999,9.395-44.812,30.311
			c-16.963,4.276-29.018,19.696-28.921,37.373c0.106,20.112,16.084,36.824,36.374,38.048c1.502,0.092,2.806-1.058,2.899-2.568
			c0.089-1.511-1.06-2.808-2.571-2.897c-17.417-1.053-31.133-15.375-31.224-32.609c-0.086-15.709,11.016-29.335,26.395-32.397
			c1.15-0.229,2.027-1.165,2.182-2.329c2.548-19.382,21.491-31.955,40.21-27.192c1.135,0.287,2.323-0.176,2.965-1.15
			c21.229-32.304,71.244-20.42,75.825,17.736c0.271,2.265,1.503,4.278,3.376,5.523c5.953,3.954,9.353,10.806,8.838,17.993
			c-0.204,2.879,1.276,5.698,3.773,7.18c7.737,4.587,12.403,12.684,12.479,21.657c0.121,14.115-11.719,25.646-25.833,25.646h-5.127
			c-1.515,0-2.74,1.228-2.74,2.74s1.226,2.738,2.74,2.738h5.127c17.256,0,31.457-14.097,31.311-31.171
			C205.907,116.274,200.24,106.433,190.838,100.857L190.838,100.857z"/>
	</g>
</g>
</svg>
