<?xml version="1.0" encoding="utf-8"?>
<!-- Generator: Adobe Illustrator 16.0.0, SVG Export Plug-In . SVG Version: 6.00 Build 0)  -->
<!DOCTYPE svg PUBLIC "-//W3C//DTD SVG 1.1//EN" "http://www.w3.org/Graphics/SVG/1.1/DTD/svg11.dtd">
<svg version="1.1" id="Capa_1" xmlns="http://www.w3.org/2000/svg" xmlns:xlink="http://www.w3.org/1999/xlink" x="0px" y="0px"
	 width="225px" height="225px" viewBox="0 0 225 225" enable-background="new 0 0 225 225" xml:space="preserve">
<g>
	<path d="M115.518,127.58h6.029v6.034h-6.029V127.58z"/>
	<path d="M139.645,127.58h6.033v6.034h-6.033V127.58z"/>
	<path d="M31.064,127.58h6.032v6.034h-6.032V127.58z"/>
	<path d="M43.129,127.58h6.032v6.034h-6.032V127.58z"/>
	<circle cx="190.918" cy="130.597" r="3.017"/>
	<circle cx="40.112" cy="58.209" r="3.016"/>
	<path d="M127.582,127.58h6.031v6.034h-6.031V127.58z"/>
	<path d="M91.387,97.419h108.58c3.328,0,6.033-2.705,6.033-6.032V25.031c0-3.326-2.705-6.031-6.033-6.031H91.387
		c-3.327,0-6.032,2.705-6.032,6.031v30.162H54.889c-1.403-6.874-7.495-12.064-14.777-12.064c-8.314,0-15.079,6.766-15.079,15.081
		c0,7.281,5.19,13.373,12.064,14.775v42.531H25.033c-3.328,0-6.032,2.705-6.032,6.033v18.096c0,3.328,2.705,6.032,6.032,6.032h30.16
		c3.327,0,6.032-2.704,6.032-6.032v-6.03h12.62c1.25,3.501,4.565,6.03,8.494,6.03c3.926,0,7.243-2.529,8.493-6.03h12.619v6.03
		c0,3.328,2.706,6.032,6.031,6.032h42.226c3.328,0,6.033-2.704,6.033-6.032v-6.03h18.399c1.205,5.899,5.861,10.556,11.762,11.758
		v36.498H175.17c-0.715-1.716-1.963-3.179-3.697-4.047l-28.1-14.05H34.082c-8.316,0-15.081,6.766-15.081,15.082v12.063
		c0,8.315,6.765,15.08,15.081,15.08h109.292l28.101-14.049c1.731-0.867,2.981-2.332,3.692-4.048h12.737
		c3.326,0,6.031-2.704,6.031-6.033v-36.498c6.875-1.4,12.064-7.491,12.064-14.775c0-8.314-6.766-15.08-15.082-15.08
		c-7.279,0-13.371,5.189-14.775,12.063h-18.399v-6.03c0-3.328-2.705-6.033-6.033-6.033h-42.226c-3.325,0-6.031,2.705-6.031,6.033
		v6.03h-12.62c-1.25-3.501-4.567-6.03-8.493-6.03c-3.929,0-7.244,2.529-8.494,6.03h-12.62v-6.03c0-3.328-2.705-6.033-6.032-6.033
		H43.129V72.985c5.9-1.203,10.556-5.86,11.76-11.761h30.466v30.162C85.355,94.714,88.06,97.419,91.387,97.419L91.387,97.419z
		 M121.547,91.387h-12.064V67.258h12.064V91.387z M151.709,91.387h-12.064V55.193h12.064V91.387z M181.871,91.387h-12.064V43.129
		h12.064V91.387z M91.387,25.031h108.58l0.004,66.354h-12.066V43.129c0-3.327-2.706-6.032-6.032-6.032h-12.063
		c-3.326,0-6.031,2.705-6.031,6.032v48.258h-6.033V55.193c0-3.327-2.705-6.033-6.033-6.033h-12.064c-3.326,0-6.03,2.706-6.03,6.033
		v36.193h-6.031V67.258c0-3.326-2.707-6.033-6.035-6.033h-12.064c-3.325,0-6.031,2.707-6.031,6.033v24.129H91.387V25.031z
		 M139.645,181.87H61.225v-12.063h78.419V181.87L139.645,181.87z M55.193,199.969h-6.032v-30.162h6.032V199.969z M61.225,187.904
		h78.419v12.063H61.225V187.904z M145.678,171.671l12.064,6.032v14.369l-12.064,6.031V171.671z M25.033,190.92v-12.064
		c0-4.987,4.059-9.049,9.049-9.049h9.047v30.162h-9.047C29.091,199.969,25.033,195.908,25.033,190.92z M168.775,186.555l-5,2.5
		v-8.335l5,2.5c0.637,0.318,1.031,0.956,1.031,1.669C169.807,185.6,169.412,186.236,168.775,186.555z M190.918,121.55
		c4.99,0,9.049,4.06,9.049,9.048s-4.059,9.047-9.049,9.047c-4.988,0-9.047-4.059-9.047-9.047
		C181.871,125.607,185.93,121.55,190.918,121.55z M109.483,121.55h42.226l0.004,18.095h-42.23V121.55z M82.339,127.58
		c1.663,0,3.016,1.355,3.016,3.018c0,1.661-1.353,3.018-3.016,3.018c-1.666,0-3.017-1.355-3.017-3.018
		C79.323,128.936,80.673,127.58,82.339,127.58z M55.196,139.645H25.033V121.55h30.16L55.196,139.645z M40.112,67.258
		c-4.988,0-9.047-4.06-9.047-9.048c0-4.989,4.059-9.05,9.047-9.05c4.989,0,9.049,4.061,9.049,9.05
		C49.161,63.198,45.101,67.258,40.112,67.258z"/>
</g>
</svg>
