<?xml version="1.0" encoding="utf-8"?>
<!-- Generator: Adobe Illustrator 16.0.0, SVG Export Plug-In . SVG Version: 6.00 Build 0)  -->
<!DOCTYPE svg PUBLIC "-//W3C//DTD SVG 1.1//EN" "http://www.w3.org/Graphics/SVG/1.1/DTD/svg11.dtd">
<svg version="1.1" id="Capa_1" xmlns="http://www.w3.org/2000/svg" xmlns:xlink="http://www.w3.org/1999/xlink" x="0px" y="0px"
	 width="225px" height="225px" viewBox="0 0 225 225" enable-background="new 0 0 225 225" xml:space="preserve">
<g>
	<path d="M49.164,109.047v6.473h6.031v-6.473c3.48-1.102,6.032-4.33,6.032-8.17c0-3.276-1.821-6.23-4.759-7.702l-5.882-2.938
		c-0.881-0.439-1.423-1.32-1.423-2.309c0-1.418,1.154-2.573,2.572-2.573h0.881c1.424,0,2.578,1.155,2.578,2.573v3.459h6.032v-3.459
		c0-3.841-2.552-7.063-6.032-8.17v-6.467h-6.031v6.467c-3.486,1.106-6.032,4.329-6.032,8.17c0,3.281,1.821,6.235,4.754,7.701
		l5.881,2.938c0.881,0.44,1.429,1.327,1.429,2.31c0,1.418-1.154,2.578-2.578,2.578h-0.881c-1.418,0-2.572-1.16-2.572-2.578v-3.459
		h-6.032v3.459C43.132,104.717,45.678,107.945,49.164,109.047z"/>
	<path d="M67.259,151.709H37.095c-3.324,0-6.031,2.707-6.031,6.031v30.164c0,3.324,2.707,6.031,6.031,6.031h30.164
		c3.325,0,6.032-2.707,6.032-6.031V157.74C73.291,154.416,70.584,151.709,67.259,151.709z M67.259,163.771h-6.031v-6.031h6.031
		V163.771z M55.195,187.904h-6.031v-6.031h6.031V187.904z M55.195,175.836h-6.031v-6.031h6.031V175.836z M43.132,175.836h-6.037
		v-6.031h6.037V175.836z M49.164,163.771v-6.031h6.031v6.031H49.164z M43.132,157.74v6.031h-6.037v-6.031H43.132z M37.095,181.873
		h6.037v6.031h-6.037V181.873z M61.228,187.904v-18.1h6.031l0.006,18.1H61.228z"/>
	<path d="M186.477,107.602l-0.521-0.951l16.037-16.043C204.576,88.03,206,84.592,206,80.94c0-7.541-6.135-13.68-13.682-13.68
		c-1.529,0-3.008,0.306-4.414,0.784V28.045c0-4.984-4.062-9.045-9.051-9.045H84.838c-2.416,0-4.688,0.94-6.402,2.653L51.812,48.278
		c-1.708,1.708-2.647,3.98-2.647,6.402v6.698C32.277,62.909,19,77.126,19,94.404v96.514C19,199.232,25.762,206,34.082,206h36.19
		c8.319,0,15.087-6.768,15.087-15.082v-3.014h72.381h3.019h42.771l-6.586-39.525C196.891,134.172,193.275,120.078,186.477,107.602z
		 M190.848,146.413l-29.406,8.019l-7.09-5.677c-3.594-2.879-5.656-7.171-5.656-11.772V112.5v-3.019c3.324,0,6.031,2.707,6.031,6.037
		v21.108h6.032v-4.78l20.732-20.731C187.292,121.969,190.493,134.107,190.848,146.413z M148.695,103.455
		c-3.33,0-6.031,2.701-6.031,6.026v3.019c0,1.66-1.354,3.02-3.02,3.02c-1.66,0-3.019-1.358-3.019-3.02v-3.019
		c0-6.649,5.414-12.063,12.067-12.063h7.8l-6.193,6.198C149.77,103.541,149.243,103.455,148.695,103.455z M115.668,154.941
		l3.965-9.931l8.615,8.615l-9.932,3.97c-1.278,0.521-2.799-0.511-2.799-1.896C115.518,155.438,115.566,155.184,115.668,154.941z
		 M133.613,150.463l-10.817-10.816l18.24-18.24c0.563-0.086,1.101-0.227,1.628-0.413v15.983c0,1.369,0.154,2.707,0.408,4.022
		L133.613,150.463z M131.152,115.52H97.423v-12.063h34.229c-0.672,1.891-1.053,3.91-1.053,6.026v3.019
		C130.6,113.563,130.814,114.568,131.152,115.52z M97.423,121.545h34.944l-12.063,12.068H97.423V121.545z M97.423,139.646h17.858
		l-4.822,12.063H97.423V139.646z M97.423,157.74h12.358c0.908,3.459,4.034,6.031,7.778,6.031c1.037,0,2.047-0.188,3.002-0.574
		l7.021-2.809v9.416H97.423V157.74z M133.613,157.977l1.697-0.682l10.043-10.044c0.107,0.198,0.205,0.397,0.322,0.591v21.963
		h-12.063V157.977L133.613,157.977z M151.714,154.361l6.026,4.83v10.613h-6.026V154.361z M199.968,80.939
		c0,2.041-0.795,3.964-2.239,5.408l-36.97,36.969v-7.799c0-3.781-1.778-7.116-4.507-9.329l30.658-30.658
		c1.445-1.445,3.367-2.24,5.408-2.24C196.535,73.291,199.968,76.723,199.968,80.939L199.968,80.939z M79.322,29.296v16.849
		c0,1.66-1.354,3.019-3.014,3.019H59.46L79.322,29.296z M52.177,67.259c14.97,0,27.146,12.176,27.146,27.145
		c0,14.965-12.176,27.141-27.146,27.141c-14.964,0-27.146-12.176-27.146-27.141C25.031,79.436,37.213,67.259,52.177,67.259z
		 M37.095,123.919c4.533,2.325,9.652,3.663,15.082,3.663c5.436,0,10.549-1.338,15.082-3.663v15.728H37.095V123.919z M70.272,199.969
		h-36.19c-4.99,0-9.051-4.061-9.051-9.051v-77.5c1.714,2.443,3.738,4.657,6.032,6.559v19.67c0,3.324,2.707,6.031,6.031,6.031h30.164
		c3.325,0,6.032-2.707,6.032-6.031v-19.67c2.293-1.9,4.313-4.113,6.031-6.559v77.5C79.322,195.908,75.262,199.969,70.272,199.969z
		 M85.359,181.873V94.404c0-17.278-13.277-31.496-30.164-33.026v-6.182h21.113c4.984,0,9.051-4.061,9.051-9.05V25.032h93.495
		c1.666,0,3.02,1.354,3.02,3.013V72.04l-19.348,19.347h-13.83c-5.344,0-10.135,2.342-13.455,6.031H91.386v78.418h66.354v6.037
		H85.359z M163.777,181.873v-21.828l27.729-7.563l4.897,29.391H163.777z"/>
	<path d="M175.841,31.063H91.386v18.101h84.455V31.063z M169.809,43.127H97.423v-6.032h72.386V43.127L169.809,43.127z"/>
	<path d="M91.386,55.196h84.455v6.032H91.386V55.196z"/>
	<path d="M91.386,67.259h84.455v6.032H91.386V67.259z"/>
	<path d="M91.386,79.322h48.258v6.032H91.386V79.322z"/>
</g>
</svg>
