<?xml version="1.0" encoding="utf-8"?>
<!-- Generator: Adobe Illustrator 16.0.0, SVG Export Plug-In . SVG Version: 6.00 Build 0)  -->
<!DOCTYPE svg PUBLIC "-//W3C//DTD SVG 1.1//EN" "http://www.w3.org/Graphics/SVG/1.1/DTD/svg11.dtd">
<svg version="1.1" id="Capa_1" xmlns="http://www.w3.org/2000/svg" xmlns:xlink="http://www.w3.org/1999/xlink" x="0px" y="0px"
	 width="255px" height="225px" viewBox="0 0 255 225" enable-background="new 0 0 255 225" xml:space="preserve">
<g>
	<path fill="#3266CC" d="M127.499,7.498C69.51,7.498,22.5,54.51,22.5,112.498c0,57.992,47.01,105.004,104.999,105.004
		c57.992,0,105.001-47.012,105.001-105.004C232.5,54.51,185.491,7.498,127.499,7.498z M154.854,81.313
		c0,1.477-1.196,2.674-2.674,2.674h-16.488c-1.475,0-2.674-1.197-2.674-2.674s1.199-2.674,2.674-2.674h16.488
		C153.656,78.639,154.854,79.836,154.854,81.313z M130.316,64.305l7.783-7.784c1.045-1.045,2.736-1.045,3.779,0
		c1.047,1.044,1.047,2.737,0,3.779l-7.781,7.785c-0.521,0.523-1.207,0.783-1.892,0.783s-1.369-0.26-1.892-0.783
		C129.271,67.042,129.271,65.349,130.316,64.305z M114.418,46.216c0-1.477,1.197-2.674,2.673-2.674c1.478,0,2.675,1.197,2.675,2.674
		v16.488c0,1.476-1.197,2.673-2.675,2.673c-1.476,0-2.673-1.197-2.673-2.673V46.216z M92.299,56.515
		c1.044-1.044,2.737-1.044,3.782,0l7.784,7.784c1.044,1.045,1.044,2.738,0,3.781c-0.521,0.521-1.206,0.783-1.891,0.783
		s-1.369-0.262-1.891-0.783l-7.785-7.784C91.255,59.251,91.255,57.559,92.299,56.515z M79.322,81.305
		c0-1.476,1.197-2.673,2.673-2.673h16.487c1.478,0,2.674,1.197,2.674,2.673s-1.196,2.674-2.673,2.674H81.995
		C80.52,83.979,79.322,82.78,79.322,81.305z M158.164,170.182c-7.089,6.612-16.33,10.252-26.025,10.252
		c-7.185,0-14.198-2.019-20.284-5.838c-6.086-3.816-10.953-9.257-14.078-15.726l-12.315-25.501
		c-2.323-4.809-0.519-10.665,4.105-13.335c4.861-2.808,10.958-1.251,13.878,3.543l3.754,6.157v-16.676
		c0-1.479,1.197-2.677,2.675-2.677c1.477,0,2.675,1.198,2.675,2.677v26.2c0,1.2-0.799,2.251-1.953,2.574
		c-1.152,0.324-2.381-0.159-3.005-1.183l-8.71-14.295c-1.375-2.254-4.352-3.013-6.639-1.69c-2.214,1.276-3.076,4.077-1.965,6.378
		l12.316,25.501c5.44,11.267,17.036,18.543,29.544,18.543c8.34,0,16.286-3.132,22.379-8.813c1.08-1.008,2.772-0.949,3.778,0.131
		C159.303,167.482,159.243,169.175,158.164,170.182z M107.198,104.501c0-0.701,0.286-1.394,0.783-1.889
		c0.498-0.498,1.188-0.783,1.891-0.783c0.705,0,1.392,0.285,1.891,0.783c0.497,0.495,0.782,1.188,0.782,1.889
		c0,0.704-0.285,1.394-0.782,1.892c-0.499,0.497-1.186,0.783-1.891,0.783c-0.702,0-1.393-0.286-1.891-0.783
		C107.484,105.895,107.198,105.205,107.198,104.501z M165.212,161.114c-0.497,0.499-1.188,0.784-1.892,0.784
		s-1.393-0.285-1.889-0.784c-0.498-0.497-0.785-1.183-0.785-1.892c0-0.701,0.287-1.394,0.785-1.889
		c0.496-0.499,1.186-0.784,1.889-0.784s1.395,0.285,1.892,0.784c0.498,0.495,0.783,1.188,0.783,1.889
		C165.995,159.932,165.71,160.617,165.212,161.114z M170.299,142.275c0,2.313-0.21,4.629-0.623,6.888
		c-0.232,1.289-1.355,2.192-2.624,2.192c-0.161,0-0.321-0.016-0.483-0.043c-1.452-0.266-2.414-1.658-2.15-3.11
		c0.354-1.941,0.534-3.937,0.534-5.927v-27.959c0-2.507-2.038-4.546-4.546-4.546c-2.506,0-4.547,2.039-4.547,4.546v4.623v7.129
		c0,1.478-1.196,2.675-2.672,2.675c-1.478,0-2.676-1.197-2.676-2.675v-7.129v-4.623v-5.743c0-2.505-2.037-4.545-4.544-4.545
		s-4.547,2.04-4.547,4.545v2.582v14.914c0,1.478-1.194,2.675-2.672,2.675s-2.674-1.197-2.674-2.675v-14.914v-2.582
		c0-2.505-2.038-4.545-4.546-4.545s-4.545,2.04-4.545,4.545v17.495c0,1.478-1.197,2.675-2.674,2.675s-2.675-1.197-2.675-2.675
		v-44.76c0-2.505-2.038-4.545-4.545-4.545c-2.505,0-4.546,2.04-4.546,4.545v14.098c0,1.478-1.195,2.675-2.672,2.675
		c-1.478,0-2.675-1.197-2.675-2.675V81.308c0-5.453,4.438-9.892,9.893-9.892c5.457,0,9.894,4.438,9.894,9.892v18.485
		c1.361-0.709,2.905-1.111,4.545-1.111c2.845,0,5.412,1.209,7.218,3.139c1.81-1.93,4.373-3.139,7.221-3.139
		c4.478,0,8.267,2.99,9.481,7.078c1.457-0.85,3.15-1.336,4.955-1.336c5.455,0,9.895,4.438,9.895,9.893V142.275L170.299,142.275z"/>
	<g>
		<path fill="#FFFFFF" d="M127.499,7.498c57.992,0,105.001,47.012,105.001,105c0,57.992-47.009,105.004-105.001,105.004
			C69.51,217.502,22.5,170.49,22.5,112.498C22.5,54.51,69.51,7.498,127.499,7.498 M127.499,4.498
			c-28.847,0-55.968,11.234-76.367,31.633C30.734,56.53,19.5,83.651,19.5,112.498c0,28.85,11.234,55.971,31.632,76.37
			s47.519,31.634,76.367,31.634c28.849,0,55.972-11.234,76.369-31.634c20.397-20.397,31.632-47.521,31.632-76.37
			c0-28.848-11.232-55.968-31.632-76.367C183.471,15.732,156.348,4.498,127.499,4.498L127.499,4.498z"/>
	</g>
</g>
<path fill="#FFFFFF" d="M154.854,81.313c0,1.477-1.196,2.674-2.674,2.674h-16.488c-1.475,0-2.674-1.197-2.674-2.674
	s1.199-2.674,2.674-2.674h16.488C153.656,78.639,154.854,79.836,154.854,81.313z"/>
<path fill="#FFFFFF" d="M130.316,64.305l7.783-7.784c1.045-1.045,2.736-1.045,3.779,0c1.047,1.044,1.047,2.737,0,3.779l-7.781,7.785
	c-0.521,0.523-1.207,0.783-1.892,0.783s-1.369-0.26-1.892-0.783C129.271,67.042,129.271,65.349,130.316,64.305z"/>
<path fill="#FFFFFF" d="M114.418,46.216c0-1.477,1.197-2.674,2.673-2.674c1.478,0,2.675,1.197,2.675,2.674v16.488
	c0,1.476-1.197,2.673-2.675,2.673c-1.476,0-2.673-1.197-2.673-2.673V46.216z"/>
<path fill="#FFFFFF" d="M92.299,56.515c1.044-1.044,2.737-1.044,3.782,0l7.784,7.784c1.044,1.045,1.044,2.738,0,3.781
	c-0.521,0.521-1.206,0.783-1.891,0.783s-1.369-0.262-1.891-0.783l-7.785-7.784C91.255,59.251,91.255,57.559,92.299,56.515z"/>
<path fill="#FFFFFF" d="M79.322,81.305c0-1.476,1.197-2.673,2.673-2.673h16.487c1.478,0,2.674,1.197,2.674,2.673
	s-1.196,2.674-2.673,2.674H81.995C80.52,83.979,79.322,82.78,79.322,81.305z"/>
<path fill="#FFFFFF" d="M158.164,170.182c-7.089,6.612-16.33,10.252-26.025,10.252c-7.185,0-14.198-2.019-20.284-5.838
	c-6.086-3.816-10.953-9.257-14.078-15.726l-12.315-25.501c-2.323-4.809-0.519-10.665,4.105-13.335
	c4.861-2.808,10.958-1.251,13.878,3.543l3.754,6.157v-16.676c0-1.479,1.197-2.677,2.675-2.677c1.477,0,2.675,1.198,2.675,2.677v26.2
	c0,1.2-0.799,2.251-1.953,2.574c-1.152,0.324-2.381-0.159-3.005-1.183l-8.71-14.295c-1.375-2.254-4.352-3.013-6.639-1.69
	c-2.214,1.276-3.076,4.077-1.965,6.378l12.316,25.501c5.44,11.267,17.036,18.543,29.544,18.543c8.34,0,16.286-3.132,22.379-8.813
	c1.08-1.008,2.772-0.949,3.778,0.131C159.303,167.482,159.243,169.175,158.164,170.182z"/>
<path fill="#FFFFFF" d="M107.198,104.501c0-0.701,0.286-1.394,0.783-1.889c0.498-0.498,1.188-0.783,1.891-0.783
	c0.705,0,1.392,0.285,1.891,0.783c0.497,0.495,0.782,1.188,0.782,1.889c0,0.704-0.285,1.394-0.782,1.892
	c-0.499,0.497-1.186,0.783-1.891,0.783c-0.702,0-1.393-0.286-1.891-0.783C107.484,105.895,107.198,105.205,107.198,104.501z"/>
<path fill="#FFFFFF" d="M165.212,161.114c-0.497,0.499-1.188,0.784-1.892,0.784s-1.393-0.285-1.889-0.784
	c-0.498-0.497-0.785-1.183-0.785-1.892c0-0.701,0.287-1.394,0.785-1.889c0.496-0.499,1.186-0.784,1.889-0.784
	s1.395,0.285,1.892,0.784c0.498,0.495,0.783,1.188,0.783,1.889C165.995,159.932,165.71,160.617,165.212,161.114z"/>
<path fill="#FFFFFF" d="M170.299,142.275c0,2.313-0.21,4.629-0.623,6.888c-0.232,1.289-1.355,2.192-2.624,2.192
	c-0.161,0-0.321-0.016-0.483-0.043c-1.452-0.266-2.414-1.658-2.15-3.11c0.354-1.941,0.534-3.937,0.534-5.927v-27.959
	c0-2.507-2.038-4.546-4.546-4.546c-2.506,0-4.547,2.039-4.547,4.546v4.623v7.129c0,1.478-1.196,2.675-2.672,2.675
	c-1.478,0-2.676-1.197-2.676-2.675v-7.129v-4.623v-5.743c0-2.505-2.037-4.545-4.544-4.545s-4.547,2.04-4.547,4.545v2.582v14.914
	c0,1.478-1.194,2.675-2.672,2.675s-2.674-1.197-2.674-2.675v-14.914v-2.582c0-2.505-2.038-4.545-4.546-4.545
	s-4.545,2.04-4.545,4.545v17.495c0,1.478-1.197,2.675-2.674,2.675s-2.675-1.197-2.675-2.675v-44.76c0-2.505-2.038-4.545-4.545-4.545
	c-2.505,0-4.546,2.04-4.546,4.545v14.098c0,1.478-1.195,2.675-2.672,2.675c-1.478,0-2.675-1.197-2.675-2.675V81.308
	c0-5.453,4.438-9.892,9.893-9.892c5.457,0,9.894,4.438,9.894,9.892v18.485c1.361-0.709,2.905-1.111,4.545-1.111
	c2.845,0,5.412,1.209,7.218,3.139c1.81-1.93,4.373-3.139,7.221-3.139c4.478,0,8.267,2.99,9.481,7.078
	c1.457-0.85,3.15-1.336,4.955-1.336c5.455,0,9.895,4.438,9.895,9.893V142.275L170.299,142.275z"/>
</svg>
