<?xml version="1.0" encoding="utf-8"?>
<!-- Generator: Adobe Illustrator 16.0.0, SVG Export Plug-In . SVG Version: 6.00 Build 0)  -->
<!DOCTYPE svg PUBLIC "-//W3C//DTD SVG 1.1//EN" "http://www.w3.org/Graphics/SVG/1.1/DTD/svg11.dtd">
<svg version="1.1" id="Capa_1" xmlns="http://www.w3.org/2000/svg" xmlns:xlink="http://www.w3.org/1999/xlink" x="0px" y="0px"
	 width="225px" height="225px" viewBox="0 0 225 225" enable-background="new 0 0 225 225" xml:space="preserve">
<g>
	<path d="M82.338,115.516h60.324c1.662,0,3.016-1.349,3.016-3.016V46.146c0-1.667-1.354-3.017-3.016-3.017H82.338
		c-1.666,0-3.017,1.349-3.017,3.017V112.5C79.322,114.167,80.672,115.516,82.338,115.516z M127.58,109.484h-3.016V97.419h-6.033
		v12.064h-12.064V97.419h-6.032v12.064h-3.016v-15.08c0-1.665,1.354-3.016,3.016-3.016h24.129c1.66,0,3.016,1.351,3.016,3.016
		V109.484z M85.354,49.161h54.291v60.323h-6.033V94.403c0-4.989-4.059-9.049-9.047-9.049H112.5h-12.065
		c-4.988,0-9.048,4.06-9.048,9.049v15.081h-6.033V49.161z"/>
	<path d="M124.564,73.29v-6.031c0-6.655-5.412-12.065-12.064-12.065c-6.656,0-12.065,5.411-12.065,12.065v6.031
		c0,6.654,5.409,12.064,12.065,12.064C119.152,85.354,124.564,79.944,124.564,73.29z M118.531,73.29
		c0,3.328-2.705,6.033-6.031,6.033c-3.327,0-6.033-2.706-6.033-6.033v-6.031c0-3.327,2.706-6.033,6.033-6.033
		c3.326,0,6.031,2.706,6.031,6.033V73.29z"/>
	<path d="M202.984,19h-84.453c-1.664,0-3.016,1.349-3.016,3.016v9.048h-6.034v-9.048c0-1.667-1.351-3.016-3.016-3.016h-84.45
		C20.35,19,19,20.349,19,22.016v126.677c0,1.668,1.35,3.016,3.017,3.016h45.241v3.018c0,1.668,1.351,3.017,3.017,3.017h21.113v3.569
		c-0.947-0.336-1.955-0.556-3.016-0.556c-4.99,0-9.05,4.062-9.05,9.052v6.549c0,6.311,2.454,12.24,6.916,16.693
		c3.319,3.321,5.149,7.734,5.149,12.43V206h6.032v-0.52c0-6.311-2.456-12.24-6.917-16.692c-3.32-3.322-5.148-7.735-5.148-12.431
		v-6.551c0-1.666,1.354-3.018,3.018-3.018c1.66,0,3.016,1.352,3.016,3.018v6.03h6.032v-6.03v-36.195
		c0-1.663,1.354-3.016,3.016-3.016c1.661,0,3.016,1.353,3.016,3.016v24.131v12.064h6.032v-12.064c0-1.665,1.354-3.016,3.018-3.016
		c1.66,0,3.016,1.351,3.016,3.016v12.064h6.032v-12.064c0-1.665,1.354-3.016,3.017-3.016c1.66,0,3.016,1.351,3.016,3.016v12.064
		h6.031v-12.064c0-1.665,1.354-3.016,3.018-3.016c1.662,0,3.016,1.351,3.016,3.016v20.4c0,3.947-0.934,7.898-2.699,11.428
		c-2.18,4.361-3.334,9.248-3.334,14.125V206h6.033v-2.305c0-3.948,0.933-7.899,2.701-11.428c2.178-4.363,3.332-9.248,3.332-14.125
		v-20.4h9.049c1.664,0,3.015-1.348,3.015-3.016v-3.019h45.243c1.664,0,3.017-1.347,3.017-3.015V22.016
		C206,20.349,204.648,19,202.984,19z M25.033,145.68V25.033h78.418v6.032H70.274c-1.666,0-3.017,1.349-3.017,3.016v9.48
		c-0.98-0.253-1.983-0.432-3.015-0.432c-6.655,0-12.064,5.411-12.064,12.064v6.032c0,6.654,5.41,12.064,12.064,12.064
		c1.032,0,2.035-0.178,3.015-0.432v0.432h-3.015H52.178c-4.989,0-9.049,4.06-9.049,9.049v15.081h-6.031V37.097h24.129v-6.032H34.081
		c-1.666,0-3.017,1.349-3.017,3.016v66.355c0,1.667,1.351,3.016,3.017,3.016h33.177v6.032H34.081c-1.666,0-3.017,1.349-3.017,3.016
		v24.128c0,1.67,1.351,3.019,3.017,3.019h33.177v6.033H25.033z M67.257,66.438c-0.91,0.528-1.945,0.821-3.015,0.821
		c-3.328,0-6.033-2.706-6.033-6.033v-6.032c0-3.326,2.705-6.032,6.033-6.032c1.07,0,2.105,0.293,3.015,0.818V66.438z M52.178,85.354
		v12.065h-3.016v-15.08c0-1.665,1.354-3.016,3.016-3.016h15.08v18.096H58.21V85.354H52.178z M67.257,127.58v6.031h-30.16v-18.096
		h30.16v6.032H40.112v6.031L67.257,127.58L67.257,127.58z M151.709,151.709h-8.385c-1.654-1.836-4.031-3.016-6.695-3.016
		c-2.324,0-4.428,0.906-6.033,2.354c-1.604-1.45-3.707-2.354-6.031-2.354c-2.323,0-4.43,0.906-6.032,2.354
		c-1.604-1.45-3.707-2.354-6.031-2.354c-1.063,0-2.071,0.218-3.018,0.556v-15.638c0-4.986-4.059-9.047-9.048-9.047
		c-4.988,0-9.048,4.061-9.048,9.047v18.098H73.29V37.097h78.419V151.709z M157.74,49.979c0.912-0.525,1.947-0.818,3.016-0.818
		c3.328,0,6.035,2.706,6.035,6.032v6.032c0,3.328-2.707,6.033-6.035,6.033c-1.068,0-2.104-0.293-3.016-0.821V49.979z
		 M175.838,97.419h-3.016V85.354h-6.031v12.065h-9.051V79.323h15.082c1.662,0,3.016,1.351,3.016,3.016V97.419z M157.74,127.58
		h27.145v-6.031H157.74v-6.033h30.162v18.096H157.74V127.58z M199.967,145.68H157.74v-6.033h33.18c1.666,0,3.016-1.349,3.016-3.019
		V112.5c0-1.667-1.35-3.016-3.016-3.016h-33.18v-6.032h33.18c1.666,0,3.016-1.349,3.016-3.016V34.081
		c0-1.667-1.35-3.016-3.016-3.016h-27.146v6.032h24.129V97.42h-6.032V82.339c0-4.989-4.06-9.049-9.047-9.049h-12.066h-3.016v-0.432
		c0.979,0.254,1.985,0.432,3.016,0.432c6.656,0,12.066-5.411,12.066-12.064v-6.032c0-6.654-5.41-12.064-12.066-12.064
		c-1.028,0-2.034,0.178-3.016,0.432v-9.48c0-1.667-1.351-3.016-3.015-3.016h-33.178v-6.032h78.418V145.68L199.967,145.68z"/>
</g>
</svg>
