<?xml version="1.0" encoding="utf-8"?>
<!-- Generator: Adobe Illustrator 16.0.0, SVG Export Plug-In . SVG Version: 6.00 Build 0)  -->
<!DOCTYPE svg PUBLIC "-//W3C//DTD SVG 1.1//EN" "http://www.w3.org/Graphics/SVG/1.1/DTD/svg11.dtd">
<svg version="1.1" id="Capa_1" xmlns="http://www.w3.org/2000/svg" xmlns:xlink="http://www.w3.org/1999/xlink" x="0px" y="0px"
	 width="225px" height="225px" viewBox="0 0 225 225" enable-background="new 0 0 225 225" xml:space="preserve">
<g>
	<path d="M163.773,163.773h30.162v6.033h-30.162V163.773z"/>
	<path d="M175.838,175.838h6.033v6.031h-6.033V175.838z"/>
	<path d="M187.904,175.838h6.031v6.031h-6.031V175.838z"/>
	<path d="M163.773,175.838h6.033v6.031h-6.033V175.838z"/>
	<path d="M31.064,43.128h30.162v6.032H31.064V43.128z"/>
	<path d="M55.192,55.192h6.034v6.034h-6.034V55.192z"/>
	<path d="M31.064,55.192h6.032v6.034h-6.032V55.192z"/>
	<path d="M43.128,55.192h6.032v6.034h-6.032V55.192z"/>
	<path d="M163.773,123.746v-20.295h33.178c4.99,0,9.049-4.059,9.049-9.048V28.048c0-4.989-4.059-9.049-9.049-9.049h-78.42
		c-4.988,0-9.047,4.06-9.047,9.049V49.16H73.291V31.064H19V73.29h54.29V55.192h36.193v6.034h-8.23l-2.644,8.246
		c-2.328,0.748-4.581,1.677-6.721,2.771L84.2,68.286L68.292,84.193l3.957,7.688c-1.092,2.139-2.021,4.389-2.772,6.724l-8.251,2.647
		v20.296H28.048c-4.988,0-9.048,4.06-9.048,9.05v66.354c0,4.988,4.06,9.049,9.048,9.049h78.42c4.988,0,9.048-4.061,9.048-9.049
		v-21.113h36.192v18.098H206v-42.227h-54.291v18.098h-36.193v-6.033h8.232l2.641-8.246c2.332-0.75,4.584-1.676,6.725-2.771
		l7.688,3.957l15.906-15.905l-3.957-7.688c1.092-2.142,2.021-4.392,2.772-6.726L163.773,123.746z M67.258,67.257H25.033V37.096
		h42.226L67.258,67.257L67.258,67.257z M157.742,157.74h42.225v30.164h-42.225V157.74z M139.646,112.5
		c0,13.945-10.578,25.461-24.131,26.967v-8.869c0-4.99-4.06-9.049-9.048-9.049H86.93c-1.026-2.896-1.574-5.928-1.574-9.049
		c0-13.946,10.576-25.462,24.128-26.967v8.87c0,4.989,4.059,9.048,9.047,9.048h19.541
		C139.096,106.347,139.646,109.378,139.646,112.5z M136.871,97.419c1.021-7.098,5.57-13.048,11.822-16.031v0.95
		c0,4.989,4.059,9.049,9.049,9.049s9.047-4.06,9.047-9.049v-0.95c6.25,2.983,10.801,8.934,11.824,16.031H136.871z M142.662,50.985
		c0-5.996,4.875-10.873,10.871-10.873h1.193v7.185l-7.064,3.532c-1.879,0.94-3.318,2.464-4.16,4.288
		C142.967,53.812,142.662,52.418,142.662,50.985z M154.727,79.563c0.988-0.142,1.99-0.241,3.017-0.241
		c1.022,0,2.026,0.1,3.014,0.241v2.775c0,1.662-1.35,3.016-3.014,3.016c-1.666,0-3.017-1.354-3.017-3.016V79.563z M171.98,55.115
		c-0.842-1.825-2.279-3.349-4.158-4.29l-7.066-3.528v-7.185h1.193c5.996,0,10.873,4.877,10.873,10.873
		C172.822,52.418,172.521,53.812,171.98,55.115z M154.727,73.29c-3.328,0-6.033-2.706-6.033-6.033v-8.336
		c0-1.149,0.64-2.185,1.668-2.697l7.382-3.691l7.381,3.691c1.026,0.513,1.666,1.548,1.666,2.697v8.336
		c0,3.327-2.705,6.033-6.033,6.033H154.727z M115.516,28.048c0-1.663,1.353-3.017,3.017-3.017h78.42
		c1.666,0,3.016,1.354,3.016,3.017v66.354c0,1.662-1.35,3.017-3.016,3.017H184.71c-1.063-9.573-7.129-17.637-15.515-21.561
		c2.232-2.191,3.627-5.232,3.627-8.602v-2.102l3.195-4.79c1.857-2.787,2.838-6.032,2.838-9.377c0-9.323-7.586-16.908-16.905-16.908
		h-8.412c-9.322,0-16.908,7.585-16.908,16.905c0,3.349,0.979,6.591,2.838,9.377l3.195,4.793v2.102c0,3.37,1.394,6.41,3.627,8.602
		c-8.386,3.924-14.449,11.987-15.515,21.561h-12.244c-1.663,0-3.016-1.354-3.016-3.017V28.048L115.516,28.048z M67.258,105.649
		l7.107-2.276l0.439-1.56c0.845-2.982,2.015-5.817,3.475-8.433l0.793-1.412l-3.408-6.62l9.686-9.685l6.618,3.405l1.415-0.79
		c2.624-1.469,5.463-2.64,8.437-3.478l1.559-0.44l2.271-7.104h3.834v12.219c-16.885,1.53-30.161,15.748-30.161,33.025
		c0,3.098,0.455,6.12,1.286,9.049H67.258V105.649z M49.161,172.822V157.74c0-8.947,6.536-16.379,15.082-17.826v6.914l-7.064,3.533
		c-3.083,1.541-5.001,4.641-5.001,8.092v8.338c0,3.369,1.393,6.408,3.629,8.6c-1.689,0.791-3.283,1.75-4.759,2.855
		C49.847,176.691,49.161,174.809,49.161,172.822z M64.242,172.822c-3.327,0-6.032-2.705-6.032-6.031v-8.338
		c0-1.148,0.639-2.182,1.667-2.695l7.381-3.691l7.38,3.691c1.029,0.514,1.668,1.547,1.668,2.695v8.338
		c0,3.326-2.705,6.031-6.032,6.031H64.242z M67.258,178.855c2.419,0,4.733,0.428,6.898,1.178L72,184.887h-9.482l-2.157-4.854
		C62.525,179.283,64.839,178.855,67.258,178.855z M69.318,190.918l-2.06,4.637l-2.06-4.637H69.318z M79.521,182.814
		c5.349,3.836,8.85,10.086,8.85,17.151H71.9L79.521,182.814z M85.356,172.822c0,1.986-0.687,3.869-1.886,5.422
		c-1.479-1.107-3.071-2.063-4.759-2.855c2.233-2.188,3.627-5.229,3.627-8.598v-8.338c0-3.451-1.919-6.547-5-8.092l-7.064-3.533
		v-6.914c8.545,1.445,15.082,8.875,15.082,17.826V172.822z M54.994,182.814l7.622,17.151h-16.47
		C46.146,192.9,49.647,186.65,54.994,182.814z M109.484,196.951c0,1.662-1.351,3.016-3.016,3.016H94.403
		c0-6.703-2.454-12.836-6.501-17.578c2.239-2.678,3.485-6.024,3.485-9.565V157.74c0-13.303-10.826-24.127-24.129-24.127
		c-13.305,0-24.13,10.824-24.13,24.127v15.082c0,3.541,1.246,6.889,3.484,9.566c-4.045,4.741-6.5,10.875-6.5,17.577H28.048
		c-1.665,0-3.016-1.354-3.016-3.016v-66.354c0-1.664,1.351-3.018,3.016-3.018h78.42c1.665,0,3.016,1.354,3.016,3.018V196.951z
		 M150.635,121.623l-0.439,1.561c-0.844,2.982-2.014,5.818-3.475,8.435l-0.793,1.409l3.408,6.621l-9.689,9.685l-6.617-3.403
		l-1.413,0.788c-2.617,1.468-5.455,2.642-8.437,3.48l-1.559,0.438l-2.271,7.104h-3.834v-12.218
		c16.885-1.528,30.162-15.748,30.162-33.023c0-3.097-0.455-6.119-1.285-9.049h13.351v15.898L150.635,121.623z"/>
	<path d="M31.064,133.613h6.032v6.031h-6.032V133.613z"/>
	<path d="M97.42,133.613h6.031v6.031H97.42V133.613z"/>
	<path d="M121.549,31.064h6.031v6.032h-6.031V31.064z"/>
	<path d="M187.904,31.064h6.031v6.032h-6.031V31.064z"/>
</g>
</svg>
