<?xml version="1.0" encoding="utf-8"?>
<!-- Generator: Adobe Illustrator 16.0.0, SVG Export Plug-In . SVG Version: 6.00 Build 0)  -->
<!DOCTYPE svg PUBLIC "-//W3C//DTD SVG 1.1//EN" "http://www.w3.org/Graphics/SVG/1.1/DTD/svg11.dtd">
<svg version="1.1" id="Capa_1" xmlns="http://www.w3.org/2000/svg" xmlns:xlink="http://www.w3.org/1999/xlink" x="0px" y="0px"
	 width="225px" height="225px" viewBox="0 0 225 225" enable-background="new 0 0 225 225" xml:space="preserve">
<g>
	<path d="M196.65,19h-68.567c-5.163,0-9.351,4.186-9.351,9.351v74.8c0,5.164,4.188,9.35,9.351,9.35l0,0h15.583v39.077l-3.646-7.725
		c-0.674-2.281-2.203-4.215-4.266-5.396c-2.154-1.242-4.711-1.576-7.111-0.936l-2.869,0.772c-3.323,0.896-5.293,4.315-4.397,7.642
		c0.033,0.114,0.065,0.227,0.103,0.34l13.012,37.785c0.125,0.364,0.316,0.703,0.568,0.998l8.442,9.973l0.165,7.92
		c0.036,1.695,1.421,3.051,3.116,3.051h43.634c1.723,0,3.116-1.396,3.116-3.115v-8.418l5.71-8.564
		c0.341-0.51,0.521-1.106,0.525-1.719v-40.518c0.017-2.469-0.966-4.838-2.727-6.57c-2.65-2.613-6.583-3.443-10.066-2.125
		c-0.412-1.561-1.242-2.979-2.397-4.106c-2.654-2.613-6.587-3.443-10.069-2.125c-0.412-1.563-1.242-2.98-2.398-4.109
		c-2.562-2.532-6.332-3.401-9.742-2.246V112.5h34.285c5.162,0,9.349-4.186,9.349-9.35l0,0v-74.8C206,23.186,201.813,19,196.65,19z
		 M165.482,128.082c0.84,0,1.643,0.344,2.221,0.955c0.582,0.568,0.906,1.348,0.896,2.164v21.816c0,1.719,1.397,3.116,3.115,3.116
		c1.723,0,3.12-1.397,3.12-3.116v-15.584c0-1.724,1.396-3.117,3.116-3.117c0.839-0.002,1.643,0.342,2.217,0.953
		c0.582,0.567,0.906,1.352,0.898,2.164v15.584c0,1.719,1.396,3.116,3.117,3.116c1.721,0,3.115-1.397,3.115-3.116v-9.353
		c0-1.724,1.395-3.117,3.116-3.117c0.839-0.002,1.644,0.345,2.221,0.955c0.582,0.567,0.905,1.351,0.896,2.162v39.582l-5.709,8.563
		c-0.338,0.51-0.521,1.107-0.522,1.719v6.234h-37.464l-0.129-5.986c-0.014-0.717-0.273-1.403-0.737-1.952l-8.78-10.363
		l-12.795-37.172l2.849-0.769c0.81-0.215,1.669-0.104,2.396,0.312c0.711,0.405,1.229,1.08,1.438,1.871
		c0.046,0.185,9.891,21.075,9.891,21.075c0.736,1.558,2.595,2.224,4.15,1.486c1.077-0.508,1.771-1.592,1.78-2.785v-61.983
		c-0.065-1.704,1.146-3.191,2.828-3.466c0.937-0.094,1.864,0.252,2.51,0.935c0.588,0.574,0.912,1.362,0.897,2.183v49.869
		c0,1.719,1.396,3.116,3.116,3.116s3.115-1.397,3.115-3.116v-21.816C162.366,129.479,163.762,128.082,165.482,128.082z
		 M199.768,103.15c0,1.722-1.396,3.117-3.115,3.117h-34.285v-3.117c0.021-2.469-0.965-4.839-2.723-6.57
		c-1.943-1.986-4.674-2.994-7.438-2.746c-4.911,0.542-8.604,4.726-8.539,9.665v2.769h-15.583c-1.721,0-3.113-1.396-3.113-3.117
		v-74.8c0-1.723,1.395-3.117,3.113-3.117h68.568c1.719,0,3.115,1.395,3.115,3.117V103.15L199.768,103.15z"/>
	<path d="M162.366,37.699c-13.771,0-24.933,11.163-24.933,24.934c0,13.77,11.162,24.933,24.933,24.933h12.469
		c1.718,0,3.116-1.396,3.116-3.116c0-1.722-1.398-3.116-3.116-3.116h-12.469c-10.326,0-18.7-8.373-18.7-18.701
		c0-10.328,8.374-18.699,18.7-18.699c10.327,0,18.7,8.372,18.7,18.699v3.117c0,1.721-1.395,3.116-3.115,3.116
		s-3.116-1.395-3.116-3.116v-3.117c0.056-6.941-5.524-12.616-12.469-12.672c-6.942-0.057-12.613,5.525-12.671,12.467
		c-0.059,6.941,5.525,12.615,12.467,12.671c3.212,0.026,6.313-1.178,8.664-3.366c3.281,3.958,9.15,4.504,13.109,1.221
		c2.142-1.776,3.377-4.421,3.363-7.205v-3.117C187.283,48.869,176.13,37.715,162.366,37.699z M162.366,68.866
		c-3.443,0-6.232-2.791-6.232-6.233c0-3.442,2.789-6.233,6.232-6.233c3.442,0,6.231,2.792,6.231,6.233
		C168.6,66.075,165.811,68.866,162.366,68.866z"/>
	<path d="M96.605,79.195L81.18,63.767c-1.216-1.217-3.188-1.217-4.406,0l-6.613,6.611c-3.651,3.651-9.571,3.652-13.223,0h-0.002
		l-0.754-0.754c-3.651-3.651-3.653-9.571-0.001-13.223l0.001-0.001l6.609-6.613c1.218-1.217,1.218-3.19,0-4.407L47.362,29.954
		c-1.218-1.217-3.19-1.217-4.407,0l-6.61,6.611c-10.938,10.961-10.938,28.708,0,39.67l13.977,13.978
		c10.963,10.938,28.709,10.938,39.67,0l6.614-6.61C97.822,82.384,97.822,80.412,96.605,79.195z M78.978,70.378l11.018,11.02
		l-2.204,2.204L76.773,72.581L78.978,70.378z M45.161,36.565l11.018,11.018l-2.204,2.207L42.954,38.769L45.161,36.565z
		 M54.729,85.809L40.751,71.827c-7.653-7.675-8.525-19.802-2.047-28.492l11.082,11.083c-4.071,6.181-3.242,14.374,1.986,19.613
		l0.753,0.754c5.243,5.225,13.432,6.053,19.613,1.985l11.083,11.083c-8.69,6.477-20.817,5.604-28.492-2.048V85.809z"/>
	<path d="M96.916,112.5H28.349c-5.163,0-9.349-4.186-9.349-9.35l0,0v-74.8c0-5.164,4.186-9.35,9.349-9.35h68.567
		c5.164,0,9.351,4.186,9.351,9.351v74.8C106.267,108.314,102.08,112.5,96.916,112.5L96.916,112.5z M28.349,25.233
		c-1.722,0-3.116,1.395-3.116,3.117v74.8c0,1.722,1.395,3.117,3.116,3.117h68.567c1.722,0,3.116-1.396,3.116-3.117v-74.8
		c0-1.723-1.395-3.117-3.116-3.117H28.349z"/>
	<path d="M96.916,206H28.349c-5.163,0-9.349-4.188-9.349-9.35v-68.568c0-5.162,4.186-9.35,9.349-9.35h68.567
		c5.164,0,9.351,4.188,9.351,9.35v68.568C106.267,201.813,102.08,206,96.916,206z M28.349,124.967c-1.722,0-3.116,1.396-3.116,3.115
		v68.568c0,1.719,1.395,3.115,3.116,3.115h68.567c1.722,0,3.116-1.396,3.116-3.115v-68.568c0-1.719-1.395-3.115-3.116-3.115H28.349z
		"/>
	<path d="M90.683,140.549h-56.1c-1.722,0-3.116,1.395-3.116,3.117v37.4c0,1.721,1.395,3.117,3.116,3.117h56.1
		c1.723,0,3.117-1.396,3.117-3.117v-37.4C93.8,141.943,92.405,140.549,90.683,140.549z M62.633,164.393l-19.846-17.61h39.686
		L62.633,164.393z M50.995,162.393l-13.296,11.754v-23.545L50.995,162.393z M55.689,166.561l2.806,2.494
		c2.359,2.139,5.955,2.146,8.322,0.019l2.806-2.496l12.836,11.373h-39.65L55.689,166.561z M74.303,162.393l13.264-11.791v23.545
		L74.303,162.393z"/>
</g>
</svg>
