<svg width="512" height="512" xmlns="http://www.w3.org/2000/svg">

 <g>
  <title>Layer 1</title>
  <g id="svg_1">
   <g id="svg_2">
    <path fill="#3366cc" id="svg_3" d="m256,0c-141.163,0 -256,114.837 -256,256s114.837,256 256,256s256,-114.837 256,-256s-114.837,-256 -256,-256zm79.083,271.083l-106.667,106.666c-4.16,4.16 -9.621,6.251 -15.083,6.251c-5.461,0 -10.923,-2.091 -15.083,-6.251c-8.341,-8.341 -8.341,-21.824 0,-30.165l91.585,-91.584l-91.584,-91.584c-8.341,-8.341 -8.341,-21.824 0,-30.165s21.824,-8.341 30.165,0l106.667,106.667c8.341,8.341 8.341,21.823 0,30.165z"/>
   </g>
  </g>
  <g id="svg_4"/>
  <g id="svg_5"/>
  <g id="svg_6"/>
  <g id="svg_7"/>
  <g id="svg_8"/>
  <g id="svg_9"/>
  <g id="svg_10"/>
  <g id="svg_11"/>
  <g id="svg_12"/>
  <g id="svg_13"/>
  <g id="svg_14"/>
  <g id="svg_15"/>
  <g id="svg_16"/>
  <g id="svg_17"/>
  <g id="svg_18"/>
 </g>
</svg>