<?xml version="1.0" encoding="utf-8"?>
<!-- Generator: Adobe Illustrator 16.0.0, SVG Export Plug-In . SVG Version: 6.00 Build 0)  -->
<!DOCTYPE svg PUBLIC "-//W3C//DTD SVG 1.1//EN" "http://www.w3.org/Graphics/SVG/1.1/DTD/svg11.dtd">
<svg version="1.1" id="Capa_1" xmlns="http://www.w3.org/2000/svg" xmlns:xlink="http://www.w3.org/1999/xlink" x="0px" y="0px"
	 width="225px" height="225px" viewBox="0 0 225 225" enable-background="new 0 0 225 225" xml:space="preserve">
<g>
	<path d="M118.952,102.273h26.351c2.016,0,3.65-1.635,3.65-3.651s-1.637-3.652-3.65-3.652h-26.351c-2.019,0-3.651,1.636-3.651,3.652
		S116.934,102.273,118.952,102.273z"/>
	<path d="M154.482,118.178l-10.89,11.775c-0.239,0.26-0.526,0.299-0.718,0.309c-0.197-0.002-0.477-0.063-0.711-0.328
		c-1.568-1.785-3.831-2.809-6.208-2.809s-4.638,1.023-6.208,2.809l-1.93,2.193c-0.236,0.271-0.522,0.328-0.725,0.328
		c-0.197,0-0.484-0.057-0.721-0.328l-3.835-4.359c-1.333-1.518-3.642-1.666-5.155-0.332c-1.518,1.332-1.665,3.64-0.332,5.154
		l3.838,4.361c1.567,1.785,3.832,2.809,6.205,2.809c2.377,0,4.643-1.023,6.213-2.809l1.924-2.191c0.237-0.271,0.527-0.33,0.726-0.33
		s0.487,0.06,0.726,0.33c1.539,1.754,3.766,2.775,6.103,2.807c2.341,0.021,4.586-0.938,6.172-2.653l10.894-11.774
		c1.368-1.482,1.279-3.791-0.205-5.158C158.167,116.605,155.854,116.697,154.482,118.178z"/>
	<path d="M148.156,149.418h-27.27c-2.019,0-3.654,1.635-3.654,3.652c0,2.016,1.637,3.652,3.654,3.652h27.27
		c2.018,0,3.654-1.638,3.654-3.652C151.811,151.053,150.174,149.418,148.156,149.418z"/>
	<path d="M202.346,184.086h-25.563V37.262c0-9.232-6.89-16.882-15.798-18.09c-0.348-0.111-0.717-0.171-1.103-0.171H37.261
		C27.191,19,19,27.192,19,37.262c0,2.017,1.634,3.652,3.652,3.652h10.934v146.822c0,10.074,8.193,18.264,18.261,18.264h135.889
		c10.07,0,18.265-8.189,18.265-18.264C206,185.721,204.363,184.086,202.346,184.086z M37.261,26.305H143.92
		c-1.602,2.124-2.745,4.606-3.295,7.304H26.932C28.438,29.359,32.499,26.305,37.261,26.305z M40.89,187.736V40.915h103.02
		c2.018,0,3.65-1.635,3.65-3.652c0-6.042,4.914-10.957,10.957-10.957c6.041,0,10.955,4.915,10.955,10.957v150.473
		c0,4.109,1.366,7.904,3.664,10.959H51.847C45.805,198.695,40.89,193.781,40.89,187.736z M187.736,198.695
		c-4.764,0-8.825-3.053-10.329-7.305h20.659C196.563,195.643,192.5,198.695,187.736,198.695z"/>
	<path d="M56.299,84.743h97.77c2.016,0,3.65-1.635,3.65-3.652c0-2.017-1.636-3.652-3.65-3.652h-97.77
		c-2.018,0-3.652,1.635-3.652,3.652C52.647,83.108,54.281,84.743,56.299,84.743z"/>
	<path d="M100.438,96.039c-0.679,0.68-1.07,1.62-1.07,2.583c0,0.96,0.392,1.902,1.07,2.58c0.68,0.682,1.622,1.071,2.582,1.071
		c0.961,0,1.904-0.39,2.582-1.071c0.68-0.678,1.07-1.62,1.07-2.58c0-0.963-0.391-1.903-1.07-2.583
		c-0.678-0.679-1.621-1.069-2.582-1.069C102.058,94.969,101.118,95.358,100.438,96.039z"/>
	<path d="M70.277,67.211h69.811c2.02,0,3.65-1.635,3.65-3.652c0-2.018-1.633-3.652-3.65-3.652H70.277
		c-2.018,0-3.652,1.634-3.652,3.652C66.625,65.576,68.26,67.211,70.277,67.211z"/>
	<path d="M99.073,122.121c-1.251-0.639-2.251-1.639-2.891-2.889c-3.131-6.131-10.157-9.042-16.707-6.919
		c-1.336,0.434-2.748,0.434-4.085,0c-6.549-2.119-13.575,0.789-16.708,6.919c-0.638,1.25-1.638,2.25-2.889,2.889
		c-6.13,3.135-9.04,10.16-6.92,16.707c0.433,1.336,0.433,2.752,0,4.088c-2.12,6.547,0.79,13.574,6.92,16.705
		c1.251,0.639,2.251,1.641,2.889,2.891c0.952,1.859,2.263,3.418,3.808,4.635v20.59c0,1.482,0.895,2.814,2.264,3.378
		c1.367,0.565,2.939,0.247,3.983-0.804l8.696-8.77l8.696,8.77c0.7,0.705,1.638,1.08,2.595,1.08c0.467,0,0.939-0.088,1.389-0.276
		c1.369-0.563,2.262-1.896,2.262-3.378V167.15c1.547-1.215,2.858-2.779,3.808-4.64c0.64-1.25,1.639-2.252,2.89-2.891
		c6.131-3.129,9.041-10.158,6.921-16.705c-0.434-1.336-0.434-2.752,0-4.086C108.113,132.281,105.203,125.252,99.073,122.121z
		 M85.07,178.869l-5.043-5.086c-0.687-0.693-1.621-1.08-2.594-1.08c-0.975,0-1.908,0.387-2.594,1.08l-5.045,5.086v-8.813
		c0.42,0.036,0.84,0.063,1.263,0.063c1.437,0,2.896-0.221,4.333-0.688c1.337-0.435,2.749-0.435,4.085,0
		c1.862,0.602,3.758,0.797,5.595,0.631V178.869z M95.749,153.117c-2.627,1.344-4.728,3.443-6.07,6.07
		c-1.491,2.916-4.837,4.303-7.953,3.295c-2.808-0.908-5.776-0.908-8.584,0c-3.118,1.008-6.462-0.375-7.951-3.295
		c-1.345-2.627-3.445-4.728-6.074-6.07c-2.916-1.49-4.301-4.836-3.293-7.951c0.908-2.809,0.908-5.779,0-8.586
		c-1.008-3.117,0.377-6.463,3.293-7.953c2.629-1.342,4.729-3.443,6.072-6.07c1.163-2.277,3.456-3.621,5.889-3.621
		c0.685,0,1.379,0.105,2.064,0.328c2.808,0.908,5.774,0.908,8.584,0c3.117-1.01,6.462,0.373,7.953,3.293
		c1.343,2.627,3.443,4.729,6.07,6.07c2.918,1.49,4.304,4.836,3.293,7.953c-0.906,2.807-0.906,5.777,0,8.586
		C100.053,148.283,98.667,151.627,95.749,153.117z"/>
	<path d="M77.434,125.021c-8.739,0-15.848,7.11-15.848,15.85c0,8.74,7.108,15.852,15.848,15.852c8.74,0,15.85-7.111,15.85-15.852
		C93.283,132.133,86.173,125.021,77.434,125.021z M77.434,149.418c-4.712,0-8.544-3.834-8.544-8.547
		c0-4.709,3.834-8.545,8.544-8.545c4.712,0,8.545,3.836,8.545,8.545C85.979,145.584,82.146,149.418,77.434,149.418z"/>
</g>
</svg>
