<?xml version="1.0" encoding="utf-8"?>
<!-- Generator: Adobe Illustrator 16.0.0, SVG Export Plug-In . SVG Version: 6.00 Build 0)  -->
<!DOCTYPE svg PUBLIC "-//W3C//DTD SVG 1.1//EN" "http://www.w3.org/Graphics/SVG/1.1/DTD/svg11.dtd">
<svg version="1.1" id="Capa_1" xmlns="http://www.w3.org/2000/svg" xmlns:xlink="http://www.w3.org/1999/xlink" x="0px" y="0px"
	 width="225px" height="225px" viewBox="0 0 225 225" enable-background="new 0 0 225 225" xml:space="preserve">
<g>
	<path d="M206,175.162v-22.78l-8.727-2.229c-0.061-0.146-0.121-0.293-0.186-0.439l4.594-7.742l-16.106-16.107l-7.742,4.593
		c-0.147-0.062-0.296-0.124-0.44-0.183l-2.229-8.724h-22.781l-2.229,8.726c-0.146,0.06-0.293,0.119-0.439,0.185l-7.74-4.594
		l-16.109,16.108l4.594,7.741c-0.063,0.149-0.124,0.298-0.186,0.439l-8.724,2.229v22.78l8.728,2.229
		c0.061,0.146,0.121,0.295,0.185,0.439l-4.594,7.742l16.106,16.107l7.742-4.593c0.149,0.062,0.297,0.124,0.44,0.183l2.229,8.726
		h22.78l2.229-8.728c0.146-0.06,0.295-0.121,0.44-0.184l7.74,4.592l16.108-16.106l-4.594-7.742c0.063-0.147,0.124-0.297,0.186-0.438
		L206,175.162z M194.107,184.624l-9.482,9.483l-6.447-3.823l-1.449,0.692c-0.935,0.442-1.892,0.844-2.875,1.191l-1.521,0.537
		l-1.851,7.262h-13.414l-1.852-7.262l-1.52-0.537c-0.984-0.345-1.943-0.746-2.875-1.191l-1.451-0.692l-6.446,3.823l-9.483-9.483
		l3.826-6.444l-0.692-1.451c-0.443-0.937-0.845-1.891-1.192-2.875l-0.537-1.521l-7.265-1.851v-13.414l7.26-1.852l0.539-1.52
		c0.345-0.984,0.745-1.942,1.192-2.875l0.693-1.45l-3.826-6.445l9.482-9.481l6.445,3.822l1.451-0.692
		c0.936-0.444,1.892-0.845,2.875-1.192l1.521-0.537l1.851-7.266h13.414l1.852,7.263l1.52,0.538c0.984,0.344,1.944,0.744,2.875,1.191
		l1.452,0.693l6.445-3.824l9.483,9.481l-3.826,6.446l0.695,1.449c0.441,0.937,0.842,1.892,1.189,2.875l0.539,1.521l7.264,1.852
		v13.412l-7.261,1.852l-0.539,1.521c-0.345,0.982-0.745,1.94-1.19,2.875l-0.693,1.448L194.107,184.624z"/>
	<path d="M163.773,139.645c-13.305,0-24.129,10.826-24.129,24.129c0,13.307,10.824,24.129,24.129,24.129
		c13.306,0,24.129-10.822,24.129-24.129C187.902,150.471,177.079,139.645,163.773,139.645z M163.773,181.87
		c-9.98,0-18.098-8.116-18.098-18.097c0-9.981,8.116-18.097,18.098-18.097c9.98,0,18.098,8.115,18.098,18.097
		C181.871,173.754,173.755,181.87,163.773,181.87z"/>
	<path d="M163.773,151.71c-6.652,0-12.063,5.41-12.063,12.063c0,6.654,5.411,12.063,12.063,12.063
		c6.654,0,12.064-5.408,12.064-12.063C175.839,157.12,170.43,151.71,163.773,151.71z M163.773,169.807
		c-3.328,0-6.031-2.705-6.031-6.033c0-3.326,2.703-6.03,6.031-6.03s6.031,2.704,6.031,6.03
		C169.805,167.102,167.102,169.807,163.773,169.807z"/>
	<path d="M95.384,70.069c1.011,2.962,2.769,5.572,5.052,7.624v2.559l-14.343,5.376c-5.854,2.193-9.786,7.867-9.786,14.119v15.769
		h72.386V99.747c0-6.252-3.934-11.926-9.784-14.122l-14.345-5.377v-2.555c2.283-2.048,4.041-4.66,5.053-7.624
		c5.683-0.976,10.027-5.905,10.027-11.86V46.145c0-14.966-12.176-27.145-27.146-27.145c-14.968,0-27.145,12.179-27.145,27.145
		v12.064C85.354,64.164,89.701,69.094,95.384,70.069z M118.532,81.504l-6.033,10.052l-6.031-10.052v-0.223
		c1.892,0.674,3.914,1.057,6.031,1.057c2.119,0,4.142-0.386,6.033-1.057V81.504z M102.157,86.045l6.081,10.13l-6.042,3.021
		l-3.903-11.702L102.157,86.045z M142.661,99.747v9.737H82.339v-9.737c0-3.753,2.358-7.154,5.871-8.473l4.435-1.661l6.029,18.091
		l13.825-6.912l13.826,6.912l6.028-18.091l4.438,1.664C140.303,92.593,142.661,95.994,142.661,99.747z M126.705,87.493
		l-3.902,11.705l-6.041-3.02l6.081-10.134L126.705,87.493z M112.499,76.306c-6.651,0-12.063-5.411-12.063-12.064V51.973
		c4.415-0.466,8.582-2.075,12.063-4.814c3.483,2.743,7.649,4.349,12.065,4.814v12.269C124.564,70.895,119.154,76.306,112.499,76.306
		z M130.598,63.403V53.019c1.795,1.046,3.016,2.972,3.016,5.194C133.611,60.435,132.393,62.356,130.598,63.403z M112.499,25.032
		c11.64,0,21.112,9.472,21.112,21.112v1.678c-1.78-1.038-3.823-1.678-6.03-1.678h-0.519c-4.696,0-9.111-1.827-12.432-5.148
		l-2.133-2.135l-2.131,2.135c-3.321,3.321-7.734,5.148-12.431,5.148h-0.519c-2.207,0-4.25,0.64-6.032,1.678v-1.678
		C91.387,34.504,100.861,25.032,112.499,25.032z M94.402,53.015V63.4c-1.794-1.047-3.016-2.972-3.016-5.194
		C91.387,55.984,92.608,54.063,94.402,53.015z"/>
	<path d="M61.225,187.902h6.033v6.031h-6.033V187.902L61.225,187.902z"/>
	<path d="M99.552,153.843l-4.266-4.266l-14.197,14.196l14.197,14.197l4.266-4.266l-6.915-6.916h22.878v-6.033H92.637L99.552,153.843
		z"/>
	<path d="M19,206h60.323v-78.421H19V206z M25.033,133.611h48.258v66.355H25.033V133.611z"/>
	<path d="M31.065,139.645h36.192v6.033H31.065V139.645z"/>
	<path d="M31.065,151.71h6.031v6.032h-6.031V151.71z"/>
	<path d="M43.129,151.71h24.129v6.032H43.129V151.71z"/>
	<path d="M31.065,163.773h36.192v6.033H31.065V163.773z"/>
	<path d="M31.065,175.837h36.192v6.033H31.065V175.837z"/>
	<path d="M31.065,187.902h24.129v6.031H31.065V187.902z"/>
	<path d="M52.178,67.258c0-1.661,1.352-3.017,3.017-3.017h13.832l-6.916,6.916l4.265,4.265l14.197-14.196L66.375,47.028
		l-4.265,4.265l6.916,6.916H55.194c-4.988,0-9.049,4.061-9.049,9.049v54.291h6.033V67.258z"/>
	<path d="M163.773,67.258v37.96l-6.914-6.916l-4.268,4.267l14.198,14.197l14.196-14.197l-4.266-4.267l-6.916,6.916v-37.96
		c0-4.988-4.061-9.049-9.048-9.049h-15.082v6.032h15.082C162.423,64.241,163.773,65.597,163.773,67.258z"/>
</g>
</svg>
