<?xml version="1.0" encoding="utf-8"?>
<!-- Generator: Adobe Illustrator 16.0.0, SVG Export Plug-In . SVG Version: 6.00 Build 0)  -->
<!DOCTYPE svg PUBLIC "-//W3C//DTD SVG 1.1//EN" "http://www.w3.org/Graphics/SVG/1.1/DTD/svg11.dtd">
<svg version="1.1" id="Capa_1" xmlns="http://www.w3.org/2000/svg" xmlns:xlink="http://www.w3.org/1999/xlink" x="0px" y="0px"
	 width="225px" height="225px" viewBox="0 0 225 225" enable-background="new 0 0 225 225" xml:space="preserve">
<g>
	<path d="M188.594,106.222h-4.41V58.811c0-1.541-1.271-2.784-2.822-2.738c-1.5,0.045-2.655,1.354-2.655,2.853v47.296h-18.358
		c-1.515,0-2.738,1.227-2.738,2.74c0,1.512,1.225,2.738,2.738,2.738h28.248c3.54,0,6.42,2.881,6.42,6.421s-2.88,6.419-6.42,6.419
		h-55.964V111.7h14.933c1.512,0,2.74-1.227,2.74-2.738c0-1.514-1.229-2.74-2.74-2.74h-15.588c-1.982,0-3.688,1.203-4.429,2.915
		h-19.377c-0.664-1.703-2.316-2.915-4.252-2.915h-8.005c-1.934,0-3.588,1.212-4.251,2.915H79.92v-2.352
		c0-2.318-1.246-4.347-3.097-5.467v-6.975c4.811-1.448,8.327-5.918,8.327-11.195c0-6.445-5.243-11.689-11.69-11.689h-9.238v-46.98
		h114.484v21.549c0,1.54,1.271,2.784,2.823,2.737c1.498-0.044,2.654-1.352,2.654-2.852V23.565c0-2.521-2.045-4.565-4.565-4.565
		H63.308c-2.521,0-4.565,2.044-4.565,4.565v47.893h-8.182c-6.445,0-11.69,5.244-11.69,11.689c0,5.277,3.515,9.747,8.327,11.195
		v6.975c-1.852,1.12-3.097,3.148-3.097,5.467v22.671c0,2.318,1.245,4.345,3.097,5.468v6.974c-4.812,1.451-8.326,5.918-8.326,11.194
		c0,6.447,5.243,11.691,11.689,11.691h8.182v9.51h-21.41c-3.524,0-6.392,2.868-6.392,6.394v4.537h-0.042
		c-3.524,0-6.392,2.865-6.392,6.391v9.822c0,2.517,2.047,4.564,4.565,4.564h150.544c2.521,0,4.565-2.044,4.565-4.564V130.02h4.41
		c6.561,0,11.898-5.338,11.898-11.898C200.49,111.561,195.154,106.222,188.594,106.222L188.594,106.222z M108.484,114.615h18.668
		v7.01h-18.668V114.615z M96.826,111.7h6.18v12.839h-6.18V111.7z M79.92,114.615h11.427v7.01H79.92V114.615z M44.349,83.147
		c0-3.425,2.787-6.212,6.212-6.212h22.898c3.425,0,6.212,2.787,6.212,6.212c0,3.426-2.787,6.212-6.212,6.212H50.561
		C47.136,89.36,44.35,86.574,44.349,83.147L44.349,83.147z M50.492,130.369c-0.503,0-0.913-0.41-0.913-0.914v-22.671
		c0-0.503,0.409-0.913,0.913-0.913h23.036c0.503,0,0.913,0.41,0.913,0.913v22.671c0,0.504-0.41,0.914-0.913,0.914H50.492z
		 M71.345,135.846v5.557H52.676v-5.557H71.345z M52.676,100.393v-5.555h18.669v5.555H52.676z M50.561,159.305
		c-3.425,0-6.212-2.789-6.212-6.214c0-3.424,2.787-6.211,6.212-6.211h22.898c3.425,0,6.212,2.787,6.212,6.211
		c0,3.425-2.787,6.214-6.212,6.214H50.561z M94.035,200.521H29.986v-8.908c0-0.504,0.41-0.914,0.913-0.914h16.955
		c1.513,0,2.739-1.225,2.739-2.738c0-1.513-1.227-2.738-2.739-2.738H36.42v-4.537c0-0.504,0.41-0.914,0.913-0.914h49.353
		c0.505,0,0.915,0.41,0.915,0.914v4.537H60.637c-1.513,0-2.739,1.226-2.739,2.738c0,1.514,1.227,2.738,2.739,2.738h32.485
		c0.503,0,0.912,0.41,0.912,0.914L94.035,200.521L94.035,200.521z M178.705,200.521H99.513v-8.908c0-3.524-2.867-6.391-6.391-6.391
		H93.08v-4.537c0-3.524-2.868-6.394-6.394-6.394H64.221v-9.51h9.238c6.446,0,11.69-5.244,11.69-11.691
		c0-5.276-3.516-9.743-8.327-11.194v-6.974c1.852-1.123,3.097-3.149,3.097-5.468v-2.352H91.66c0.663,1.703,2.317,2.914,4.251,2.914
		h8.005c1.936,0,3.588-1.213,4.252-2.914h19.377c0.74,1.713,2.445,2.914,4.428,2.914h46.73v70.504H178.705z"/>
	<path d="M93.096,64.39c0,15.643,12.726,28.367,28.367,28.367c15.641,0,28.369-12.725,28.369-28.367s-12.729-28.367-28.369-28.367
		C105.822,36.022,93.096,48.748,93.096,64.39L93.096,64.39z M144.352,64.39c0,12.621-10.268,22.889-22.889,22.889
		c-12.62,0-22.888-10.268-22.888-22.889c0-12.621,10.269-22.889,22.888-22.889C134.084,41.501,144.352,51.769,144.352,64.39z"/>
	<path d="M113.65,61.383c-1.071-1.069-2.805-1.069-3.875,0c-1.07,1.07-1.07,2.806,0,3.875l8.425,8.425
		c0.534,0.535,1.235,0.803,1.938,0.803c0.698,0,1.399-0.268,1.936-0.803l13.061-13.06c1.07-1.07,1.07-2.804,0-3.873
		c-1.07-1.07-2.803-1.07-3.873,0l-11.123,11.122L113.65,61.383z"/>
	<path d="M108.001,141.193c0,1.515,1.226,2.742,2.739,2.742h50.376c1.512,0,2.739-1.229,2.739-2.742
		c0-1.512-1.229-2.737-2.739-2.737H110.74C109.227,138.456,108.001,139.684,108.001,141.193z"/>
	<path d="M161.115,151.779h-25.971c-1.515,0-2.74,1.226-2.74,2.738c0,1.514,1.227,2.738,2.74,2.738h25.971
		c1.514,0,2.74-1.226,2.74-2.738S162.629,151.779,161.115,151.779z"/>
	<path d="M110.741,157.257h14.907c1.513,0,2.74-1.226,2.74-2.737c0-1.515-1.229-2.74-2.74-2.74h-14.907
		c-1.514,0-2.739,1.227-2.739,2.74C108.001,156.031,109.227,157.257,110.741,157.257z"/>
	<path d="M161.115,165.102H110.74c-1.513,0-2.738,1.228-2.738,2.74c0,1.512,1.226,2.738,2.738,2.738h50.375
		c1.514,0,2.74-1.227,2.74-2.738C163.855,166.328,162.629,165.102,161.115,165.102z"/>
	<path d="M161.115,178.424h-13.188c-1.514,0-2.739,1.229-2.739,2.739c0,1.513,1.227,2.739,2.739,2.739h13.188
		c1.514,0,2.74-1.228,2.74-2.739C163.855,179.65,162.629,178.424,161.115,178.424z"/>
	<path d="M139.527,178.424H110.74c-1.514,0-2.739,1.229-2.739,2.739c0,1.513,1.226,2.739,2.739,2.739h28.787
		c1.514,0,2.74-1.228,2.74-2.739C142.268,179.65,141.041,178.424,139.527,178.424z"/>
</g>
</svg>
