<?xml version="1.0" encoding="utf-8"?>
<!-- Generator: Adobe Illustrator 16.0.0, SVG Export Plug-In . SVG Version: 6.00 Build 0)  -->
<!DOCTYPE svg PUBLIC "-//W3C//DTD SVG 1.1//EN" "http://www.w3.org/Graphics/SVG/1.1/DTD/svg11.dtd">
<svg version="1.1" id="Capa_1" xmlns="http://www.w3.org/2000/svg" xmlns:xlink="http://www.w3.org/1999/xlink" x="0px" y="0px"
	 width="100px" height="100px" viewBox="0 0 100 100" enable-background="new 0 0 100 100" xml:space="preserve">
<g>
	<path fill="#FBFFFF" d="M61.481,31.725c-3.884-0.592-18.454-0.544-22.503-0.087c-3.989,0.441-6.638,2.913-7.24,6.869
		c-0.642,4.208-0.514,19.925,0.006,23.069c0.541,3.293,2.413,5.544,5.687,6.457c3.42,0.96,19.885,0.736,23.571,0.332
		c4.015-0.444,6.665-2.916,7.276-6.906c0.619-4.031,0.502-18.696,0.095-22.444C67.933,34.994,65.466,32.341,61.481,31.725z
		 M49.991,61.725C43.519,61.722,38.272,56.471,38.275,50c0.006-6.476,5.257-11.719,11.728-11.713
		c6.473,0,11.719,5.248,11.713,11.724C61.716,56.487,56.465,61.729,49.991,61.725z M62.177,40.577c-1.516,0-2.743-1.232-2.737-2.751
		c0-1.512,1.233-2.739,2.751-2.737c1.518,0.003,2.74,1.239,2.734,2.752C64.922,39.358,63.691,40.583,62.177,40.577z"/>
	<circle fill="#FBFFFF" cx="49.992" cy="49.999" r="7.58"/>
	<path fill="#FBFFFF" d="M50,0C22.386,0,0,22.383,0,50c0,27.611,22.386,50,50,50s50-22.389,50-50C100,22.383,77.614,0,50,0z
		 M72.171,63.197c-1.367,5.204-4.752,8.293-10.014,9.141c-3.977,0.645-21.697,0.765-25.302-0.167
		c-5.212-1.34-8.314-4.71-9.183-9.967c-0.636-3.848-0.854-21.771,0.237-25.661c1.415-5.056,4.771-8.041,9.889-8.878
		c4.48-0.729,17.237-0.547,22.608-0.252c3.153,0.171,6.029,1.158,8.382,3.404c2.235,2.132,3.39,4.794,3.697,7.802
		C72.852,42.218,73.217,59.208,72.171,63.197z"/>
</g>
</svg>
