<?xml version="1.0" encoding="utf-8"?>
<!-- Generator: Adobe Illustrator 16.0.0, SVG Export Plug-In . SVG Version: 6.00 Build 0)  -->
<!DOCTYPE svg PUBLIC "-//W3C//DTD SVG 1.1//EN" "http://www.w3.org/Graphics/SVG/1.1/DTD/svg11.dtd">
<svg version="1.1" id="Capa_1" xmlns="http://www.w3.org/2000/svg" xmlns:xlink="http://www.w3.org/1999/xlink" x="0px" y="0px"
	 width="100px" height="100px" viewBox="0 0 100 100" enable-background="new 0 0 100 100" xml:space="preserve">
<path fill="#FBFFFF" d="M50,0C22.386,0,0,22.383,0,50c0,27.612,22.386,50,50,50s50-22.388,50-50C100,22.383,77.614,0,50,0z
	 M71.777,37.29c-0.999,1.234-2.141,2.311-3.415,3.248c-0.106,0.084-0.159,0.156-0.153,0.297c0.05,1.389-0.003,2.783-0.176,4.17
	c-0.363,2.916-1.178,5.701-2.422,8.363c-1.287,2.745-2.963,5.226-5.078,7.404c-3.577,3.697-7.891,6.086-12.908,7.193
	c-1.721,0.379-3.471,0.572-5.234,0.623c-5.415,0.158-10.418-1.187-15.027-4.035c-0.062-0.037-0.117-0.078-0.221-0.143
	c3.279,0.352,6.396-0.066,9.395-1.301c1.596-0.646,3.069-1.506,4.467-2.6c-4.879-0.174-7.932-3.672-8.741-6.518
	c1.362,0.26,2.698,0.206,4.029-0.123c0.033-0.006,0.067-0.031,0.134-0.062c-2.645-0.616-4.688-2.028-6.1-4.308
	c-0.943-1.518-1.393-3.176-1.378-4.998c1.322,0.709,2.7,1.1,4.18,1.142c-1.987-1.435-3.32-3.304-3.867-5.7
	c-0.536-2.391-0.187-4.66,1.01-6.803c5.087,5.99,11.523,9.271,19.375,9.816c-0.056-0.371-0.111-0.701-0.15-1.029
	c-0.263-2.211,0.179-4.272,1.372-6.143c1.493-2.34,3.628-3.799,6.367-4.246c3.159-0.516,5.918,0.383,8.223,2.617
	c0.156,0.154,0.285,0.198,0.503,0.154c1.931-0.42,3.753-1.119,5.466-2.102c0.039-0.025,0.081-0.047,0.123-0.064
	c0.008-0.006,0.021-0.006,0.061-0.006c-0.742,2.182-2.098,3.867-4.02,5.109c1.816-0.195,3.551-0.682,5.23-1.406
	c0.012,0.014,0.023,0.031,0.037,0.041C72.497,36.353,72.151,36.833,71.777,37.29z"/>
</svg>
