<?xml version="1.0" encoding="utf-8"?>
<!-- Generator: Adobe Illustrator 16.0.0, SVG Export Plug-In . SVG Version: 6.00 Build 0)  -->
<!DOCTYPE svg PUBLIC "-//W3C//DTD SVG 1.1//EN" "http://www.w3.org/Graphics/SVG/1.1/DTD/svg11.dtd">
<svg version="1.1" id="Capa_1" xmlns="http://www.w3.org/2000/svg" xmlns:xlink="http://www.w3.org/1999/xlink" x="0px" y="0px"
	 width="100px" height="100px" viewBox="0 0 100 100" enable-background="new 0 0 100 100" xml:space="preserve">
<path fill="#FBFFFF" d="M50,0C22.386,0,0,22.383,0,50c0,27.611,22.386,50,50,50s50-22.389,50-50C100,22.383,77.614,0,50,0z
	 M61.934,34.844c-0.237,0-0.413,0-0.586,0c-1.417,0.006-2.835-0.033-4.252,0.014c-1.937,0.07-3.376,0.81-3.446,3.234
	c-0.05,1.771-0.066,5.845-0.066,5.845s4.559,0.009,6.545,0c0.506,0,1.008,0,1.568,0c-0.365,2.824-0.717,5.533-1.074,8.271h-6.986
	v20.65h-8.563V52.174h-7.006v-8.231h7.048v-0.616c-0.003-1.655-0.036-3.307,0.006-4.961c0.027-1.052,0.075-2.124,0.257-3.161
	c0.438-2.512,1.596-4.638,3.699-6.15c1.836-1.316,3.935-1.855,6.155-1.902c1.454-0.033,2.91,0.039,4.361,0.104
	c0.792,0.036,1.585,0.147,2.341,0.22V34.844z"/>
</svg>
