<?xml version="1.0" encoding="utf-8"?>
<!-- Generator: Adobe Illustrator 16.0.0, SVG Export Plug-In . SVG Version: 6.00 Build 0)  -->
<!DOCTYPE svg PUBLIC "-//W3C//DTD SVG 1.1//EN" "http://www.w3.org/Graphics/SVG/1.1/DTD/svg11.dtd">
<svg version="1.1" id="Capa_1" xmlns="http://www.w3.org/2000/svg" xmlns:xlink="http://www.w3.org/1999/xlink" x="0px" y="0px"
	 width="100px" height="100px" viewBox="0 0 100 100" enable-background="new 0 0 100 100" xml:space="preserve">
<g>
	<path fill="#FBFFFF" d="M59.345,30.12H38.134c-5.042,0-9.303,4.264-9.303,9.303v21.211c0,5.041,4.261,9.305,9.303,9.305h21.211
		c5.039,0,9.302-4.261,9.302-9.305V39.423C68.646,34.384,64.386,30.12,59.345,30.12z M39.947,57.726c-4.292,0-7.788-3.454-7.788-7.7
		c0-4.241,3.496-7.695,7.788-7.695c4.291,0,7.784,3.454,7.784,7.695C47.726,54.271,44.238,57.726,39.947,57.726z M57.533,57.726
		c-4.291,0-7.781-3.454-7.781-7.7c0-4.241,3.49-7.695,7.781-7.695c4.289,0,7.782,3.454,7.782,7.695
		C65.315,54.271,61.822,57.726,57.533,57.726z"/>
	<path fill="#FBFFFF" d="M50,0C22.386,0,0,22.383,0,50c0,27.611,22.386,50,50,50s50-22.389,50-50C100,22.383,77.614,0,50,0z
		 M71.596,60.634c-0.003,6.641-5.61,12.248-12.254,12.248H38.134c-6.641,0-12.252-5.607-12.252-12.248V39.423
		c0-6.641,5.611-12.249,12.252-12.249h21.211c6.641,0,12.251,5.608,12.251,12.249V60.634z"/>
</g>
</svg>
