<?xml version="1.0" encoding="utf-8"?>
<!-- Generator: Adobe Illustrator 16.0.0, SVG Export Plug-In . SVG Version: 6.00 Build 0)  -->
<!DOCTYPE svg PUBLIC "-//W3C//DTD SVG 1.1//EN" "http://www.w3.org/Graphics/SVG/1.1/DTD/svg11.dtd">
<svg version="1.1" id="Capa_1" xmlns="http://www.w3.org/2000/svg" xmlns:xlink="http://www.w3.org/1999/xlink" x="0px" y="0px"
	 width="100px" height="100px" viewBox="0 0 100 100" enable-background="new 0 0 100 100" xml:space="preserve">
<g>
	<path fill="#FBFFFF" d="M50,0C22.386,0,0,22.383,0,50c0,27.611,22.386,50,50,50s50-22.389,50-50C100,22.383,77.614,0,50,0z
		 M54.049,72.313c-4.961,0.856-9.707,0.128-14.235-2.073c-0.402-0.201-0.972-0.257-1.401-0.151
		c-6.038,1.513-10.053,2.648-11.27,2.889c0.257-0.994,0.483-1.858,0.712-2.718c0.759-2.763,1.531-5.52,2.249-8.281
		c0.105-0.416,0.062-0.963-0.134-1.334C22.955,47.276,30.192,31.1,44.908,27.647c13.362-3.133,25.374,5.885,27.566,17.949
		C74.76,58.175,66.532,70.131,54.049,72.313z"/>
	<path fill="#FBFFFF" d="M46.669,31.094c-12.805,2.353-19.602,16.632-13.237,27.936c0.706,1.253,0.901,2.279,0.427,3.618
		c-0.566,1.602-0.915,3.276-1.406,5.09c2.269-0.586,4.364-1.11,6.432-1.693c0.589-0.159,1.041-0.073,1.557,0.226
		c3.926,2.26,8.131,3.105,12.626,2.38c10.341-1.657,17.428-11.339,15.849-21.644C67.274,36.319,57.257,29.154,46.669,31.094z
		 M56.013,60.751c-4.45-0.162-11.54-3.678-16.395-12.109c-1.725-2.997-1.474-6.415,1.052-8.762c0.854-0.798,1.922-0.603,2.927-0.436
		c0.245,0.039,0.502,0.419,0.628,0.695c0.645,1.471,1.283,2.943,1.844,4.45c0.299,0.798-0.248,1.546-1.4,2.871
		c-0.365,0.419-0.44,0.812-0.156,1.298c1.869,3.161,4.476,5.446,7.91,6.791c0.505,0.192,0.882,0.069,1.2-0.321
		c1.821-2.221,2.006-2.871,2.966-2.413c4.604,2.198,4.961,2.288,4.983,2.813C61.728,59.506,58.167,60.904,56.013,60.751z"/>
</g>
</svg>
