<?xml version="1.0" encoding="utf-8"?>
<!-- Generator: Adobe Illustrator 16.0.0, SVG Export Plug-In . SVG Version: 6.00 Build 0)  -->
<!DOCTYPE svg PUBLIC "-//W3C//DTD SVG 1.1//EN" "http://www.w3.org/Graphics/SVG/1.1/DTD/svg11.dtd">
<svg version="1.1" id="Capa_1" xmlns="http://www.w3.org/2000/svg" xmlns:xlink="http://www.w3.org/1999/xlink" x="0px" y="0px"
	 width="100px" height="100px" viewBox="0 0 100 100" enable-background="new 0 0 100 100" xml:space="preserve">
<g>
	<path fill="#FBFFFF" d="M44.369,56.895c4.741-2.461,9.437-4.899,14.196-7.363c-4.766-2.486-9.461-4.936-14.196-7.405
		C44.369,47.06,44.369,51.947,44.369,56.895z"/>
	<path fill="#FBFFFF" d="M50,0C22.386,0,0,22.383,0,50c0,27.611,22.386,50,50,50s50-22.389,50-50C100,22.383,77.614,0,50,0z
		 M71.396,62.338c-0.527,1.13-1.382,1.929-2.473,2.497c-2.938,1.543-33.211,1.526-37.076,0.249c-1.727-0.563-2.888-1.696-3.51-3.407
		C26.816,57.5,26.37,40.02,29.294,36.579c0.996-1.18,2.285-1.866,3.82-2.031c7.882-0.848,32.243-0.729,35.053,0.282
		c1.646,0.591,2.813,1.671,3.448,3.317C73.278,42.47,73.334,58.181,71.396,62.338z"/>
</g>
</svg>
